<svg id="Layer_1" data-name="Layer 1" xmlns="http://www.w3.org/2000/svg" viewBox="0 0 74.49 71.32"><title>home-stories</title><rect y="12.55" width="74.49" height="58.76" style="fill:#e028a5"/><text transform="translate(12.21 44.31)" style="font-size:8.57133960723877px;fill:#fff;font-family:OpenSans-Bold, Open Sans;font-weight:700">Community <tspan x="10.25" y="10.29">Stories</tspan></text><line x1="32.99" y1="26" x2="29.79" y2="34.17" style="fill:none;stroke:#00058b;stroke-miterlimit:10;stroke-width:1.28880413692941px"/><line x1="33.22" y1="26.05" x2="36.56" y2="34.17" style="fill:none;stroke:#00058b;stroke-miterlimit:10;stroke-width:1.28880413692941px"/><path d="M52.12,11.76h0a.79.79,0,0,0-.37.1l-5.31,3h0a3.16,3.16,0,0,0-3.15-3.16H26.51a3.17,3.17,0,0,0-3.16,3.16v8.43a3.16,3.16,0,0,0,3.16,3.15H43.27a3.16,3.16,0,0,0,3.15-3.15v-.36l5.3,3.33a.8.8,0,0,0,.4.11.74.74,0,0,0,.73-.74V12.5A.74.74,0,0,0,52.12,11.76Z" style="fill:#69bfff;stroke:#00058b;stroke-miterlimit:10;stroke-width:1.28880413692941px"/><circle cx="29.01" cy="8.53" r="5.88" style="fill:#1a8fe8;stroke:#00058b;stroke-miterlimit:10;stroke-width:1.28880413692941px"/><circle cx="41.69" cy="7.45" r="6.81" style="fill:#e028a5;stroke:#00058b;stroke-miterlimit:10;stroke-width:1.28880413692941px"/><circle cx="41.69" cy="7.45" r="2.61" style="fill:#f26bac;stroke:#00058b;stroke-miterlimit:10;stroke-width:1.28880413692941px"/><circle cx="29.01" cy="8.53" r="2.61" style="fill:#f26bac;stroke:#00058b;stroke-miterlimit:10;stroke-width:1.28880413692941px"/><line x1="46.42" y1="14.85" x2="46.42" y2="22.92" style="fill:none;stroke:#00058b;stroke-miterlimit:10;stroke-width:1.28880413692941px"/></svg>