<?xml version="1.0" encoding="utf-8"?>
<!-- Generator: Adobe Illustrator 23.0.6, SVG Export Plug-In . SVG Version: 6.00 Build 0)  -->
<svg version="1.1" id="Layer_1" xmlns="http://www.w3.org/2000/svg" xmlns:xlink="http://www.w3.org/1999/xlink" x="0px" y="0px"
	 viewBox="0 0 74.5 70.9" style="enable-background:new 0 0 74.5 70.9;" xml:space="preserve">
<style type="text/css">
	.st0{fill:#08BC99;}
	.st1{fill:#FFFFFF;}
	.st2{font-family:'OpenSans-Bold';}
	.st3{font-size:8.5713px;}
	.st4{fill:#69BFFF;stroke:#00058B;stroke-width:1.3369;stroke-miterlimit:10;}
	.st5{fill:#E028A5;stroke:#00058B;stroke-width:1.3369;stroke-miterlimit:10;}
	.st6{fill:#1A8FE8;stroke:#00058B;stroke-width:1.3369;stroke-miterlimit:10;}
</style>
<title>home-education</title>
<rect y="12.2" class="st0" width="74.5" height="58.8"/>
<text transform="matrix(1 0 0 1 15.74 44.08)" class="st1 st2 st3">Educación</text>
<text transform="matrix(1 0 0 1 13.89 54.37)" class="st1 st2 st3">Interactiva</text>
<path class="st4" d="M31.7,32c0,0,0.1-3.7,0-4.6s-3.6-4.6-3.6-4.6l11.9-9.1c0,0,10.5,0,10.6,0.5s1.1,6.2,0,7.6s-2.5,4.7-2.1,10.2"/>
<path class="st5" d="M60.4,8.6h-3.1v8.6h3.1c0.8,0,1.5-0.6,1.6-1.4c0,0,0,0,0,0V10C62,9.2,61.3,8.5,60.4,8.6z"/>
<path class="st5" d="M13.4,11.9l6.4-3.2c0.2-0.1,0.5,0,0.6,0.2c0,0.1,0,0.1,0.1,0.2v7.7c0,0.3-0.2,0.5-0.5,0.4c-0.1,0-0.1,0-0.1,0
	l-6.4-2.6c-0.8-0.3-1.2-1.1-0.9-1.9C12.7,12.3,13,12,13.4,11.9z"/>
<rect x="20.7" y="8.6" class="st6" width="36.6" height="8.6"/>
<path class="st4" d="M47.7,2.2h0.2c1.3,0,2.3,1.1,2.3,2.4v7.2c0,1.3-1.1,2.4-2.3,2.4h-0.2c-1.3,0-2.3-1.1-2.3-2.4V4.6
	C45.3,3.3,46.4,2.2,47.7,2.2z"/>
<path class="st4" d="M42.6,0.7h0.2c1.4,0,2.6,1.2,2.6,2.6v8.4c0,1.4-1.2,2.6-2.6,2.6h-0.2c-1.4,0-2.6-1.2-2.6-2.6V3.3
	C40,1.8,41.2,0.7,42.6,0.7z"/>
<path class="st4" d="M37.4,0.7h0.2c1.4,0,2.6,1.2,2.6,2.6v8.4c0,1.4-1.2,2.6-2.6,2.6h-0.2c-1.4,0-2.6-1.2-2.6-2.6V3.3
	C34.8,1.8,35.9,0.7,37.4,0.7z"/>
<path class="st4" d="M32,0.7h0.2c1.4,0,2.6,1.2,2.6,2.6v8.4c0,1.4-1.2,2.6-2.6,2.6H32c-1.4,0-2.6-1.2-2.6-2.6V3.3
	C29.4,1.8,30.6,0.7,32,0.7z"/>
<path class="st4" d="M32.5,27.9c-0.7-0.1-3.9-3.4-5.8-7.1c-1.6-3.1-2.6-8.3,1.7-10.6c3.5-1.9,8.9,0.5,8.7,2.6
	c-0.4,3.6-5.2,2.7-5.2,2.7c1.2,0.4,2.2,1.1,3,2c0.8,1.1,1.2,2.5,1,3.8"/>
</svg>
