<svg id="Layer_1" data-name="Layer 1" xmlns="http://www.w3.org/2000/svg" viewBox="0 0 335.28 383.35"><title>icon-play</title><g id="_2L9Og2.tif" data-name="2L9Og2.tif"><path d="M0,191.73q0-77.49,0-155C.1,21.19,6.6,9.37,21.35,3.07,32.87-1.84,44.16-.75,54.86,5.56q59.21,34.89,118.32,69.92c47.76,28.22,95.35,56.74,143.37,84.5,24.3,14.05,25.13,48.08,1.46,62.23s-47.22,28.16-70.87,42.15q-54.42,32.19-108.89,64.28c-28,16.52-55.87,33.16-83.92,49.54C29.85,392.46.16,375.54.08,347.21-.07,295.38,0,243.56,0,191.73Zm35.65-.38q0,73,0,146c0,7.39,3,9.11,9.32,5.39q34.87-20.52,69.71-41.13Q190,257,265.25,212.5c8.61-5.09,17.22-10.16,25.8-15.28,6.23-3.72,6.3-7.25.29-11-.7-.44-1.41-.88-2.13-1.3q-38.92-23-77.85-46Q142.95,98.44,74.51,58.07c-10-5.93-20.06-11.88-30.17-17.69-5.52-3.16-8.48-1.37-8.65,5,0,.67,0,1.33,0,2Q35.7,119.37,35.69,191.35Z"/></g></svg>