<svg id="Layer_1" data-name="Layer 1" xmlns="http://www.w3.org/2000/svg" viewBox="0 0 287.81 335.81"><title>icon-top</title><g id="sB6yC3.tif"><path d="M115.62,162.59c-1.31,1.23-2.66,2.42-3.92,3.69q-20.16,20.16-40.31,40.3a45,45,0,0,1-6.86,5.78,16.74,16.74,0,0,1-21.2-1.65c-4.55-4.15-8.87-8.56-13.14-13-7.61-7.95-7.59-18,.19-25.8C48.11,154,66,136.3,83.72,118.47q22.92-23,45.73-46.11c9-9.11,20-9,29,0,19,19.16,38.14,38.14,57.17,57.25q21,21.06,41.84,42.27c7.61,7.75,7.58,17.95.05,25.88-3.56,3.74-7.25,7.36-10.94,11-8.73,8.58-18.33,8.85-27.37.44-6.34-5.9-12.33-12.17-18.46-18.3Q188,178.21,175.3,165.46c-1-1-2.17-1.89-4.14-3.58-.17,2.73-.37,4.45-.37,6.17q0,71,0,142c0,2.83.11,5.68-.13,8.49-.89,10.2-8.31,17-18.58,17.22-5.16.08-10.33.05-15.5,0-11.91-.09-19.34-7.33-19.45-19.38-.15-18.16,0-36.33,0-54.5q0-46.74,0-93.49v-5.31Z"/><path d="M143.87,0q61.49,0,123,0c13.68,0,20.86,7.27,21,21.07q0,6.24,0,12.49c-.13,12.87-7.34,20.15-20.22,20.15q-99,.06-197.94,0c-16.66,0-33.33,0-50,0C7.47,53.66.12,46.21,0,34Q0,27.25,0,20.51C.09,7.39,7.37,0,20.41,0Q82.14,0,143.87,0Z"/></g></svg>