<svg id="Layer_1" data-name="Layer 1" xmlns="http://www.w3.org/2000/svg" viewBox="0 0 190.32 179.51"><title>icon-home</title><g id="yGZTwU.tif"><path d="M21.09,136.47c0-12.67,0-25.33,0-38,0-4.89.15-5,5.11-5h1c5.85,0,5.89,0,5.9,5.77q0,31.24,0,62.49c0,5.78,0,5.8,5.86,5.82,8,0,16,0,24,0,5.11,0,5.25-.16,5.26-5.41,0-13.84,0-27.67,0-41.5,0-6.21,0-6.24,6-6.24q21.25,0,42.5,0c5.22,0,5.37.16,5.39,5.3,0,14.17,0,28.33,0,42.5,0,5.21.14,5.33,5.31,5.36q12.26,0,24.5,0c5.15,0,5.3-.15,5.31-5.37q0-31,0-62a20.85,20.85,0,0,1,.21-4.48c.17-.78,1.11-1.92,1.78-2a40.71,40.71,0,0,1,8,0c.74.08,1.66,1.45,1.92,2.38a15.49,15.49,0,0,1,.15,4q0,36.49,0,73c0,6.43,0,6.46-6.2,6.46q-23.51,0-47,0c-6,0-6,0-6-6.16,0-13.67,0-27.34,0-41,0-6,0-6-6.18-6s-12.33,0-18.5,0c-4.87,0-5.09.24-5.1,5.09,0,13.66,0,27.33,0,41,0,1.34,0,2.67,0,4,0,2.05-1,3.07-3,3.06-2.83,0-5.66,0-8.5,0q-21.24,0-42.49,0c-5,0-5.09-.13-5.11-5C21.06,161.8,21.09,149.13,21.09,136.47Z"/><path d="M95.44,16.37a40.62,40.62,0,0,0-3.28,2.42c-6,5.47-12.11,10.93-18.07,16.5C61.44,47.12,48.86,59,36.22,70.86c-8.75,8.2-17.6,16.28-26.3,24.53-2.09,2-3.66,2-5.34-.22-5.48-7.06-6.9-4.87.53-11.71,8.57-7.9,17-15.94,25.52-23.9Q61.28,30.9,91.94,2.26c3.22-3,3.29-3,6.47,0q13.36,12.41,26.69,24.85,28.41,26.66,56.79,53.37c2.3,2.16,4.66,4.28,7.05,6.35,1.77,1.53,1.86,3,.13,4.59a2.92,2.92,0,0,0-.32.38c-5.1,6.59-5,6.53-11.13.83q-39.19-36.7-78.46-73.33C98.09,18.26,96.84,17.44,95.44,16.37Z"/><path d="M169.28,31.61c0,4.32.05,8.64,0,13s-.35,4.64-4.93,4.74c-6.81.16-7.06-.07-7.08-6.75,0-4,0-8,0-12-.06-4.94-.21-5.11-5-5.16s-9.31,0-14-.05c-3.9-.08-4.14-.41-4.31-4.36-.34-7.65-.31-7.69,7.5-7.69,7.64,0,15.28,0,22.92,0,4.55,0,4.79.3,4.86,4.79S169.28,27.12,169.28,31.61Z"/></g></svg>