<svg  xmlns="http://www.w3.org/2000/svg" viewBox="0 0 230.3 230.85"><title>icon-forwardBackwards</title><path d="M75.22,122.69c1.8,0,3.66.18,6.8.34-7.72,7.66-14.4,14.16-20.94,20.81-3.8,3.85-4,7.95-.8,11,3.34,3.25,7,3.11,11-.75q16.31-15.84,32.31-32c4.25-4.3,4.27-8.47.08-12.73Q87.37,92.82,70.81,76.48c-3.88-3.85-7.87-4-11-.94-3.36,3.32-3.25,7.55.56,11.44,5.82,6,11.78,11.78,17.64,17.7a30.66,30.66,0,0,1,2.35,3.09H53v14.92Z" transform="translate(0.05 0)"/><path d="M229,98.65c-5.24-37.1-25.26-65.1-58-83.37C142.41-.66,111.9-4.44,80.68,5.4,34,20.11,2.52,62,0,110.91c-.5,9.94,1.19,11.78,11.19,11.78H100V107.77H15.13a12,12,0,0,1-.14-2.16c5.1-36.7,23.08-65.17,56.86-81,66.56-31.18,140.83,15.48,143.23,87.18,0,1.12,0,2.23,0,3.35h15.11A124.62,124.62,0,0,0,229,98.65Z" transform="translate(0.05 0)"/><path d="M107.89,224.11c.38,4,2.63,5.95,7.21,6.15V215.75C110.08,216.63,107.47,219.79,107.89,224.11Z" transform="translate(0.05 0)"/><path d="M116.47,230.27c31.3-.93,58-12.8,79.88-34.93,22.48-22.77,34.13-49.75,33.89-80.2H215.13c.06,42.37-25.5,79.9-65.81,93.94-9.46,3.3-19.75,4.19-29.67,6.19-1.46.29-3,.21-4.46.46l-.09,0v14.51C115.54,230.28,116,230.28,116.47,230.27Z" transform="translate(0.05 0)"/><path d="M1,117.07c.93,31.3,12.8,58,34.93,79.88,22.77,22.49,49.75,34.14,80.2,33.9V215.73c-42.37.07-79.9-25.5-93.94-65.81C18.9,140.46,18,130.17,16,120.25c-.29-1.46-.21-3-.46-4.46a.24.24,0,0,1,0-.08H1C1,116.14,1,116.59,1,117.07Z" transform="translate(0.05 0)"/><path d="M143.62,109.8Q127.3,93.26,110.76,76.92c-3.88-3.85-7.87-4-11-.94-3.36,3.32-3.25,7.55.56,11.44,2.05,2.1,4.13,4.18,6.21,6.25L129,116.15l-7.31,7.31H122c-7.72,7.66-14.4,14.16-20.94,20.81-3.8,3.85-4,7.95-.8,11,3.34,3.25,7,3.11,11-.75q16.3-15.84,32.31-32C147.79,118.23,147.81,114.06,143.62,109.8Z" transform="translate(0.05 0)"/></svg>