<svg id="Layer_1" data-name="Layer 1" xmlns="http://www.w3.org/2000/svg" viewBox="0 0 293.69 202.56"><title>icon-install</title><g id="zyRhzm.tif"><path d="M146.54,202.35c-38.16,0-76.33-.47-114.48.2-19.62.35-33.27-13.63-32-32.41C.3,167,0,163.8.21,160.65c.35-4.86,2.84-7.2,7.67-7.38,3.33-.13,6.72.28,10-.23,1.33-.21,2.78-2,3.45-3.43.58-1.23.14-3,.14-4.45q0-60.48,0-121a58.18,58.18,0,0,1,.25-7C22.91,7.18,29.92.69,40,.12,41.36.05,42.7,0,44,0Q146.76,0,249.49,0c7.73,0,15,1.36,19.06,8.46a29.16,29.16,0,0,1,3.54,13.68c.26,41.32.15,82.65.16,124,0,7.1,0,7.1,7,7.11,14,0,14.56.56,14.44,14.73a69.73,69.73,0,0,1-1,13.41c-2.28,11-13.26,20.31-24.64,20.76-9.65.38-19.33.22-29,.23Q192.77,202.38,146.54,202.35Zm.56-14.13q57.74,0,115.48,0c5.82,0,11.53-1.09,14.26-6.43,1.89-3.72,2-8.54,2-12.86,0-.54-5.5-1.07-8.45-1.59a4.21,4.21,0,0,0-.5,0c-10,0-11.63-1.65-11.63-11.59v-132c0-8.23-1.37-9.61-9.6-9.61H45.16c-8.2,0-9.21,1-9.21,9.17V154.81c0,1.67.07,3.35-.07,5-.41,4.91-2.72,7.23-7.6,7.47-3.32.17-6.71-.25-10,.27A5.15,5.15,0,0,0,14.88,171c-1.14,10.75,5,17.21,16.24,17.22Q89.11,188.28,147.1,188.22Z"/><path d="M86.5,153.23c10.82,0,21.64.08,32.46,0,4.36-.05,7.24,1.48,8.87,5.72a5.16,5.16,0,0,0,3.88,2.52c10.15.21,20.31.23,30.46,0a5.53,5.53,0,0,0,4-2.92c1.37-3.4,3.58-5.2,7.11-5.2q34.22-.07,68.43,0c4.39,0,6.76,2.61,7,6.86s-2.94,7.1-7.82,7.13q-27,.15-53.94,0c-4.46,0-7.94.43-11.29,4.37-2.21,2.59-7,4-10.66,4.18-12,.51-24,.63-35.94,0-4.07-.23-8.62-2.54-11.75-5.28-2.52-2.19-4.58-3.22-7.73-3.2-17.15.08-34.3,0-51.45,0-1.33,0-2.67,0-4,0-5.54-.14-8.93-3-8.82-7.28s3.08-6.78,8.66-6.81C64.85,153.18,75.68,153.23,86.5,153.23Z"/><path d="M134.67,100.44c2.77-3.76,4.27-6.43,6.35-8.52q15.51-15.54,31.27-30.81c3.77-3.67,8.05-3.93,11-1s3,7.31-.76,11q-21,21-42.27,41.68c-3.85,3.76-8.11,3.76-11.94,0q-8.58-8.34-16.77-17.08c-3.4-3.63-3.27-7.68-.14-10.59s6.7-2.76,10.15.71C125.67,90,129.37,94.51,134.67,100.44Z"/></g></svg>