<?xml version="1.0" encoding="utf-8"?>
<!-- Generator: Adobe Illustrator 23.0.1, SVG Export Plug-In . SVG Version: 6.00 Build 0)  -->
<svg version="1.1" id="Layer_1" xmlns="http://www.w3.org/2000/svg" xmlns:xlink="http://www.w3.org/1999/xlink" x="0px" y="0px"
	 viewBox="0 0 202.4 127" style="enable-background:new 0 0 202.4 127;" xml:space="preserve">
<style type="text/css">
	.st0{fill:#FFFFFF;}
</style>
<title>icon-arrow</title>
<g>
	<path class="st0" d="M184.2,4c-5.3-5.3-9.5-5.3-14.8-0.1l-65.2,65.2c-2.7,2.7-2.7,2.7-5.4-0.1L78.7,48.9
		C63.5,33.6,48.2,18.3,32.9,3.1C29-0.8,24.1-1,20.3,2.6c-5.7,5.6-11.4,11.2-16.9,17c-1.5,1.6-2.2,4-3.4,6.2C1.1,28,1.8,30,3,31.5
		c1.9,2.3,4.2,4.3,6.3,6.4c8.3,8.2,16.5,16.5,24.7,24.7c6.6,6.7,13.1,13.5,19.8,20.1c8,8,16,16,24,24c5.8,5.8,11.5,11.7,17.5,17.2
		c4.8,4.4,8.7,4,13.3-0.6c8-8,16-16,24-24l24.7-24.7l24.9-24.9c5.8-5.8,11.5-11.6,17.3-17.2c4.3-4.2,3.5-10.1-0.3-13.6
		C194,14,189.2,8.9,184.2,4z"/>
</g>
</svg>
