<svg id="Layer_1" data-name="Layer 1" xmlns="http://www.w3.org/2000/svg" viewBox="0 0 216.23 166.23"><title>icon-contact</title><g id="ekGbk0.tif"><path d="M108.49,0q49.23,0,98.44,0c8.17,0,9.31,1.18,9.3,9.2q0,73.45,0,146.91c0,8.85-1.26,10.11-10.11,10.11q-98,0-195.88,0C1,166.23,0,165.22,0,155.83Q0,82.12,0,8.42C0,1.33,1.27,0,8.55,0Q58.53,0,108.49,0ZM12.36,20.72a28.2,28.2,0,0,0-.44,3q0,63-.08,125.92c0,4.41,2.33,4.71,5.71,4.7q90.45-.06,180.9.06c4.64,0,6-1.54,6-6-.13-40.81-.07-81.62-.09-122.43,0-1.5-.26-3-.46-5.26C202.05,22.21,201,23,200.08,24q-42.2,40.47-84.36,81c-7.09,6.8-8.14,6.81-15.06.16q-42.18-40.48-84.37-81C15.25,23.12,14.11,22.22,12.36,20.72Zm9.92-8.39a30.2,30.2,0,0,0,2.32,3.11q40.28,38.84,80.55,77.67c2.47,2.39,4,1.79,6.19-.3q39.87-38.52,79.83-77a29.46,29.46,0,0,0,2.61-3.52Z"/></g></svg>