<svg id="Layer_1" data-name="Layer 1" xmlns="http://www.w3.org/2000/svg" viewBox="0 0 129.39 128.91"><title>icon-faq</title><g id="n2BR7j.tif"><path d="M19.83,128.91c-.08-1.33-.17-2.26-.18-3.18,0-7.54-.07-15.07,0-22.6a7.11,7.11,0,0,0-2.45-5.76A53.62,53.62,0,0,1,1.3,69C-2.46,51.43,2,36,13.6,22.5,24,10.46,37.36,3.55,52.8,1.07,76.29-2.71,97,3.49,113.91,20.54A52.59,52.59,0,0,1,128.53,49.2c2.89,16.68-1.58,31.42-12.35,44.25a63,63,0,0,1-32.31,20.39A64.46,64.46,0,0,1,58.94,116,11.91,11.91,0,0,0,53.88,117c-10.54,3.7-21.05,7.48-31.58,11.23C21.63,128.5,20.93,128.63,19.83,128.91Zm11.9-26.37c0,2,0,4.1,0,6.14,0,3,.43,3.28,3.17,2.32,6.69-2.33,13.36-4.69,20.07-7a10.41,10.41,0,0,1,3.21-.42c4.87,0,9.79.38,14.61-.11a51.36,51.36,0,0,0,32-15.6c7.5-7.6,12-16.82,12.3-27.56.54-16.61-7-29.33-20.4-38.49-11.71-8-24.91-10.85-39-9.09S31.65,20.09,22.42,31.07c-7.55,9-11.14,19.34-10,31a41.38,41.38,0,0,0,14,27.29C30.63,93.19,33,96.9,31.73,102.54Z"/><path d="M64.73,70.69c-1.32,0-2.64,0-4,0-1.55.08-2.08-.63-2-2.11A22.73,22.73,0,0,1,67.36,52c2.31-1.9,4.48-3.69,4.22-7.15s-2.13-5.75-5.74-6.37c-3.42-.6-6.41.95-7.45,4.23-.57,1.75-1.45,2.21-3.16,2.12-2.55-.13-5.11-.09-7.67,0-1.62,0-2-.73-1.87-2.17,1.05-9,9-16.26,18.74-16.53A18.64,18.64,0,0,1,83.37,41.19c1.69,8-1,14.51-7.43,19.48-2.66,2.06-4.54,4.52-4.81,8-.12,1.55-.93,2.16-2.46,2.06C67.36,70.63,66,70.7,64.73,70.69Z"/><path d="M64.88,78.08c5.9,0,5.9,0,5.9,5.85,0,1.53,0,3.06,0,4.58,0,1.25-.43,1.91-1.77,1.89-2.84,0-5.68,0-8.52,0-1.18,0-1.75-.5-1.74-1.7,0-3,0-6,0-9,0-1.22.6-1.69,1.77-1.67C62,78.11,63.43,78.09,64.88,78.08Z"/></g></svg>