<svg id="Layer_1" data-name="Layer 1" xmlns="http://www.w3.org/2000/svg" viewBox="0 0 230.6 291.21"><title>photo-language-english</title><rect width="230.6" height="291.06" style="fill:#1a8fe8"/><polygon points="34.65 104.59 78.6 98.45 115.8 94.88 159.83 101.75 204.43 107.77 204.43 179.35 34.65 179.35 34.65 104.59" style="fill:#00058b"/><text transform="translate(58.84 24.64)" style="font-size:11.957429885864258px;fill:#fff;font-family:OpenSans-Bold, Open Sans;font-weight:700">English Proficiency <tspan x="38.03" y="14.35">Rising</tspan></text><polygon points="34.65 153.44 78.3 141.3 118.43 147.21 159.39 134.35 204.43 127.37 204.43 179.35 34.65 179.35 34.65 153.44" style="fill:#aa0076"/><rect x="49.82" y="248.39" width="12.96" height="12.96" style="fill:#aa0076"/><text transform="translate(70.12 257.02)" style="font-size:7.6969499588012695px;fill:#fff;font-family:OpenSans-Bold, Open Sans;font-weight:700">Speak English proficiently</text><rect x="49.82" y="225.32" width="12.96" height="12.96" style="fill:#00058b"/><text transform="translate(70.12 233.05)" style="font-size:7.6969499588012695px;fill:#fff;font-family:OpenSans-Bold, Open Sans;font-weight:700">Speak Spanish at home</text><text transform="translate(69.11 51.67)" style="font-size:7.6969499588012695px;fill:#fff;font-family:OpenSans-Bold, Open Sans;font-weight:700">(Percentage of Latinos)</text><line x1="34.68" y1="179.35" x2="34.68" y2="185.8" style="fill:none;stroke:#fff;stroke-linecap:round;stroke-miterlimit:10;stroke-width:1.05357344010321px"/><line x1="204.43" y1="179.35" x2="204.43" y2="185.8" style="fill:none;stroke:#fff;stroke-linecap:round;stroke-miterlimit:10;stroke-width:1.05357344010321px"/><line x1="119.56" y1="179.35" x2="119.56" y2="185.8" style="fill:none;stroke:#fff;stroke-linecap:round;stroke-miterlimit:10;stroke-width:1.05357344010321px"/><line x1="161.99" y1="179.35" x2="161.99" y2="185.8" style="fill:none;stroke:#fff;stroke-linecap:round;stroke-miterlimit:10;stroke-width:1.05357344010321px"/><line x1="77.12" y1="179.35" x2="77.12" y2="185.8" style="fill:none;stroke:#fff;stroke-linecap:round;stroke-miterlimit:10;stroke-width:1.05357344010321px"/><polyline points="212.42 179.35 34.65 179.35 34.65 71.36" style="fill:none;stroke:#fff;stroke-linecap:round;stroke-miterlimit:10;stroke-width:1.26428817836215px"/><text transform="translate(24.66 197.12)" style="font-size:9.482159614562988px;fill:#fff;font-family:OpenSans-Bold, Open Sans;font-weight:700">1980</text><text transform="translate(67.14 197.12)" style="font-size:9.482159614562988px;fill:#fff;font-family:OpenSans-Bold, Open Sans;font-weight:700">1990</text><text transform="translate(109.63 197.12)" style="font-size:9.482159614562988px;fill:#fff;font-family:OpenSans-Bold, Open Sans;font-weight:700">2000</text><text transform="translate(194.61 197.12)" style="font-size:9.482159614562988px;fill:#fff;font-family:OpenSans-Bold, Open Sans;font-weight:700">2013</text><text transform="translate(152.12 197.12)" style="font-size:9.482159614562988px;fill:#fff;font-family:OpenSans-Bold, Open Sans;font-weight:700">2010</text><line x1="34.65" y1="179.35" x2="28.37" y2="179.35" style="fill:#fff;stroke:#fff;stroke-linecap:round;stroke-miterlimit:10;stroke-width:0.506437122990497px"/><text transform="translate(11.77 174.81)" style="font-size:9.482159614562988px;fill:#fff;font-family:OpenSans-Bold, Open Sans;font-weight:700">50%</text><line x1="28.37" y1="150.15" x2="34.65" y2="150.15" style="fill:#fff;stroke:#fff;stroke-linecap:round;stroke-miterlimit:10;stroke-width:0.506437122990497px"/><text transform="translate(11.77 145.93)" style="font-size:9.482159614562988px;fill:#fff;font-family:OpenSans-Bold, Open Sans;font-weight:700">60%</text><line x1="28.37" y1="120.95" x2="34.65" y2="120.95" style="fill:#fff;stroke:#fff;stroke-linecap:round;stroke-miterlimit:10;stroke-width:0.506437122990497px"/><text transform="translate(11.77 117.04)" style="font-size:9.482159614562988px;fill:#fff;font-family:OpenSans-Bold, Open Sans;font-weight:700">70%</text><line x1="28.37" y1="91.76" x2="34.65" y2="91.76" style="fill:#fff;stroke:#fff;stroke-linecap:round;stroke-miterlimit:10;stroke-width:0.506437122990497px"/><text transform="translate(11.77 88.15)" style="font-size:9.482159614562988px;fill:#fff;font-family:OpenSans-Bold, Open Sans;font-weight:700">80%</text><text transform="translate(211.96 287.69)" style="font-size:12px;fill:#fff;font-family:OpenSans-Bold, Open Sans;font-weight:700">1</text></svg>