<svg id="Layer_1" data-name="Layer 1" xmlns="http://www.w3.org/2000/svg" viewBox="0 0 230.78 297.02"><title>photo-economics-poverty</title><rect width="230.78" height="296.12" style="fill:#00058b"/><polyline points="36.02 94.82 50.82 93.21 63.92 91.66 77.35 94.5 91.87 92.96 105.35 92.89 119.77 92.27 133.15 91.81 147.31 84.24 161.07 83.3 174.76 82.91 188.65 82.54 188.65 184.38 35.89 184.52 36.02 94.82" style="fill:#e028a5"/><polyline points="35.89 108.28 49.3 106.7 63.92 109.43 76.74 109.43 91.6 114.24 105.48 111.3 119.44 104.82 132.42 93.21 147.26 88.29 161.6 91.08 174.47 89.05 188.65 97.91 188.65 183.82 35.89 184.52 35.89 108.28" style="fill:#fcf0fa"/><polygon points="36.38 141.43 48.47 140.07 63.35 140.07 77.33 139.66 91.33 139.43 103.22 139.07 119.16 137.45 131.43 134.82 146.99 129.49 159.68 130.61 174.85 132.03 188.65 132.63 188.65 183.82 36.38 183.95 36.38 141.43" style="fill:#ff66d7"/><polyline points="36.38 147.56 49.3 143.59 64.1 149.32 77.35 144.43 91.87 147.56 104.31 147.34 119.16 143.13 131.97 142.01 146.5 140.7 159.68 143.13 174.97 144.65 188.65 147.62 188.65 183.82 36.38 183.82 36.38 147.56" style="fill:#aa0076"/><text transform="translate(75.7 29.44)" style="font-size:10px;fill:#fff;font-family:OpenSans-Bold, Open Sans;font-weight:700">Poverty and the <tspan x="-28.23" y="12">Hispanic/Latino population</tspan></text><line x1="133.1" y1="184.52" x2="133.1" y2="188.36" style="fill:none;stroke:#fff;stroke-linecap:round;stroke-miterlimit:10;stroke-width:0.385872533444309px"/><line x1="174.76" y1="184.52" x2="174.76" y2="188.36" style="fill:none;stroke:#fff;stroke-linecap:round;stroke-miterlimit:10;stroke-width:0.385872533444309px"/><line x1="188.65" y1="184.52" x2="188.65" y2="188.36" style="fill:none;stroke:#fff;stroke-linecap:round;stroke-miterlimit:10;stroke-width:0.385872533444309px"/><line x1="119.21" y1="184.52" x2="119.21" y2="188.36" style="fill:none;stroke:#fff;stroke-linecap:round;stroke-miterlimit:10;stroke-width:0.385872533444309px"/><line x1="105.33" y1="184.52" x2="105.33" y2="188.36" style="fill:none;stroke:#fff;stroke-linecap:round;stroke-miterlimit:10;stroke-width:0.385872533444309px"/><line x1="91.44" y1="184.52" x2="91.44" y2="188.36" style="fill:none;stroke:#fff;stroke-linecap:round;stroke-miterlimit:10;stroke-width:0.385872533444309px"/><line x1="63.67" y1="184.52" x2="63.67" y2="188.36" style="fill:none;stroke:#fff;stroke-linecap:round;stroke-miterlimit:10;stroke-width:0.385872533444309px"/><line x1="160.87" y1="184.52" x2="160.87" y2="188.36" style="fill:none;stroke:#fff;stroke-linecap:round;stroke-miterlimit:10;stroke-width:0.385872533444309px"/><line x1="146.99" y1="184.52" x2="146.99" y2="188.36" style="fill:none;stroke:#fff;stroke-linecap:round;stroke-miterlimit:10;stroke-width:0.385872533444309px"/><line x1="77.55" y1="184.52" x2="77.55" y2="188.36" style="fill:none;stroke:#fff;stroke-linecap:round;stroke-miterlimit:10;stroke-width:0.385872533444309px"/><line x1="49.78" y1="184.52" x2="49.78" y2="188.36" style="fill:none;stroke:#fff;stroke-linecap:round;stroke-miterlimit:10;stroke-width:0.385872533444309px"/><line x1="35.89" y1="184.52" x2="35.89" y2="188.36" style="fill:none;stroke:#fff;stroke-linecap:round;stroke-miterlimit:10;stroke-width:0.385872533444309px"/><polyline points="35.94 153.95 49.01 152.82 63.79 151.58 76.74 152.76 91.68 152.82 104.69 153 119.41 153.45 131.75 151.99 146.87 150.28 160.45 148.78 174.76 149.97 188.65 151.43 188.65 183.82 35.89 184.52" style="fill:#f15a24"/><line x1="30.47" y1="91.81" x2="35.44" y2="91.81" style="fill:none;stroke:#fff;stroke-linecap:round;stroke-miterlimit:10;stroke-width:0.400825502157211px"/><line x1="30.47" y1="73.29" x2="35.44" y2="73.29" style="fill:none;stroke:#fff;stroke-linecap:round;stroke-miterlimit:10;stroke-width:0.400825502157211px"/><line x1="30.47" y1="110.32" x2="35.44" y2="110.32" style="fill:none;stroke:#fff;stroke-linecap:round;stroke-miterlimit:10;stroke-width:0.400825502157211px"/><line x1="30.47" y1="128.84" x2="35.44" y2="128.84" style="fill:none;stroke:#fff;stroke-linecap:round;stroke-miterlimit:10;stroke-width:0.400825502157211px"/><line x1="30.47" y1="147.35" x2="35.44" y2="147.35" style="fill:none;stroke:#fff;stroke-linecap:round;stroke-miterlimit:10;stroke-width:0.400825502157211px"/><line x1="30.47" y1="165.87" x2="35.44" y2="165.87" style="fill:none;stroke:#fff;stroke-linecap:round;stroke-miterlimit:10;stroke-width:0.400825502157211px"/><line x1="30.28" y1="184.38" x2="35.25" y2="184.38" style="fill:none;stroke:#fff;stroke-linecap:round;stroke-miterlimit:10;stroke-width:0.400825502157211px"/><polyline points="35.89 66.84 35.89 184.52 194.89 184.52" style="fill:none;stroke:#fff;stroke-linecap:round;stroke-miterlimit:10;stroke-width:1.1288765197961px"/><text transform="translate(31.2 196.38)" style="font-size:8px;fill:#fff;font-family:OpenSans-Bold, Open Sans;font-weight:700">‘02</text><text transform="translate(22.75 154.1)" style="font-size:7px;fill:#fff;font-family:OpenSans-Bold, Open Sans;font-weight:700">10</text><text transform="translate(22.75 117.21)" style="font-size:7px;fill:#fff;font-family:OpenSans-Bold, Open Sans;font-weight:700">20</text><text transform="translate(22.75 79.85)" style="font-size:7px;fill:#fff;font-family:OpenSans-Bold, Open Sans;font-weight:700">30</text><text transform="translate(58.83 196.38)" style="font-size:8px;fill:#fff;font-family:OpenSans-Bold, Open Sans;font-weight:700">‘04</text><text transform="translate(86.45 196.38)" style="font-size:8px;fill:#fff;font-family:OpenSans-Bold, Open Sans;font-weight:700">‘06</text><text transform="translate(114.08 196.38)" style="font-size:8px;fill:#fff;font-family:OpenSans-Bold, Open Sans;font-weight:700">‘08</text><text transform="translate(141.7 196.38)" style="font-size:8px;fill:#fff;font-family:OpenSans-Bold, Open Sans;font-weight:700">‘10</text><text transform="translate(169.33 196.38)" style="font-size:8px;fill:#fff;font-family:OpenSans-Bold, Open Sans;font-weight:700">‘12</text><rect x="49.16" y="224.86" width="9.03" height="9.03" style="fill:#e028a5"/><text transform="translate(60.15 232.58)" style="font-size:8px;fill:#fff;font-family:OpenSans-Bold, Open Sans;font-weight:700">Black</text><rect x="100.44" y="224.86" width="9.03" height="9.03" style="fill:#fcf0fa"/><text transform="translate(112.23 232.57)" style="font-size:8px;fill:#fff;font-family:OpenSans-Bold, Open Sans;font-weight:700">Hispanic</text><rect x="157.28" y="224.86" width="9.03" height="9.03" style="fill:#ff66d7"/><text transform="translate(170.04 232.44)" style="font-size:8px;fill:#fff;font-family:OpenSans-Bold, Open Sans;font-weight:700">All</text><rect x="49.16" y="251.12" width="9.03" height="9.03" style="fill:#aa0076"/><text transform="translate(60.15 258.31)" style="font-size:8px;fill:#fff;font-family:OpenSans-Bold, Open Sans;font-weight:700">Asian</text><rect x="100.44" y="251.12" width="9.03" height="9.03" style="fill:#f15a24"/><text transform="translate(112.23 258.31)" style="font-size:8px;fill:#fff;font-family:OpenSans-Bold, Open Sans;font-weight:700">White</text><text transform="translate(211.03 293.5)" style="font-size:12px;fill:#fff;font-family:OpenSans-Bold, Open Sans;font-weight:700">2</text></svg>