<svg id="Layer_1" data-name="Layer 1" xmlns="http://www.w3.org/2000/svg" viewBox="0 0 230.76 285.99"><title>photo-immigration-numberschart</title><rect width="230.76" height="285.99" style="fill:#c1e8f7"/><line x1="37.44" y1="196.81" x2="205.5" y2="196.81" style="fill:#69bfff;stroke:#69bfff;stroke-miterlimit:10;stroke-width:0.5px;opacity:0.4"/><line x1="37.44" y1="185.97" x2="205.5" y2="185.97" style="fill:#69bfff;stroke:#69bfff;stroke-miterlimit:10;stroke-width:0.5px;opacity:0.4"/><line x1="37.1" y1="175.14" x2="205.17" y2="175.14" style="fill:#69bfff;stroke:#69bfff;stroke-miterlimit:10;stroke-width:0.5px;opacity:0.4"/><line x1="37.1" y1="164.31" x2="205.17" y2="164.31" style="fill:#69bfff;stroke:#69bfff;stroke-miterlimit:10;stroke-width:0.5px;opacity:0.4"/><line x1="37.1" y1="153.47" x2="205.17" y2="153.47" style="fill:#69bfff;stroke:#69bfff;stroke-miterlimit:10;stroke-width:0.5px;opacity:0.4"/><line x1="37.09" y1="142.64" x2="205.15" y2="142.64" style="fill:#69bfff;stroke:#69bfff;stroke-miterlimit:10;stroke-width:0.5px;opacity:0.4"/><line x1="36.76" y1="131.8" x2="204.82" y2="131.8" style="fill:#69bfff;stroke:#69bfff;stroke-miterlimit:10;stroke-width:0.5px;opacity:0.4"/><line x1="36.76" y1="120.97" x2="204.82" y2="120.97" style="fill:#69bfff;stroke:#69bfff;stroke-miterlimit:10;stroke-width:0.5px;opacity:0.4"/><line x1="36.76" y1="110.14" x2="204.82" y2="110.14" style="fill:#69bfff;stroke:#69bfff;stroke-miterlimit:10;stroke-width:0.5px;opacity:0.4"/><line x1="132.86" y1="208.12" x2="132.86" y2="211.96" style="fill:none;stroke:#00058b;stroke-linecap:round;stroke-miterlimit:10;stroke-width:0.385872533444309px"/><line x1="98.54" y1="208.12" x2="98.54" y2="211.96" style="fill:none;stroke:#00058b;stroke-linecap:round;stroke-miterlimit:10;stroke-width:0.385872533444309px"/><line x1="64.21" y1="208.12" x2="64.21" y2="211.96" style="fill:none;stroke:#00058b;stroke-linecap:round;stroke-miterlimit:10;stroke-width:0.385872533444309px"/><line x1="91.67" y1="207.64" x2="91.67" y2="219.84" style="fill:none;stroke:#00058b;stroke-linecap:round;stroke-miterlimit:10;stroke-width:0.687836115085114px"/><line x1="36.76" y1="207.64" x2="36.76" y2="219.84" style="fill:none;stroke:#00058b;stroke-linecap:round;stroke-miterlimit:10;stroke-width:0.687836115085114px"/><line x1="146.59" y1="207.64" x2="146.59" y2="219.84" style="fill:none;stroke:#00058b;stroke-linecap:round;stroke-miterlimit:10;stroke-width:0.687836115085114px"/><line x1="187.78" y1="207.64" x2="187.78" y2="219.84" style="fill:none;stroke:#00058b;stroke-linecap:round;stroke-miterlimit:10;stroke-width:0.687836115085114px"/><line x1="167.19" y1="208.12" x2="167.19" y2="211.96" style="fill:none;stroke:#00058b;stroke-linecap:round;stroke-miterlimit:10;stroke-width:0.385872533444309px"/><line x1="77.94" y1="208.12" x2="77.94" y2="211.96" style="fill:none;stroke:#00058b;stroke-linecap:round;stroke-miterlimit:10;stroke-width:0.385872533444309px"/><line x1="50.48" y1="208.12" x2="50.48" y2="211.96" style="fill:none;stroke:#00058b;stroke-linecap:round;stroke-miterlimit:10;stroke-width:0.385872533444309px"/><line x1="180.92" y1="208.12" x2="180.92" y2="211.96" style="fill:none;stroke:#00058b;stroke-linecap:round;stroke-miterlimit:10;stroke-width:0.385872533444309px"/><line x1="119.13" y1="208.12" x2="119.13" y2="211.96" style="fill:none;stroke:#00058b;stroke-linecap:round;stroke-miterlimit:10;stroke-width:0.385872533444309px"/><line x1="84.81" y1="208.12" x2="84.81" y2="211.96" style="fill:none;stroke:#00058b;stroke-linecap:round;stroke-miterlimit:10;stroke-width:0.385872533444309px"/><line x1="57.35" y1="208.12" x2="57.35" y2="211.96" style="fill:none;stroke:#00058b;stroke-linecap:round;stroke-miterlimit:10;stroke-width:0.385872533444309px"/><line x1="153.46" y1="208.12" x2="153.46" y2="211.96" style="fill:none;stroke:#00058b;stroke-linecap:round;stroke-miterlimit:10;stroke-width:0.385872533444309px"/><line x1="174.05" y1="208.12" x2="174.05" y2="211.96" style="fill:none;stroke:#00058b;stroke-linecap:round;stroke-miterlimit:10;stroke-width:0.385872533444309px"/><line x1="112.27" y1="208.12" x2="112.27" y2="211.96" style="fill:none;stroke:#00058b;stroke-linecap:round;stroke-miterlimit:10;stroke-width:0.385872533444309px"/><line x1="139.73" y1="208.12" x2="139.73" y2="211.96" style="fill:none;stroke:#00058b;stroke-linecap:round;stroke-miterlimit:10;stroke-width:0.385872533444309px"/><line x1="160.32" y1="208.12" x2="160.32" y2="211.96" style="fill:none;stroke:#00058b;stroke-linecap:round;stroke-miterlimit:10;stroke-width:0.385872533444309px"/><line x1="105.4" y1="208.12" x2="105.4" y2="211.96" style="fill:none;stroke:#00058b;stroke-linecap:round;stroke-miterlimit:10;stroke-width:0.385872533444309px"/><line x1="201.51" y1="208.12" x2="201.51" y2="211.96" style="fill:none;stroke:#00058b;stroke-linecap:round;stroke-miterlimit:10;stroke-width:0.385872533444309px"/><line x1="194.65" y1="208.12" x2="194.65" y2="211.96" style="fill:none;stroke:#00058b;stroke-linecap:round;stroke-miterlimit:10;stroke-width:0.385872533444309px"/><line x1="126" y1="208.12" x2="126" y2="211.96" style="fill:none;stroke:#00058b;stroke-linecap:round;stroke-miterlimit:10;stroke-width:0.385872533444309px"/><line x1="71.08" y1="208.12" x2="71.08" y2="211.96" style="fill:none;stroke:#00058b;stroke-linecap:round;stroke-miterlimit:10;stroke-width:0.385872533444309px"/><line x1="43.62" y1="208.12" x2="43.62" y2="211.96" style="fill:none;stroke:#00058b;stroke-linecap:round;stroke-miterlimit:10;stroke-width:0.385872533444309px"/><polyline points="36.77 94.93 36.77 207.64 205.5 207.64" style="fill:none;stroke:#00058b;stroke-linecap:round;stroke-miterlimit:10;stroke-width:1.20000004768372px"/><text transform="translate(30.44 227.16)" style="font-size:8px;fill:#00058b;font-family:OpenSans-Bold, Open Sans;font-weight:700">1904</text><text transform="translate(80.64 228.66)" style="font-size:8px;fill:#00058b;font-family:OpenSans-Bold, Open Sans;font-weight:700">1925</text><text transform="translate(136.55 228.66)" style="font-size:8px;fill:#00058b;font-family:OpenSans-Bold, Open Sans;font-weight:700">1946</text><text transform="translate(177.86 228.66)" style="font-size:8px;fill:#00058b;font-family:OpenSans-Bold, Open Sans;font-weight:700">1964</text><line x1="24.78" y1="196.81" x2="36.77" y2="196.81" style="fill:none;stroke:#00058b;stroke-linecap:round;stroke-miterlimit:10;stroke-width:0.75px"/><text transform="translate(20.87 162.29)" style="font-size:8px;fill:#00058b;font-family:OpenSans-Bold, Open Sans;font-weight:700">5</text><line x1="31.09" y1="185.97" x2="37.05" y2="185.97" style="fill:none;stroke:#00058b;stroke-linecap:round;stroke-miterlimit:10;stroke-width:0.480685165090045px"/><text transform="translate(18.59 107.71)" style="font-size:8px;fill:#00058b;font-family:OpenSans-Bold, Open Sans;font-weight:700">10</text><line x1="31.09" y1="175.14" x2="37.05" y2="175.14" style="fill:none;stroke:#00058b;stroke-linecap:round;stroke-miterlimit:10;stroke-width:0.480685165090045px"/><text transform="translate(20.87 205.21)" style="font-size:8px;fill:#00058b;font-family:OpenSans-Bold, Open Sans;font-weight:700">1</text><line x1="24.78" y1="153.47" x2="36.77" y2="153.47" style="fill:none;stroke:#00058b;stroke-linecap:round;stroke-miterlimit:10;stroke-width:0.75px"/><line x1="31.09" y1="131.8" x2="37.05" y2="131.8" style="fill:none;stroke:#00058b;stroke-linecap:round;stroke-miterlimit:10;stroke-width:0.480685165090045px"/><line x1="31.09" y1="164.31" x2="37.05" y2="164.31" style="fill:none;stroke:#00058b;stroke-linecap:round;stroke-miterlimit:10;stroke-width:0.480685165090045px"/><line x1="31.09" y1="142.64" x2="37.05" y2="142.64" style="fill:none;stroke:#00058b;stroke-linecap:round;stroke-miterlimit:10;stroke-width:0.480685165090045px"/><line x1="31.09" y1="120.97" x2="37.05" y2="120.97" style="fill:none;stroke:#00058b;stroke-linecap:round;stroke-miterlimit:10;stroke-width:0.480685165090045px"/><line x1="24.78" y1="99.3" x2="36.77" y2="99.3" style="fill:none;stroke:#00058b;stroke-linecap:round;stroke-miterlimit:10;stroke-width:0.75px"/><line x1="31.09" y1="110.14" x2="37.05" y2="110.14" style="fill:none;stroke:#00058b;stroke-linecap:round;stroke-miterlimit:10;stroke-width:0.480685165090045px"/><text transform="translate(44.8 50.2)" style="font-size:11.135890007019043px;fill:#00058b;font-family:OpenSans-Bold, Open Sans;font-weight:700">Mexican Immigrants to the <tspan x="37.71" y="13.36">United States </tspan><tspan x="5.15" y="26.73">(1904-1967, in thousands)</tspan></text><rect x="37.44" y="205.39" width="1.63" height="1.66" style="fill:#662d91"/><rect x="40.19" y="203.53" width="1.63" height="3.52" style="fill:#662d91"/><rect x="42.95" y="203.96" width="1.63" height="3.09" style="fill:#662d91"/><rect x="45.7" y="205.39" width="1.63" height="1.66" style="fill:#662d91"/><rect x="109.05" y="203.7" width="1.63" height="3.34" style="fill:#662d91"/><rect x="111.81" y="204.11" width="1.63" height="2.93" style="fill:#662d91"/><rect x="114.56" y="205.39" width="1.63" height="1.66" style="fill:#662d91"/><rect x="133.84" y="204.11" width="1.63" height="2.93" style="fill:#662d91"/><rect x="142.11" y="198.87" width="1.63" height="8.18" style="fill:#662d91"/><rect x="144.86" y="198.87" width="1.63" height="8.18" style="fill:#662d91"/><rect x="147.62" y="198.59" width="1.63" height="8.46" style="fill:#662d91"/><rect x="150.37" y="198.87" width="1.63" height="8.18" style="fill:#662d91"/><rect x="158.63" y="198.87" width="1.63" height="8.18" style="fill:#662d91"/><rect x="161.39" y="200.21" width="1.63" height="6.83" style="fill:#662d91"/><rect x="153.12" y="197.51" width="1.63" height="9.54" style="fill:#662d91"/><rect x="164.14" y="197.51" width="1.63" height="9.54" style="fill:#662d91"/><rect x="166.9" y="186.9" width="1.63" height="20.15" style="fill:#662d91"/><rect x="169.65" y="174.56" width="1.63" height="32.48" style="fill:#662d91"/><rect x="180.67" y="181.55" width="1.63" height="25.5" style="fill:#662d91"/><rect x="186.18" y="174.18" width="1.63" height="32.87" style="fill:#662d91"/><rect x="197.19" y="173.36" width="1.63" height="33.68" style="fill:#662d91"/><rect x="188.93" y="163.34" width="1.63" height="43.71" style="fill:#662d91"/><rect x="199.95" y="164.62" width="1.63" height="42.43" style="fill:#662d91"/><rect x="191.69" y="147.33" width="1.63" height="59.72" style="fill:#662d91"/><rect x="194.44" y="147.33" width="1.63" height="59.72" style="fill:#662d91"/><rect x="183.42" y="183.84" width="1.63" height="23.2" style="fill:#662d91"/><rect x="172.4" y="162.33" width="1.63" height="44.72" style="fill:#662d91"/><rect x="177.91" y="154.13" width="1.63" height="52.91" style="fill:#662d91"/><rect x="175.16" y="140.77" width="1.63" height="66.28" style="fill:#662d91"/><rect x="155.88" y="197.93" width="1.63" height="9.12" style="fill:#662d91"/><rect x="136.6" y="205.39" width="1.63" height="1.66" style="fill:#662d91"/><rect x="131.09" y="204.25" width="1.63" height="2.8" style="fill:#662d91"/><rect x="128.33" y="204.59" width="1.63" height="2.46" style="fill:#662d91"/><rect x="139.35" y="205.39" width="1.63" height="1.66" style="fill:#662d91"/><rect x="117.32" y="205.39" width="1.63" height="1.66" style="fill:#662d91"/><rect x="120.07" y="205.98" width="1.63" height="1.06" style="fill:#662d91"/><rect x="122.83" y="205.76" width="1.63" height="1.29" style="fill:#662d91"/><rect x="125.58" y="205.39" width="1.63" height="1.66" style="fill:#662d91"/><rect x="48.46" y="202.52" width="1.63" height="4.53" style="fill:#662d91"/><rect x="53.96" y="186.77" width="1.63" height="20.28" style="fill:#662d91"/><rect x="51.21" y="188.45" width="1.63" height="18.6" style="fill:#662d91"/><rect x="56.72" y="186.57" width="1.63" height="20.48" style="fill:#662d91"/><rect x="59.47" y="184.29" width="1.63" height="22.76" style="fill:#662d91"/><rect x="62.23" y="195.76" width="1.63" height="11.29" style="fill:#662d91"/><rect x="106.3" y="195.76" width="1.63" height="11.29" style="fill:#662d91"/><rect x="64.98" y="194.61" width="1.63" height="12.43" style="fill:#662d91"/><rect x="67.74" y="195.26" width="1.63" height="11.79" style="fill:#662d91"/><rect x="70.49" y="188.03" width="1.63" height="19.01" style="fill:#662d91"/><rect x="73.25" y="188.46" width="1.63" height="18.59" style="fill:#662d91"/><rect x="76" y="187.19" width="1.63" height="19.85" style="fill:#662d91"/><rect x="87.02" y="187.19" width="1.63" height="19.85" style="fill:#662d91"/><rect x="78.75" y="175.87" width="1.63" height="31.17" style="fill:#662d91"/><rect x="84.26" y="175.87" width="1.63" height="31.17" style="fill:#662d91"/><rect x="81.51" y="152.11" width="1.63" height="54.94" style="fill:#662d91"/><rect x="89.77" y="141.04" width="1.63" height="66.01" style="fill:#662d91"/><rect x="100.79" y="144.08" width="1.63" height="62.97" style="fill:#662d91"/><rect x="98.04" y="136.75" width="1.63" height="70.29" style="fill:#662d91"/><rect x="95.28" y="161.85" width="1.63" height="45.19" style="fill:#662d91"/><rect x="103.54" y="165.68" width="1.63" height="41.36" style="fill:#662d91"/><rect x="92.53" y="110.43" width="1.63" height="96.61" style="fill:#662d91"/><text transform="translate(213.18 276.92)" style="font-size:12px;fill:#00058b;font-family:OpenSans-Bold, Open Sans;font-weight:700">2</text></svg>