<svg id="Layer_1" data-name="Layer 1" xmlns="http://www.w3.org/2000/svg" viewBox="0 0 230.69 376.86"><title>photo-education-attainmentChart</title><rect width="230.69" height="376.86" style="fill:#fcee21"/><polygon points="60.25 95.9 60.13 95.9 50.71 95.9 50.71 125.47 60.13 125.47 60.25 125.47 69.67 125.47 69.67 95.9 60.25 95.9" style="fill:#1a8fe8"/><polygon points="126.64 95.9 126.58 95.9 117.15 95.9 117.09 95.9 107.67 95.9 107.61 95.9 98.18 95.9 98.12 95.9 88.7 95.9 88.64 95.9 79.21 95.9 79.15 95.9 69.67 95.9 69.67 125.47 79.15 125.47 79.21 125.47 88.64 125.47 88.7 125.47 98.12 125.47 98.18 125.47 107.61 125.47 107.67 125.47 117.09 125.47 117.15 125.47 126.58 125.47 126.64 125.47 136.12 125.47 136.12 95.9 126.64 95.9" style="fill:#08bc99"/><polygon points="107.94 189.22 107.94 189.22 98.41 189.22 98.4 189.22 88.87 189.22 88.86 189.22 79.33 189.22 79.32 189.22 69.79 189.22 69.79 189.22 60.25 189.22 60.25 189.22 50.71 189.22 50.71 218.79 60.25 218.79 60.25 218.79 69.79 218.79 69.79 218.79 79.32 218.79 79.33 218.79 88.86 218.79 88.87 218.79 98.4 218.79 98.41 218.79 107.94 218.79 107.94 218.79 117.48 218.79 117.48 189.22 107.94 189.22" style="fill:#1a8fe8"/><polygon points="174.71 189.22 174.7 189.22 165.17 189.22 165.17 189.22 155.63 189.22 155.63 189.22 146.09 189.22 146.09 189.22 136.56 189.22 136.55 189.22 127.02 189.22 127.01 189.22 117.48 189.22 117.48 218.79 127.01 218.79 127.02 218.79 136.55 218.79 136.56 218.79 146.09 218.79 146.09 218.79 155.63 218.79 155.63 218.79 165.17 218.79 165.17 218.79 174.7 218.79 174.71 218.79 184.25 218.79 184.25 189.22 174.71 189.22" style="fill:#08bc99"/><polygon points="88.93 282.55 88.92 282.55 79.4 282.55 79.39 282.55 69.86 282.55 69.86 282.55 60.33 282.55 60.32 282.55 50.79 282.55 50.79 312.11 60.32 312.11 60.33 312.11 69.86 312.11 69.86 312.11 79.39 312.11 79.4 312.11 88.92 312.11 88.93 312.11 98.47 312.11 98.47 282.55 88.93 282.55" style="fill:#1a8fe8"/><polygon points="117.54 282.55 117.53 282.55 108 282.55 107.99 282.55 98.46 282.55 98.46 312.11 107.99 312.11 108 312.11 117.53 312.11 117.54 312.11 127.07 312.11 127.07 282.55 117.54 282.55" style="fill:#08bc99"/><polygon points="174.79 235.88 174.78 235.88 165.25 235.88 165.25 235.88 155.71 235.88 155.71 235.88 146.18 235.88 146.17 235.88 136.63 235.88 136.63 265.45 146.17 265.45 146.18 265.45 155.71 265.45 155.71 265.45 165.25 265.45 165.25 265.45 174.78 265.45 174.79 265.45 184.33 265.45 184.33 235.88 174.79 235.88" style="fill:#08bc99"/><polygon points="127.1 235.88 127.09 235.88 117.56 235.88 117.56 235.88 108.02 235.88 108.02 235.88 98.48 235.88 98.48 235.88 88.95 235.88 88.94 235.88 79.41 235.88 79.4 235.88 69.87 235.88 69.87 235.88 60.33 235.88 60.33 235.88 50.79 235.88 50.79 265.45 60.33 265.45 60.33 265.45 69.87 265.45 69.87 265.45 79.4 265.45 79.41 265.45 88.94 265.45 88.95 265.45 98.48 265.45 98.48 265.45 108.02 265.45 108.02 265.45 117.56 265.45 117.56 265.45 127.09 265.45 127.1 265.45 136.64 265.45 136.64 235.88 127.1 235.88" style="fill:#1a8fe8"/><polygon points="117.41 142.56 117.39 142.56 107.88 142.56 107.87 142.56 98.36 142.56 98.34 142.56 88.83 142.56 88.81 142.56 79.29 142.56 79.29 172.13 88.81 172.13 88.83 172.13 98.34 172.13 98.36 172.13 107.87 172.13 107.88 172.13 117.39 172.13 117.41 172.13 126.94 172.13 126.94 142.56 117.41 142.56" style="fill:#08bc99"/><polygon points="69.78 142.56 69.76 142.56 60.25 142.56 60.24 142.56 50.71 142.56 50.71 172.13 60.24 172.13 60.25 172.13 69.76 172.13 69.78 172.13 79.31 172.13 79.31 142.56 69.78 142.56" style="fill:#1a8fe8"/><text transform="translate(50.66 34.25)" style="font-size:9.652310371398926px;fill:#00058b;font-family:OpenSans-Bold, Open Sans;font-weight:700">Educational Attainment by <tspan x="20.19" y="11.58">Race and Ethnicity</tspan><tspan x="36.33" y="23.17">(in millions)</tspan></text><circle cx="160.41" cy="111" r="15.91" style="fill:#fff"/><line x1="50.17" y1="314.44" x2="50.17" y2="94.11" style="fill:none;stroke:#00058b;stroke-linecap:round;stroke-miterlimit:10;stroke-width:1.2259738455603px"/><text transform="translate(30.28 105.92)" style="font-size:8px;fill:#00058b;font-family:OpenSans-Bold, Open Sans;font-weight:700">Less <tspan x="-17" y="9.6">than 9th </tspan><tspan x="-5.57" y="19.2">grade</tspan></text><text transform="translate(29.14 196.9)" style="font-size:8px;fill:#00058b;font-family:OpenSans-Bold, Open Sans;font-weight:700">High <tspan x="-7.36" y="9.6">school </tspan><tspan x="-18" y="19.2">graduate</tspan></text><text transform="translate(25.54 247.13)" style="font-size:8px;fill:#00058b;font-family:OpenSans-Bold, Open Sans;font-weight:700">Some <tspan x="-5.98" y="9.6">college</tspan></text><text transform="translate(18.57 292.88)" style="font-size:8px;fill:#00058b;font-family:OpenSans-Bold, Open Sans;font-weight:700">College <tspan x="-7.43" y="9.6">graduate</tspan></text><text transform="translate(13.74 154.62)" style="font-size:8px;fill:#00058b;font-family:OpenSans-Bold, Open Sans;font-weight:700">9th-12th <tspan x="10.96" y="9.6">grade</tspan></text><rect x="37.26" y="336.98" width="12.52" height="12.52" style="fill:#1a8fe8"/><rect x="112.54" y="336.98" width="12.52" height="12.52" style="fill:#08bc99"/><text transform="translate(53 346.61)" style="font-size:9px;fill:#00058b;font-family:OpenSans-Bold, Open Sans;font-weight:700">U.S. born</text><text transform="translate(132.21 346.32)" style="font-size:9px;fill:#00058b;font-family:OpenSans-Bold, Open Sans;font-weight:700">Foreign born</text><rect x="50.71" y="99.59" width="18.44" height="10.09" style="fill:#fff"/><text transform="translate(51.91 107.24)" style="font-size:9.19480037689209px;fill:#1a8fe8;font-family:OpenSans-Bold, Open Sans;font-weight:700">.94</text><rect x="69.67" y="113.34" width="20.17" height="9.12" style="fill:#fff"/><text transform="translate(72.57 120.87)" style="font-size:9.19480037689209px;fill:#08bc99;font-family:OpenSans-Bold, Open Sans;font-weight:700">5.1</text><rect x="50.71" y="146.18" width="25.21" height="9.12" style="fill:#fff"/><text transform="translate(54.13 153.9)" style="font-size:9.19480037689209px;fill:#1a8fe8;font-family:OpenSans-Bold, Open Sans;font-weight:700">1.60</text><rect x="79.3" y="158.75" width="26.86" height="9.12" style="fill:#fff"/><text transform="translate(83.55 166.78)" style="font-size:9.19480037689209px;fill:#08bc99;font-family:OpenSans-Bold, Open Sans;font-weight:700">2.66</text><rect x="50.71" y="193.18" width="25.34" height="9.12" style="fill:#fff"/><text transform="translate(54.2 200.9)" style="font-size:9.19480037689209px;fill:#1a8fe8;font-family:OpenSans-Bold, Open Sans;font-weight:700">3.75</text><rect x="117.48" y="205.24" width="26.34" height="9.12" style="fill:#fff"/><text transform="translate(121.46 212.96)" style="font-size:9.19480037689209px;fill:#08bc99;font-family:OpenSans-Bold, Open Sans;font-weight:700">3.95</text><rect x="50.79" y="240.14" width="26.73" height="9.12" style="fill:#fff"/><text transform="translate(54.63 247.86)" style="font-size:9.19480037689209px;fill:#1a8fe8;font-family:OpenSans-Bold, Open Sans;font-weight:700">4.31</text><rect x="136.63" y="251.65" width="28.1" height="9.12" style="fill:#fff"/><text transform="translate(141.5 259.37)" style="font-size:9.19480037689209px;fill:#08bc99;font-family:OpenSans-Bold, Open Sans;font-weight:700">2.50</text><rect x="50.79" y="286.16" width="28.6" height="9.12" style="fill:#fff"/><text transform="translate(55.9 293.88)" style="font-size:9.19480037689209px;fill:#1a8fe8;font-family:OpenSans-Bold, Open Sans;font-weight:700">2.33</text><rect x="98.47" y="298.57" width="25.21" height="9.12" style="fill:#fff"/><text transform="translate(101.89 306.29)" style="font-size:9.19480037689209px;fill:#08bc99;font-family:OpenSans-Bold, Open Sans;font-weight:700">1.70</text><text transform="translate(148.68 113.87)" style="font-size:8.096779823303223px;fill:#00058b;font-family:OpenSans-Bold, Open Sans;font-weight:700">21.1%</text><circle cx="148.26" cy="156.99" r="15.91" style="fill:#fff"/><text transform="translate(136.53 159.86)" style="font-size:8.096779823303223px;fill:#00058b;font-family:OpenSans-Bold, Open Sans;font-weight:700">14.7%</text><circle cx="204.69" cy="201.58" r="15.91" style="fill:#fff"/><text transform="translate(192.96 204.45)" style="font-size:8.096779823303223px;fill:#00058b;font-family:OpenSans-Bold, Open Sans;font-weight:700">26.6%</text><circle cx="204.69" cy="251.65" r="15.91" style="fill:#fff"/><text transform="translate(192.96 254.52)" style="font-size:8.096779823303223px;fill:#00058b;font-family:OpenSans-Bold, Open Sans;font-weight:700">23.6%</text><circle cx="148.54" cy="296.19" r="15.91" style="fill:#fff"/><text transform="translate(136.81 299.05)" style="font-size:8.096779823303223px;fill:#00058b;font-family:OpenSans-Bold, Open Sans;font-weight:700">13.9%</text><text transform="translate(212.3 372.05)" style="font-size:12px;fill:#00058b;font-family:OpenSans-Bold, Open Sans;font-weight:700">1</text></svg>