<svg id="Layer_1" data-name="Layer 1" xmlns="http://www.w3.org/2000/svg" viewBox="0 0 230.61 368.5"><title>photo-language-bubbles</title><rect width="230.61" height="368.5" style="fill:#1a8fe8"/><circle cx="171.43" cy="134.02" r="51.03" style="fill:#00058b"/><circle cx="77.73" cy="78.23" r="62.76" style="fill:#aa0076"/><circle cx="84.51" cy="209.61" r="74.13" style="fill:#69bfff"/><circle cx="152.97" cy="300.03" r="52.72" style="fill:#662d91"/><text transform="translate(48.16 47.79)" style="font-size:11.350469589233398px;fill:#fff;font-family:OpenSans-Semibold, Open Sans;font-weight:600">Speaking a <tspan x="-16.31" y="11.35">second language </tspan><tspan x="4.04" y="22.7">improves </tspan><tspan x="-16.22" y="34.05">problem-solving, </tspan><tspan x="-16.63" y="45.4">multitasking and </tspan><tspan x="-15.17" y="56.75">decision-making</tspan></text><text transform="translate(111.85 285.35)" style="font-size:10.404600143432617px;fill:#fff;font-family:OpenSans-Semibold, Open Sans;font-weight:600">Bilingualism can <tspan x="7.22" y="11.35">improve your </tspan><tspan x="-0.15" y="22.7">competitiveness </tspan><tspan x="17.29" y="34.05">in the job </tspan><tspan x="22.7" y="45.4">market</tspan></text><path d="M53.41,173.77H52.08v-7H49.7v-1.14h6.09v1.14H53.41Z" style="fill:#00058b"/><path d="M62.29,173.77H61V170a1.64,1.64,0,0,0-.29-1.06,1.1,1.1,0,0,0-.9-.35,1.44,1.44,0,0,0-1.21.49,2.75,2.75,0,0,0-.38,1.64v3H56.89v-8.62H58.2v2.19c0,.35,0,.73-.07,1.13h.08a1.82,1.82,0,0,1,.74-.69,2.45,2.45,0,0,1,1.11-.25,2,2,0,0,1,2.23,2.25Z" style="fill:#00058b"/><path d="M66.78,173.89a3,3,0,0,1-2.24-.84,3.15,3.15,0,0,1-.81-2.3,3.48,3.48,0,0,1,.75-2.36,2.61,2.61,0,0,1,2.06-.86,2.54,2.54,0,0,1,1.92.74,2.81,2.81,0,0,1,.7,2v.7H65.08a2,2,0,0,0,.48,1.38,1.71,1.71,0,0,0,1.28.47,4.61,4.61,0,0,0,1-.1,5.46,5.46,0,0,0,1-.34v1.06a3.94,3.94,0,0,1-1,.32A6.1,6.1,0,0,1,66.78,173.89Zm-.24-5.37a1.33,1.33,0,0,0-1,.39,1.92,1.92,0,0,0-.44,1.15h2.78a1.7,1.7,0,0,0-.37-1.15A1.24,1.24,0,0,0,66.54,168.52Z" style="fill:#00058b"/><path d="M76.66,168.63H75.17v5.14H73.86v-5.14h-1V168l1-.4v-.4a2.24,2.24,0,0,1,.51-1.61,2.13,2.13,0,0,1,1.56-.52,4.21,4.21,0,0,1,1.35.23l-.34,1a3.15,3.15,0,0,0-.92-.15.76.76,0,0,0-.65.27,1.45,1.45,0,0,0-.2.83v.4h1.49Zm1-2.61a.73.73,0,0,1,.19-.54.78.78,0,0,1,.55-.18.76.76,0,0,1,.53.18.73.73,0,0,1,.19.54.72.72,0,0,1-.19.53.76.76,0,0,1-.53.19.78.78,0,0,1-.55-.19A.72.72,0,0,1,77.63,166ZM79,173.77h-1.3v-6.12H79Z" style="fill:#00058b"/><path d="M86.27,173.77H85V170a1.64,1.64,0,0,0-.28-1.06,1.13,1.13,0,0,0-.91-.35,1.44,1.44,0,0,0-1.21.49,2.71,2.71,0,0,0-.38,1.63v3.05h-1.3v-6.12h1l.18.8h.07a1.79,1.79,0,0,1,.78-.68,2.63,2.63,0,0,1,1.13-.24,2,2,0,0,1,2.21,2.25Z" style="fill:#00058b"/><path d="M91.92,173.77l-.26-.85h0a2.43,2.43,0,0,1-.89.76,2.72,2.72,0,0,1-1.15.21,2,2,0,0,1-1.41-.49,1.83,1.83,0,0,1-.51-1.38,1.62,1.62,0,0,1,.7-1.43,4.1,4.1,0,0,1,2.15-.53l1.06,0v-.33a1.27,1.27,0,0,0-.28-.88,1.12,1.12,0,0,0-.85-.29,3,3,0,0,0-.9.14,5.52,5.52,0,0,0-.83.33l-.42-.93a4.16,4.16,0,0,1,1.09-.4,5,5,0,0,1,1.12-.14,2.64,2.64,0,0,1,1.76.51,2,2,0,0,1,.6,1.61v4.12ZM90,172.89a1.6,1.6,0,0,0,1.14-.4,1.45,1.45,0,0,0,.43-1.11v-.53l-.79,0a2.69,2.69,0,0,0-1.34.31A.93.93,0,0,0,89,172a.79.79,0,0,0,.25.63A1,1,0,0,0,90,172.89Z" style="fill:#00058b"/><path d="M100.06,173.77H98.75V170a1.58,1.58,0,0,0-.29-1.06,1.1,1.1,0,0,0-.9-.35,1.44,1.44,0,0,0-1.21.49,2.71,2.71,0,0,0-.38,1.63v3.05h-1.3v-6.12h1l.18.8h.06a1.88,1.88,0,0,1,.79-.68,2.63,2.63,0,0,1,1.13-.24,2,2,0,0,1,2.21,2.25Z" style="fill:#00058b"/><path d="M104.34,173.89a2.69,2.69,0,0,1-2.11-.82,4.12,4.12,0,0,1,0-4.7,2.8,2.8,0,0,1,2.19-.84,3.93,3.93,0,0,1,1.74.37l-.39,1a4,4,0,0,0-1.36-.32c-1.06,0-1.59.7-1.59,2.11a2.55,2.55,0,0,0,.39,1.55,1.37,1.37,0,0,0,1.16.52,3.33,3.33,0,0,0,1.65-.43v1.13a2.46,2.46,0,0,1-.75.3A4.35,4.35,0,0,1,104.34,173.89Z" style="fill:#00058b"/><path d="M107.41,166a.65.65,0,0,1,.74-.72.72.72,0,0,1,.53.18.73.73,0,0,1,.2.54.67.67,0,0,1-.73.72.78.78,0,0,1-.55-.19A.76.76,0,0,1,107.41,166Zm1.38,7.75h-1.3v-6.12h1.3Z" style="fill:#00058b"/><path d="M114.49,173.77l-.26-.85h0a2.53,2.53,0,0,1-.9.76,2.72,2.72,0,0,1-1.15.21,2,2,0,0,1-1.41-.49,1.83,1.83,0,0,1-.51-1.38,1.62,1.62,0,0,1,.71-1.43,4.06,4.06,0,0,1,2.14-.53l1.06,0v-.33a1.27,1.27,0,0,0-.27-.88,1.15,1.15,0,0,0-.85-.29,3,3,0,0,0-.91.14,6,6,0,0,0-.83.33l-.42-.93a4.29,4.29,0,0,1,1.09-.4,5.12,5.12,0,0,1,1.12-.14,2.67,2.67,0,0,1,1.77.51,2,2,0,0,1,.59,1.61v4.12Zm-1.94-.88a1.6,1.6,0,0,0,1.14-.4,1.41,1.41,0,0,0,.43-1.11v-.53l-.79,0a2.72,2.72,0,0,0-1.34.31.92.92,0,0,0-.41.84.82.82,0,0,0,.24.63A1,1,0,0,0,112.55,172.89Z" style="fill:#00058b"/><path d="M118.54,173.77h-1.3v-8.62h1.3Z" style="fill:#00058b"/><path d="M41.78,178.89a3,3,0,0,1,.65.05l-.13,1.21a2.78,2.78,0,0,0-.58-.06,1.65,1.65,0,0,0-1.26.51,1.81,1.81,0,0,0-.49,1.32v3.21h-1.3V179h1l.17,1.08h.07a2.38,2.38,0,0,1,.79-.87A1.86,1.86,0,0,1,41.78,178.89Z" style="fill:#00058b"/><path d="M46.24,185.24A3,3,0,0,1,44,184.4a3.19,3.19,0,0,1-.8-2.3,3.48,3.48,0,0,1,.75-2.36,2.56,2.56,0,0,1,2-.85,2.53,2.53,0,0,1,1.92.73,2.81,2.81,0,0,1,.7,2v.7H44.54a2,2,0,0,0,.48,1.38,1.67,1.67,0,0,0,1.28.48,4.6,4.6,0,0,0,1-.11,5.46,5.46,0,0,0,1-.34v1.06a3.94,3.94,0,0,1-1,.32A6,6,0,0,1,46.24,185.24ZM46,179.87a1.28,1.28,0,0,0-1,.4,1.86,1.86,0,0,0-.45,1.14h2.78a1.7,1.7,0,0,0-.36-1.15A1.26,1.26,0,0,0,46,179.87Z" style="fill:#00058b"/><path d="M52.39,184.18a3.19,3.19,0,0,0,1-.15v1a2.1,2.1,0,0,1-.56.16,3.2,3.2,0,0,1-.7.07q-1.86,0-1.86-2V180h-.83v-.57l.9-.48.44-1.3h.8V179h1.75v1H51.53v3.28a.91.91,0,0,0,.24.7A.86.86,0,0,0,52.39,184.18Z" style="fill:#00058b"/><path d="M58.89,185.13l-.18-.81h-.07a1.8,1.8,0,0,1-.77.67,2.66,2.66,0,0,1-1.15.25,2.23,2.23,0,0,1-1.66-.56,2.28,2.28,0,0,1-.55-1.68v-4h1.31v3.78a1.64,1.64,0,0,0,.29,1.05,1.07,1.07,0,0,0,.9.35,1.44,1.44,0,0,0,1.21-.49,2.65,2.65,0,0,0,.39-1.64V179h1.3v6.13Z" style="fill:#00058b"/><path d="M64.88,178.89a3,3,0,0,1,.65.05l-.13,1.21a2.78,2.78,0,0,0-.58-.06,1.65,1.65,0,0,0-1.26.51,1.81,1.81,0,0,0-.49,1.32v3.21h-1.3V179h1l.17,1.08H63a2.38,2.38,0,0,1,.79-.87A1.86,1.86,0,0,1,64.88,178.89Z" style="fill:#00058b"/><path d="M72.06,185.13H70.75v-3.77a1.64,1.64,0,0,0-.29-1.06,1.1,1.1,0,0,0-.9-.35,1.43,1.43,0,0,0-1.21.49,2.64,2.64,0,0,0-.38,1.63v3.06H66.66V179h1l.19.8h.06a1.88,1.88,0,0,1,.79-.68,2.63,2.63,0,0,1,1.13-.23,2,2,0,0,1,2.21,2.24Z" style="fill:#00058b"/><path d="M78,183.38a1.6,1.6,0,0,1-.66,1.38,3.11,3.11,0,0,1-1.87.48,4.4,4.4,0,0,1-2-.38v-1.12a4.87,4.87,0,0,0,2,.5c.81,0,1.21-.24,1.21-.73a.6.6,0,0,0-.14-.39,1.64,1.64,0,0,0-.43-.32,8.73,8.73,0,0,0-.85-.37,4.08,4.08,0,0,1-1.44-.82,1.58,1.58,0,0,1-.37-1.07,1.39,1.39,0,0,1,.64-1.22,3,3,0,0,1,1.72-.43,5,5,0,0,1,2,.43l-.42,1a4.67,4.67,0,0,0-1.67-.41c-.69,0-1,.2-1,.59A.59.59,0,0,0,75,181a6.27,6.27,0,0,0,1.17.55,4.86,4.86,0,0,1,1.1.54,1.5,1.5,0,0,1,.51.56A1.61,1.61,0,0,1,78,183.38Z" style="fill:#00058b"/><path d="M87.78,182.05a3.35,3.35,0,0,1-.77,2.34,2.74,2.74,0,0,1-2.15.85,2.9,2.9,0,0,1-1.51-.39,2.58,2.58,0,0,1-1-1.12,3.71,3.71,0,0,1-.35-1.68,3.34,3.34,0,0,1,.76-2.33,2.77,2.77,0,0,1,2.16-.83,2.69,2.69,0,0,1,2.1.85A3.3,3.3,0,0,1,87.78,182.05Zm-4.46,0c0,1.41.52,2.12,1.57,2.12s1.55-.71,1.55-2.12-.52-2.1-1.56-2.1a1.33,1.33,0,0,0-1.19.54A2.73,2.73,0,0,0,83.32,182.05Z" style="fill:#00058b"/><path d="M92.35,180H90.86v5.15H89.55V180h-1v-.61l1-.4v-.4a2.24,2.24,0,0,1,.51-1.61,2.12,2.12,0,0,1,1.55-.52,4.27,4.27,0,0,1,1.36.23l-.35,1a3,3,0,0,0-.92-.15.74.74,0,0,0-.64.27,1.38,1.38,0,0,0-.2.83v.4h1.49Z" style="fill:#00058b"/><path d="M100.46,183.38a1.62,1.62,0,0,1-.65,1.38,3.14,3.14,0,0,1-1.88.48,4.35,4.35,0,0,1-2-.38v-1.12a4.87,4.87,0,0,0,2,.5c.8,0,1.2-.24,1.2-.73a.59.59,0,0,0-.13-.39,1.72,1.72,0,0,0-.44-.32,7.76,7.76,0,0,0-.85-.37,4.12,4.12,0,0,1-1.43-.82,1.54,1.54,0,0,1-.38-1.07,1.41,1.41,0,0,1,.64-1.22,3,3,0,0,1,1.73-.43,4.88,4.88,0,0,1,2,.43l-.42,1a4.62,4.62,0,0,0-1.67-.41c-.69,0-1,.2-1,.59a.59.59,0,0,0,.27.49,6.63,6.63,0,0,0,1.17.55,4.65,4.65,0,0,1,1.1.54,1.5,1.5,0,0,1,.51.56A1.61,1.61,0,0,1,100.46,183.38Z" style="fill:#00058b"/><path d="M105,185.24a2.15,2.15,0,0,1-1.81-.84h-.08c0,.52.08.83.08.94v2.51h-1.3V179h1c0,.11.09.38.18.82h.07a2,2,0,0,1,1.83-.93,2.13,2.13,0,0,1,1.79.83,4.55,4.55,0,0,1,0,4.67A2.15,2.15,0,0,1,105,185.24Zm-.32-5.29a1.35,1.35,0,0,0-1.13.45,2.37,2.37,0,0,0-.36,1.46v.19a2.9,2.9,0,0,0,.35,1.62,1.32,1.32,0,0,0,1.16.5,1.16,1.16,0,0,0,1-.55,2.82,2.82,0,0,0,.37-1.58,2.77,2.77,0,0,0-.36-1.56A1.22,1.22,0,0,0,104.66,180Z" style="fill:#00058b"/><path d="M111.62,185.24a3,3,0,0,1-2.24-.84,3.15,3.15,0,0,1-.81-2.3,3.48,3.48,0,0,1,.75-2.36,2.6,2.6,0,0,1,2.06-.85,2.53,2.53,0,0,1,1.92.73,2.81,2.81,0,0,1,.7,2v.7h-4.08a2,2,0,0,0,.48,1.38,1.67,1.67,0,0,0,1.28.48,4.6,4.6,0,0,0,1-.11,5.46,5.46,0,0,0,1-.34v1.06a3.94,3.94,0,0,1-1,.32A6.1,6.1,0,0,1,111.62,185.24Zm-.24-5.37a1.29,1.29,0,0,0-1,.4,1.86,1.86,0,0,0-.44,1.14h2.78a1.7,1.7,0,0,0-.37-1.15A1.24,1.24,0,0,0,111.38,179.87Z" style="fill:#00058b"/><path d="M119.32,185.13l-.27-.86h0a2.41,2.41,0,0,1-.89.76,2.77,2.77,0,0,1-1.16.21,2,2,0,0,1-1.41-.49,1.87,1.87,0,0,1-.5-1.38,1.62,1.62,0,0,1,.7-1.43,4.1,4.1,0,0,1,2.15-.53l1.06,0v-.33a1.27,1.27,0,0,0-.28-.88,1.13,1.13,0,0,0-.85-.29,3,3,0,0,0-.9.14,6.1,6.1,0,0,0-.84.33l-.42-.93a4.36,4.36,0,0,1,1.1-.4,4.92,4.92,0,0,1,1.11-.13,2.65,2.65,0,0,1,1.77.51,2,2,0,0,1,.6,1.6v4.13Zm-1.94-.89a1.56,1.56,0,0,0,1.13-.4,1.41,1.41,0,0,0,.43-1.11v-.53l-.78,0a2.69,2.69,0,0,0-1.34.31.93.93,0,0,0-.42.84.82.82,0,0,0,.24.63A1.07,1.07,0,0,0,117.38,184.24Z" style="fill:#00058b"/><path d="M123.32,181.89l.74-.92,1.85-2h1.5L125,181.63l2.62,3.5H126l-2-2.69-.71.58v2.11h-1.3V176.5h1.3v4.21l-.07,1.18Z" style="fill:#00058b"/><path d="M128,182.64v-1.11h2.85v1.11Z" style="fill:#00058b"/><path d="M41.74,188.72a.69.69,0,0,1,.19-.53.74.74,0,0,1,.55-.19.7.7,0,0,1,.53.19.69.69,0,0,1,.19.53.72.72,0,0,1-.19.53.74.74,0,0,1-.53.19.78.78,0,0,1-.55-.19A.72.72,0,0,1,41.74,188.72Zm1.38,7.76h-1.3v-6.13h1.3Z" style="fill:#00058b"/><path d="M50.38,196.48H49.07v-3.77a1.64,1.64,0,0,0-.29-1.06,1.1,1.1,0,0,0-.9-.35,1.43,1.43,0,0,0-1.21.49,2.64,2.64,0,0,0-.38,1.63v3.06H45v-6.13h1l.19.8h.06a1.88,1.88,0,0,1,.79-.68,2.63,2.63,0,0,1,1.13-.23,2,2,0,0,1,2.21,2.24Z" style="fill:#00058b"/><path d="M57.36,190.35v.71l-1,.2a1.87,1.87,0,0,1,.24.47,2,2,0,0,1,.09.6,1.85,1.85,0,0,1-.65,1.49,2.77,2.77,0,0,1-1.81.54,2.93,2.93,0,0,1-.53,0,.73.73,0,0,0-.42.61.35.35,0,0,0,.2.32,1.71,1.71,0,0,0,.72.1h1.07a2.36,2.36,0,0,1,1.54.43A1.54,1.54,0,0,1,57.3,197a1.82,1.82,0,0,1-.86,1.61,4.58,4.58,0,0,1-2.48.56,3.41,3.41,0,0,1-1.92-.44,1.44,1.44,0,0,1-.66-1.26,1.32,1.32,0,0,1,.36-.95,1.9,1.9,0,0,1,1-.54.93.93,0,0,1-.43-.36.89.89,0,0,1-.17-.51.92.92,0,0,1,.2-.59,2.38,2.38,0,0,1,.57-.47,1.77,1.77,0,0,1-.77-.67,1.92,1.92,0,0,1-.3-1.08,2,2,0,0,1,.63-1.55,2.69,2.69,0,0,1,1.8-.54l.54,0a3.39,3.39,0,0,1,.43.08Zm-4.81,7.08a.71.71,0,0,0,.38.65,2.1,2.1,0,0,0,1.07.23,3.26,3.26,0,0,0,1.58-.31.9.9,0,0,0,.52-.81.62.62,0,0,0-.28-.57,2.36,2.36,0,0,0-1.07-.17h-1a1.35,1.35,0,0,0-.89.27A.85.85,0,0,0,52.55,197.43Zm.56-5.1a1.29,1.29,0,0,0,.29.89,1.17,1.17,0,0,0,.86.31c.75,0,1.13-.41,1.13-1.21a1.38,1.38,0,0,0-.28-.92,1.06,1.06,0,0,0-.85-.33,1.11,1.11,0,0,0-.86.32A1.39,1.39,0,0,0,53.11,192.33Z" style="fill:#00058b"/><path d="M63.73,195.53a3.2,3.2,0,0,0,1-.15v1a2.22,2.22,0,0,1-.56.16,3.29,3.29,0,0,1-.71.07c-1.23,0-1.85-.65-1.85-2v-3.31h-.84v-.57l.9-.48.45-1.3h.8v1.37h1.74v1H62.88v3.28a1,1,0,0,0,.23.7A.87.87,0,0,0,63.73,195.53Z" style="fill:#00058b"/><path d="M70.94,196.48l-.8-2.86c-.09-.31-.26-1-.52-2.12h-.05q-.31,1.5-.51,2.13l-.81,2.85H66.81l-1.72-6.13h1.33l.78,3a18.76,18.76,0,0,1,.38,1.91h0c0-.26.1-.57.17-.92s.14-.61.2-.79l.93-3.22h1.43l.9,3.22c.06.18.13.46.21.83s.13.67.15.87h0a19,19,0,0,1,.39-1.9l.79-3h1.31l-1.73,6.13Z" style="fill:#00058b"/><path d="M80.62,193.4a3.35,3.35,0,0,1-.77,2.34,2.73,2.73,0,0,1-2.14.85,2.91,2.91,0,0,1-1.52-.39,2.61,2.61,0,0,1-1-1.11,3.92,3.92,0,0,1-.35-1.69,3.34,3.34,0,0,1,.76-2.33,2.77,2.77,0,0,1,2.16-.83,2.67,2.67,0,0,1,2.1.85A3.3,3.3,0,0,1,80.62,193.4Zm-4.46,0c0,1.41.52,2.12,1.57,2.12s1.55-.71,1.55-2.12-.52-2.1-1.56-2.1a1.33,1.33,0,0,0-1.19.54A2.73,2.73,0,0,0,76.16,193.4Z" style="fill:#00058b"/><path d="M90.5,193.4a3.3,3.3,0,0,1-.77,2.34,2.73,2.73,0,0,1-2.14.85,2.91,2.91,0,0,1-1.52-.39,2.61,2.61,0,0,1-1-1.11,3.92,3.92,0,0,1-.35-1.69,3.34,3.34,0,0,1,.76-2.33,2.77,2.77,0,0,1,2.16-.83,2.71,2.71,0,0,1,2.11.85A3.34,3.34,0,0,1,90.5,193.4Zm-4.46,0c0,1.41.52,2.12,1.57,2.12s1.55-.71,1.55-2.12-.52-2.1-1.56-2.1a1.33,1.33,0,0,0-1.19.54A2.73,2.73,0,0,0,86,193.4Z" style="fill:#00058b"/><path d="M95.11,190.24a3,3,0,0,1,.65,0l-.13,1.21a2.78,2.78,0,0,0-.58-.06,1.65,1.65,0,0,0-1.26.51,1.81,1.81,0,0,0-.49,1.32v3.21H92v-6.13h1l.17,1.08h.07a2.3,2.3,0,0,1,.79-.87A1.86,1.86,0,0,1,95.11,190.24Z" style="fill:#00058b"/><path d="M105,196.48H103.7V192.7a1.69,1.69,0,0,0-.27-1,1,1,0,0,0-.83-.35,1.28,1.28,0,0,0-1.11.49,2.92,2.92,0,0,0-.35,1.63v3.06h-1.3v-6.13h1l.18.8h.07a1.74,1.74,0,0,1,.74-.68,2.36,2.36,0,0,1,1.07-.23,1.87,1.87,0,0,1,1.87,1h.09a1.86,1.86,0,0,1,.76-.71,2.44,2.44,0,0,1,1.13-.25,2,2,0,0,1,1.6.55,2.42,2.42,0,0,1,.5,1.69v4h-1.3V192.7a1.69,1.69,0,0,0-.27-1,1,1,0,0,0-.83-.35,1.29,1.29,0,0,0-1.11.47,2.42,2.42,0,0,0-.35,1.46Z" style="fill:#00058b"/><path d="M116.13,193.4a3.35,3.35,0,0,1-.77,2.34,2.75,2.75,0,0,1-2.15.85,2.88,2.88,0,0,1-1.51-.39,2.61,2.61,0,0,1-1-1.11,3.78,3.78,0,0,1-.35-1.69,3.34,3.34,0,0,1,.76-2.33,2.77,2.77,0,0,1,2.16-.83,2.69,2.69,0,0,1,2.1.85A3.3,3.3,0,0,1,116.13,193.4Zm-4.46,0c0,1.41.52,2.12,1.57,2.12s1.55-.71,1.55-2.12-.52-2.1-1.57-2.1a1.32,1.32,0,0,0-1.18.54A2.73,2.73,0,0,0,111.67,193.4Z" style="fill:#00058b"/><path d="M120.73,190.24a3,3,0,0,1,.65,0l-.12,1.21a2.78,2.78,0,0,0-.58-.06,1.69,1.69,0,0,0-1.27.51,1.85,1.85,0,0,0-.48,1.32v3.21h-1.3v-6.13h1l.17,1.08h.06a2.4,2.4,0,0,1,.8-.87A1.85,1.85,0,0,1,120.73,190.24Z" style="fill:#00058b"/><path d="M125.2,196.59a3,3,0,0,1-2.24-.84,3.14,3.14,0,0,1-.81-2.29,3.49,3.49,0,0,1,.75-2.37,2.6,2.6,0,0,1,2.06-.85,2.53,2.53,0,0,1,1.92.73,2.86,2.86,0,0,1,.7,2v.7h-4.09a2,2,0,0,0,.49,1.38,1.67,1.67,0,0,0,1.28.48,4.6,4.6,0,0,0,1-.11,4.55,4.55,0,0,0,1-.34v1.06a3.87,3.87,0,0,1-1,.32A5.39,5.39,0,0,1,125.2,196.59Zm-.24-5.37a1.29,1.29,0,0,0-1,.4,1.8,1.8,0,0,0-.44,1.14h2.78a1.7,1.7,0,0,0-.37-1.15A1.24,1.24,0,0,0,125,191.22Z" style="fill:#00058b"/><path d="M37.68,207.83h-1.3V199.2h1.3Z" style="fill:#00058b"/><path d="M43.38,207.83l-.26-.86h0a2.34,2.34,0,0,1-.89.76,2.72,2.72,0,0,1-1.15.21,2,2,0,0,1-1.41-.49,1.83,1.83,0,0,1-.51-1.38,1.62,1.62,0,0,1,.7-1.43,4.1,4.1,0,0,1,2.15-.53l1.06,0v-.33a1.27,1.27,0,0,0-.28-.88,1.13,1.13,0,0,0-.85-.29,3,3,0,0,0-.9.14,5.52,5.52,0,0,0-.83.33l-.43-.93a4.36,4.36,0,0,1,1.1-.4,4.94,4.94,0,0,1,1.12-.13,2.64,2.64,0,0,1,1.76.51,2,2,0,0,1,.6,1.6v4.13Zm-1.94-.89a1.6,1.6,0,0,0,1.14-.4,1.44,1.44,0,0,0,.42-1.11v-.53l-.78,0a2.8,2.8,0,0,0-1.34.31.93.93,0,0,0-.42.84.84.84,0,0,0,.24.64A1.13,1.13,0,0,0,41.44,206.94Z" style="fill:#00058b"/><path d="M51.52,207.83H50.21v-3.77a1.66,1.66,0,0,0-.29-1.06,1.1,1.1,0,0,0-.9-.35,1.43,1.43,0,0,0-1.21.49,2.64,2.64,0,0,0-.38,1.63v3.06H46.12V201.7h1l.19.8h.06a1.88,1.88,0,0,1,.79-.68,2.78,2.78,0,0,1,1.13-.23,2,2,0,0,1,2.21,2.24Z" style="fill:#00058b"/><path d="M58.51,201.7v.71l-1,.2a1.87,1.87,0,0,1,.24.47,2,2,0,0,1,.09.6,1.85,1.85,0,0,1-.65,1.49,2.76,2.76,0,0,1-1.8.55,2.92,2.92,0,0,1-.54-.05.73.73,0,0,0-.42.61.35.35,0,0,0,.2.32,1.71,1.71,0,0,0,.72.1h1.07a2.42,2.42,0,0,1,1.54.43,1.54,1.54,0,0,1,.53,1.25,1.82,1.82,0,0,1-.86,1.61,4.58,4.58,0,0,1-2.48.56,3.37,3.37,0,0,1-1.91-.44,1.44,1.44,0,0,1-.66-1.26,1.36,1.36,0,0,1,.35-.95,1.94,1.94,0,0,1,1-.54,1,1,0,0,1-.43-.36.88.88,0,0,1-.16-.51.91.91,0,0,1,.19-.59,2.26,2.26,0,0,1,.58-.47,1.68,1.68,0,0,1-.78-.67,2,2,0,0,1-.29-1.08,1.93,1.93,0,0,1,.63-1.54,2.59,2.59,0,0,1,1.79-.55l.54,0a3.39,3.39,0,0,1,.43.08Zm-4.82,7.08a.72.72,0,0,0,.38.65,2.1,2.1,0,0,0,1.07.23,3.24,3.24,0,0,0,1.58-.31.9.9,0,0,0,.52-.81A.62.62,0,0,0,57,208a2.34,2.34,0,0,0-1.06-.17h-1a1.37,1.37,0,0,0-.89.27A.85.85,0,0,0,53.69,208.78Zm.56-5.1a1.24,1.24,0,0,0,.3.89,1.13,1.13,0,0,0,.85.31c.75,0,1.13-.4,1.13-1.21a1.38,1.38,0,0,0-.28-.92,1.06,1.06,0,0,0-.85-.33,1.11,1.11,0,0,0-.86.32A1.39,1.39,0,0,0,54.25,203.68Z" style="fill:#00058b"/><path d="M64,207.83l-.18-.81h-.06a1.83,1.83,0,0,1-.78.67,2.45,2.45,0,0,1-1.14.25,2.23,2.23,0,0,1-1.66-.56,2.28,2.28,0,0,1-.55-1.68v-4H60.9v3.78a1.62,1.62,0,0,0,.29,1.05,1.07,1.07,0,0,0,.9.35,1.44,1.44,0,0,0,1.21-.49,2.73,2.73,0,0,0,.38-1.64V201.7H65v6.13Z" style="fill:#00058b"/><path d="M70.68,207.83l-.26-.86h0a2.49,2.49,0,0,1-.89.76,2.77,2.77,0,0,1-1.16.21,2,2,0,0,1-1.41-.49,1.83,1.83,0,0,1-.5-1.38,1.62,1.62,0,0,1,.7-1.43,4.06,4.06,0,0,1,2.14-.53l1.06,0v-.33a1.27,1.27,0,0,0-.27-.88,1.13,1.13,0,0,0-.85-.29,3,3,0,0,0-.91.14,6.52,6.52,0,0,0-.83.33l-.42-.93a4.29,4.29,0,0,1,1.09-.4,5.07,5.07,0,0,1,1.12-.13,2.67,2.67,0,0,1,1.77.51,2,2,0,0,1,.59,1.6v4.13Zm-1.94-.89a1.59,1.59,0,0,0,1.14-.4,1.41,1.41,0,0,0,.43-1.11v-.53l-.79,0a2.75,2.75,0,0,0-1.33.31.93.93,0,0,0-.42.84.84.84,0,0,0,.24.64A1.1,1.1,0,0,0,68.74,206.94Z" style="fill:#00058b"/><path d="M78.61,201.7v.71l-1,.2a1.38,1.38,0,0,1,.24.47,2,2,0,0,1,.09.6,1.85,1.85,0,0,1-.65,1.49,2.76,2.76,0,0,1-1.8.55,2.73,2.73,0,0,1-.53-.05.73.73,0,0,0-.43.61.35.35,0,0,0,.2.32,1.71,1.71,0,0,0,.72.1h1.07a2.42,2.42,0,0,1,1.54.43,1.51,1.51,0,0,1,.53,1.25,1.8,1.8,0,0,1-.86,1.61,4.58,4.58,0,0,1-2.48.56,3.37,3.37,0,0,1-1.91-.44,1.44,1.44,0,0,1-.66-1.26,1.32,1.32,0,0,1,.36-.95,1.86,1.86,0,0,1,1-.54.88.88,0,0,1-.43-.36.82.82,0,0,1-.17-.51.91.91,0,0,1,.19-.59,2.26,2.26,0,0,1,.58-.47,1.68,1.68,0,0,1-.78-.67,2,2,0,0,1-.29-1.08,1.93,1.93,0,0,1,.63-1.54,2.61,2.61,0,0,1,1.79-.55l.55,0a3.16,3.16,0,0,1,.42.08Zm-4.82,7.08a.72.72,0,0,0,.38.65,2.1,2.1,0,0,0,1.07.23,3.21,3.21,0,0,0,1.58-.31.9.9,0,0,0,.52-.81.62.62,0,0,0-.28-.57A2.34,2.34,0,0,0,76,207.8H75a1.37,1.37,0,0,0-.89.27A.85.85,0,0,0,73.79,208.78Zm.56-5.1a1.24,1.24,0,0,0,.3.89,1.15,1.15,0,0,0,.85.31c.75,0,1.13-.4,1.13-1.21a1.33,1.33,0,0,0-.28-.92,1.06,1.06,0,0,0-.85-.33,1.12,1.12,0,0,0-.86.32A1.39,1.39,0,0,0,74.35,203.68Z" style="fill:#00058b"/><path d="M82.42,207.94a3,3,0,0,1-2.24-.84,3.18,3.18,0,0,1-.8-2.29,3.51,3.51,0,0,1,.75-2.37,2.58,2.58,0,0,1,2.05-.85,2.53,2.53,0,0,1,1.92.73,2.81,2.81,0,0,1,.7,2v.71H80.72a2,2,0,0,0,.48,1.37,1.67,1.67,0,0,0,1.28.48,4.6,4.6,0,0,0,1-.11,4.8,4.8,0,0,0,1-.34v1.06a3.94,3.94,0,0,1-1,.32A5.26,5.26,0,0,1,82.42,207.94Zm-.24-5.37a1.28,1.28,0,0,0-1,.4,1.86,1.86,0,0,0-.45,1.14h2.78a1.7,1.7,0,0,0-.36-1.15A1.26,1.26,0,0,0,82.18,202.57Z" style="fill:#00058b"/><path d="M90.4,206.08a1.62,1.62,0,0,1-.65,1.38,3.14,3.14,0,0,1-1.88.48,4.5,4.5,0,0,1-2-.37v-1.13a4.87,4.87,0,0,0,2,.5c.8,0,1.2-.24,1.2-.73a.55.55,0,0,0-.13-.38,1.72,1.72,0,0,0-.44-.33,7.76,7.76,0,0,0-.85-.37,4.12,4.12,0,0,1-1.43-.82,1.53,1.53,0,0,1-.37-1.07,1.4,1.4,0,0,1,.63-1.22,3,3,0,0,1,1.73-.43,4.88,4.88,0,0,1,2,.43l-.42,1a4.42,4.42,0,0,0-1.67-.41c-.68,0-1,.19-1,.58a.59.59,0,0,0,.27.49,6,6,0,0,0,1.17.55,4.76,4.76,0,0,1,1.11.54,1.8,1.8,0,0,1,.51.56A1.64,1.64,0,0,1,90.4,206.08Z" style="fill:#00058b"/><path d="M96.15,207.83l-2.32-6.13H95.2l1.25,3.56a7.81,7.81,0,0,1,.39,1.45h0a9,9,0,0,1,.39-1.45l1.24-3.56H99.9l-2.34,6.13Z" style="fill:#00058b"/><path d="M104.67,207.83l-.26-.86h0a2.34,2.34,0,0,1-.89.76,2.72,2.72,0,0,1-1.15.21,2,2,0,0,1-1.41-.49,1.83,1.83,0,0,1-.51-1.38,1.62,1.62,0,0,1,.7-1.43,4.1,4.1,0,0,1,2.15-.53l1.06,0v-.33a1.27,1.27,0,0,0-.28-.88,1.12,1.12,0,0,0-.85-.29,3,3,0,0,0-.9.14,5.52,5.52,0,0,0-.83.33l-.42-.93a4.16,4.16,0,0,1,1.09-.4,5,5,0,0,1,1.12-.13,2.64,2.64,0,0,1,1.76.51,2,2,0,0,1,.6,1.6v4.13Zm-1.94-.89a1.6,1.6,0,0,0,1.14-.4,1.45,1.45,0,0,0,.43-1.11v-.53l-.79,0a2.8,2.8,0,0,0-1.34.31.93.93,0,0,0-.42.84.81.81,0,0,0,.25.64A1.08,1.08,0,0,0,102.73,206.94Z" style="fill:#00058b"/><path d="M110.52,201.59a3,3,0,0,1,.65,0l-.12,1.21a2.78,2.78,0,0,0-.58-.06,1.69,1.69,0,0,0-1.27.51,1.85,1.85,0,0,0-.48,1.32v3.21h-1.3V201.7h1l.17,1.08h.06a2.4,2.4,0,0,1,.8-.87A1.85,1.85,0,0,1,110.52,201.59Z" style="fill:#00058b"/><path d="M111.38,201.7h1.42l1.24,3.47a6.4,6.4,0,0,1,.38,1.4h0a7.4,7.4,0,0,1,.19-.74c.09-.29.56-1.67,1.41-4.13h1.4l-2.62,6.94a2.47,2.47,0,0,1-2.38,1.91,3.86,3.86,0,0,1-.84-.09v-1a3.33,3.33,0,0,0,.67.06,1.36,1.36,0,0,0,1.32-1.09l.23-.57Z" style="fill:#00058b"/><path d="M124.47,201.59a2.11,2.11,0,0,1,1.79.83,3.71,3.71,0,0,1,.64,2.33,3.77,3.77,0,0,1-.65,2.35,2.36,2.36,0,0,1-3.61,0h-.08l-.24.73h-1V199.2h1.3v2.05c0,.15,0,.38,0,.68s0,.49,0,.57h0A2.08,2.08,0,0,1,124.47,201.59Zm-.33,1.06a1.32,1.32,0,0,0-1.14.46,2.73,2.73,0,0,0-.36,1.55v.09a2.81,2.81,0,0,0,.36,1.62,1.31,1.31,0,0,0,1.16.5,1.17,1.17,0,0,0,1-.55,2.86,2.86,0,0,0,.36-1.58C125.57,203.35,125.09,202.65,124.14,202.65Z" style="fill:#00058b"/><path d="M127.48,201.7h1.42l1.25,3.47a7,7,0,0,1,.38,1.4h0a7,7,0,0,1,.18-.74c.09-.29.56-1.67,1.41-4.13h1.41L131,208.64a2.48,2.48,0,0,1-2.39,1.91,4,4,0,0,1-.84-.09v-1a3.4,3.4,0,0,0,.67.06,1.38,1.38,0,0,0,1.33-1.09l.22-.57Z" style="fill:#00058b"/><path d="M38.31,219.18H37v-8.63h1.31Z" style="fill:#00058b"/><path d="M44,219.18l-.27-.86h0a2.55,2.55,0,0,1-.89.77,3,3,0,0,1-1.16.2,1.94,1.94,0,0,1-1.41-.49,1.84,1.84,0,0,1-.5-1.38,1.62,1.62,0,0,1,.7-1.43,4.1,4.1,0,0,1,2.15-.53l1,0v-.33a1.23,1.23,0,0,0-.27-.87,1.1,1.1,0,0,0-.85-.3,3,3,0,0,0-.9.14,7.71,7.71,0,0,0-.84.33l-.42-.93a4.79,4.79,0,0,1,1.1-.4,4.92,4.92,0,0,1,1.11-.13,2.67,2.67,0,0,1,1.77.51,2,2,0,0,1,.6,1.6v4.13Zm-1.95-.89a1.57,1.57,0,0,0,1.14-.4,1.41,1.41,0,0,0,.43-1.11v-.53l-.78,0a2.8,2.8,0,0,0-1.34.31.93.93,0,0,0-.42.84.84.84,0,0,0,.24.64A1.06,1.06,0,0,0,42.06,218.29Z" style="fill:#00058b"/><path d="M52.15,219.18H50.84v-3.77a1.66,1.66,0,0,0-.29-1.06,1.1,1.1,0,0,0-.9-.35,1.43,1.43,0,0,0-1.21.49,2.64,2.64,0,0,0-.38,1.63v3.06H46.75v-6.13h1l.19.8H48a1.79,1.79,0,0,1,.79-.67,2.63,2.63,0,0,1,1.13-.24,2,2,0,0,1,2.21,2.24Z" style="fill:#00058b"/><path d="M59.13,213.05v.71l-1,.2a2.06,2.06,0,0,1,.24.47,2,2,0,0,1,.09.6,1.85,1.85,0,0,1-.65,1.49,2.77,2.77,0,0,1-1.81.55,2.89,2.89,0,0,1-.53,0,.73.73,0,0,0-.42.61.35.35,0,0,0,.2.32,1.71,1.71,0,0,0,.72.1H57a2.42,2.42,0,0,1,1.54.43,1.54,1.54,0,0,1,.53,1.25,1.82,1.82,0,0,1-.86,1.61,4.49,4.49,0,0,1-2.48.56,3.41,3.41,0,0,1-1.92-.44,1.45,1.45,0,0,1-.65-1.26,1.31,1.31,0,0,1,.35-.95,1.9,1.9,0,0,1,1-.54,1,1,0,0,1-.43-.36.89.89,0,0,1-.17-.51.92.92,0,0,1,.2-.59,2.64,2.64,0,0,1,.57-.47,1.71,1.71,0,0,1-.77-.67,1.9,1.9,0,0,1-.29-1.08,1.92,1.92,0,0,1,.62-1.54,2.64,2.64,0,0,1,1.8-.55l.54,0a3.39,3.39,0,0,1,.43.08Zm-4.81,7.08a.72.72,0,0,0,.38.65,2.1,2.1,0,0,0,1.07.23,3.26,3.26,0,0,0,1.58-.31.9.9,0,0,0,.52-.81.62.62,0,0,0-.28-.57,2.36,2.36,0,0,0-1.07-.17h-1a1.37,1.37,0,0,0-.89.27A.85.85,0,0,0,54.32,220.13Zm.56-5.1a1.27,1.27,0,0,0,.29.89,1.13,1.13,0,0,0,.86.31c.75,0,1.13-.4,1.13-1.21a1.38,1.38,0,0,0-.28-.92,1.06,1.06,0,0,0-.85-.33,1.08,1.08,0,0,0-.86.33A1.35,1.35,0,0,0,54.88,215Z" style="fill:#00058b"/><path d="M64.59,219.18l-.18-.81h-.07a1.75,1.75,0,0,1-.77.67,2.45,2.45,0,0,1-1.14.25,2.26,2.26,0,0,1-1.67-.56,2.32,2.32,0,0,1-.54-1.68v-4h1.31v3.78a1.62,1.62,0,0,0,.29,1,1.07,1.07,0,0,0,.9.35,1.44,1.44,0,0,0,1.21-.49,2.73,2.73,0,0,0,.38-1.64v-3h1.31v6.13Z" style="fill:#00058b"/><path d="M71.31,219.18l-.26-.86h0a2.57,2.57,0,0,1-.9.77,2.89,2.89,0,0,1-1.15.2,1.94,1.94,0,0,1-1.41-.49,1.8,1.8,0,0,1-.51-1.38,1.62,1.62,0,0,1,.71-1.43,4.06,4.06,0,0,1,2.14-.53l1.06,0v-.33a1.23,1.23,0,0,0-.27-.87,1.11,1.11,0,0,0-.85-.3,3,3,0,0,0-.91.14,7.55,7.55,0,0,0-.83.33l-.42-.93a4.71,4.71,0,0,1,1.09-.4,5.07,5.07,0,0,1,1.12-.13,2.67,2.67,0,0,1,1.77.51,2,2,0,0,1,.59,1.6v4.13Zm-1.94-.89a1.6,1.6,0,0,0,1.14-.4,1.41,1.41,0,0,0,.43-1.11v-.53l-.79,0a2.83,2.83,0,0,0-1.34.31.94.94,0,0,0-.41.84.84.84,0,0,0,.24.64A1,1,0,0,0,69.37,218.29Z" style="fill:#00058b"/><path d="M79.24,213.05v.71l-1,.2a1.72,1.72,0,0,1,.24.47,2,2,0,0,1,.09.6,1.85,1.85,0,0,1-.65,1.49,2.76,2.76,0,0,1-1.8.55,2.92,2.92,0,0,1-.54,0,.73.73,0,0,0-.42.61.35.35,0,0,0,.2.32,1.71,1.71,0,0,0,.72.1H77.1a2.42,2.42,0,0,1,1.54.43,1.54,1.54,0,0,1,.53,1.25,1.82,1.82,0,0,1-.86,1.61,4.49,4.49,0,0,1-2.48.56,3.37,3.37,0,0,1-1.91-.44,1.44,1.44,0,0,1-.66-1.26,1.36,1.36,0,0,1,.35-.95,1.94,1.94,0,0,1,1-.54,1,1,0,0,1-.43-.36.88.88,0,0,1-.16-.51.91.91,0,0,1,.19-.59,2.49,2.49,0,0,1,.58-.47,1.68,1.68,0,0,1-.78-.67,2,2,0,0,1-.29-1.08,1.93,1.93,0,0,1,.63-1.54,2.59,2.59,0,0,1,1.79-.55l.54,0a3.39,3.39,0,0,1,.43.08Zm-4.82,7.08a.72.72,0,0,0,.38.65,2.1,2.1,0,0,0,1.07.23,3.24,3.24,0,0,0,1.58-.31.9.9,0,0,0,.52-.81.62.62,0,0,0-.28-.57,2.34,2.34,0,0,0-1.06-.17h-1a1.37,1.37,0,0,0-.89.27A.85.85,0,0,0,74.42,220.13ZM75,215a1.23,1.23,0,0,0,.3.89,1.1,1.1,0,0,0,.85.31c.75,0,1.13-.4,1.13-1.21a1.38,1.38,0,0,0-.28-.92,1.06,1.06,0,0,0-.85-.33,1.08,1.08,0,0,0-.86.33A1.35,1.35,0,0,0,75,215Z" style="fill:#00058b"/><path d="M83.05,219.29a3,3,0,0,1-2.24-.84,3.18,3.18,0,0,1-.8-2.29,3.46,3.46,0,0,1,.75-2.36,2.88,2.88,0,0,1,4-.13,2.83,2.83,0,0,1,.7,2v.71H81.35a2,2,0,0,0,.48,1.37,1.67,1.67,0,0,0,1.28.48,4.6,4.6,0,0,0,1-.11,4.8,4.8,0,0,0,1-.34v1.06a3.94,3.94,0,0,1-1,.32A5.26,5.26,0,0,1,83.05,219.29Zm-.24-5.37a1.28,1.28,0,0,0-1,.4,1.86,1.86,0,0,0-.45,1.14h2.78a1.75,1.75,0,0,0-.36-1.15A1.27,1.27,0,0,0,82.81,213.92Z" style="fill:#00058b"/><path d="M93.7,219.18l-.26-.86h0a2.47,2.47,0,0,1-.89.77,2.89,2.89,0,0,1-1.15.2,1.91,1.91,0,0,1-1.41-.49,1.8,1.8,0,0,1-.51-1.38,1.62,1.62,0,0,1,.7-1.43,4.1,4.1,0,0,1,2.15-.53l1.06,0v-.33a1.23,1.23,0,0,0-.28-.87,1.1,1.1,0,0,0-.85-.3,3,3,0,0,0-.9.14,6.83,6.83,0,0,0-.83.33l-.43-.93a4.79,4.79,0,0,1,1.1-.4,5,5,0,0,1,1.12-.13,2.64,2.64,0,0,1,1.76.51,2,2,0,0,1,.6,1.6v4.13Zm-1.94-.89a1.6,1.6,0,0,0,1.14-.4,1.44,1.44,0,0,0,.42-1.11v-.53l-.78,0a2.8,2.8,0,0,0-1.34.31.93.93,0,0,0-.42.84.84.84,0,0,0,.24.64A1.07,1.07,0,0,0,91.76,218.29Z" style="fill:#00058b"/><path d="M101.84,219.18h-1.31v-3.77a1.66,1.66,0,0,0-.29-1.06,1.1,1.1,0,0,0-.9-.35,1.43,1.43,0,0,0-1.21.49,2.71,2.71,0,0,0-.38,1.63v3.06H96.44v-6.13h1l.19.8h.06a1.79,1.79,0,0,1,.79-.67,2.63,2.63,0,0,1,1.13-.24,2,2,0,0,1,2.21,2.24Z" style="fill:#00058b"/><path d="M105.72,219.29a2.14,2.14,0,0,1-1.79-.83,3.76,3.76,0,0,1-.65-2.34,3.7,3.7,0,0,1,.66-2.34,2.14,2.14,0,0,1,1.8-.84,2.09,2.09,0,0,1,1.84.89h.07a6.94,6.94,0,0,1-.1-1v-2.24h1.31v8.63h-1l-.23-.81h-.06A2.09,2.09,0,0,1,105.72,219.29Zm.35-1.06a1.44,1.44,0,0,0,1.17-.45,2.35,2.35,0,0,0,.37-1.46v-.19a2.74,2.74,0,0,0-.37-1.64,1.41,1.41,0,0,0-1.19-.49,1.19,1.19,0,0,0-1,.56,2.83,2.83,0,0,0-.37,1.59,2.78,2.78,0,0,0,.36,1.55A1.2,1.2,0,0,0,106.07,218.23Z" style="fill:#00058b"/><path d="M113,221.9a3,3,0,0,1-1-.13v-1a2.86,2.86,0,0,0,.77.1c.55,0,.83-.31.83-.94v-6.84H115V220a2,2,0,0,1-.49,1.44A2,2,0,0,1,113,221.9Zm.55-10.48a.73.73,0,0,1,.19-.53.74.74,0,0,1,.55-.19.67.67,0,0,1,.73.72.71.71,0,0,1-.2.53.73.73,0,0,1-.53.19.78.78,0,0,1-.55-.19A.74.74,0,0,1,113.59,211.42Z" style="fill:#00058b"/><path d="M122.27,216.1a3.35,3.35,0,0,1-.77,2.35,2.76,2.76,0,0,1-2.14.84,2.91,2.91,0,0,1-1.52-.39,2.61,2.61,0,0,1-1-1.11,3.92,3.92,0,0,1-.35-1.69,3.34,3.34,0,0,1,.76-2.33,2.8,2.8,0,0,1,2.16-.83,2.71,2.71,0,0,1,2.11.85A3.34,3.34,0,0,1,122.27,216.1Zm-4.46,0c0,1.42.52,2.12,1.57,2.12s1.55-.7,1.55-2.12-.52-2.1-1.56-2.1a1.33,1.33,0,0,0-1.19.54A2.77,2.77,0,0,0,117.81,216.1Z" style="fill:#00058b"/><path d="M126.9,212.94a2.11,2.11,0,0,1,1.79.83,4.57,4.57,0,0,1,0,4.68,2.36,2.36,0,0,1-3.61,0H125l-.24.73h-1v-8.63h1.3v2c0,.16,0,.38,0,.68s0,.49,0,.57h0A2.07,2.07,0,0,1,126.9,212.94Zm-.34,1.06a1.32,1.32,0,0,0-1.13.46,2.73,2.73,0,0,0-.36,1.55v.09a2.81,2.81,0,0,0,.36,1.62,1.29,1.29,0,0,0,1.15.5,1.16,1.16,0,0,0,1-.54,2.92,2.92,0,0,0,.36-1.59C128,214.7,127.52,214,126.56,214Z" style="fill:#00058b"/><path d="M132.19,218a18.13,18.13,0,0,1-1,2.65h-1c.25-1,.44-1.92.57-2.78h1.28Z" style="fill:#00058b"/><path d="M42.56,224.29a2.11,2.11,0,0,1,1.79.83,3.71,3.71,0,0,1,.64,2.33,3.77,3.77,0,0,1-.65,2.35,2.36,2.36,0,0,1-3.61,0h-.09l-.23.73h-1V221.9h1.3v2c0,.16,0,.38,0,.68s0,.49,0,.57h0A2.08,2.08,0,0,1,42.56,224.29Zm-.34,1.06a1.34,1.34,0,0,0-1.13.46,2.73,2.73,0,0,0-.36,1.55v.09a2.81,2.81,0,0,0,.36,1.62,1.3,1.3,0,0,0,1.16.5,1.18,1.18,0,0,0,1-.54,2.93,2.93,0,0,0,.35-1.59C43.65,226.05,43.18,225.35,42.22,225.35Z" style="fill:#00058b"/><path d="M50.83,230.53l-.19-.81h-.06a1.86,1.86,0,0,1-.78.68,2.58,2.58,0,0,1-1.14.24,2.23,2.23,0,0,1-1.66-.56,2.27,2.27,0,0,1-.55-1.68v-4h1.31v3.78a1.62,1.62,0,0,0,.29,1,1.08,1.08,0,0,0,.9.36,1.47,1.47,0,0,0,1.21-.49,2.71,2.71,0,0,0,.38-1.65v-3h1.31v6.13Z" style="fill:#00058b"/><path d="M56,229.59a3.2,3.2,0,0,0,1-.15v1a2.78,2.78,0,0,1-.56.15,3.29,3.29,0,0,1-.71.07c-1.23,0-1.85-.65-1.85-1.95v-3.31H53v-.57l.9-.48.45-1.3h.8v1.37h1.74v1H55.14v3.29a.94.94,0,0,0,.23.69A.88.88,0,0,0,56,229.59Z" style="fill:#00058b"/><path d="M63.4,229.59a3.2,3.2,0,0,0,1-.15v1a2.78,2.78,0,0,1-.56.15,3.29,3.29,0,0,1-.71.07c-1.23,0-1.85-.65-1.85-1.95v-3.31H60.4v-.57l.9-.48.45-1.3h.8v1.37h1.74v1H62.55v3.29a.94.94,0,0,0,.23.69A.88.88,0,0,0,63.4,229.59Z" style="fill:#00058b"/><path d="M71,230.53h-1.3v-3.77a1.66,1.66,0,0,0-.29-1.06,1.11,1.11,0,0,0-.91-.35,1.45,1.45,0,0,0-1.2.49,2.69,2.69,0,0,0-.39,1.64v3.05h-1.3V221.9h1.3v2.19c0,.35,0,.73-.06,1.13h.08a1.76,1.76,0,0,1,.74-.69,2.42,2.42,0,0,1,1.11-.24A2,2,0,0,1,71,226.53Z" style="fill:#00058b"/><path d="M75.46,230.64a2.93,2.93,0,0,1-2.23-.84,3.14,3.14,0,0,1-.81-2.29,3.46,3.46,0,0,1,.75-2.36,2.88,2.88,0,0,1,4-.13,2.84,2.84,0,0,1,.71,2v.71H73.76a2,2,0,0,0,.48,1.37,1.69,1.69,0,0,0,1.28.48,4.37,4.37,0,0,0,2-.45v1.06a4,4,0,0,1-1,.32A5.42,5.42,0,0,1,75.46,230.64Zm-.24-5.37a1.28,1.28,0,0,0-1,.4,1.86,1.86,0,0,0-.45,1.14h2.79a1.72,1.72,0,0,0-.37-1.15A1.26,1.26,0,0,0,75.22,225.27Z" style="fill:#00058b"/><path d="M78.39,224.4h1.42l1.25,3.47a7,7,0,0,1,.38,1.4h0a7,7,0,0,1,.18-.74c.09-.29.56-1.67,1.41-4.13h1.41l-2.62,6.94a2.48,2.48,0,0,1-2.38,1.91,4,4,0,0,1-.85-.09v-1a3.36,3.36,0,0,0,.67.07,1.39,1.39,0,0,0,1.33-1.1l.23-.57Z" style="fill:#00058b"/><path d="M90.83,230.64a2.67,2.67,0,0,1-2.11-.81A3.36,3.36,0,0,1,88,227.5a3.43,3.43,0,0,1,.76-2.38,2.78,2.78,0,0,1,2.19-.83,4.1,4.1,0,0,1,1.74.36l-.39,1a4.06,4.06,0,0,0-1.37-.32c-1.06,0-1.59.71-1.59,2.11a2.54,2.54,0,0,0,.4,1.55,1.37,1.37,0,0,0,1.16.52,3.33,3.33,0,0,0,1.65-.43v1.14a2.85,2.85,0,0,1-.75.29A4.35,4.35,0,0,1,90.83,230.64Z" style="fill:#00058b"/><path d="M97.81,230.53l-.26-.86h0a2.55,2.55,0,0,1-.89.77,3,3,0,0,1-1.16.2,1.94,1.94,0,0,1-1.41-.49,1.84,1.84,0,0,1-.5-1.38,1.62,1.62,0,0,1,.7-1.43,4.07,4.07,0,0,1,2.15-.53l1,0v-.33a1.23,1.23,0,0,0-.27-.87,1.1,1.1,0,0,0-.85-.3,2.93,2.93,0,0,0-.9.14,7.71,7.71,0,0,0-.84.33l-.42-.93a4.88,4.88,0,0,1,1.09-.4,5.07,5.07,0,0,1,1.12-.13,2.67,2.67,0,0,1,1.77.51,2,2,0,0,1,.6,1.6v4.13Zm-1.94-.89a1.57,1.57,0,0,0,1.14-.4,1.41,1.41,0,0,0,.43-1.11v-.53l-.78,0a2.7,2.7,0,0,0-1.34.3.94.94,0,0,0-.42.84.83.83,0,0,0,.24.64A1.06,1.06,0,0,0,95.87,229.64Z" style="fill:#00058b"/><path d="M106,230.53h-1.31v-3.77a1.66,1.66,0,0,0-.29-1.06,1.1,1.1,0,0,0-.9-.35,1.43,1.43,0,0,0-1.21.49,2.64,2.64,0,0,0-.38,1.63v3.06h-1.31V224.4h1l.19.8h.06a1.79,1.79,0,0,1,.79-.67,2.63,2.63,0,0,1,1.13-.24,2,2,0,0,1,2.21,2.24Z" style="fill:#00058b"/><path d="M114.55,230.53l-.26-.86h0a2.57,2.57,0,0,1-.9.77,2.89,2.89,0,0,1-1.15.2,1.94,1.94,0,0,1-1.41-.49,1.8,1.8,0,0,1-.51-1.38,1.62,1.62,0,0,1,.71-1.43,4.06,4.06,0,0,1,2.14-.53l1.06,0v-.33a1.23,1.23,0,0,0-.27-.87,1.11,1.11,0,0,0-.85-.3,3,3,0,0,0-.91.14,8.43,8.43,0,0,0-.83.33l-.42-.93a4.71,4.71,0,0,1,1.09-.4,5.07,5.07,0,0,1,1.12-.13,2.67,2.67,0,0,1,1.77.51,2,2,0,0,1,.59,1.6v4.13Zm-1.94-.89a1.59,1.59,0,0,0,1.14-.4,1.41,1.41,0,0,0,.43-1.11v-.53l-.79,0a2.73,2.73,0,0,0-1.34.3,1,1,0,0,0-.41.84.83.83,0,0,0,.24.64A1,1,0,0,0,112.61,229.64Z" style="fill:#00058b"/><path d="M119.37,230.64a2.14,2.14,0,0,1-1.79-.83,3.74,3.74,0,0,1-.65-2.34,3.7,3.7,0,0,1,.66-2.34,2.14,2.14,0,0,1,1.8-.84,2.09,2.09,0,0,1,1.84.89h.07a6.94,6.94,0,0,1-.1-1V221.9h1.31v8.63h-1l-.23-.81h-.06A2.09,2.09,0,0,1,119.37,230.64Zm.35-1a1.41,1.41,0,0,0,1.17-.46,2.35,2.35,0,0,0,.37-1.46v-.19a2.74,2.74,0,0,0-.37-1.64,1.4,1.4,0,0,0-1.18-.49,1.19,1.19,0,0,0-1.06.56,2.83,2.83,0,0,0-.37,1.59,2.78,2.78,0,0,0,.36,1.55A1.21,1.21,0,0,0,119.72,229.59Z" style="fill:#00058b"/><path d="M126.44,230.64a2.14,2.14,0,0,1-1.79-.83,3.74,3.74,0,0,1-.64-2.34,3.7,3.7,0,0,1,.65-2.34,2.14,2.14,0,0,1,1.8-.84,2.09,2.09,0,0,1,1.84.89h.07a8.6,8.6,0,0,1-.1-1V221.9h1.31v8.63h-1l-.22-.81h-.07A2.06,2.06,0,0,1,126.44,230.64Zm.35-1a1.41,1.41,0,0,0,1.17-.46,2.41,2.41,0,0,0,.38-1.46v-.19a2.73,2.73,0,0,0-.38-1.64,1.39,1.39,0,0,0-1.18-.49,1.21,1.21,0,0,0-1.06.56,2.83,2.83,0,0,0-.37,1.59,2.78,2.78,0,0,0,.36,1.55A1.21,1.21,0,0,0,126.79,229.59Z" style="fill:#00058b"/><path d="M43.52,241.88l-.18-.81h-.06a1.92,1.92,0,0,1-.78.68,2.58,2.58,0,0,1-1.14.24,2,2,0,0,1-2.21-2.23v-4h1.31v3.78a1.62,1.62,0,0,0,.29,1.05,1.08,1.08,0,0,0,.9.36,1.47,1.47,0,0,0,1.21-.49,2.78,2.78,0,0,0,.38-1.65v-3.05h1.31v6.13Z" style="fill:#00058b"/><path d="M49.52,242a2.15,2.15,0,0,1-1.81-.84h-.08c0,.52.08.83.08.94v2.51h-1.3v-8.85h1.05c0,.11.09.39.18.82h.07a2.05,2.05,0,0,1,1.83-.93,2.13,2.13,0,0,1,1.79.83A3.78,3.78,0,0,1,52,238.8a3.73,3.73,0,0,1-.66,2.35A2.13,2.13,0,0,1,49.52,242Zm-.32-5.29a1.32,1.32,0,0,0-1.13.46,2.32,2.32,0,0,0-.36,1.45v.19a2.9,2.9,0,0,0,.35,1.62,1.32,1.32,0,0,0,1.16.51,1.17,1.17,0,0,0,1-.56,2.8,2.8,0,0,0,.37-1.58,2.77,2.77,0,0,0-.36-1.56A1.23,1.23,0,0,0,49.2,236.7Z" style="fill:#00058b"/><path d="M58.71,240.94a3.09,3.09,0,0,0,.95-.15v1a3.4,3.4,0,0,1-.55.16,4.17,4.17,0,0,1-.71.06c-1.23,0-1.85-.65-1.85-2v-3.31h-.84v-.57l.9-.48.44-1.29h.81v1.36H59.6v1H57.86V240a.94.94,0,0,0,.23.69A.88.88,0,0,0,58.71,240.94Z" style="fill:#00058b"/><path d="M66.33,238.8a3.38,3.38,0,0,1-.77,2.35,2.78,2.78,0,0,1-2.15.84,2.94,2.94,0,0,1-1.52-.39,2.53,2.53,0,0,1-1-1.11,3.79,3.79,0,0,1-.36-1.69,3.3,3.3,0,0,1,.77-2.32,2.77,2.77,0,0,1,2.15-.84,2.71,2.71,0,0,1,2.11.85A3.3,3.3,0,0,1,66.33,238.8Zm-4.47,0c0,1.42.53,2.13,1.57,2.13S65,240.22,65,238.8s-.52-2.1-1.56-2.1a1.33,1.33,0,0,0-1.19.55A2.79,2.79,0,0,0,61.86,238.8Z" style="fill:#00058b"/><path d="M69.84,235.75h1.42l1.25,3.47a7,7,0,0,1,.37,1.4h.05a5.18,5.18,0,0,1,.18-.74c.09-.29.56-1.67,1.41-4.13h1.4l-2.62,6.94a2.47,2.47,0,0,1-2.38,1.91,3.86,3.86,0,0,1-.84-.09v-1a3.28,3.28,0,0,0,.67.07,1.37,1.37,0,0,0,1.32-1.1l.23-.57Z" style="fill:#00058b"/><path d="M82.29,238.8a3.33,3.33,0,0,1-.77,2.35,2.76,2.76,0,0,1-2.14.84,2.91,2.91,0,0,1-1.52-.39,2.61,2.61,0,0,1-1-1.11,3.92,3.92,0,0,1-.35-1.69,3.3,3.3,0,0,1,.77-2.32,2.74,2.74,0,0,1,2.15-.84,2.71,2.71,0,0,1,2.11.85A3.34,3.34,0,0,1,82.29,238.8Zm-4.46,0c0,1.42.52,2.13,1.57,2.13S81,240.22,81,238.8s-.52-2.1-1.56-2.1a1.32,1.32,0,0,0-1.19.55A2.71,2.71,0,0,0,77.83,238.8Z" style="fill:#00058b"/><path d="M88.11,241.88l-.18-.81h-.07a1.89,1.89,0,0,1-.77.68A2.61,2.61,0,0,1,86,242a2.3,2.3,0,0,1-1.67-.55,2.33,2.33,0,0,1-.55-1.68v-4h1.32v3.78a1.57,1.57,0,0,0,.29,1.05,1.08,1.08,0,0,0,.9.36,1.43,1.43,0,0,0,1.2-.49,2.7,2.7,0,0,0,.39-1.65v-3.05h1.31v6.13Z" style="fill:#00058b"/><path d="M94.1,235.64a3.73,3.73,0,0,1,.65.05l-.12,1.22a2.25,2.25,0,0,0-.58-.07,1.69,1.69,0,0,0-1.27.51,1.86,1.86,0,0,0-.48,1.33v3.2H91v-6.13h1l.18,1.08h.06a2.4,2.4,0,0,1,.8-.87A1.85,1.85,0,0,1,94.1,235.64Z" style="fill:#00058b"/><path d="M103,240.13a1.59,1.59,0,0,1-.65,1.38,3.13,3.13,0,0,1-1.87.48,4.38,4.38,0,0,1-2-.37v-1.13a4.71,4.71,0,0,0,2,.5q1.2,0,1.2-.72a.56.56,0,0,0-.13-.39,1.39,1.39,0,0,0-.44-.32,7.22,7.22,0,0,0-.84-.38,3.94,3.94,0,0,1-1.44-.82,1.51,1.51,0,0,1-.37-1.06,1.41,1.41,0,0,1,.63-1.23,3,3,0,0,1,1.73-.43,4.74,4.74,0,0,1,2,.44l-.42,1a4.38,4.38,0,0,0-1.67-.41c-.68,0-1,.19-1,.58a.58.58,0,0,0,.27.49,6,6,0,0,0,1.17.55,5.73,5.73,0,0,1,1.11.54,1.58,1.58,0,0,1,.51.56A1.64,1.64,0,0,1,103,240.13Z" style="fill:#00058b"/><path d="M108.2,241.88l-.26-.86h0a2.47,2.47,0,0,1-.89.77,2.89,2.89,0,0,1-1.15.2,1.92,1.92,0,0,1-1.41-.49,1.8,1.8,0,0,1-.51-1.38,1.62,1.62,0,0,1,.7-1.43,4,4,0,0,1,2.15-.52l1.06,0v-.32a1.19,1.19,0,0,0-.28-.88,1.08,1.08,0,0,0-.85-.29,3,3,0,0,0-.9.13c-.29.1-.57.21-.83.33l-.42-.93a4.54,4.54,0,0,1,1.09-.4,5,5,0,0,1,1.12-.13,2.64,2.64,0,0,1,1.76.51,2,2,0,0,1,.6,1.6v4.13Zm-1.94-.89a1.64,1.64,0,0,0,1.14-.39,1.48,1.48,0,0,0,.43-1.12V239l-.79,0a2.7,2.7,0,0,0-1.34.3,1,1,0,0,0-.42.84.8.8,0,0,0,.25.64A1,1,0,0,0,106.26,241Z" style="fill:#00058b"/><path d="M112.25,241.88H111v-8.63h1.3Z" style="fill:#00058b"/><path d="M118,241.88l-.26-.86h0a2.47,2.47,0,0,1-.89.77,2.89,2.89,0,0,1-1.15.2,1.91,1.91,0,0,1-1.41-.49,1.8,1.8,0,0,1-.51-1.38,1.62,1.62,0,0,1,.7-1.43,4,4,0,0,1,2.15-.52l1.06,0v-.32a1.24,1.24,0,0,0-.28-.88,1.1,1.1,0,0,0-.85-.29,3,3,0,0,0-.9.13c-.29.1-.57.21-.83.33l-.43-.93a4.79,4.79,0,0,1,1.1-.4,5,5,0,0,1,1.12-.13,2.64,2.64,0,0,1,1.76.51,2,2,0,0,1,.6,1.6v4.13ZM116,241a1.64,1.64,0,0,0,1.14-.39,1.48,1.48,0,0,0,.42-1.12V239l-.78,0a2.7,2.7,0,0,0-1.34.3,1,1,0,0,0-.42.84.83.83,0,0,0,.24.64A1.07,1.07,0,0,0,116,241Z" style="fill:#00058b"/><path d="M123.8,235.64a3.73,3.73,0,0,1,.65.05l-.12,1.22a2.25,2.25,0,0,0-.58-.07,1.69,1.69,0,0,0-1.27.51,1.86,1.86,0,0,0-.48,1.33v3.2h-1.31v-6.13h1l.18,1.08H122a2.4,2.4,0,0,1,.8-.87A1.85,1.85,0,0,1,123.8,235.64Z" style="fill:#00058b"/><path d="M124.66,235.75h1.42l1.24,3.47a6.4,6.4,0,0,1,.38,1.4h0a7.4,7.4,0,0,1,.19-.74c.09-.29.56-1.67,1.41-4.13h1.4l-2.62,6.94a2.48,2.48,0,0,1-2.38,1.91,3.86,3.86,0,0,1-.84-.09v-1a3.21,3.21,0,0,0,.67.07,1.38,1.38,0,0,0,1.32-1.1l.23-.57Z" style="fill:#00058b"/><path d="M65.42,248.09H63.93v5.14H62.62v-5.14h-1v-.61l1-.4v-.4a2.22,2.22,0,0,1,.51-1.61,2.09,2.09,0,0,1,1.56-.53,4.21,4.21,0,0,1,1.35.23l-.34,1a2.88,2.88,0,0,0-.92-.16.73.73,0,0,0-.65.28,1.39,1.39,0,0,0-.2.82v.4h1.49Z" style="fill:#00058b"/><path d="M71.9,250.15a3.33,3.33,0,0,1-.77,2.35,2.76,2.76,0,0,1-2.14.84,2.94,2.94,0,0,1-1.52-.39,2.53,2.53,0,0,1-1-1.11,3.79,3.79,0,0,1-.36-1.69,3.3,3.3,0,0,1,.77-2.32A2.75,2.75,0,0,1,69,247a2.68,2.68,0,0,1,2.11.86A3.33,3.33,0,0,1,71.9,250.15Zm-4.46,0c0,1.42.52,2.13,1.57,2.13s1.55-.71,1.55-2.13-.52-2.1-1.56-2.1a1.32,1.32,0,0,0-1.19.55A2.71,2.71,0,0,0,67.44,250.15Z" style="fill:#00058b"/><path d="M76.51,247a3.82,3.82,0,0,1,.65,0L77,248.26a2.25,2.25,0,0,0-.58-.07,1.65,1.65,0,0,0-1.26.51A1.82,1.82,0,0,0,74.7,250v3.2H73.4V247.1h1l.17,1.08h.07a2.38,2.38,0,0,1,.79-.87A1.94,1.94,0,0,1,76.51,247Z" style="fill:#00058b"/><path d="M85.36,251.48a1.62,1.62,0,0,1-.65,1.38,3.14,3.14,0,0,1-1.88.48,4.36,4.36,0,0,1-2-.37v-1.13a4.71,4.71,0,0,0,2,.5q1.2,0,1.2-.72a.56.56,0,0,0-.13-.39,1.51,1.51,0,0,0-.44-.32,8.42,8.42,0,0,0-.85-.38,4,4,0,0,1-1.43-.82,1.51,1.51,0,0,1-.38-1.06,1.42,1.42,0,0,1,.64-1.23,3,3,0,0,1,1.72-.43,4.75,4.75,0,0,1,2.05.44l-.42,1a4.42,4.42,0,0,0-1.67-.41c-.69,0-1,.19-1,.58a.58.58,0,0,0,.27.49,5.41,5.41,0,0,0,1.17.55,5.58,5.58,0,0,1,1.1.54,1.58,1.58,0,0,1,.51.56A1.64,1.64,0,0,1,85.36,251.48Z" style="fill:#00058b"/><path d="M91.09,253.23l-.18-.8h-.07a2,2,0,0,1-.77.67,2.66,2.66,0,0,1-1.15.24,2,2,0,0,1-2.21-2.23v-4H88v3.78a1.68,1.68,0,0,0,.28,1.06,1.14,1.14,0,0,0,.91.35,1.45,1.45,0,0,0,1.2-.49,2.7,2.7,0,0,0,.39-1.65V247.1h1.31v6.13Z" style="fill:#00058b"/><path d="M97.08,247a3.82,3.82,0,0,1,.65,0l-.13,1.22a2.12,2.12,0,0,0-.57-.07,1.67,1.67,0,0,0-1.27.51,1.86,1.86,0,0,0-.49,1.33v3.2H94V247.1h1l.17,1.08h.07a2.32,2.32,0,0,1,.8-.87A1.88,1.88,0,0,1,97.08,247Z" style="fill:#00058b"/><path d="M101.54,253.34a3,3,0,0,1-2.23-.83,3.18,3.18,0,0,1-.81-2.3,3.46,3.46,0,0,1,.75-2.36,2.55,2.55,0,0,1,2-.86,2.5,2.5,0,0,1,1.92.74,2.79,2.79,0,0,1,.71,2v.71H99.84a2,2,0,0,0,.48,1.37,1.69,1.69,0,0,0,1.28.48,5.43,5.43,0,0,0,1-.1,6.23,6.23,0,0,0,1-.34v1a4,4,0,0,1-1,.33A6.27,6.27,0,0,1,101.54,253.34ZM101.3,248a1.31,1.31,0,0,0-1,.39,1.87,1.87,0,0,0-.45,1.15h2.79a1.68,1.68,0,0,0-.37-1.15A1.23,1.23,0,0,0,101.3,248Z" style="fill:#00058b"/><path d="M105.21,252.54a.85.85,0,0,1,.21-.62.8.8,0,0,1,.61-.22.81.81,0,0,1,.62.22.88.88,0,0,1,.21.62.84.84,0,0,1-.22.62.79.79,0,0,1-.61.23.81.81,0,0,1-.61-.23A.88.88,0,0,1,105.21,252.54Z" style="fill:#00058b"/><text transform="translate(137.8 120.72)" style="font-size:9.458720207214355px;fill:#fff;font-family:OpenSans-Semibold, Open Sans;font-weight:600">Being bilingual <tspan x="-1.56" y="11.35">opens up social </tspan><tspan x="6.08" y="22.7">and cultural </tspan><tspan x="2.53" y="34.05">opportunities</tspan></text><text transform="translate(193.7 362.89)" style="font-size:12px;fill:#fff;font-family:OpenSans-Bold, Open Sans;font-weight:700">4, 6</text></svg>