<svg id="Layer_1" data-name="Layer 1" xmlns="http://www.w3.org/2000/svg" viewBox="0 0 230.78 357.62"><title>photo-economics-employed</title><rect width="230.78" height="357.62" style="fill:#00058b"/><text transform="translate(68.62 35.25)" style="font-size:10px;fill:#fff;font-family:OpenSans-Bold, Open Sans;font-weight:700">Employed Workers</text><rect x="92.82" y="308.26" width="9.03" height="9.03" style="fill:#ff66d7"/><text transform="translate(104.8 314.57)" style="font-size:7px;fill:#fff;font-family:OpenSans-Bold, Open Sans;font-weight:700">All immigrants</text><rect x="92.82" y="322.24" width="9.03" height="9.03" style="fill:#fcf0fa"/><text transform="translate(104.8 328.55)" style="font-size:7px;fill:#fff;font-family:OpenSans-Bold, Open Sans;font-weight:700">Mexican immigrants</text><rect x="92.82" y="336.22" width="9.03" height="9.03" style="fill:#f15a24"/><text transform="translate(103.94 342.53)" style="font-size:7px;fill:#fff;font-family:OpenSans-Bold, Open Sans;font-weight:700">U.S. born</text><rect x="92.82" y="65.16" width="90.02" height="11.66" style="fill:#ff66d7"/><rect x="92.82" y="88.49" width="115.85" height="11.66" style="fill:#f15a24"/><rect x="92.82" y="76.83" width="30.01" height="11.66" style="fill:#fcf0fa"/><rect x="92.82" y="111.16" width="75.15" height="11.66" style="fill:#ff66d7"/><rect x="92.82" y="134.48" width="49.75" height="11.66" style="fill:#f15a24"/><rect x="92.82" y="122.82" width="94.19" height="11.66" style="fill:#fcf0fa"/><rect x="92.82" y="157.15" width="49.75" height="11.66" style="fill:#ff66d7"/><rect x="92.82" y="180.47" width="75.14" height="11.66" style="fill:#f15a24"/><rect x="92.82" y="168.81" width="37.57" height="11.66" style="fill:#fcf0fa"/><rect x="92.82" y="203.15" width="37.57" height="11.66" style="fill:#ff66d7"/><rect x="92.82" y="226.47" width="27.5" height="11.66" style="fill:#f15a24"/><rect x="92.82" y="214.81" width="77.7" height="11.66" style="fill:#fcf0fa"/><rect x="92.82" y="249.14" width="45.14" height="11.66" style="fill:#ff66d7"/><rect x="92.82" y="272.46" width="35.76" height="11.66" style="fill:#f15a24"/><rect x="92.82" y="260.8" width="64.64" height="11.66" style="fill:#fcf0fa"/><line x1="92.95" y1="51.06" x2="92.95" y2="295.27" style="fill:none;stroke:#fff;stroke-linecap:round;stroke-miterlimit:10;stroke-width:1.0163776081756px"/><text transform="translate(165.83 73.24)" style="font-size:7px;fill:#00058b;font-family:OpenSans-Bold, Open Sans;font-weight:700">30%</text><text transform="translate(105.6 84.9)" style="font-size:7px;fill:#00058b;font-family:OpenSans-Bold, Open Sans;font-weight:700">10%</text><text transform="translate(189.53 96.56)" style="font-size:7px;fill:#00058b;font-family:OpenSans-Bold, Open Sans;font-weight:700">38%</text><text transform="translate(149.6 118.96)" style="font-size:7px;fill:#00058b;font-family:OpenSans-Bold, Open Sans;font-weight:700">25%</text><text transform="translate(169.22 131.17)" style="font-size:7px;fill:#00058b;font-family:OpenSans-Bold, Open Sans;font-weight:700">31%</text><text transform="translate(125.07 142.83)" style="font-size:7px;fill:#00058b;font-family:OpenSans-Bold, Open Sans;font-weight:700">17%</text><text transform="translate(124.53 165.23)" style="font-size:7px;fill:#00058b;font-family:OpenSans-Bold, Open Sans;font-weight:700">17%</text><text transform="translate(112.82 176.89)" style="font-size:7px;fill:#00058b;font-family:OpenSans-Bold, Open Sans;font-weight:700">13%</text><text transform="translate(113.69 211.22)" style="font-size:7px;fill:#00058b;font-family:OpenSans-Bold, Open Sans;font-weight:700">13%</text><text transform="translate(120.57 256.91)" style="font-size:7px;fill:#00058b;font-family:OpenSans-Bold, Open Sans;font-weight:700">15%</text><text transform="translate(111.95 280.85)" style="font-size:7px;fill:#00058b;font-family:OpenSans-Bold, Open Sans;font-weight:700">12%</text><text transform="translate(106.73 234.54)" style="font-size:7px;fill:#00058b;font-family:OpenSans-Bold, Open Sans;font-weight:700">8%</text><text transform="translate(152.73 222.88)" style="font-size:7px;fill:#00058b;font-family:OpenSans-Bold, Open Sans;font-weight:700">26%</text><text transform="translate(140.21 269.19)" style="font-size:7px;fill:#00058b;font-family:OpenSans-Bold, Open Sans;font-weight:700">22%</text><text transform="translate(149.6 188.55)" style="font-size:7px;fill:#00058b;font-family:OpenSans-Bold, Open Sans;font-weight:700">25%</text><text transform="translate(32.1 74.89)" style="font-size:8px;fill:#fff;font-family:OpenSans-Bold, Open Sans;font-weight:700">Management, <tspan x="18.35" y="9.6">business, </tspan><tspan x="5.68" y="19.2">science, arts</tspan></text><text transform="translate(58.84 131.13)" style="font-size:8px;fill:#fff;font-family:OpenSans-Bold, Open Sans;font-weight:700">Service</text><text transform="translate(49.83 171.7)" style="font-size:8px;fill:#fff;font-family:OpenSans-Bold, Open Sans;font-weight:700">Sales and <tspan x="15.2" y="9.6">office</tspan></text><text transform="translate(56.47 210.44)" style="font-size:8px;fill:#fff;font-family:OpenSans-Bold, Open Sans;font-weight:700">Natural <tspan x="-10.34" y="9.6">resources, </tspan><tspan x="-22.25" y="19.2">construction, </tspan><tspan x="-21.8" y="28.8">maintenance</tspan></text><text transform="translate(40.95 258.86)" style="font-size:8px;fill:#fff;font-family:OpenSans-Bold, Open Sans;font-weight:700">Production, <tspan x="-15.08" y="9.6" xml:space="preserve">transportation,  </tspan><tspan x="-19.9" y="19.2">material-moving</tspan></text><text transform="translate(212.85 352.15)" style="font-size:12px;fill:#fff;font-family:OpenSans-Bold, Open Sans;font-weight:700">4</text></svg>