<svg id="Layer_1" data-name="Layer 1" xmlns="http://www.w3.org/2000/svg" viewBox="0 0 266.25 415.07"><title>photo-identity-chartTwo</title><rect width="266.25" height="415.07" style="fill:#e028a5"/><text transform="translate(56.65 388.66)" style="font-size:12.417490005493164px;fill:#fff;font-family:Avenir-Heavy, Avenir;font-weight:800">1st</text><text transform="translate(24.65 288.14)" style="font-size:8.400070190429688px;fill:#fff;font-family:OpenSans-Bold, Open Sans;font-weight:700">50</text><text transform="translate(20.24 192.45)" style="font-size:8.400070190429688px;fill:#fff;font-family:OpenSans-Bold, Open Sans;font-weight:700">100</text><text transform="translate(103.05 388.66)" style="font-size:12.417490005493164px;fill:#fff;font-family:Avenir-Heavy, Avenir;font-weight:800">2nd</text><text transform="translate(153 388.66)" style="font-size:12.417490005493164px;fill:#fff;font-family:Avenir-Heavy, Avenir;font-weight:800">3<tspan x="7.35" y="0" style="letter-spacing:-0.01797018005662069em">r</tspan><tspan x="11.96" y="0" style="letter-spacing:-0.00003932205701667547em">d</tspan></text><text transform="translate(203.87 388.66)" style="font-size:12.417490005493164px;fill:#fff;font-family:Avenir-Heavy, Avenir;font-weight:800">A<tspan x="8.97" y="0" style="letter-spacing:0.0009830514254168868em">l</tspan><tspan x="12.21" y="0">l</tspan></text><line x1="28.07" y1="203.82" x2="36.1" y2="203.82" style="fill:none;stroke:#fff;stroke-miterlimit:10;stroke-width:0.647812574126743px"/><line x1="28.07" y1="184.54" x2="36.1" y2="184.54" style="fill:none;stroke:#fff;stroke-miterlimit:10;stroke-width:0.647812574126743px"/><line x1="28.07" y1="223.14" x2="36.1" y2="223.14" style="fill:none;stroke:#fff;stroke-miterlimit:10;stroke-width:0.647812574126743px"/><line x1="28.07" y1="242.03" x2="36.1" y2="242.03" style="fill:none;stroke:#fff;stroke-miterlimit:10;stroke-width:0.647812574126743px"/><line x1="28.07" y1="260.91" x2="36.1" y2="260.91" style="fill:none;stroke:#fff;stroke-miterlimit:10;stroke-width:0.647812574126743px"/><line x1="28.07" y1="279.8" x2="36.1" y2="279.8" style="fill:none;stroke:#fff;stroke-miterlimit:10;stroke-width:0.647812574126743px"/><line x1="28.07" y1="298.69" x2="36.1" y2="298.69" style="fill:none;stroke:#fff;stroke-miterlimit:10;stroke-width:0.647812574126743px"/><line x1="28.07" y1="317.58" x2="36.1" y2="317.58" style="fill:none;stroke:#fff;stroke-miterlimit:10;stroke-width:0.647812574126743px"/><line x1="28.07" y1="336.46" x2="36.1" y2="336.46" style="fill:none;stroke:#fff;stroke-miterlimit:10;stroke-width:0.647812574126743px"/><line x1="28.07" y1="355.35" x2="36.1" y2="355.35" style="fill:none;stroke:#fff;stroke-miterlimit:10;stroke-width:0.647812574126743px"/><rect x="95.75" y="360.13" width="36.89" height="15.06" style="fill:#00058b"/><rect x="144.45" y="363.95" width="36.89" height="10.51" style="fill:#00058b"/><rect x="193.15" y="287.69" width="36.89" height="86.76" style="fill:#00058b"/><rect x="47.06" y="298.85" width="36.89" height="75.6" style="fill:#00058b"/><rect x="47.06" y="267.81" width="36.89" height="31.04" style="fill:#ff66d7"/><rect x="47.06" y="257.58" width="36.89" height="10.23" style="fill:#fbae17"/><rect x="95.63" y="346.24" width="36.89" height="14.2" style="fill:#ff66d7"/><rect x="95.63" y="330.99" width="36.89" height="15.25" style="fill:#fbae17"/><rect x="144.45" y="353.21" width="36.89" height="10.78" style="fill:#ff66d7"/><rect x="144.45" y="336.47" width="36.89" height="16.74" style="fill:#fbae17"/><rect x="193.15" y="209.91" width="36.89" height="78.13" style="fill:#ff66d7"/><rect x="193.15" y="184.17" width="36.89" height="25.74" style="fill:#fbae17"/><polyline points="36.83 184.18 36.83 374.45 238.43 374.45" style="fill:none;stroke:#fff;stroke-miterlimit:10;stroke-width:1.61953143531685px"/><text transform="translate(50.66 33.7)" style="font-size:12.854490280151367px;fill:#fff;font-family:OpenSans-Bold, Open Sans;font-weight:700">Which term to do you use <tspan x="9.54" y="15.42">most often to describe </tspan><tspan x="52.7" y="30.85">yourself?</tspan></text><text transform="translate(45.5 99.87)" style="font-size:8.400070190429688px;fill:#fff;font-family:OpenSans-Bold, Open Sans;font-weight:700">American</text><rect x="22.72" y="90.17" width="14.61" height="14.61" style="fill:#ff66d7"/><text transform="translate(45.5 128.67)" style="font-size:8.400070190429688px;fill:#fff;font-family:OpenSans-Bold, Open Sans;font-weight:700">Hispanic/Latino</text><rect x="22.72" y="118.5" width="14.61" height="14.61" style="fill:#fbae17"/><text transform="translate(45.5 157.03)" style="font-size:8.400070190429688px;fill:#fff;font-family:OpenSans-Bold, Open Sans;font-weight:700">Country of Origin</text><rect x="22.72" y="146.82" width="14.61" height="14.61" style="fill:#00058b"/><text transform="translate(248.1 406.42)" style="font-size:12px;fill:#fff;font-family:OpenSans-Bold, Open Sans;font-weight:700">1</text></svg>