<svg id="Layer_1" data-name="Layer 1" xmlns="http://www.w3.org/2000/svg" viewBox="0 0 490.34 394.14"><title>photo-immigrant-projected</title><rect x="259.46" y="0.4" width="113.59" height="28.17" style="fill:#69bfff"/><line x1="300.4" y1="143.55" x2="460.62" y2="143.55" style="fill:none;stroke:#69bfff;stroke-miterlimit:10;stroke-width:0.5px;opacity:0.5"/><line x1="300.4" y1="164.14" x2="460.62" y2="164.14" style="fill:none;stroke:#69bfff;stroke-miterlimit:10;stroke-width:0.5px;opacity:0.5"/><line x1="300.4" y1="122.95" x2="460.62" y2="122.95" style="fill:none;stroke:#69bfff;stroke-miterlimit:10;stroke-width:0.5px;opacity:0.5"/><line x1="300.4" y1="184.74" x2="460.62" y2="184.74" style="fill:none;stroke:#69bfff;stroke-miterlimit:10;stroke-width:0.5px;opacity:0.5"/><line x1="300.4" y1="205.34" x2="460.62" y2="205.34" style="fill:none;stroke:#69bfff;stroke-miterlimit:10;stroke-width:0.5px;opacity:0.5"/><line x1="300.4" y1="225.94" x2="460.62" y2="225.94" style="fill:none;stroke:#69bfff;stroke-miterlimit:10;stroke-width:0.5px;opacity:0.5"/><line x1="300.4" y1="267.13" x2="460.62" y2="267.13" style="fill:none;stroke:#69bfff;stroke-miterlimit:10;stroke-width:0.5px;opacity:0.5"/><line x1="300.4" y1="287.73" x2="460.62" y2="287.73" style="fill:none;stroke:#69bfff;stroke-miterlimit:10;stroke-width:0.5px;opacity:0.5"/><line x1="300.4" y1="308.32" x2="460.62" y2="308.32" style="fill:none;stroke:#69bfff;stroke-miterlimit:10;stroke-width:0.5px;opacity:0.5"/><line x1="300.4" y1="328.92" x2="460.62" y2="328.92" style="fill:none;stroke:#69bfff;stroke-miterlimit:10;stroke-width:0.5px;opacity:0.4"/><line x1="300.4" y1="246.53" x2="460.62" y2="246.53" style="fill:none;stroke:#69bfff;stroke-miterlimit:10;stroke-width:0.5px;opacity:0.5"/><line x1="290.16" y1="143.2" x2="300.4" y2="143.2" style="fill:none;stroke:#00058b;stroke-linecap:round;stroke-miterlimit:10"/><line x1="290.16" y1="163.79" x2="300.4" y2="163.79" style="fill:none;stroke:#00058b;stroke-linecap:round;stroke-miterlimit:10"/><line x1="290.16" y1="122.6" x2="300.4" y2="122.6" style="fill:none;stroke:#00058b;stroke-linecap:round;stroke-miterlimit:10"/><line x1="290.16" y1="184.39" x2="300.4" y2="184.39" style="fill:none;stroke:#00058b;stroke-linecap:round;stroke-miterlimit:10"/><line x1="290.16" y1="204.99" x2="300.4" y2="204.99" style="fill:none;stroke:#00058b;stroke-linecap:round;stroke-miterlimit:10"/><line x1="290.16" y1="225.58" x2="300.4" y2="225.58" style="fill:none;stroke:#00058b;stroke-linecap:round;stroke-miterlimit:10"/><line x1="290.16" y1="266.78" x2="300.4" y2="266.78" style="fill:none;stroke:#00058b;stroke-linecap:round;stroke-miterlimit:10"/><line x1="290.16" y1="287.38" x2="300.4" y2="287.38" style="fill:none;stroke:#00058b;stroke-linecap:round;stroke-miterlimit:10"/><line x1="290.16" y1="307.97" x2="300.4" y2="307.97" style="fill:none;stroke:#00058b;stroke-linecap:round;stroke-miterlimit:10"/><line x1="290.16" y1="246.18" x2="300.4" y2="246.18" style="fill:none;stroke:#00058b;stroke-linecap:round;stroke-miterlimit:10"/><rect x="0.03" y="26.52" width="230.88" height="367.62" style="fill:#c1e8f7"/><rect x="259.46" y="26.34" width="230.88" height="367.62" style="fill:#69bfff"/><rect width="113.59" height="31.07" style="fill:#c1e8f7"/><line x1="35.15" y1="145.19" x2="204.16" y2="145.19" style="fill:none;stroke:#69bfff;stroke-miterlimit:10;stroke-width:0.5px;opacity:0.5"/><line x1="35.15" y1="165.79" x2="204.16" y2="165.79" style="fill:none;stroke:#69bfff;stroke-miterlimit:10;stroke-width:0.5px;opacity:0.5"/><line x1="35.15" y1="124.59" x2="204.16" y2="124.59" style="fill:none;stroke:#69bfff;stroke-miterlimit:10;stroke-width:0.5px;opacity:0.5"/><line x1="35.15" y1="186.38" x2="204.16" y2="186.38" style="fill:none;stroke:#69bfff;stroke-miterlimit:10;stroke-width:0.5px;opacity:0.5"/><line x1="35.15" y1="206.98" x2="204.16" y2="206.98" style="fill:none;stroke:#69bfff;stroke-miterlimit:10;stroke-width:0.5px;opacity:0.5"/><line x1="35.15" y1="227.58" x2="204.16" y2="227.58" style="fill:none;stroke:#69bfff;stroke-miterlimit:10;stroke-width:0.5px;opacity:0.5"/><line x1="35.15" y1="268.77" x2="204.16" y2="268.77" style="fill:none;stroke:#69bfff;stroke-miterlimit:10;stroke-width:0.5px;opacity:0.5"/><line x1="35.15" y1="289.37" x2="204.16" y2="289.37" style="fill:none;stroke:#69bfff;stroke-miterlimit:10;stroke-width:0.5px;opacity:0.5"/><line x1="35.15" y1="309.97" x2="204.16" y2="309.97" style="fill:none;stroke:#69bfff;stroke-miterlimit:10;stroke-width:0.5px;opacity:0.5"/><line x1="35.15" y1="248.18" x2="204.16" y2="248.18" style="fill:none;stroke:#69bfff;stroke-miterlimit:10;stroke-width:0.5px;opacity:0.5"/><line x1="24.91" y1="144.84" x2="35.15" y2="144.84" style="fill:none;stroke:#00058b;stroke-linecap:round;stroke-miterlimit:10"/><line x1="24.91" y1="165.43" x2="35.15" y2="165.43" style="fill:none;stroke:#00058b;stroke-linecap:round;stroke-miterlimit:10"/><line x1="24.91" y1="124.24" x2="35.15" y2="124.24" style="fill:none;stroke:#00058b;stroke-linecap:round;stroke-miterlimit:10"/><line x1="24.91" y1="186.03" x2="35.15" y2="186.03" style="fill:none;stroke:#00058b;stroke-linecap:round;stroke-miterlimit:10"/><line x1="24.91" y1="206.63" x2="35.15" y2="206.63" style="fill:none;stroke:#00058b;stroke-linecap:round;stroke-miterlimit:10"/><line x1="24.91" y1="227.23" x2="35.15" y2="227.23" style="fill:none;stroke:#00058b;stroke-linecap:round;stroke-miterlimit:10"/><line x1="24.91" y1="268.42" x2="35.15" y2="268.42" style="fill:none;stroke:#00058b;stroke-linecap:round;stroke-miterlimit:10"/><line x1="24.91" y1="289.02" x2="35.15" y2="289.02" style="fill:none;stroke:#00058b;stroke-linecap:round;stroke-miterlimit:10"/><line x1="24.91" y1="309.61" x2="35.15" y2="309.61" style="fill:none;stroke:#00058b;stroke-linecap:round;stroke-miterlimit:10"/><line x1="24.91" y1="247.82" x2="35.15" y2="247.82" style="fill:none;stroke:#00058b;stroke-linecap:round;stroke-miterlimit:10"/><text transform="translate(14.53 297.47)" style="font-size:9px;fill:#00058b;font-family:OpenSans-Bold, Open Sans;font-weight:700">20</text><text transform="translate(14.53 256.22)" style="font-size:9px;fill:#00058b;font-family:OpenSans-Bold, Open Sans;font-weight:700">40</text><text transform="translate(14.53 214.97)" style="font-size:9px;fill:#00058b;font-family:OpenSans-Bold, Open Sans;font-weight:700">60</text><text transform="translate(14.53 173.73)" style="font-size:9px;fill:#00058b;font-family:OpenSans-Bold, Open Sans;font-weight:700">80</text><text transform="translate(11.96 132.48)" style="font-size:9px;fill:#00058b;font-family:OpenSans-Bold, Open Sans;font-weight:700">100</text><rect x="44.54" y="166.05" width="17.58" height="164.97" style="fill:#662d91"/><rect x="44.54" y="159.55" width="17.58" height="6.69" style="fill:#fff"/><rect x="44.54" y="135.45" width="17.58" height="24.09" style="fill:#00058b"/><rect x="44.54" y="124.44" width="17.58" height="11.01" style="fill:#1a8fe8"/><rect x="71.2" y="124.44" width="17.58" height="23.61" style="fill:#1a8fe8"/><rect x="71.2" y="148.05" width="17.58" height="51" style="fill:#00058b"/><rect x="71.2" y="199.05" width="17.58" height="10.14" style="fill:#fff"/><rect x="71.2" y="209.19" width="17.58" height="121.22" style="fill:#662d91"/><rect x="97.86" y="124.44" width="17.58" height="38.97" style="fill:#1a8fe8"/><rect x="97.86" y="163.41" width="17.58" height="83.03" style="fill:#00058b"/><rect x="97.86" y="246.44" width="17.58" height="12.97" style="fill:#fff"/><rect x="97.86" y="259.41" width="17.58" height="71" style="fill:#662d91"/><rect x="124.52" y="124.44" width="17.58" height="48.42" style="fill:#1a8fe8"/><rect x="124.52" y="172.86" width="17.58" height="89.05" style="fill:#00058b"/><rect x="124.52" y="262.05" width="17.58" height="17.45" style="fill:#fff"/><rect x="124.52" y="279.5" width="17.58" height="50.91" style="fill:#662d91"/><rect x="151.18" y="124.44" width="17.58" height="48.42" style="fill:#1a8fe8"/><rect x="151.18" y="172.86" width="17.58" height="93.22" style="fill:#00058b"/><rect x="151.18" y="266.08" width="17.58" height="17.45" style="fill:#fff"/><rect x="151.18" y="283.93" width="17.58" height="46.49" style="fill:#662d91"/><rect x="177.84" y="124.44" width="17.58" height="59.11" style="fill:#1a8fe8"/><rect x="177.84" y="183.55" width="17.58" height="89.93" style="fill:#00058b"/><rect x="177.84" y="273.49" width="17.58" height="21.43" style="fill:#fff"/><rect x="177.84" y="294.91" width="17.58" height="35.5" style="fill:#662d91"/><polyline points="35.21 107.84 35.21 331.02 209.12 331.02" style="fill:none;stroke:#00058b;stroke-linecap:round;stroke-miterlimit:10;stroke-width:1.5px"/><text transform="translate(42.72 345.19)" style="font-size:9px;fill:#00058b;font-family:OpenSans-Bold, Open Sans;font-weight:700">1965</text><text transform="translate(69.39 345.19)" style="font-size:9px;fill:#00058b;font-family:OpenSans-Bold, Open Sans;font-weight:700">1975</text><text transform="translate(96.05 345.19)" style="font-size:9px;fill:#00058b;font-family:OpenSans-Bold, Open Sans;font-weight:700">1985</text><text transform="translate(122.71 345.19)" style="font-size:9px;fill:#00058b;font-family:OpenSans-Bold, Open Sans;font-weight:700">1995</text><text transform="translate(149.37 345.19)" style="font-size:9px;fill:#00058b;font-family:OpenSans-Bold, Open Sans;font-weight:700">2005</text><text transform="translate(176.03 345.19)" style="font-size:9px;fill:#00058b;font-family:OpenSans-Bold, Open Sans;font-weight:700">2015</text><rect x="26.29" y="360.33" width="9.88" height="7.85" style="fill:#00058b"/><text transform="translate(38.13 365.9)" style="font-size:5.866569995880127px;fill:#00058b;font-family:OpenSans-Bold, Open Sans;font-weight:700">Hispanic</text><rect x="75.21" y="360.33" width="9.88" height="7.85" style="fill:#fff"/><text transform="translate(87.17 365.9)" style="font-size:5.866569995880127px;fill:#00058b;font-family:OpenSans-Bold, Open Sans;font-weight:700">NH Black</text><rect x="124.81" y="360.33" width="9.88" height="7.85" style="fill:#662d91"/><text transform="translate(136.31 365.9)" style="font-size:5.866569995880127px;fill:#00058b;font-family:OpenSans-Bold, Open Sans;font-weight:700">NH White</text><rect x="172.81" y="360.33" width="9.88" height="7.85" style="fill:#1a8fe8"/><text transform="translate(184.31 365.9)" style="font-size:5.866569995880127px;fill:#00058b;font-family:OpenSans-Bold, Open Sans;font-weight:700">Asian</text><text transform="translate(29.31 48.38)" style="font-size:11.135890007019043px;fill:#00058b;font-family:OpenSans-Bold, Open Sans;font-weight:700">Asians Projected to Become the <tspan x="15.82" y="13.36">Largest Immigrant Group, </tspan><tspan x="29.54" y="26.73">Surpassing Hispanics </tspan><tspan x="9.15" y="40.09">(% of immigrant population)</tspan></text><text transform="translate(289.05 51.63)" style="font-size:11.135890007019043px;fill:#00058b;font-family:OpenSans-Bold, Open Sans;font-weight:700">Asians Projected to Become the <tspan x="15.82" y="13.36">Largest Immigrant Group, </tspan><tspan x="29.54" y="26.73">Surpassing Hispanics </tspan><tspan x="9.15" y="40.09">(% of immigrant population)</tspan></text><text transform="translate(25.66 16.74)" style="font-size:11.135890007019043px;fill:#00058b;font-family:OpenSans-Bold, Open Sans;font-weight:700">ACTUAL</text><text transform="translate(283.26 18.92)" style="font-size:11.135890007019043px;fill:#00058b;font-family:OpenSans-Bold, Open Sans;font-weight:700">PROJECTED</text><rect x="316.63" y="292.82" width="17.69" height="36.1" style="fill:#662d91"/><rect x="316.63" y="179.99" width="17.69" height="91.4" style="fill:#00058b"/><rect x="316.63" y="122.35" width="17.69" height="57.64" style="fill:#1a8fe8"/><text transform="translate(315.2 344.43)" style="font-size:9px;fill:#00058b;font-family:OpenSans-Bold, Open Sans;font-weight:700">2025</text><rect x="316.63" y="271.39" width="22.58" height="21.43" style="fill:#fff"/><text transform="translate(342.24 344.43)" style="font-size:9px;fill:#00058b;font-family:OpenSans-Bold, Open Sans;font-weight:700">2035</text><rect x="345.5" y="122.35" width="17.69" height="66.64" style="fill:#1a8fe8"/><rect x="345.5" y="188.98" width="17.69" height="80.44" style="fill:#00058b"/><rect x="345.5" y="292.82" width="17.69" height="35.5" style="fill:#662d91"/><rect x="345.5" y="269.42" width="17.69" height="23.4" style="fill:#fff"/><text transform="translate(369.28 344.43)" style="font-size:9px;fill:#00058b;font-family:OpenSans-Bold, Open Sans;font-weight:700">2045</text><rect x="371.93" y="122.35" width="17.69" height="71.09" style="fill:#1a8fe8"/><rect x="371.93" y="193.43" width="17.69" height="75.25" style="fill:#00058b"/><rect x="371.93" y="292.82" width="17.69" height="35.5" style="fill:#662d91"/><rect x="371.93" y="269.42" width="17.69" height="23.4" style="fill:#fff"/><text transform="translate(396.31 344.43)" style="font-size:9px;fill:#00058b;font-family:OpenSans-Bold, Open Sans;font-weight:700">2055</text><rect x="398.36" y="122.35" width="17.69" height="74.61" style="fill:#1a8fe8"/><rect x="398.36" y="196.96" width="17.69" height="70.17" style="fill:#00058b"/><rect x="398.36" y="290.17" width="17.69" height="38.15" style="fill:#662d91"/><rect x="398.36" y="266.77" width="17.69" height="23.4" style="fill:#fff"/><text transform="translate(423.35 344.43)" style="font-size:9px;fill:#00058b;font-family:OpenSans-Bold, Open Sans;font-weight:700">2065</text><rect x="424.78" y="122.6" width="17.69" height="77.86" style="fill:#1a8fe8"/><rect x="424.78" y="200.46" width="17.69" height="63.77" style="fill:#00058b"/><rect x="424.78" y="287.98" width="17.69" height="40.59" style="fill:#662d91"/><rect x="424.78" y="264.58" width="17.69" height="23.4" style="fill:#fff"/><text transform="translate(279.78 295.83)" style="font-size:9px;fill:#00058b;font-family:OpenSans-Bold, Open Sans;font-weight:700">20</text><text transform="translate(279.78 254.58)" style="font-size:9px;fill:#00058b;font-family:OpenSans-Bold, Open Sans;font-weight:700">40</text><text transform="translate(279.78 213.33)" style="font-size:9px;fill:#00058b;font-family:OpenSans-Bold, Open Sans;font-weight:700">60</text><text transform="translate(279.78 172.09)" style="font-size:9px;fill:#00058b;font-family:OpenSans-Bold, Open Sans;font-weight:700">80</text><text transform="translate(277.21 130.84)" style="font-size:9px;fill:#00058b;font-family:OpenSans-Bold, Open Sans;font-weight:700">100</text><polyline points="300.4 105.75 300.4 328.92 465.55 328.92" style="fill:none;stroke:#00058b;stroke-linecap:round;stroke-miterlimit:10;stroke-width:1.33125413751034px"/><rect x="287.26" y="363.44" width="9.88" height="7.85" style="fill:#00058b"/><text transform="translate(299.1 369.01)" style="font-size:5.866569995880127px;fill:#00058b;font-family:OpenSans-Bold, Open Sans;font-weight:700">Hispanic</text><rect x="336.18" y="363.44" width="9.88" height="7.85" style="fill:#fff"/><text transform="translate(348.14 369.01)" style="font-size:5.866569995880127px;fill:#00058b;font-family:OpenSans-Bold, Open Sans;font-weight:700">NH Black</text><rect x="385.78" y="363.44" width="9.88" height="7.85" style="fill:#662d91"/><text transform="translate(397.28 369.01)" style="font-size:5.866569995880127px;fill:#00058b;font-family:OpenSans-Bold, Open Sans;font-weight:700">NH White</text><rect x="433.78" y="363.44" width="9.88" height="7.85" style="fill:#1a8fe8"/><text transform="translate(445.28 369.01)" style="font-size:5.866569995880127px;fill:#00058b;font-family:OpenSans-Bold, Open Sans;font-weight:700">Asian</text><text transform="translate(211.04 388.21)" style="font-size:12px;fill:#00058b;font-family:OpenSans-Bold, Open Sans;font-weight:700">5</text><text transform="translate(472.71 386.2)" style="font-size:12px;fill:#00058b;font-family:OpenSans-Bold, Open Sans;font-weight:700">5</text></svg>