<svg id="Layer_1" data-name="Layer 1" xmlns="http://www.w3.org/2000/svg" viewBox="0 0 230.78 487.48"><title>photo-economics-chart</title><rect width="230.78" height="487.48" style="fill:#00058b"/><text transform="translate(55.9 32.27)" style="font-size:10px;fill:#fff;font-family:OpenSans-Bold, Open Sans;font-weight:700">Median Earnings and Tax <tspan x="6.92" y="12">Payments of Full-Time </tspan><tspan x="-12.43" y="24">Year-Round Workers (age 25+)</tspan></text><polygon points="89.43 82.3 75.7 82.3 61.97 82.3 61.97 105.11 75.7 105.11 89.43 105.11 103.16 105.11 103.16 82.3 89.43 82.3" style="fill:#fcf0fa"/><polygon points="196.9 82.3 183.51 82.3 170.12 82.3 156.72 82.3 143.33 82.3 129.94 82.3 116.55 82.3 103.16 82.3 103.16 105.11 116.55 105.11 129.94 105.11 143.33 105.11 156.72 105.11 170.12 105.11 183.51 105.11 196.9 105.11 210.29 105.11 210.29 82.3 196.9 82.3" style="fill:#ff66d7"/><rect x="103.16" y="94.11" width="35.44" height="9.16" style="fill:#f15a24"/><rect x="62.24" y="83.99" width="35.44" height="9.16" style="fill:#f15a24"/><text transform="translate(106.2 101.54) scale(0.99 1)" style="font-size:8px;fill:#fff;font-family:OpenSans-Bold, Open Sans;font-weight:700">$82,000</text><text transform="translate(65.28 91.42) scale(0.99 1)" style="font-size:8px;fill:#fff;font-family:OpenSans-Bold, Open Sans;font-weight:700">$28,900</text><text transform="translate(177.31 112.23) scale(0.99 1)" style="font-size:8px;fill:#fff;font-family:OpenSans-Bold, Open Sans;font-weight:700">$110,900</text><polygon points="191.8 123.09 178.44 123.09 165.07 123.09 151.7 123.09 138.33 123.09 124.96 123.09 111.59 123.09 98.22 123.09 98.22 145.9 111.59 145.9 124.96 145.9 138.33 145.9 151.7 145.9 165.07 145.9 178.44 145.9 191.8 145.9 198.85 145.9 198.85 123.09 191.8 123.09" style="fill:#ff66d7"/><polygon points="89.43 123.09 75.7 123.09 61.97 123.09 61.97 145.9 75.7 145.9 89.43 145.9 98.22 145.9 98.22 123.09 89.43 123.09" style="fill:#fcf0fa"/><rect x="98.22" y="135.4" width="35.44" height="9.16" style="fill:#f15a24"/><rect x="62.24" y="124.27" width="35.44" height="9.16" style="fill:#f15a24"/><text transform="translate(101.26 142.82) scale(0.99 1)" style="font-size:8px;fill:#fff;font-family:OpenSans-Bold, Open Sans;font-weight:700">$74,500</text><text transform="translate(65.28 131.69) scale(0.99 1)" style="font-size:8px;fill:#fff;font-family:OpenSans-Bold, Open Sans;font-weight:700">$25,600</text><text transform="translate(164.98 154.53) scale(0.99 1)" style="font-size:8px;fill:#fff;font-family:OpenSans-Bold, Open Sans;font-weight:700">$100,100</text><polygon points="75.7 164.85 61.97 164.85 61.97 187.67 75.7 187.67 89.43 187.67 89.43 164.85 75.7 164.85" style="fill:#fcf0fa"/><polygon points="158.08 164.85 144.35 164.85 130.62 164.85 116.89 164.85 103.16 164.85 89.43 164.85 89.43 187.67 103.16 187.67 116.89 187.67 130.62 187.67 144.35 187.67 158.08 187.67 165.32 187.67 165.32 164.85 158.08 164.85" style="fill:#ff66d7"/><rect x="89.44" y="176.75" width="35.44" height="9.16" style="fill:#f15a24"/><rect x="62.28" y="166.14" width="35.44" height="9.16" style="fill:#f15a24"/><text transform="translate(92.48 184.18) scale(0.99 1)" style="font-size:8px;fill:#fff;font-family:OpenSans-Bold, Open Sans;font-weight:700">$56,800</text><text transform="translate(65.33 173.5) scale(0.99 1)" style="font-size:8px;fill:#fff;font-family:OpenSans-Bold, Open Sans;font-weight:700">$18,400</text><text transform="translate(135.96 195.85) scale(0.99 1)" style="font-size:8px;fill:#fff;font-family:OpenSans-Bold, Open Sans;font-weight:700">$75,200</text><polygon points="137.86 206.39 124.13 206.39 110.4 206.39 96.67 206.39 82.94 206.39 82.94 229.21 96.67 229.21 110.4 229.21 124.13 229.21 137.86 229.21 145.1 229.21 145.1 206.39 137.86 206.39" style="fill:#ff66d7"/><polygon points="75.7 206.39 61.97 206.39 61.97 229.21 75.7 229.21 82.94 229.21 82.94 206.39 75.7 206.39" style="fill:#fcf0fa"/><rect x="82.94" y="218.03" width="35.44" height="9.16" style="fill:#f15a24"/><rect x="62.3" y="207.68" width="35.44" height="9.16" style="fill:#f15a24"/><text transform="translate(85.98 225.46) scale(0.99 1)" style="font-size:8px;fill:#fff;font-family:OpenSans-Bold, Open Sans;font-weight:700">$46,900</text><text transform="translate(65.34 215.1) scale(0.99 1)" style="font-size:8px;fill:#fff;font-family:OpenSans-Bold, Open Sans;font-weight:700">$14,500</text><text transform="translate(115.76 237.4) scale(0.99 1)" style="font-size:8px;fill:#fff;font-family:OpenSans-Bold, Open Sans;font-weight:700">$61,400</text><polygon points="117.15 248.06 103.42 248.06 89.69 248.06 75.96 248.06 75.96 270.87 89.69 270.87 103.42 270.87 117.15 270.87 124.39 270.87 124.39 248.06 117.15 248.06" style="fill:#ff66d7"/><rect x="62.23" y="248.06" width="13.73" height="22.82" style="fill:#fcf0fa"/><rect x="75.96" y="259.74" width="35.36" height="9.16" style="fill:#f15a24"/><rect x="61.97" y="249.06" width="35.44" height="9.16" style="fill:#f15a24"/><text transform="translate(78.97 267.17) scale(0.99 1)" style="font-size:8px;fill:#fff;font-family:OpenSans-Bold, Open Sans;font-weight:700">$35,900</text><text transform="translate(65.78 256.48) scale(0.99 1)" style="font-size:8px;fill:#fff;font-family:OpenSans-Bold, Open Sans;font-weight:700">$10,100</text><text transform="translate(94.9 278.81) scale(0.99 1)" style="font-size:8px;fill:#fff;font-family:OpenSans-Bold, Open Sans;font-weight:700">$46,000</text><polygon points="115.31 289.68 101.58 289.68 87.85 289.68 74.12 289.68 74.12 312.49 87.85 312.49 101.58 312.49 115.31 312.49 120.57 312.49 120.57 289.68 115.31 289.68" style="fill:#ff66d7"/><rect x="61.97" y="289.68" width="12.16" height="22.82" style="fill:#fcf0fa"/><rect x="74.12" y="301.3" width="36.52" height="9.16" style="fill:#f15a24"/><rect x="61.97" y="290.5" width="29.9" height="9.16" style="fill:#f15a24"/><text transform="translate(77.7 308.73) scale(0.99 1)" style="font-size:8px;fill:#fff;font-family:OpenSans-Bold, Open Sans;font-weight:700">$32,800</text><text transform="translate(65.08 297.93) scale(0.99 1)" style="font-size:8px;fill:#fff;font-family:OpenSans-Bold, Open Sans;font-weight:700">$8,900</text><text transform="translate(91.03 320.28) scale(0.99 1)" style="font-size:8px;fill:#fff;font-family:OpenSans-Bold, Open Sans;font-weight:700">$41,700</text><polygon points="98.73 331.17 85 331.17 71.27 331.17 71.27 353.98 85 353.98 98.73 353.98 112.46 353.98 112.46 331.17 98.73 331.17" style="fill:#ff66d7"/><rect x="61.97" y="331.16" width="9.3" height="22.82" style="fill:#fcf0fa"/><rect x="71.27" y="342.83" width="32.85" height="9.16" style="fill:#f15a24"/><rect x="62.34" y="332.03" width="29.79" height="9.16" style="fill:#f15a24"/><text transform="translate(73.79 350.26) scale(0.99 1)" style="font-size:8px;fill:#fff;font-family:OpenSans-Bold, Open Sans;font-weight:700">$29,200</text><text transform="translate(65.27 339.46) scale(0.99 1)" style="font-size:8px;fill:#fff;font-family:OpenSans-Bold, Open Sans;font-weight:700">$7,600</text><text transform="translate(83.16 361.87) scale(0.99 1)" style="font-size:8px;fill:#fff;font-family:OpenSans-Bold, Open Sans;font-weight:700">$36,800</text><rect x="61.97" y="372.85" width="7.24" height="22.82" style="fill:#fcf0fa"/><polygon points="96.67 372.85 82.94 372.85 69.21 372.85 69.21 395.67 82.94 395.67 96.67 395.67 99.83 395.67 99.83 372.85 96.67 372.85" style="fill:#ff66d7"/><rect x="69.21" y="383.96" width="34.82" height="9.16" style="fill:#f15a24"/><rect x="62.25" y="373.92" width="29.9" height="9.16" style="fill:#f15a24"/><text transform="translate(72.66 391.39) scale(0.99 1)" style="font-size:8px;fill:#fff;font-family:OpenSans-Bold, Open Sans;font-weight:700">$22,000</text><text transform="translate(65.3 381.34) scale(0.99 1)" style="font-size:8px;fill:#fff;font-family:OpenSans-Bold, Open Sans;font-weight:700">$5,200</text><text transform="translate(70.82 403.27) scale(0.99 1)" style="font-size:8px;fill:#fff;font-family:OpenSans-Bold, Open Sans;font-weight:700">$27,200</text><rect x="63.59" y="444.81" width="9.03" height="9.03" style="fill:#fcf0fa"/><text transform="translate(77.86 451.63)" style="font-size:8px;fill:#fff;font-family:OpenSans-Bold, Open Sans;font-weight:700">Estimated Taxes</text><rect x="63.59" y="461.61" width="9.03" height="9.03" style="fill:#ff66d7"/><text transform="translate(77.86 468.43)" style="font-size:8px;fill:#fff;font-family:OpenSans-Bold, Open Sans;font-weight:700">After-Tax Income</text><line x1="62.13" y1="74.02" x2="62.13" y2="416.35" style="fill:none;stroke:#fff;stroke-linecap:round;stroke-miterlimit:10;stroke-width:1.16841115386557px"/><text transform="translate(14.04 90.77)" style="font-size:7.5px;fill:#fff;font-family:OpenSans-Bold, Open Sans;font-weight:700">Professional <tspan x="1.67" y="9">Degree (2%)</tspan></text><text transform="translate(25.75 128.84)" style="font-size:7.5px;fill:#fff;font-family:OpenSans-Bold, Open Sans;font-weight:700">Doctoral <tspan x="5.69" y="9">Degree </tspan><tspan x="16.05" y="18">(2%)</tspan></text><text transform="translate(26.7 169.87)" style="font-size:7.5px;fill:#fff;font-family:OpenSans-Bold, Open Sans;font-weight:700">Master’s <tspan x="5.29" y="9">Degree </tspan><tspan x="11.38" y="18">(11%)</tspan></text><text transform="translate(19.99 212.2)" style="font-size:7.5px;fill:#fff;font-family:OpenSans-Bold, Open Sans;font-weight:700">Bachelor’s <tspan x="11.99" y="9">Degree </tspan><tspan x="18.08" y="18">(25%)</tspan></text><text transform="translate(17.48 253.63)" style="font-size:7.5px;fill:#fff;font-family:OpenSans-Bold, Open Sans;font-weight:700">Associate’s <tspan x="14.5" y="9">Degree </tspan><tspan x="20.59" y="18">(25%)</tspan></text><text transform="translate(39.7 295.27)" style="font-size:7.5px;fill:#fff;font-family:OpenSans-Bold, Open Sans;font-weight:700">Some <tspan x="-5.61" y="9">college </tspan><tspan x="0.17" y="18">(16%)</tspan></text><text transform="translate(15.24 336.86)" style="font-size:7.5px;fill:#fff;font-family:OpenSans-Bold, Open Sans;font-weight:700">High school <tspan x="12.62" y="9">diploma </tspan><tspan x="22.83" y="18">(26%)</tspan></text><text transform="translate(23.64 378.72)" style="font-size:7.5px;fill:#fff;font-family:OpenSans-Bold, Open Sans;font-weight:700">Less than <tspan x="-6.71" y="9">HS diploma </tspan><tspan x="15.32" y="18">(26%)</tspan></text><text transform="translate(212.67 481.05)" style="font-size:12px;fill:#fff;font-family:OpenSans-Bold, Open Sans;font-weight:700">6</text></svg>