<svg id="Layer_1" data-name="Layer 1" xmlns="http://www.w3.org/2000/svg" xmlns:xlink="http://www.w3.org/1999/xlink" viewBox="0 0 230.88 327.91"><defs><linearGradient id="New_Gradient_Swatch_3" x1="132.26" y1="292.92" x2="132.67" y2="293.64" gradientUnits="userSpaceOnUse"><stop offset="0" stop-color="#662d91"/><stop offset="0.38" stop-color="#4558b7"/><stop offset="0.79" stop-color="#2680da"/><stop offset="1" stop-color="#1a8fe8"/></linearGradient><linearGradient id="New_Gradient_Swatch_3-2" x1="52.8" y1="26.64" x2="192.97" y2="269.42" xlink:href="#New_Gradient_Swatch_3"/></defs><title>photo-immigration-sudmap</title><rect width="230.88" height="327.91" style="fill:#c1e8f7"/><polygon points="99.37 57.11 99.63 55.81 99.4 55.39 99.63 55.81 99.37 57.11" style="fill:none"/><polygon points="93.23 161.3 92.72 160.24 92.72 160.24 93.23 161.3" style="fill:none"/><polygon points="126.91 147.99 126.55 147.58 126.12 147.08 126.91 147.99" style="fill:none"/><polygon points="109.18 50.38 109.18 50.38 108.53 50.07 109.18 50.38" style="fill:none"/><polygon points="100.66 59.74 100.98 59.39 102.81 59.03 100.98 59.39 100.66 59.74" style="fill:none"/><polygon points="77.88 84.78 77.79 84.39 77.59 83.54 77.88 84.78" style="fill:none"/><polygon points="91 63.66 92.56 64.86 93.46 64.98 92.56 64.86 91 63.66" style="fill:none"/><polygon points="86.36 49.53 86.36 49.53 86.66 48.56 86.36 49.53" style="fill:none"/><polygon points="134.37 298.3 133.86 297.98 133.47 298.29 133.84 298.79 134.84 298.38 134.37 298.3" style="fill:#0e7272"/><path d="M215.79,97.06l-.12-1.93-.45-.28-.17-1-1.35-3v-1l-.23-1.23-2.54-1.14-1.46.06L208.4,88l-.74-1-.85-.16-.84-1-1.13-.57-.79-.11-1.75-1.86-1.41-2-.68-.17-1-.9-.85.06L196,78.66H195l-1.18-.51-.73.39h-1.13l-.68-.34-.73.34-.35.51-.44-.45-1.07-.79-.17.34-.46-.4-.17.51v.4l-.62-.51-.11-.4-.47-.13.15.39-.23.16-1.16-.45-.38.07-1-.19-2.15-1-.82,0,0,.24.17.44-.18.21-.45-.24-.2.12-.13.32-.75.36-.26.39-.11.92-.4-.68-.22-.59-.4.17.06.73-.65,1.24v1l-.22-1,.25-1-.14-.87.39-1.27.34-.31-.28-.25-.62,0,.82-.93L177,74.52l-.61-1-.6,0-.87-.14-.51.65-.5.25-.26-.59-.36-.22-.17-.57-.45-.36-.62.06-.31-.4-.54-.19-.31.38v-.33l-.42-.25-.28-.57-.48.2-.88-.25-1.15-.68-.34-.06-.19.34-.71-.48-.51.06-.11.48-.34,0-.19-.53-.91,0-.75.42-.43.77.06.45-.85.84-1.09.65-1.42.82-.67.84-.42,1.1-.17,1.07-.37.56-.64.68,0,.47.13.8-.15,1.47-.25-.89-.54-.88,0-.65.54-.67.63-.52-.1-1.08.33-.91-.07-.48h-.47l-.92.32-1-.29-.87,0-.71.19-.49-.43.56.07.66-.49.7-.16,1.17.22.66-.16.62-.78h.28l.37.28.39-.13.68-.39,1.15-.4v-.9L162,71v-.85l.39-.57.06-.67-1.07-.23-.85-.67h-.79l-1.13.67-1,.06-1.36-.57-1.46-.1-1.07,1.12.05.45.35.26.22.38-.51.06-.31.17-.28.68-.2-.59-.36-.15-.84.34L151,72.1l-1.22,1.39.91-1.28,0-.81.2-.46.09-.56h-.4l-.79.65-.39.9L149,73l-.65.42.62-1.18.11-.93,1.38-1.72.34-1.16.51-.7.75-.42.82-.6.59-.25.74-1.1L156,63.45l.11-.45.37-.28-.4-.51.14-.53.26-.23,0-.76-.74-.53-.81.05-.26.29-.36-.63-.51-1.46L153,56.24l-.79-1.12-.57-1.5,0-.82-.2-.81-.32-.31-.12-.77-.49-.92-.19.11.05.62-.3.48-.91.59h0l0,0-.3.46-1,1.18-1,1.32v.7l-.75,1.63-.63,1-.49,1-.67.12-.41.29-.16.63-.69.52-.46-.16,0-1-.28-.13-.1-.33-.44,0-.55.22-.42.46-.67-.12-.54-.59v-.39l-.2-.18-.25-.64-.14-.37-.53-.11-.77-.72-1-.05-.75.34-1.62.07-.88-.22-.76.51-.13.7.72.71.19.45.36.85-.14.3-.66,0-1-.27-.24-.19h-.32l-.07,0h-1.25l-.71.12-.31-.35-1.15.06-.82.34-.44,1.24-1.61-.06-.82.26-.11.37-.54.64-.9.08-.11-.25-.54.14-.48.62-.61-.25-1.56-1.33-.56-.7,0-.56-.84-.85-.71-.73-.08-.79.17-.53-.2-.39.11-.71.28-.57-.05-.84.76-1.32.25-1.08.7-.87,0-.42-.73,0-.37-.56-.25-.56L117,50l-.68-.33.34-.49.48-.75v-1l-.65-.81-.87-.09-.43.29-.3-.35-.39,0,.08.82-.37.93-2,1.43-1.27.12-1.74.73h0l-.65-.31-1.1.11-1.26,1.13-1.25.42-.42-.28-1.74.23-1.36.08-1.21-.68L99,50.89l-1.13-.34.51,1,.82.3.84.8.28.73L99.2,55l.2.36.23.43-.26,1.29,1.81.59,1.24-.14,1.23.26.06.79-.9.42-1.83.36-.32.35-.33.36-.37,1-2,1-.64.76L96,63.8l-.92,1.1L93.46,65l-.9-.12L91,63.65l-1.5-1-1,.12,0-1.07-.15-.86L87.7,60l-.22-.6-1.06.28-.77.85-.5.08-.43-.39H84l-.47.54-4.43,0-.25,1.27.36.93,1.5.39.56,1-.42.48.45.48-.2.64-.93-.61-2.62.89.11,2.15.68.87,1.46,1.13,1,1.69,0,1.33,0,.58-2.2,8.16-.65,2.16.09.39-.34.56-.84-.22.08-.26-.87-.56-.32.08h-.76l-.33-.14-.29.62-2.67.88-2,.42-.51.5-.45.15-.82.82-.93.42-.7.45.11,1-.39.59.17.62L65,91.79l.36,1.36.37.7-.65.62-.56-.12-1.1.71-.06.79-.39.42.25.54-.14.87-.31.73.28.65-.2.59,1.07,1.07,1.92,3.1-1,1.24,2.43-.2,1.15.2.85,1.25.25,1.09,1.68.06,2,.13,1.65-1.51,1.4-.81.39.42-.18.87-.28.3,0,1.4.21,2.3,0,.92.48.45.78-.13.75-.21.84-.06.43,0,.39.18.11,0h2.48l1.13.06,1.13-.62h.62l.85-.68h1l1.13-.34.68-1.74L91,107.19l1.29-.22,1.24-.63h.85l.79.57.91-.57.45.4-.12.9.46,1.42-.63,1.12.51,1.81-.34.78.68,1.48.9.39.28,1.19.91.45,1.24.79.85.79.33-.4,1.64-.39,1.36,1.35,1-.28,1.42,1.52.61,0,1.69.56,1.08.39.22,1.14.79.22,1,.56,2.25-.22,1.58.9.35.68-.23,1.8.34,1.47-.46.9,1.47,2.49-.11,1.8,6.89.12.33,2.48-.11,1.58,2,.45,2,3.61.12,1.92L127,146.3l.11.56-.53.72.36.41-.23.85,1,.73.06,1.19.79,1.18-.39,2.37.22,1-.28.85.28.84,1.47-.11.62.28,1.8-.11,1.13.4,1.81-.74,1,.68.73.22.29.9,1,4.26.68,1.49.7.19,1.55-.84.87.33.6.54.56.11-.38.64-.1,3.68-.16.42-.1.14v.5l-.1.4,0,.47.68-.44,1.81.25,0,.79.73,1.66-.05,1.33.17,1.52.14,1.41-.23.56-.79,0-.95.51-.15.31-.56.48-.25-.14-1.61,1.07-.31.5-.62.17L138.79,182l-.48.17-.06,1-.53.17-.48-.08L136,184.7l-.23.6,0,.87-.56.17-.31.48-.79,1.44-.57.59-.64,1.07v.37l-.73.5-.11.35.58,0,.42.23,2-.6.82.54.9,1.24.79.33.47,1.07.94,1.53h.44l.77-.82.39.06.9,1.46,1.07.48.93.2.9.9.06,1.07.76-.17,1.52.68.9,1.13,1,1.43.88.62-.17,1.1-.74,1,.37,1.19.14.29.1.19.46.61.22.18,1.48-1.22.51-1.19.65-2.73.59-1.86.25-.36-.34-.43-.56-.93.29-.79.55-.28,0-.5.65-.74v-.56l.4.31.53.09.65-.77.08-.78.26-.26,0-.9.28-.37h.4l.28-.76-.2-.56-.42-.45.06-1.18-.34-.31.39.11.45.92.93,1h.37l.39-.22.26.25.08.67-.31.09-.36,1.35-.9,1.55-.82,0-.11,1-.29.53-.25-.08-.82.45-.59.51-.05.42-.65.11-.31.31,0,.42.77.23,2.48-2,1.26-1.43,1.83-3.13.71-1.58.7-2,1.78-3.38,1.75-2.08L165,183l-.17-.22.08-.54.37-.12.28-.87L166,181l-.17-.7.17-.51-.17-.22-.31-.26.06-.79-.77-1.07V177l.15-.47-.15-.51-.25-1.13-.4-1.18.32-.28,1-.2-.25-.65-.48-.28.93-.22,0-.77-1-.42.79-.23.5-.73.4.31L167.7,169l.73-.48,0-.4,1-.9,1.22-.78,1.6-1.84,1.41-.17.76-.73.85-.68h.79l.5.43.6.14,0-.57.58-1,1.67-1,.64-.2v-.31l-.39-.25-.53-.11-.26-.48.59-.15,1-.61.59.17.66-.06.48-.38.66,0,0,.31-1,.54-1,.2-.19.22.32.26,1.52-.57,1.82-.72-.16-.29.48-.41.45.07-.15.44s0,.65.11.68,1.14.16,1.14.16l.64-.35H188l1.3.14.79-.53,0-.4-.2-.2.11-.4,1.76-1.2,1.48-.52.77-.46.22-.48-.21-.3-.65-1.49.48-1,.55-.66,0-.76.36-.31.65-.46.14-.78-.2-.12,1.1-1.77,1.49-1.75,0-.79-.3-2.48-.26-.47.48-1.5.39-.59.08-.5,1.16-.94.17-.45-.31-1.45.62-1.75-.17-1.35.23-1-.06-.57.34-1.47-.39-5.3v-1l.31-.74v-.7L200,123l-.62-.44v-.46l.56-.87-.14-.88.14-.59.51-.14.11-.92-.54-.88-1-.48.28-.11.14-.34.2.42.62.37.56.2.23-.85.53,0,.23.48.4.2-.43.59-.56.42-.14.48.39,0,.76-.71,1-.53,1.33-2,.59-1.49.2-.9.51-.46.5-1.35.56-1.15,2.06-1.41.25-.68.63-.19.44-.74,1.75-1.57,1.55-2.09.4-.57.95-2.1.26-.94.47-.67V99l-.5-.76.2-.78Z" style="fill:#69bfff"/><polygon points="139.44 45.98 138.82 46.82 138.91 47.89 139.2 48.67 139.1 49.55 139.1 50.19 139.81 50.62 140.12 51.24 140.56 51.95 140.72 52.75 140.86 53.11 140.73 53.78 140.11 54.4 140.19 55.38 140.47 55.89 140.11 56.75 139.16 57.39 138.96 57.35 139.1 57.72 139.35 58.36 139.55 58.54 139.55 58.93 140.09 59.52 140.76 59.64 141.18 59.17 141.73 58.96 142.17 59 142.27 59.33 142.55 59.46 142.57 60.49 143.04 60.65 143.73 60.13 143.89 59.5 144.3 59.21 144.97 59.09 145.46 58.14 146.09 57.11 146.84 55.48 146.85 54.78 147.87 53.46 148.83 52.28 149.13 51.82 149.17 51.78 149.84 50.89 149.78 49.9 149.08 49.11 148.74 49.48 148.26 49.05 148.18 48.43 146.79 47 146.43 46.86 145.53 45.98 143.33 45.42 142.34 44.83 141.19 44.72 140.49 45.23 139.78 45.62 139.78 45.62 139.75 45.65 139.44 45.98" style="fill:#662d91"/><polygon points="128.49 45.34 128.52 45.88 127.97 46.52 127.26 46.89 126.3 46.92 125.79 47.88 125.77 48.71 125.1 50.35 125.18 50.85 125.88 51.21 126.35 51.76 126.46 52.15 126.91 52.75 126.95 53.26 127.41 53.66 127.91 53.69 128.21 53.93 128.36 54.51 128.67 55.69 128.65 56.47 129.06 56.78 129.69 57.52 129.79 58.2 130.58 58.51 130.58 58.82 130.8 59.33 131.36 59.72 131.43 59.74 131.75 59.74 131.99 59.93 132.98 60.2 133.64 60.18 133.78 59.88 133.42 59.03 133.23 58.58 132.51 57.87 132.64 57.16 133.4 56.66 134.28 56.88 135.9 56.81 136.65 56.47 137.66 56.52 138.43 57.24 138.96 57.35 139.16 57.39 140.11 56.75 140.47 55.89 140.19 55.38 140.11 54.4 140.73 53.78 140.86 53.11 140.72 52.75 140.56 51.95 140.12 51.24 139.81 50.62 139.1 50.19 139.1 49.55 139.2 48.67 138.91 47.89 138.82 46.82 139.44 45.98 139.75 45.65 139.78 45.62 140.54 44.69 140.49 44.16 139.67 43.79 138.32 43.56 136.77 42.97 136.26 43.03 135.56 43.34 134.35 43.22 132.82 43.53 131.56 43.17 129.84 43.2 128.85 43.56 128.68 44.46 128.69 44.54 128.49 45.34" style="fill:#1a8fe8"/><polygon points="116.44 35.11 115.63 35.73 115.04 35.67 113.97 36.94 114.28 37.48 114.56 38.32 115.6 38.38 116.25 38.88 116.25 39.81 114.98 40.38 114.31 40.12 113.77 40.41 113.15 40.12 112.62 40.74 112.44 41.92 111.66 42.66 112.02 43.64 113.04 45.05 114.5 46.26 114.51 46.35 114.9 46.41 115.2 46.75 115.63 46.46 116.5 46.55 117.15 47.36 117.15 48.41 116.67 49.16 116.33 49.65 117.01 49.98 117.83 49.93 118.08 50.49 118.45 51.05 119.18 51 119.2 51.42 118.5 52.29 118.25 53.37 117.49 54.69 117.54 55.53 117.26 56.1 117.15 56.81 117.35 57.2 117.18 57.73 117.26 58.52 117.97 59.25 118.81 60.1 118.84 60.66 119.41 61.36 120.95 62.69 121.57 62.94 122.06 62.32 122.59 62.18 122.7 62.43 123.6 62.35 124.14 61.71 124.25 61.34 125.07 61.08 126.68 61.14 127.12 59.9 127.94 59.56 129.09 59.5 129.4 59.85 130.11 59.73 131.38 59.73 131.36 59.72 130.8 59.33 130.58 58.82 130.58 58.51 129.79 58.2 129.69 57.52 129.06 56.78 128.65 56.47 128.67 55.69 128.36 54.51 128.21 53.93 127.91 53.69 127.41 53.66 126.95 53.26 126.91 52.75 126.46 52.15 126.35 51.76 125.88 51.21 125.18 50.85 125.1 50.35 125.77 48.71 125.79 47.88 126.3 46.92 127.26 46.89 127.97 46.52 128.52 45.88 128.49 45.34 128.69 44.54 128.68 44.46 128.68 44.46 128.45 43.68 128.45 42.72 128.2 42.13 126.74 41.73 125.47 40.41 124.75 39.84 124.27 40.09 123.48 40.36 122.94 40.96 122.78 41.7 122.64 40.76 122.81 39.55 123.06 38.85 122.66 37.56 122.07 37.11 120.53 36.16 119.5 35 119.41 34.38 118.65 33.66 117.94 33.5 117.72 33.36 117.6 33.73 116.44 35.11" style="fill:#00058b"/><polygon points="72.99 19.82 70.99 20.6 69.82 22.4 69.45 22.85 68.78 23.02 68.16 23.93 67.54 24.46 66.3 26.23 66.07 27.02 66.33 27.7 66.21 29 65.62 30.27 65.54 30.66 66.05 30.6 66.72 30.63 68.26 33.46 68.96 34.5 69.15 35.24 68.76 36.09 68.82 36.63 68.55 37.08 68.59 37.64 69.48 38.38 70.58 38.86 71.27 38.95 72.09 39.34 72.73 39.02 72.73 39.02 72.73 39.02 73.73 39.04 74.67 39.32 74.96 39.09 76.08 38.89 77.33 39.13 78.03 39.42 80.98 42.34 82.06 42.11 82.34 42.35 82.65 42.24 83.44 42.48 83.95 42.76 84.68 42.35 85.46 42.34 86.53 42.44 86.73 42.22 87.41 42.19 88.04 42.52 88.28 44.03 87.97 44.65 87.97 45.35 87.71 45.83 86.78 46.11 86.35 46.65 86.57 48.05 86.66 48.56 86.36 49.53 86.39 50.77 86.81 51.39 86.84 51.84 87.68 53.93 86.42 56.23 86.53 56.8 86.95 56.94 87.33 56.66 87.5 56.84 87.67 57.47 88.05 57.69 88.46 58.47 88.25 58.91 88.7 59.89 89.48 61.88 89.55 62.62 89.5 62.63 91 63.66 92.56 64.86 93.46 64.98 95.05 64.9 95.97 63.8 97.32 62.92 97.96 62.16 99.97 61.11 100.33 60.1 100.66 59.74 100.98 59.39 102.81 59.03 103.71 58.61 103.66 57.82 102.42 57.56 101.18 57.7 99.37 57.11 99.63 55.81 99.4 55.39 99.2 55.03 100.3 53.34 100.02 52.61 99.17 51.81 98.36 51.51 97.85 50.55 98.98 50.89 100.19 51.08 101.4 51.76 102.76 51.68 104.5 51.45 104.92 51.73 106.17 51.31 107.43 50.18 108.53 50.07 109.18 50.38 109.18 50.38 110.92 49.65 112.19 49.53 114.22 48.1 114.59 47.17 114.51 46.35 114.5 46.26 113.04 45.05 112.02 43.64 111.66 42.66 112.44 41.92 112.62 40.74 113.15 40.12 113.77 40.41 114.31 40.12 114.98 40.38 116.25 39.81 116.25 38.88 115.6 38.38 114.56 38.32 114.28 37.48 113.97 36.94 115.04 35.67 115.63 35.73 116.44 35.11 117.6 33.73 117.72 33.36 117.52 33.23 116.02 32.55 115.48 32.54 114.96 32.75 114.17 32.58 113.73 32.6 113.1 32.88 111.84 33.08 110.92 32.98 110.45 32.91 111.27 32.77 111.73 32.83 112.28 32.46 112.63 31.84 113.44 31.23 113.61 30.83 113.07 30.46 113.13 30.21 112.9 29.59 111.84 29.02 110.54 28.69 110.14 28.29 109.67 27.98 108.9 27.96 108.65 27.59 107.86 27.25 107.44 27.28 107.47 27.93 106.96 27.25 106.65 26.49 105.86 26.1 105.64 25.68 106.06 25.34 107.81 25.39 108.46 24.97 109.55 24.86 109.67 24.21 108.65 24.4 106.91 24.04 105.64 24.21 104.79 24.16 103.08 24.77 102.48 24.52 101.78 24.6 100.34 25.62 99.61 25.79 98.73 26.24 98.4 26.66 97.24 26.81 96.88 27.03 96.28 26.83 94.57 25.68 94.23 24.97 93.72 24.88 91.81 25.02 88.12 25.64 86.31 25.64 85.61 25.28 85.33 24.71 85.33 24.04 85.78 24.02 85.69 23.23 84.91 22.16 84.17 21.95 82.31 22.1 81.47 21.62 80.85 21.59 80.34 21.76 79.69 20.72 79.69 19.67 79.41 18.38 79.04 18.24 77.94 18.69 76.87 19.96 77.13 20.8 77.5 21.14 78.23 20.75 78.93 20.8 79.55 21.48 79.44 21.95 78.76 22.16 77.97 21.78 77.61 21.54 77.44 21.76 77.41 22.07 76.51 22.55 74.79 22.85 73.07 23.59 72.53 24.27 72.53 24.92 72.97 25.73 72.97 27.31 73.14 28.38 73.48 29.28 72.92 30.47 71.56 31.25 70.89 31.14 70.89 30.02 70.1 29.11 69.87 28.32 70.6 27.7 70.66 27.25 72.13 25.79 72.13 24.54 71.66 23.73 71.72 23.36 71.69 22.89 71.07 22.43 70.76 21.78 70.96 21.25 71.86 20.86 72.79 20.63 73.61 19.69 73.18 19.68 72.99 19.82" style="fill:#662d91"/><polygon points="45.03 63.25 46.78 64.39 47.48 64.4 48.39 65.36 48.25 65.94 48.41 66.45 49.61 66.55 50.97 67.22 51.44 67.54 52.7 67.82 53.18 67.39 53.13 66.58 53.71 66.13 53.98 66.14 55.15 66.56 55.76 66.89 55.94 67.4 56.47 67.7 56.55 67.76 56.83 67.73 57.28 68.18 58.69 68.52 59.57 68.72 59.79 69.14 60.72 70.24 60.8 70.97 61.45 72.19 61.96 72.19 63.82 72.8 64.61 73.96 64.58 74.89 64.86 74.97 65.51 75.28 65.85 76.27 65.59 76.67 65.82 77.23 66.55 77.54 67.37 77.34 68.04 77.51 69 77.48 69.4 77.14 70.64 76.58 71.71 76.78 72.64 77.23 73.99 76.64 74.69 76.64 75 77.09 75.45 77.06 76.33 77.48 76.72 78.02 77.48 77.76 77.54 78.3 75 82.58 75.14 83.06 76.02 82.98 77 82.89 77.59 83.54 77.79 84.39 78.44 82.23 80.64 74.07 80.67 73.48 80.72 72.16 79.76 70.47 78.3 69.34 77.62 68.47 77.51 66.33 80.13 65.42 81.06 66.04 81.26 65.4 80.81 64.92 81.23 64.44 80.67 63.39 79.17 63 78.81 62.07 79.06 60.8 83.49 60.78 83.96 60.23 84.72 60.23 85.15 60.63 85.65 60.55 86.42 59.7 87.48 59.42 87.7 60.02 88.35 60.82 88.5 61.68 88.48 62.75 89.5 62.63 89.55 62.62 89.48 61.88 88.7 59.89 88.25 58.91 88.46 58.47 88.05 57.69 87.67 57.47 87.5 56.84 87.33 56.66 86.95 56.94 86.53 56.8 86.42 56.23 87.68 53.93 86.84 51.84 86.81 51.39 86.39 50.77 86.36 49.53 86.36 49.53 86.66 48.56 86.57 48.05 86.35 46.65 86.78 46.11 87.71 45.83 87.97 45.35 87.97 44.65 88.28 44.03 88.04 42.52 87.41 42.19 86.73 42.22 86.53 42.44 85.46 42.34 84.68 42.35 83.95 42.76 83.44 42.48 82.65 42.24 82.34 42.35 82.06 42.11 80.98 42.34 78.03 39.42 77.33 39.13 76.08 38.89 74.96 39.09 74.67 39.32 73.73 39.04 72.73 39.02 72.73 39.02 72.09 39.34 71.27 38.95 70.58 38.86 69.48 38.38 68.59 37.64 68.55 37.08 68.82 36.63 68.76 36.09 69.15 35.24 68.96 34.5 68.26 33.46 66.72 30.63 66.05 30.6 65.54 30.66 65.62 30.27 66.21 29 66.33 27.7 66.07 27.02 66.3 26.23 67.54 24.46 68.16 23.93 68.78 23.02 69.45 22.85 69.82 22.4 70.99 20.6 72.99 19.82 73.18 19.68 73.61 19.69 73.72 19.56 74.17 19.22 74.34 18.77 73.89 18.18 72.48 17.42 71.92 17.39 71.72 17.73 71.66 18.09 71.07 18.18 70.76 18.43 70.12 18.35 69.55 18.58 69.24 18.94 69.58 19.34 69.33 19.7 68.31 20.21 66.96 21.02 66.06 21.68 65.01 21.9 63.86 21.98 62.59 21.84 61.8 22.26 61.86 22.74 62.12 23.36 62.03 23.99 61.44 24.52 61.04 24.35 61.19 23.73 61.1 23.53 61.66 23.33 60.84 23.25 59.86 22.83 59.35 22.85 58.06 23.64 57.75 24.18 56.87 25.19 55.83 27.17 55.69 27.73 56 27.59 56.28 27.9 56.4 28.55 56.17 29.25 55.61 29.54 54.87 29.59 54.31 29.9 53.3 30.88 52.87 31.11 52.11 32.24 51.66 32.29 51.01 32.32 51.24 33.06 51.92 33.81 51.92 34.77 51.52 35.62 51.1 35.59 50.39 35 50.48 34.72 50.73 34.27 50.14 34.02 49.89 33.28 49.03 32.52 48.86 33.2 48.99 33.71 49.34 34.69 48.77 35.69 48.51 36.64 48.02 37.02 47.65 37.05 47.13 38.23 47.3 38.38 47.47 39.28 47.54 40.17 48.32 41.12 48.61 41.09 48.99 40.9 49.2 41.25 49.3 42.11 48.82 42.64 48.81 42.98 49.27 43.49 49.27 44.58 48.76 44.97 48.46 45.53 48.76 45.66 49.08 46.38 48.98 47.7 49.05 49.52 48.51 50.15 48.41 50.7 48.88 51.35 49.57 51.06 49.47 51.49 49.87 52.06 50.27 52.02 50.32 52.38 49.91 52.89 49.58 53.76 48.11 55.22 47.72 56.04 46.62 57.11 45.16 57.44 44.02 58.28 42.96 59.92 42.78 61.22 42.61 61.94 43.75 62.37 45.03 63.25" style="fill:#00058b"/><polygon points="38.52 83.14 37.7 83.57 37.06 84.3 37.17 85.06 37.95 85.09 38.83 84.69 39.2 85.29 40.38 85.54 41.08 85.82 42.21 87.42 42.72 87.42 43.45 86.66 46.49 80.36 47.05 79.85 51.06 78.53 52.75 77.34 55.45 74.86 56.53 72.3 57.23 72.26 57.4 71.91 57.59 71 57.51 70.27 56.71 68.74 56.73 68.33 56.55 67.76 56.55 67.76 56.47 67.7 55.94 67.4 55.76 66.89 55.15 66.56 53.98 66.14 53.71 66.13 53.13 66.58 53.18 67.39 52.7 67.82 51.44 67.54 50.97 67.22 49.61 66.55 48.41 66.45 48.25 65.94 48.39 65.36 47.48 64.4 46.78 64.39 45.03 63.25 43.75 62.37 42.61 61.94 42.39 62.86 41.26 62.91 39.4 64.21 38.44 64.27 37.42 64.78 37.93 65.68 37.99 66.24 38.33 66.8 38.1 67.88 36.64 69.45 36.52 70.14 36.86 70.58 36.13 71.66 35.28 71.77 34.6 72.72 34.88 73.35 35.18 74.16 35.1 74.78 35.24 75.93 34.81 76.67 34.42 77.03 34.87 77.62 35.72 77.96 36.5 78.78 37.16 79.2 37.47 78.97 37.8 78.05 38.05 77.57 38.62 77 38.64 77.68 38.73 78.27 38.87 77.9 38.81 77.28 39.07 77.34 39.32 78.35 39.13 79.45 39.24 80.04 38.84 81.03 37.83 81.89 38.18 82.08 38.52 83.14" style="fill:#69bfff"/><polygon points="80.16 141.12 80.67 141.23 81.43 140.76 81.71 140.11 81 139.44 81.26 138.76 81.65 138.11 82.2 138.24 82.1 137.75 81.63 137.66 81.28 137.29 81.88 136.02 82.75 135.43 83.54 134.39 83.62 133.46 82.5 130.87 82.89 130.25 82.81 129.26 82.55 128.76 82.39 127.94 82.86 127.4 83.15 126.05 83.03 123.54 82.67 122.45 83.15 121.21 83.12 118.5 83.76 117.43 83.74 116.87 80.13 111.71 80.13 111.71 80.02 111.66 79.63 111.48 79.2 111.53 78.36 111.59 77.61 111.8 76.83 111.94 76.35 111.48 76.31 110.56 76.1 108.26 76.13 106.86 76.41 106.56 76.59 105.69 76.2 105.27 74.8 106.08 73.15 107.59 71.16 107.46 69.48 107.4 69.23 106.31 68.39 105.06 67.23 104.86 64.81 105.06 65.79 103.82 63.87 100.72 62.8 99.65 63 99.06 62.72 98.41 63.03 97.68 63.17 96.81 62.92 96.27 63.31 95.85 63.37 95.06 64.47 94.36 65.03 94.47 65.68 93.85 65.31 93.15 64.95 91.79 66.02 90.72 65.85 90.1 66.24 89.51 66.13 88.5 66.83 88.05 67.76 87.63 68.58 86.81 69.03 86.66 69.54 86.16 71.54 85.74 74.22 84.86 74.5 84.24 74.83 84.38 75.59 84.38 75.91 84.3 76.78 84.86 76.7 85.12 77.54 85.34 77.88 84.78 77.59 83.54 77 82.89 76.02 82.98 75.14 83.06 75 82.58 77.54 78.3 77.48 77.76 76.72 78.02 76.33 77.48 75.45 77.06 75 77.09 74.69 76.64 73.99 76.64 72.64 77.23 71.71 76.78 70.64 76.58 69.4 77.14 69 77.48 68.04 77.51 67.37 77.34 66.55 77.54 65.82 77.23 65.59 76.67 65.85 76.27 65.51 75.28 64.86 74.97 64.58 74.89 64.61 73.96 63.82 72.8 61.96 72.19 61.45 72.19 60.8 70.97 60.72 70.24 59.79 69.14 59.57 68.72 58.69 68.52 57.28 68.18 56.83 67.73 56.55 67.76 56.55 67.76 56.73 68.33 56.71 68.74 57.51 70.27 57.59 71 57.4 71.91 57.23 72.26 56.53 72.3 55.45 74.86 52.75 77.34 51.06 78.53 47.05 79.85 46.49 80.36 43.45 86.66 42.72 87.42 42.21 87.42 41.08 85.82 40.38 85.54 39.2 85.29 38.83 84.69 37.95 85.09 37.17 85.06 37.06 84.3 37.7 83.57 38.52 83.14 38.18 82.08 37.83 81.89 37.77 81.93 35.86 82.78 35.15 83.42 33.8 84.75 33.52 85.74 33.21 86.5 33.3 86.86 33.91 87.37 34 87.93 33.52 88.27 33.52 88.69 34.28 89.37 34.87 90.47 34.79 91.23 34.2 91.26 33.57 91.54 33.35 92.13 34 92.75 34.79 93.06 35.94 94.04 37.01 94.19 38.62 95.25 39.41 95.45 39.6 96.1 40.48 97.34 40.59 98.41 41.04 99.2 42.62 100.02 43.32 101.17 43.55 102.3 44 103.06 44.14 104.33 44.67 105.2 45.3 105.57 46 106.83 46.14 107.77 45.92 108.08 46.54 109.43 47.77 110.98 48.25 111.79 48.05 112.44 48.2 112.98 48.7 113.14 50.03 114.33 50.37 115.04 50.51 116.13 50.87 116.61 51.89 116.98 52.09 117.91 53.21 119.71 53.49 120.61 54.79 122.44 54.82 123.17 54.48 123.32 54.11 123.06 54.09 123.46 54.22 124.11 54.22 124.69 54.68 124.61 55.18 124.95 55.3 125.46 55.13 125.85 56.42 126.75 57.66 127.37 57.72 127.91 58.31 128.64 59.04 128.72 59.34 129.1 59.62 129.75 60.11 130.07 61.3 130.01 61.68 129.55 61.44 130.23 62.12 131 63.37 131.66 63.94 132.18 64.03 132.76 64.63 133.15 65.57 133.5 65.92 133.37 66.58 133.55 68.09 134.47 69.12 134.87 69.85 134.91 70.2 135.09 70.42 135.62 71.49 136.39 72.08 136.76 72.93 137.55 73.45 137.77 73.71 138.26 73.65 138.67 73.66 139.22 74.55 139.4 75.44 139.77 76.52 140.88 77.51 141.8 78.19 142.02 78.34 142.16 79.31 141.69 80.16 141.12" style="fill:#1a8fe8"/><polygon points="83.74 116.87 83.76 117.43 83.12 118.5 83.15 121.21 82.67 122.45 83.03 123.54 83.15 126.05 82.86 127.4 82.39 127.94 82.55 128.76 82.81 129.26 82.89 130.25 82.5 130.87 83.62 133.46 83.54 134.39 82.75 135.43 81.88 136.02 81.28 137.29 81.63 137.66 82.1 137.75 82.2 138.24 82.39 138.28 82.47 139.27 83.26 139.97 83.68 140.36 83.79 141.1 83.62 141.86 83.76 142.28 83.96 143.6 84.58 144.48 86.36 145.92 86.51 146.52 86.06 147.65 86.34 148.44 85.38 150.53 85.94 151.32 87.86 153.12 90.74 160.86 91.81 160.86 92.09 160.35 92.72 160.24 92.72 160.24 93.22 159.62 93.9 158.21 95.43 156.62 96.44 156.29 97.4 157.13 98.53 157.02 99.2 156.85 100.05 157.08 101.46 156.79 102.2 156.91 102.36 157.92 102.93 159.56 103.21 160.01 103.55 159.56 103.49 158.82 103.94 158.09 103.94 157.36 104.56 156.45 106.82 156.45 108.8 156.51 109.53 157.2 109.86 155.89 110.9 153.75 110.98 152.71 110.84 151.63 110.45 151.01 111.68 149.18 112.19 147.72 112.19 147.07 113.09 146.48 118.45 145 122.91 145.06 125.5 146.97 126.12 147.08 126.55 147.58 127.08 146.86 126.97 146.3 128.89 142.46 128.77 140.54 126.74 136.93 124.71 136.48 124.82 134.9 124.48 132.42 117.6 132.3 117.71 130.5 116.25 128.01 116.7 127.11 116.36 125.64 116.59 123.84 116.25 123.16 114.66 122.26 112.41 122.48 111.39 121.92 110.6 121.7 110.38 120.56 109.3 120.17 107.61 119.61 107 119.66 105.58 118.14 104.56 118.42 103.21 117.07 101.57 117.46 101.24 117.86 100.39 117.07 99.15 116.28 98.25 115.83 97.96 114.64 97.06 114.25 96.38 112.78 96.72 111.99 96.22 110.18 96.83 109.06 96.38 107.64 96.5 106.74 96.05 106.34 95.14 106.91 94.35 106.34 93.5 106.34 92.26 106.97 90.97 107.19 89.11 108.38 88.43 110.12 87.3 110.46 86.34 110.46 85.49 111.14 84.87 111.14 83.74 111.76 82.61 111.7 80.13 111.71 80.13 111.71 83.74 116.87" style="fill:#00058b"/><polygon points="125.5 146.97 122.91 145.06 118.45 145 113.09 146.48 112.19 147.07 112.19 147.72 111.68 149.18 110.45 151.01 110.84 151.63 110.98 152.71 110.9 153.75 109.86 155.89 109.53 157.2 109.64 157.3 110.55 158.26 111.28 158.43 112.24 160.18 114.66 162.6 115.63 162.72 116.59 163.56 117.21 164.58 119.58 165.14 121.1 165.93 121.8 166.09 123.52 167.58 125.26 168.45 127.6 168.76 128.53 169.8 129.69 170.76 130.14 171.72 129.88 172.56 129.29 173.5 128.62 174 128.22 174.65 128.45 175.47 127.89 176.99 126.68 178.23 126.45 179.1 127.12 179.07 129.88 178.66 132.22 179.35 133.86 180.34 134.76 179.95 135.26 179.95 135.66 180.37 136.45 179.35 136.82 179.16 137.66 179.41 138.37 178.54 138.68 177.52 140.45 176.28 140.7 175.44 141.24 174.48 141.94 173.89 142.03 172.45 141.89 172.06 141.97 170.96 142.19 170.81 142.23 170.34 142.33 169.94 142.33 169.44 142.43 169.3 142.59 168.88 142.69 165.2 143.07 164.56 142.51 164.45 141.91 163.91 141.04 163.58 139.49 164.42 138.79 164.23 138.11 162.74 137.13 158.48 136.84 157.58 136.1 157.36 135.15 156.68 133.34 157.42 132.22 157.02 130.41 157.13 129.79 156.85 128.32 156.96 128.04 156.12 128.32 155.27 128.1 154.31 128.49 151.94 127.7 150.76 127.64 149.57 126.68 148.84 126.91 147.99 126.12 147.08 125.5 146.97" style="fill:#1a8fe8"/><polygon points="149.18 206.32 149.07 206.13 148.93 205.84 148.56 204.65 149.3 203.64 149.47 202.54 148.59 201.92 147.63 200.49 146.73 199.36 145.21 198.69 144.45 198.85 144.39 197.78 143.49 196.88 142.56 196.68 141.49 196.2 140.59 194.74 140.2 194.68 139.44 195.5 138.99 195.5 138.05 193.97 137.58 192.9 136.79 192.57 135.88 191.33 135.07 190.79 133.09 191.39 132.68 191.16 132.09 191.14 132.03 191.36 131.66 192.23 130.96 193.13 131.21 194.37 130.9 194.97 131.12 195.61 130.99 197.36 130.7 197.98 130.79 198.66 130.31 199.5 130.7 200.71 130.42 201.13 130.62 202.88 130.96 204.15 130.71 204.72 130.13 205.26 129.98 205.52 129.98 205.59 130 207.32 130.54 208.72 131.68 210.31 132.08 210.4 133.16 211.48 133.74 211.63 135.47 211.46 136.48 211.53 137.41 212.17 138.01 212.27 138.61 212.31 138.81 212.51 138.7 212.8 138.69 213.22 139.47 213.25 140.32 212.73 141.42 212.53 142.2 212.8 142.69 213.09 143.1 213.01 143.68 213.23 144.26 213.29 144.64 213.01 144.74 212.54 144.94 212.4 145.26 212.68 146.71 212.15 147.66 211.06 147.91 210.65 147.77 210.52 148.15 209.91 148.91 209.21 148.91 208.11 149.53 207.38 149.85 207.11 149.63 206.93 149.18 206.32" style="fill:#00058b"/><polygon points="130.13 205.26 130.71 204.72 130.96 204.15 130.62 202.88 130.42 201.13 130.7 200.71 130.31 199.5 130.79 198.66 130.7 197.98 130.99 197.36 131.12 195.61 130.9 194.97 131.21 194.37 130.96 193.13 131.66 192.23 132.03 191.36 132.09 191.14 132.19 190.79 132.93 190.29 132.93 189.92 133.57 188.85 134.14 188.26 134.93 186.82 135.24 186.34 135.8 186.17 135.77 185.3 136 184.71 137.24 183.19 137.72 183.27 138.25 183.1 138.31 182.15 138.79 181.97 140.25 180.76 140.87 180.59 141.18 180.09 142.79 179.02 143.04 179.16 143.6 178.68 143.75 178.37 144.7 177.86 145.49 177.89 145.72 177.33 145.58 175.92 145.41 174.4 145.47 173.07 144.73 171.41 144.68 170.62 142.87 170.37 142.19 170.81 141.97 170.96 141.89 172.06 142.03 172.45 141.94 173.89 141.24 174.48 140.7 175.44 140.45 176.28 138.68 177.52 138.37 178.54 137.66 179.41 136.82 179.16 136.45 179.35 135.66 180.37 135.26 179.95 134.76 179.95 133.86 180.34 132.22 179.35 129.88 178.66 127.12 179.07 126.45 179.1 126.68 178.23 127.89 176.99 128.45 175.47 128.22 174.65 128.62 174 129.29 173.5 129.88 172.56 130.14 171.72 129.69 170.76 128.53 169.8 127.6 168.76 125.26 168.45 123.52 167.58 121.8 166.09 121.1 165.93 119.58 165.14 117.21 164.58 116.59 163.56 115.63 162.72 114.66 162.6 112.24 160.18 111.28 158.43 110.55 158.26 109.64 157.3 109.53 157.2 108.8 156.51 106.82 156.45 104.56 156.45 103.94 157.36 103.94 158.09 103.49 158.82 103.55 159.56 103.21 160.01 102.93 159.56 102.36 157.92 102.2 156.91 101.46 156.79 100.05 157.08 99.2 156.85 98.53 157.02 97.4 157.13 96.44 156.29 95.43 156.62 93.9 158.21 93.22 159.62 92.72 160.24 93.23 161.3 92.22 165.72 87.54 168.2 87.23 169.21 88.05 169.89 88.25 170.59 87.77 171.44 87.99 172.76 88.84 173.83 88.84 174.82 88.13 175.36 87.96 176.12 88.44 176.51 88.73 177.07 88.78 178.17 89.14 178.57 88.56 179.27 87.8 179.66 86.78 180.71 85.74 183.33 85 184.31 84.72 187.22 84.19 187.75 84.3 190.2 85 191.5 84.95 193.22 84.33 194.01 84.3 195.95 83.2 196.46 83 197.95 83.4 199.87 84.1 200.82 84.25 201.55 85.15 202.99 85.77 204.17 86.25 206.46 86.81 206.99 87.14 210.01 86.95 211.87 86.19 212.12 85.54 213.7 85.77 215.25 84.86 216.57 85.4 217.02 86.19 218.34 86.39 219.75 85.45 220.71 84.64 222.35 84.67 225.05 84.67 226.18 84.39 227.7 86.72 232.29 86.16 232.97 85.12 233.47 84.89 235.62 83.45 237.53 83.62 238.89 84.36 240.1 84.1 243.02 84.25 245.59 84.58 247.42 85.32 247.79 85.74 248.57 85.48 249.59 84.64 250.15 84.81 253.14 85.17 254.29 86.42 254.72 86.33 256.04 86.39 257.17 87.12 258.75 87.49 260.55 88.22 260.69 88.81 260.28 89.34 260.49 89.39 261.44 88.54 262.44 86.77 262.43 86.49 263.09 86.97 263.56 87.22 263.33 88.04 263.33 89.34 264.24 90.14 265.68 90.17 266.57 89.17 267.44 89.1 268.21 89.61 269.24 89.9 271.4 90.35 273.07 89.65 273.79 89.52 274.7 90.3 276.55 89.51 277.45 89.2 279.23 89.71 280.75 90.1 282.81 89.71 284.81 88.36 286.21 87.54 287.4 87.03 290.89 87.26 292.14 88.98 295.57 89.79 295.59 90.46 294.83 91.71 294.22 92.53 294.19 92.53 295.23 92.78 297.48 93.63 298.25 94.02 299.63 94.64 301.26 96.53 301.4 97.17 301.77 99.99 301.29 105.05 301.29 105.31 301.62 106.16 301.74 107.23 302.71 108.14 303.13 108.48 303.16 108.4 302.43 107.61 301.81 106.28 300.99 106.14 300.23 105.47 299.59 105.02 299.72 104.6 299.3 105.18 298.96 105.33 298.45 105.1 298.34 105.1 297.78 104.45 295.98 103.69 294.8 103.56 293.64 104 292.34 104.96 291.56 105.3 290.93 105.02 290.63 105.02 289.92 104.65 289.44 105.16 289.72 105.67 290.29 106.26 290.49 107.07 289.81 107.19 289.19 107.89 288.37 108.12 287.75 107.86 286.57 107.27 286.43 106.91 286.7 107.07 286.2 107.75 285.55 108.03 284.71 108.2 283.83 109.1 282.96 109.86 282.91 110.14 282 110.71 281.24 111.1 281.1 111.25 280.48 111.86 280.17 112.48 279.47 112.34 279.19 112.43 278.68 112.9 278.35 112.2 277.69 111.75 277.69 112.43 277.05 112.43 276.43 111.98 275.5 111.98 275.08 112.26 274.76 112 274.34 111.39 274.15 111.04 274.31 110.34 274.29 109.05 274.4 107.5 272.96 106.46 272.06 105.92 271.89 105.13 271.25 104.28 269.84 104.28 268.99 103.81 268.34 103.86 267.86 104.74 267.24 105.05 266.57 105.33 265.63 105.83 265.52 106.48 264.76 107.36 264.65 108.09 263.87 109.22 263.7 109.92 263.81 111.16 263.58 111.22 263.24 110.85 262.88 110.09 262.6 110.2 262.25 110.34 261.67 111.41 260.96 111.22 260.74 111.58 260.2 111.61 259.83 110.68 258.82 110.82 258.34 110.82 257.8 110.54 257.38 110.28 256.39 110.9 255.75 111.22 254.99 110.94 254.68 111.39 254.18 112.59 253.72 113.44 252.93 113.41 252.54 112.26 252.2 111.47 252.17 111.13 251.61 111.27 251.19 111.98 250.65 113.02 250.25 113.98 250.76 113.98 251.22 113.84 251.55 114.14 252.31 114.71 252.51 116.23 251.64 116.46 250.88 116.09 250.06 115.58 249.44 115.89 249.3 116.06 248.6 115.53 247.69 114.94 247.64 114.17 248.14 113.58 248.17 113.22 248.48 113.44 248.65 114.09 248.82 114.03 249.24 112.71 249.63 112.11 249.41 112.48 249.04 112.93 248.79 112.51 248.56 111.33 248.65 110.43 248.14 110.17 247.44 110.2 245.57 109.89 244.17 109.05 243.41 109.08 242.03 109.86 241.24 110.45 241.21 110.2 241.66 110.43 241.8 111.3 241.72 112.79 242.2 114.17 243.35 115.36 243.64 117.56 243.61 118.88 242.71 118.77 242.45 119.67 241.8 119.84 241.07 119.64 240.51 119.86 240.09 120.09 239.44 119.41 239.24 118.93 238.43 118.93 237.72 119.22 237.19 119.05 236.82 119.75 236.12 119.73 235.86 120 235.78 120.12 235.27 119.98 234.59 119.33 234.53 119.41 234.12 119.05 233.58 119.05 232.19 118.85 231.75 118.85 231.1 119.11 230.84 119.44 231.3 119.98 231.3 121.08 231.66 121.95 232.22 122.71 232.22 123.92 232 125.22 232.19 126.85 232.11 129.58 231.41 131.98 230.43 132.09 229.92 132.4 230.34 134.06 229.78 136.2 228.45 136.51 227.69 136.29 226.79 136.68 225.58 136.96 225.32 137.07 225.75 137.36 225.35 137.64 224.11 138.4 222.88 138.57 222.11 138.57 220.45 138.4 219.81 138.2 219.77 137.7 220.31 136.85 220.28 135.84 219.6 135.25 218.48 135.3 217.92 136.26 216 136.32 215.21 135.87 214.65 133.84 213.08 132.2 212.45 130.57 211.18 130.17 210.48 130.43 210.22 130.4 209.55 129.9 209.03 130.06 208.6 129.78 207.18 129.98 205.59 129.98 205.59 129.98 205.52 130.13 205.26" style="fill:#662d91"/><polygon points="77.47 268.43 77.89 268.45 77.78 267.78 77.44 267.81 77.47 268.43" style="fill:#fd7400"/><path d="M119.39,311.17l-.57-.21-1.21.28-.68-.07-.8-.73-.95-.29-.31-.35-2.55-.83-.71-.24,0-.75-.83-.69-.85-.12-.38-1.09-.36-.64-.8.14-.72-.27-.09,0,.06-.12-.61-2.43.12-.07.13,0-.34-.3-.24-1-.69.29-.64-.09-.27-.33H100l-2.82.48-.64-.37-1.89-.14L94,299.63l-.39-1.38-.85-.77-.25-2.25v-1l-.82,0-1.25.61-.67.76-.81,0-1.72-3.43L87,290.89l.51-3.49.82-1.19,1.35-1.4.39-2-.39-2.06-.51-1.52.31-1.78.79-.9-.78-1.85.13-.91.7-.72-.45-1.67-.29-2.16-.51-1,.07-.76,1-.88,0-.89-.8-1.44-1.3-.91h-.82l-.25.23-.48-.47.28-.66h1.77l.85-1,0-.95-.52-.21-.6.41-.73-.14-.37-1.8-.74-1.58,0-1.13.09-1.32-1.25-.43-.36-1.15-.17-3,.85-.56.25-1-.42-.78-.74-.37-.33-1.83L84.1,243l.26-2.92-.74-1.21-.17-1.36,1.44-1.91.23-2.15,1-.5.56-.68-2.33-4.59.28-1.52v-1.13l0-2.7.81-1.64.93-1-.19-1.41L85.4,217l-.53-.45.9-1.32-.23-1.55.65-1.58.76-.25.19-1.86-.33-3-.56-.53-.48-2.29L85.15,203l-.9-1.44-.15-.73-.7-.95L83,198l.2-1.5,1.1-.5,0-1.94.62-.79,0-1.72-.7-1.3-.11-2.45.53-.53.28-2.91.74-1,1-2.62,1-1.05.76-.39.58-.7-.36-.4,0-1.1-.29-.56-.48-.4.17-.75.71-.54v-1L88,172.76l-.22-1.32.48-.85-.2-.7-.82-.68.31-1,4.68-2.48,1-4.42-.51-1.07-.63.12-.28.51H90.74l-2.88-7.74-1.92-1.8-.56-.79,1-2.09-.28-.79.45-1.13-.15-.6-1.78-1.44L84,143.6l-.2-1.32-.14-.42.17-.76-.11-.74-.42-.39-.79-.7-.09-1-.18,0-.55-.13-.39.65-.26.68.71.67-.28.65-.76.47-.51-.11-.85.57-1,.47.33.31.09,1.1-.1.83.18,1.1.63,2.92v1.09l-.23.8-.42.45.31,1.49.48,1.46.5,1.24v2l-.22.57-.17.36.14,2.76v.68l-.56.33-.54.37.09,1.55.25.39.51-.36.3.28-.47.45,0,4.09L80,170l.11,1.21-.14,1-.65,1v1l.74,1.32-.18.82-.08,2-.42.74v1.06l.2.57v.48l-.65,1,0,1-.4.64.23,1.24-.15.54-.65,1.46v.62l.71,1.11.14,1.12.45.7-.56.4-.34.87.53.68-.56.67-.53.23,0,1,.17.87.08.82.91,2.33v1.3l-.37.42.08.7.82,1.19.06,1.38-.26,1,0,.39.2.68-.12.59-.19.67.22.39.88,1.22.11.68-.43.67-.59.37-.53,1.1v.33l.31.37-.28.93-.45.51v.65l-.11,1.18-.35.65.06.7-.19.34-.09,1-.45.47.06.43.28.45-.48.7,0,1.07-.09.66-.53.36v.73l-.26.48,0,.56.25.65,0,.79-.45.65-.45.05-.48-.36-.56.14-.09.48.14.84,0,1.19.53.79.84.7.12.81L76,231.58l1.21,2.06.2.56.47.45V236l-.33,1.72-.31.25.14.54-.14.51-.29-.17-.42.06-.26.7.2.73.51.42-.42,1.61.14.7-.37.45.43.37-.17.53-.17.25.25.41.91,1.41a4,4,0,0,0-.09.77v.92l-.82-.49-1.79,1.13.41,1.37,1.16,3.21.23,2.42-1.49-.64,0,.7,2.29,2.78-.08,1.51.13.17V269l-.37-.11-.53.14,0,.44.39.83.29,0,.17.61-.49.09-.25.73-.53.39-.29.65-1,.57-.06.58,1.07,1.19.6.09.36-.4-.05-.48-.71-.2-.08-.39.36-.73,1-.09.2-.25.17.9.73.48.87,0,.37-.4.48.2.28.45,1,.52.4.44-.43.09-.19.39.34.45-.45.34-.34.53.3.45.71.46-.11.22-.71-.31-.25-.37-.42.06-.06.62.59.54.25.53,1,.17,1-.53.42.42.4,0,.58-.25,0,0-.25.44.15.28-.26.17-.71,0-.19.29-.54-.43-1.18.31-.28.56.14.4.76.48.14.65.68.17.56-.32-.09.43-.59.56,0,.4.12.34-.23.45-.42,0-.06.51.46,1.89.42.54,0,.87.45.76.62.25v-1.29l.39-1.47.54-.36.2.33-.37,0L84.54,288l0,.42.6.39.5,0-.2.2-.9.2-.67.62.11.39-.17.71v.68l-.4.27-.3.68,0,.51,1.07.78,1.5.32.59.45-.11.37-.34,0,.22.73.29.4.61-.71,0,.6-.17.48-.62.22-.45.62.39.25h.57v.48l.59.71.36,0,0,0,.34,1.06h-.13l-.34-.25-.37.05L87,300l.71.85L88,301l.25.82.33.45.68.62.39-.06,0,0,.66-.26.14-.38.13.18.17-.44.11.65-.35.5-.35.25h-.87l-.74.28.68.51v.06l-.73.35,1.12,1.13.12.44-.24.42.12.25.53.1.22-.45L91,307l.06.1-.15.06-.55.48.15.41.94.08.42.24.14.22,1.09.5.27.18-.29.35v.31l1.15.38L95,311l.25,0,.16-.36-.17-.59.44-.55.09.18.14,0a2.25,2.25,0,0,0,.13.42l-.27.33.4.65,1.26,1.21,1.11.19.73.41.48,0,.51.27.25-.26.54,0,.17-.31.18-.13.39.18.63.41.32-.14.19.24v.37l.41.25-.47.24-.29.58.37.42h.42l.39.16.54.55h.39l.07-.22-.39-.29-.64-.38-.09-.34.17,0,.47.22.38-.28.1-.28-.44-.09-.36-.25,1.4-.54L106,313l2.6.66.33-.21-.07-.36h1.11l1.12-.38,1.37.12.94-.07,1.35.14.74.4.76.27.73-.19.59-.6.14-.57.71-.21.31.26.83-.47ZM81,273.32h0Zm14.81,31.84v0h0Zm16.39,6.16-.54.11-.88.31-1.57.06h-.37l-.62-.4-1.13-.43-.49-.15a3.3,3.3,0,0,0,.32-.55l1.46,1,.75.18.22.05,1.18-.22h.9l.87-.17Z" style="fill:#69bfff"/><g style="opacity:0.75"><polygon points="132.19 292.96 131.8 293.26 132.17 293.77 133.16 293.36 132.69 293.27 132.19 292.96" style="fill:url(#New_Gradient_Swatch_3)"/><path d="M215.34,97.49l.45-.43-.12-1.93-.45-.28-.17-1-1.35-3v-1l-.23-1.23-2.54-1.14-1.46.06L208.4,88l-.74-1-.85-.16-.84-1-1.13-.57-.79-.11-1.75-1.86-1.41-2-.68-.17-1-.9-.85.06L196,78.66H195l-1.18-.51-.73.39h-1.13l-.68-.34-.73.34-.35.51-.44-.45-1.07-.79-.17.34-.46-.4-.17.5v.41l-.62-.51-.11-.4-.47-.13.15.39-.23.16-1.16-.45-.38.07-1-.19-2.15-1-.82,0,0,.24.17.44-.18.21-.45-.24-.2.12-.13.32-.75.36-.26.39-.11.92-.4-.68-.22-.59-.4.17.06.73-.65,1.24v1l-.22-1,.25-1-.14-.87.39-1.27.34-.31-.28-.25-.62,0,.82-.93L177,74.52l-.61-1-.6,0-.87-.14-.51.65-.5.25-.26-.59-.36-.22-.17-.57-.45-.36-.62.06-.31-.4-.54-.19-.31.38v-.33l-.42-.25-.28-.57-.48.2-.88-.25-1.15-.68-.34-.06-.19.34-.71-.48-.51.06-.11.48-.34,0-.19-.53-.91,0-.75.42-.43.77.06.45-.85.84-1.09.65-1.42.82-.67.84-.42,1.1-.17,1.07-.37.56-.64.68,0,.47.13.8-.15,1.47-.25-.89-.54-.88,0-.65.54-.67.63-.52-.1-1.08.33-.91-.07-.48h-.47l-.92.32-1-.29-.87,0-.71.19-.49-.43.56.07.66-.49.7-.16,1.17.22.66-.16.62-.78h.28l.37.28.39-.13.68-.39,1.15-.4v-.9L162,71v-.85l.39-.57.06-.67-1.07-.23-.85-.67h-.79l-1.13.67-1,.06-1.36-.57-1.46-.1-1.07,1.12.05.45.35.26.22.38-.51.06-.31.17-.28.68-.2-.59-.36-.15-.84.34L151,72.1l-1.22,1.39.91-1.28,0-.81.2-.46.09-.56h-.4l-.79.65-.39.9L149,73l-.65.42.62-1.18.11-.93,1.38-1.72.34-1.16.51-.7.75-.42.82-.6.59-.25.74-1.1L156,63.45l.11-.45.37-.28-.4-.51.14-.53.26-.23,0-.76-.74-.53-.81.05-.26.29-.36-.63-.51-1.46L153,56.24l-.79-1.12-.57-1.5,0-.82-.2-.81-.32-.31-.12-.77-.49-.92-.19.11.05.62-.3.48-.91.59h0l.66-.89-.05-1-.7-.79-.34.37-.48-.43-.08-.62L146.8,47l-.37-.14-.9-.88-2.2-.56-1-.59-1.15-.11-.7.51-.71.39h0l.76-.93,0-.53-.82-.37-1.35-.23L136.77,43l-.51.06-.7.31-1.21-.12-1.53.32-1.26-.37-1.72,0-1,.36-.17.9h0l-.23-.78v-1l-.25-.59-1.46-.4-1.27-1.32-.72-.57-.48.25-.79.27-.54.6-.16.74-.14-.94.16-1.21.26-.7-.4-1.29-.59-.45-1.54-1-1-1.16-.1-.62-.75-.72-.71-.16-.22-.14-.2-.13-1.5-.68h-.54l-.52.21-.79-.17-.44,0-.63.28-1.26.2-.92-.1-.47-.06.82-.15.46.06.55-.37.35-.62.81-.61.17-.4-.54-.37.06-.25-.23-.62L111.84,29l-1.3-.33-.4-.4-.48-.31-.76,0-.25-.37-.79-.34-.42,0,0,.65-.51-.68-.31-.76-.79-.39-.22-.42.42-.34,1.75.05.65-.42,1.09-.11.11-.65-1,.19L106.91,24l-1.27.17-.85-.05-1.71.61-.6-.25-.7.08-1.44,1-.73.17-.88.45-.33.42-1.16.15-.36.22-.6-.2-1.71-1.15L94.23,25l-.51-.09L91.81,25l-3.69.62H86.31l-.7-.36-.29-.57V24l.46,0-.09-.79-.78-1.08-.74-.2-1.86.15-.84-.48-.62,0-.51.17-.65-1v-1l-.28-1.29L79,18.24l-1.1.45L76.87,20l.26.84.37.34.73-.39.7.05.62.68-.11.47-.68.2L78,21.78l-.36-.25-.17.23,0,.31-.9.48-1.72.3-1.72.74-.54.68v.65l.44.81v1.58l.17,1.07.34.9-.56,1.19-1.36.78-.67-.1V30l-.79-.9-.23-.79.73-.62.06-.45,1.47-1.46V24.54l-.47-.81.06-.37,0-.48-.62-.45-.31-.65.2-.53.9-.39.93-.23.82-.94.11-.13.45-.34.17-.45-.45-.59-1.41-.76-.56,0-.2.34-.06.37-.59.08-.31.25-.64-.08-.57.23-.31.36.34.4-.25.36-1,.51L67,21l-.9.66-1,.22L63.86,22l-1.27-.14-.79.42.06.48.26.62L62,24l-.59.53-.4-.17.14-.62-.08-.2.56-.2-.82-.08-1-.42-.51,0-1.29.79-.31.54-.88,1-1,2-.14.56.31-.14.28.31.12.65-.23.7-.56.29-.74.05-.56.31-1,1-.43.23-.76,1.13-.45,0-.65,0,.23.74.68.75v1l-.4.85-.42,0L50.39,35l.09-.28.25-.45L50.14,34l-.25-.74L49,32.52l-.17.68.13.51.35,1-.57,1-.27,1L48,37l-.39,0-.51,1.18.17.15.17.9.07.89.78.95.29,0L49,40.9l.21.35.1.86-.48.53V43l.46.51v1.08l-.51.39-.3.56.3.13.32.72L49,47.7l.07,1.82-.54.63-.1.55.47.66.69-.3-.1.43.4.57.41,0,0,.36-.41.51-.33.87-1.47,1.46-.39.82-1.1,1.07-1.46.33L44,58.28,43,59.92l-.18,1.3-.17.72-.22.92-1.13,0-1.86,1.3-1,.06-1,.51.5.9.06.56.34.56-.23,1.08-1.46,1.57-.12.69.34.44-.73,1.08-.85.11-.68,1,.28.63.3.81-.08.62.14,1.15-.43.74-.39.36.45.59.85.34.78.82.65.42.31-.23.34-.92.25-.48.57-.57,0,.68.09.59.14-.37-.06-.62.26.06.25,1-.19,1.1.11.59-.4,1-1,.86-.06,0-1.91.85-.71.65L33.8,84.75l-.28,1-.31.76.09.36.61.51.09.56-.48.34v.42l.76.68.59,1.1-.08.76-.59,0-.63.28-.22.59.65.62.79.31,1.15,1,1.07.15,1.61,1.06.79.2.19.65.88,1.24.11,1.07.45.79,1.58.82.7,1.15.23,1.13.45.76.14,1.27.53.87.63.37.7,1.27.14.93-.22.31.62,1.35L47.77,111l.48.81-.2.65.14.54.51.16L50,114.33l.34.71.14,1.09.36.48,1,.37.19.93,1.13,1.8.28.9,1.3,1.83,0,.73-.34.15-.37-.26,0,.4.13.64v.59l.46-.08.5.34.12.51-.17.39,1.29.9,1.24.62.06.54.59.73.73.08.3.38.28.65.49.32L61.3,130l.38-.46-.24.68.68.76,1.25.67.57.52.1.58.59.39.94.35.35-.13.66.18,1.51.92,1,.4.73,0,.35.18.22.53,1.07.77.59.37.85.79.52.22.26.49-.06.41v.55l.89.18.89.37,1.08,1.11,1,.92.69.22.14.14h0l.33.31.09,1.1-.1.83.18,1.1.63,2.92v1.09l-.23.8-.42.45.31,1.49.48,1.46.5,1.24v2l-.22.57-.17.36.14,2.76v.68l-.56.33-.54.37.09,1.55.25.39.51-.36.3.28-.47.45,0,4.09L80,170l.11,1.21-.14,1-.65,1v1l.74,1.32-.18.82-.08,2-.42.74v1.06l.2.57v.48l-.65,1,0,1-.4.64.23,1.24-.15.54-.65,1.46v.62l.71,1.11.14,1.12.45.7-.56.4-.34.87.53.68-.56.67-.53.23,0,1,.17.87.08.82.91,2.33v1.3l-.37.42.08.7.82,1.19.06,1.38-.26,1,0,.39.2.68-.12.59-.19.67.22.39.88,1.22.11.68-.43.67-.59.37-.53,1.1v.33l.31.37-.28.93-.45.51v.65l-.11,1.18-.35.65.06.7-.19.34-.09,1-.45.47.06.43.28.45-.48.7,0,1.07-.09.66-.53.36v.73l-.26.48,0,.56.25.65,0,.79-.45.65-.45.05-.48-.36-.56.14-.09.48.14.84,0,1.19.53.79.84.7.12.81L76,231.58l1.21,2.06.2.56.47.45V236l-.33,1.72-.31.25.14.54-.14.51-.29-.17-.42.06-.26.7.2.73.51.42-.42,1.61.14.7-.37.45.43.37-.17.53-.17.25.25.41.91,1.41a4,4,0,0,0-.09.77v.92l-.82-.49-1.79,1.13.41,1.37,1.16,3.21.23,2.42-1.49-.64,0,.7,2.29,2.78-.08,1.51.13.17V269l-.37-.11-.53.14,0,.44.39.83.29,0,.17.61-.49.09-.25.73-.53.39-.29.65-1,.57-.06.58,1.07,1.19.6.09.36-.4-.05-.48-.71-.2-.08-.39.36-.73,1-.09.2-.25.17.9.73.48.87,0,.37-.4.48.2.28.45,1,.52.4.44-.43.09-.19.39.34.45-.45.34-.34.53.3.45.71.46-.11.22-.71-.31-.25-.37-.42.06-.06.62.59.54.25.53,1,.17,1-.53.42.42.4,0,.58-.25,0,0-.25.44.15.28-.26.17-.71,0-.19.29-.54-.43-1.18.31-.28.56.14.4.76.48.14.65.68.17.56-.32-.09.43-.59.56,0,.4.12.34-.23.45-.42,0-.06.51.46,1.89.42.54,0,.87.45.76.62.25v-1.29l.39-1.47.54-.36.2.33-.37,0L84.54,288l0,.42.6.39.5,0-.2.2-.9.2-.67.62.11.39-.17.71v.68l-.4.27-.3.68,0,.51,1.07.78,1.5.32.59.45-.11.37-.34,0,.22.73.29.4.61-.71,0,.6-.17.48-.62.22-.45.62.39.25h.57v.48l.59.71.36,0,0,0,.34,1.06h-.13l-.34-.25-.37.05L87,300l.71.85L88,301l.25.82.33.45.68.62.39-.06,0,0,.66-.26.14-.38.13.18.17-.44.11.65-.35.5-.35.25h-.87l-.74.28.68.51v.06l-.73.35,1.12,1.13.12.44-.24.42.12.25.53.1.22-.45L91,307l.06.1-.15.06-.55.48.15.41.94.08.42.24.14.22,1.09.5.27.18-.29.35v.31l1.15.38L95,311l.25,0,.16-.36-.17-.59.44-.55.09.18.14,0a2.25,2.25,0,0,0,.13.42l-.27.33.4.65,1.26,1.21,1.11.19.73.41.48,0,.51.27.25-.26.54,0,.17-.31.18-.13.39.18.63.41.32-.14.19.24v.37l.41.25-.47.24-.29.58.37.42h.42l.39.16.54.55h.39l.07-.22-.39-.29-.64-.38-.09-.34.17,0,.47.22.38-.28.1-.28-.44-.09-.36-.25,1.4-.54L106,313l2.6.66.33-.21-.07-.36h1.11l1.12-.38,1.37.12.94-.07,1.35.14.74.4.76.27.73-.19.59-.6.14-.57.71-.21.31.26.83-.47-.12-.57-.57-.21-1.21.28-.68-.07-.8-.73-.95-.29-.31-.35-2.55-.83-.71-.24,0-.75-.83-.69-.85-.12-.38-1.09-.36-.64-.8.14-.72-.27-.09,0,.06-.12-.61-2.43.12-.07.13,0h0l.92.43.33,0-.08-.73-.79-.62-1.33-.82-.14-.76-.67-.64-.45.13-.42-.42.58-.34.15-.51-.23-.11v-.56l-.65-1.8-.76-1.18-.13-1.16.44-1.3,1-.78.34-.63-.28-.3v-.71l-.37-.48.51.28.51.57.59.2.81-.68.12-.62.7-.82.23-.62-.26-1.18-.59-.14-.36.28.16-.51.68-.65.28-.84.17-.87.9-.88.76,0,.28-.91.57-.76.39-.14.15-.62.61-.31.62-.7-.14-.28.09-.51.47-.33-.7-.66h-.45l.68-.64v-.62l-.45-.93v-.42l.28-.32-.26-.42-.62-.19-.34.16-.7,0-1.29.11L107.5,273l-1-.9-.54-.17-.79-.64-.85-1.41V269l-.47-.65,0-.48.88-.62.31-.67.28-.94.5-.11.65-.76.88-.11.73-.78,1.13-.17.7.11,1.24-.23.06-.34-.37-.36-.76-.28.11-.34.14-.59,1.07-.71-.19-.22.36-.54,0-.37-.93-1,.14-.48v-.54l-.28-.42-.25-1,.61-.64.32-.76-.28-.31.44-.5,1.21-.46.85-.79,0-.39-1.15-.34-.79,0-.34-.56.14-.43.71-.53,1-.4,1,.51v.46l-.14.33.3.76.57.2,1.52-.87.23-.77-.37-.81-.51-.62.31-.14.17-.7-.53-.91-.59-.05-.77.5-.59,0-.36.31.22.17.65.17-.06.42-1.32.39-.6-.22.37-.37.45-.25-.42-.23-1.18.09-.9-.51-.25-.7,0-1.87-.31-1.4-.84-.76,0-1.38.78-.79.59,0-.25.45.23.14.87-.08,1.49.48,1.38,1.15,1.19.29,2.2,0,1.32-.91-.11-.25.9-.65.17-.73-.2-.56.22-.42.23-.66-.68-.19-.48-.81v-.71l.29-.53-.17-.37.7-.7,0-.26.28-.08.11-.51-.14-.68-.65-.06.08-.42-.36-.53V232.2l-.2-.45v-.65l.26-.26.33.46H120l1.1.36.87.56h.76l1.21-.22,1.3.2,1.63-.09,2.73-.7,2.4-1,.11-.5.31.42,1.66-.56,2.14-1.33.31-.76-.22-.9.39-1.21.28-.26.12.43.28-.4.28-1.24.76-1.23.17-.77v-1.66l-.17-.64-.2,0-.5.54-.85,0-1-.68-.59-1.12.05-.56,1-1.92.06-.79-.45-.56-2-1.57-1.64-.63-1.63-1.27-.4-.7.26-.26,0-.67-.5-.52.16-.43-.28-1.42.2-1.59h0l0,1.73.54,1.39,1.14,1.6.4.09,1.08,1.08.58.15,1.73-.17,1,.07.93.64.6.1.6,0,.2.2-.11.29,0,.42.79,0,.85-.52,1.1-.2.78.27.49.29.41-.08.58.22.58.06.38-.28.1-.47.19-.14.33.28,1.45-.53.95-1.09.25-.41-.14-.13.38-.61.76-.7v-1.1l.62-.73.32-.27,1.48-1.22.51-1.19.65-2.73.59-1.86.25-.36-.34-.43-.56-.93.29-.79.55-.28,0-.5.65-.74v-.56l.4.31.53.09.65-.77.08-.78.26-.26,0-.9.28-.37h.4l.28-.76-.2-.56-.42-.45.06-1.18-.34-.31.39.11.45.92.93,1h.37l.39-.22.26.25.08.67-.31.09-.36,1.35-.9,1.55-.82,0-.11,1-.29.53-.25-.08-.82.45-.59.51-.05.42-.65.11-.31.31,0,.42.77.23,2.48-2,1.26-1.43,1.83-3.13.71-1.58.7-2,1.78-3.38,1.75-2.08L165,183l-.17-.22.08-.54.37-.12.28-.87L166,181l-.17-.7.17-.51-.17-.22-.31-.26.06-.79-.77-1.07V177l.15-.47-.15-.51-.25-1.13-.4-1.18.32-.28,1-.2-.25-.65-.48-.28.93-.22,0-.77-1-.42.79-.23.5-.73.4.31L167.7,169l.73-.48,0-.4,1-.9,1.22-.78,1.6-1.84,1.41-.17.76-.73.85-.68h.79l.5.43.6.14,0-.57.58-1,1.67-1,.64-.2v-.31l-.39-.25-.53-.11-.26-.48.59-.15,1-.61.59.17.66-.06.48-.38.66,0,0,.31-1,.54-1,.2-.19.22.32.26,1.52-.57,1.82-.72-.16-.29.48-.41.45.07-.15.44s0,.65.11.68,1.14.16,1.14.16l.64-.35H188l1.3.14.79-.53,0-.4-.2-.2.11-.4,1.76-1.2,1.48-.52.77-.46.22-.48-.21-.3-.65-1.49.48-1,.55-.66,0-.76.36-.31.65-.46.14-.78-.2-.12,1.1-1.77,1.49-1.75,0-.79-.3-2.48-.26-.47.48-1.5.39-.59.08-.5,1.16-.94.17-.45-.31-1.45.62-1.75-.17-1.35.23-1-.06-.57.34-1.47-.39-5.3v-1l.31-.74v-.7L200,123l-.62-.44v-.46l.56-.87-.14-.88.14-.59.51-.14.11-.92-.54-.88-1-.48.28-.11.14-.34.2.42.62.37.56.2.23-.85.53,0,.23.48.4.2-.43.59-.56.42-.14.48.39,0,.76-.71,1-.53,1.33-2,.59-1.49.2-.9.51-.46.5-1.35.56-1.15,2.06-1.41.25-.68.63-.19.44-.74,1.75-1.57,1.55-2.09.4-.57.95-2.1.26-.94.47-.67V99l-.5-.76ZM90.3,276.55l-.24.27.24-.27Zm-.2,6.26,0,.28,0-.28ZM86.33,256v0Zm-1.69-5.89.85-.56h0l-.85.56Zm1.1-1.58-.09.34.09-.34Zm2.39-73.21.38-.29-.38.29-.17.75.48.4.29.56,0,.55,0-.55-.29-.56-.48-.4Zm.43,3.91.36-.44-.36.44-.44.22Zm-2.18,40.48,0-.17,0,.17Zm-1-2.73.49.81L85.4,217l-.22-.18Zm.9-4.93.65-.22v0Zm1.92,48.6h0l-.08,0Zm-1.44-80-1,2.62-.74,1-.28,2.91-.53.53.53-.53.28-2.91.74-1,1-2.62.51-.53ZM84.33,194l.62-.79,0-1.72-.09-.17.09.17,0,1.72-.62.79v0Zm1.73-46.36h0l.13-.32Zm.37-1.45-.07-.28-1.78-1.44L84,143.6l.62.88,1.78,1.44Zm-1.05,4.33.81-1.76-.81,1.76.1.14Zm-1.7-10.17Zm1.77,80.35.48-.49-.48.49-.54,1.09Zm4,48.28.13.25.26,1.9-.26-1.9Zm-.31-1.54,0,.3,0-.3,1-.88v0Zm.17-3.21-.83-.58.83.58.56,1Zm0-3.75-.07,0,.07,0,0,.46Zm-1.57-89.05.18,1.05-.18-1.05.48-.85Zm-.54-2.23h0l.82.68Zm3.51-8.35h0l-2.88-7.74Zm2.4.25.09.19-.7,3.06.7-3.06Zm-1-.76-.12.23.12-.23Zm-7,73.12,1-.5h0l-1,.5Zm2.1,29.86h0Zm.32,24.07.23-.33-.23.33Zm2.11-13.61-.07.51.07-.51.7-.72ZM87.54,168.2h0l4.68-2.48h0Zm-17-129.34-1.1-.48-.89-.74.89.74ZM81.05,273.33h0Zm.38-132.57-.76.47-.51-.11-.85.57-.48.23.48-.23.85-.57.51.11.76-.47.28-.65-.71-.67.26-.68.39-.65-.39.65-.26.68.71.67Zm1-2.41.08.92.31.27-.31-.27Zm1.23,100.54-.17-1.36,1.44-1.91-1.44,1.91.17,1.36.74,1.21-.18,2,.18-2Zm.81,7.71.15.82h0Zm2.83,45.54L87,290.89l.38-2.62L87,290.89l.23,1.25.29.58Zm2.53,3.45h0l.67-.76h0Zm6.06,9.57v0h0Zm0-3.81.66,0,.24.14-.24-.14Zm12.55,9.91.75.18.22.05,1.18-.22h.9l.87-.17-.1.22-.54.11-.88.31-1.57.06h-.37l-.62-.4-1.13-.43-.49-.15a3.3,3.3,0,0,0,.32-.55ZM106,301.71h0l-.55-.08Z" style="fill:url(#New_Gradient_Swatch_3-2)"/></g><text transform="translate(121.09 247.39)" style="font-size:8px;fill:#00058b;font-family:OpenSans-Bold, Open Sans;font-weight:700">ARGENTINA</text><text transform="translate(147.53 226.38)" style="font-size:8px;fill:#00058b;font-family:OpenSans-Bold, Open Sans;font-weight:700">URUGUAY</text><text transform="translate(172.05 177.06)" style="font-size:8px;fill:#00058b;font-family:OpenSans-Bold, Open Sans;font-weight:700">BRAZIL</text><text transform="translate(33.21 158.86)" style="font-size:8px;fill:#00058b;font-family:OpenSans-Bold, Open Sans;font-weight:700">BOLIVIA</text><text transform="translate(27.41 177.06)" style="font-size:8px;fill:#00058b;font-family:OpenSans-Bold, Open Sans;font-weight:700">PARAGUAY</text><text transform="translate(43.41 219.37)" style="font-size:8px;fill:#00058b;font-family:OpenSans-Bold, Open Sans;font-weight:700">CHILE</text><text transform="translate(31.31 134.55)" style="font-size:8px;fill:#00058b;font-family:OpenSans-Bold, Open Sans;font-weight:700">PERU</text><text transform="translate(6.71 53.46)" style="font-size:8px;fill:#00058b;font-family:OpenSans-Bold, Open Sans;font-weight:700">ECUADOR</text><text transform="translate(31.38 16.12)" style="font-size:8px;fill:#00058b;font-family:OpenSans-Bold, Open Sans;font-weight:700">VENEZUELA</text><text transform="translate(99.02 19.62)" style="font-size:8px;fill:#00058b;font-family:OpenSans-Bold, Open Sans;font-weight:700">COLOMBIA</text><text transform="translate(132.98 31.37)" style="font-size:8px;fill:#00058b;font-family:OpenSans-Bold, Open Sans;font-weight:700">GUYANA</text><text transform="translate(155.23 41.2)" style="font-size:8px;fill:#00058b;font-family:OpenSans-Bold, Open Sans;font-weight:700">SURINAME</text><line x1="31.79" y1="56.25" x2="36.37" y2="66.73" style="fill:none;stroke:#00058b;stroke-linecap:round;stroke-miterlimit:10;stroke-width:0.25px"/><line x1="52.86" y1="17.79" x2="56.21" y2="24.06" style="fill:none;stroke:#00058b;stroke-linecap:round;stroke-miterlimit:10;stroke-width:0.25px"/><line x1="102.12" y1="21.06" x2="97.29" y2="26.14" style="fill:none;stroke:#00058b;stroke-linecap:round;stroke-miterlimit:10;stroke-width:0.25px"/><line x1="132.98" y1="31.48" x2="125.1" y2="39.56" style="fill:none;stroke:#00058b;stroke-linecap:round;stroke-miterlimit:10;stroke-width:0.25px"/><line x1="155.23" y1="38.31" x2="137.87" y2="42.13" style="fill:none;stroke:#00058b;stroke-linecap:round;stroke-miterlimit:10;stroke-width:0.25px"/><line x1="42.61" y1="126.73" x2="47.54" y2="115.48" style="fill:none;stroke:#00058b;stroke-linecap:round;stroke-miterlimit:10;stroke-width:0.25px"/><line x1="63.79" y1="210.98" x2="74.42" y2="207.11" style="fill:none;stroke:#00058b;stroke-linecap:round;stroke-miterlimit:10;stroke-width:0.25px"/><line x1="66.99" y1="154.19" x2="93.23" y2="141.37" style="fill:none;stroke:#00058b;stroke-linecap:round;stroke-miterlimit:10;stroke-width:0.25px"/><line x1="139.6" y1="239.85" x2="131.73" y2="231.79" style="fill:none;stroke:#00058b;stroke-linecap:round;stroke-miterlimit:10;stroke-width:0.25px"/><line x1="157.23" y1="218.54" x2="147.23" y2="212.85" style="fill:none;stroke:#00058b;stroke-linecap:round;stroke-miterlimit:10;stroke-width:0.25px"/><line x1="74.42" y1="172.1" x2="117.72" y2="159.79" style="fill:none;stroke:#00058b;stroke-linecap:round;stroke-miterlimit:10;stroke-width:0.25px"/><line x1="187.13" y1="168.23" x2="185.29" y2="160.77" style="fill:none;stroke:#00058b;stroke-linecap:round;stroke-miterlimit:10;stroke-width:0.25px"/><path d="M1,13.4l1.43.5.33.12H3.5l.59.56.86.19h.12l.31,0,1.26.57L7.82,16,8,15.63l-.53-.3.26-.16.67,0,.56.75.41.34,1.69,0,.48-.66-.19-.35.21-.22,0,0,.4.21.19.27.32,0,.16-.24.3.16v.45l.16.4v0l0,.4-.29.06-.67-.24-.14.24,1.34,1.63.65.43v.46l1.07,1L16,21.55l1.72,1.87.46.06.26.18.08.06-.21.83-.24.22.22.18.56.13.16.75-.65.38-.35.86.17.72,1,.85,1,0,.58.37.36.62h.34l.43-.75-.18-.65-1-.72-.25-.4.32-.27.65.51.69.35.06.61.72.51.24.75.86.48.64.6.48.29.81.93.13.36-.48.61v.51l.32.51.89.33.58.37.3-.17.08-.61-.35-.46L26.71,33v-.13l.27-.19.4.3.64.77,0,.68.26.14.2.12.26.29.47,0,.12-.36,0-.43h.1l.52-.06.63.11.69-.12.35-.25.32.34,0,.27.41.12,1.36.19.18.95.46,1,.59.35.62,0,.23-.44-.26-.29.25-.38.49.07.23.31-.13.41.19.75-.14.54.24.41,1,.16.45-.69.5-.53.67.11.38-.12,0-.75-.57-.51-.62-.45-.28-.6.12-.42.62-.32,1.16-.25,1-1,0-.35-.22-.17.09-.72,1.11-.59.9-.08.47.25.67.66.5.1.64.86.26.68.39.32.23-.19.48-.57H47l.17.51-.3.32-.38.05-.62.93-.29.29.31,1,.83,1.16.5.45.4-.94L48,37l.47-.38.27-1,.57-1-.35-1-.13-.51h0l0-.13.13-.52,0,0-.51-.29-.13-.4-.67-.78-1.55-.91-.92-.22H43.59l-.54-.12-.21-.35-.57-.25-.37.05-1,.75-1.13.27-2.28,1.16-.67.64-.64.08-1.21-.06-1.28-.88-.86-.4-.22.19.44.26v.38l-.59.1-.62-.31-.19-.3.15-.15.25-.08-.2-.23-.29,0-.46-.15-.4-.43-.15-.41-.07-.18-.53-.39-.6-.17-.4-.5-.23-.61-.75-.75-.46-.73-.1-.81-.26-.65-.35.08-.1.34h-.78l.16-.27.05-.07.35-.22-.11-.56-.4-.49L25.74,23l.46-.89.24-.59,0-.77-.22.43-.11.34-.37.22v-.54l.19-.59.35-.8-.11-.48,0-.51.44-1.1.32.08-.14.3s0,.45,0,.59v.77l.2,0,.29-.5.18-1.44,0-1.72.14-.37L27.33,15l-.24-.11v-.38l.26-.27.23,0,.13.23.23-.93.6-.77.28-.5.07-.37-.36-.26,0-.31.22-.48-.11-.62.06-1,.21-.4.22-.24.23-.24L29.12,8l-.86-.7L27.46,7l-.06.14.33.61-.81,0-1-.1-.38-.29-.69-.09h-.62l.16-.29.49-.14-.06-.34.32-.08.59.13,1,.29.14-.1-.68-.54-.9-.51-.65,0-.61.13-.41-.18L23.49,6,23,5.63l-1.63-.16-1.59-.08-.85-.72-.78-.38L18,4.75l.29.21-.58.24-.38.27-.62-.21-1.23.32L13.9,5.45l-2.2,0-1,.53-.45-.37L10,5.42l-.67-.08-.19.45-.59-.4H8L7.77,5h0l.29-.61.7-.73.4.35,1-1.45.38-1,0-1.24L10.33,0H0V1.56l.49.33H.9l.29.49.08.54.25.28.63,0,.41.23V4l-.38.42L0,4.4v9.11H.13Z" style="fill:#69bfff;opacity:0.75"/><polygon points="45.08 67.73 45.71 69.02 47.14 69.23 46.11 70.24 46.35 71.66 45.08 70.99 43.8 71.66 44.04 70.24 43.01 69.23 44.44 69.02 45.08 67.73" style="fill:#fff"/><polygon points="55.17 117.18 55.8 118.47 57.23 118.68 56.2 119.68 56.44 121.1 55.17 120.43 53.89 121.1 54.13 119.68 53.1 118.68 54.53 118.47 55.17 117.18" style="fill:#fff"/><polygon points="85.83 132.68 86.47 133.97 87.89 134.18 86.86 135.18 87.1 136.6 85.83 135.93 84.55 136.6 84.8 135.18 83.76 134.18 85.19 133.97 85.83 132.68" style="fill:#fff"/><polygon points="132.04 168.18 132.68 169.47 134.1 169.68 133.07 170.68 133.32 172.1 132.04 171.43 130.76 172.1 131.01 170.68 129.98 169.68 131.4 169.47 132.04 168.18" style="fill:#fff"/><polygon points="176.53 123.25 177.16 124.54 178.59 124.75 177.56 125.76 177.8 127.18 176.53 126.51 175.25 127.18 175.49 125.76 174.46 124.75 175.89 124.54 176.53 123.25" style="fill:#fff"/><polygon points="83 207.08 83.64 208.37 85.07 208.58 84.04 209.59 84.28 211.01 83 210.34 81.73 211.01 81.97 209.59 80.94 208.58 82.37 208.37 83 207.08" style="fill:#fff"/><polygon points="129.98 211.33 130.61 212.62 132.04 212.83 131.01 213.83 131.25 215.25 129.98 214.58 128.7 215.25 128.94 213.83 127.91 212.83 129.34 212.62 129.98 211.33" style="fill:#fff"/><polygon points="140.29 208.24 140.93 209.54 142.36 209.74 141.32 210.75 141.57 212.17 140.29 211.5 139.02 212.17 139.26 210.75 138.23 209.74 139.65 209.54 140.29 208.24" style="fill:#fff"/><polygon points="60.55 42.75 61.19 44.05 62.62 44.25 61.58 45.26 61.83 46.68 60.55 46.01 59.27 46.68 59.52 45.26 58.49 44.25 59.91 44.05 60.55 42.75" style="fill:#fff"/><polygon points="124.5 40.79 125.14 42.08 126.56 42.29 125.53 43.3 125.78 44.72 124.5 44.05 123.22 44.72 123.47 43.3 122.44 42.29 123.86 42.08 124.5 40.79" style="fill:#fff"/><polygon points="136.03 44.39 136.67 45.68 138.09 45.89 137.06 46.9 137.31 48.32 136.03 47.65 134.75 48.32 135 46.9 133.97 45.89 135.39 45.68 136.03 44.39" style="fill:#fff"/><polygon points="92.23 25.29 92.87 26.58 94.3 26.79 93.26 27.8 93.51 29.22 92.23 28.55 90.96 29.22 91.2 27.8 90.17 26.79 91.59 26.58 92.23 25.29" style="fill:#fff"/></svg>