<svg id="Layer_1" data-name="Layer 1" xmlns="http://www.w3.org/2000/svg" viewBox="0 0 383.92 383.45"><defs><style>.cls-1{opacity:0.5;}</style></defs><title>tool-theme</title><g id="mRKTMn.tif"><g id="_3rFhRx.tif" data-name="3rFhRx.tif"><path d="M207.56,0c4.69.65,9.38,1.27,14.06,2a184.68,184.68,0,0,1,49.91,14.81A191,191,0,0,1,377,140.45a212,212,0,0,1,6.69,42.6c.65,10.53-.28,20.63-4.24,30.38-5.9,14.54-16.06,25.1-30.2,31.87-9.45,4.52-19.47,6.16-29.84,6.16-16.75,0-33.5.24-50.25-.07-16-.31-26.92,10.72-29.38,24.33a27.66,27.66,0,0,0,2.36,17.55A61.62,61.62,0,0,1,249,325.41c-1.49,21.63-10.88,38.69-29.78,50-8.43,5-17.8,6.87-27.44,7.62-35.71,2.76-68-7.52-98-26.11a199,199,0,0,1-67.52-69.3A187.62,187.62,0,0,1,2,217.92,182.82,182.82,0,0,1,.15,184.3c1.51-33.66,10.23-65.17,28.17-94A193.83,193.83,0,0,1,58,53.46,189.55,189.55,0,0,1,173.65.47,13,13,0,0,0,175.56,0ZM293.9,215.52h0c9.5,0,19,.08,28.5,0,15-.15,26.08-11.19,25.58-26.08a180.54,180.54,0,0,0-2.76-27.28c-6.52-34.66-23.12-63.75-49.44-87.28a155.64,155.64,0,0,0-114.93-39,158,158,0,0,0-35.79,6.56A152.64,152.64,0,0,0,91.45,71.65,155,155,0,0,0,54.2,117.22C40,143.77,34.46,172.17,36.45,202.15a153.14,153.14,0,0,0,15.3,57.09,160.07,160.07,0,0,0,37.72,49.6c16.8,15.07,35.65,26.49,57.21,33.32,15.7,5,31.7,6.83,48.09,4.42a18.65,18.65,0,0,0,12.62-7.38c6.88-9.16,7.72-19.11,2.83-29.42-8.72-18.39-9.49-37.07-1-55.56,11.33-24.72,31.07-37.53,58.21-38.64C276.22,215.22,285.07,215.52,293.9,215.52Z"/><path class="cls-1" d="M192.11,71.49A24.19,24.19,0,0,1,216,95.6c0,12.83-11.07,24-24.1,23.76-14.07-.28-23.85-11.22-23.85-24.44C168.09,82.19,179.1,71.48,192.11,71.49Z"/><path class="cls-1" d="M240.08,119.18c0-12.83,11.13-23.73,24.14-23.66a24.32,24.32,0,0,1,23.82,24c0,12.88-11,23.9-23.94,23.92A24.2,24.2,0,0,1,240.08,119.18Z"/><path class="cls-1" d="M72.08,191.2c0-12.84,11.11-23.74,24.12-23.68a24.36,24.36,0,0,1,23.84,24c0,12.86-11,23.9-23.92,23.93A24.19,24.19,0,0,1,72.08,191.2Z"/><path class="cls-1" d="M96.08,119.25c0-12.85,11.07-23.77,24.07-23.73S144,106.59,144,119.76c0,12.69-11.06,23.67-23.88,23.72A24.19,24.19,0,0,1,96.08,119.25Z"/></g></g></svg>