<svg id="Layer_1" data-name="Layer 1" xmlns="http://www.w3.org/2000/svg" viewBox="0 0 1399 255"><title>nes-logo</title><g id="cbjKQW.tif"><path d="M63.73,207a41.44,41.44,0,0,1-15.84-18.73A59.47,59.47,0,0,1,43,163.54a51.29,51.29,0,0,1,3.52-18.32,43.49,43.49,0,0,1,9.56-14.82,44.47,44.47,0,0,1,15.16-9.88A51.74,51.74,0,0,1,91.32,117q13.92.16,21.8,5.21a39.64,39.64,0,0,1,12.45,12.48,63.91,63.91,0,0,1,7.06,16.14A137.24,137.24,0,0,0,138.28,167a37.82,37.82,0,0,0,8.32,12.43q5.15,5,14.94,5.14a26.73,26.73,0,0,0,7.63-1.16,21.36,21.36,0,0,0,7.79-4.23,22.84,22.84,0,0,0,6-8.06,31,31,0,0,0,2.46-12.7,27.69,27.69,0,0,0-3.5-14.38,26.07,26.07,0,0,0-9.66-9.86l15.66-14.75q10.56,7.76,13.9,17.94A64.79,64.79,0,0,1,205,158.6q-.17,12.24-4.53,20.89a45,45,0,0,1-10.75,14.14,41.09,41.09,0,0,1-14,8,45,45,0,0,1-14.4,2.42q-15-.15-23.76-5.22a42.34,42.34,0,0,1-13.86-12.49,61.68,61.68,0,0,1-7.94-16.16q-2.82-8.73-5.87-16.13a41.65,41.65,0,0,0-7.66-12.42q-4.61-5-13.53-5.12a23.87,23.87,0,0,0-11.13,2.37,25.8,25.8,0,0,0-8.14,6.32,27.33,27.33,0,0,0-5,8.65,28.94,28.94,0,0,0-1.76,9.35,34.09,34.09,0,0,0,3.8,16,31.53,31.53,0,0,0,12.34,12.86Z"/><g style="opacity:0.3"><path d="M170.85,121.16q8-4,11.68-10.13a23.36,23.36,0,0,0,3.6-12.62A19.55,19.55,0,0,0,184.46,91a21.13,21.13,0,0,0-4.75-6.82,24.53,24.53,0,0,0-7.71-5,26.45,26.45,0,0,0-10.54-1.87q-8.44.08-12.81,4a32.4,32.4,0,0,0-7.25,9.79q-2.9,5.84-5.56,12.72a45.86,45.86,0,0,1-7.52,12.73,38.36,38.36,0,0,1-13.12,9.85q-8.28,4-22.5,4.12a50.35,50.35,0,0,1-13.63-1.91,41.45,41.45,0,0,1-13.29-6.29A36.94,36.94,0,0,1,55.6,111.26a32.27,32.27,0,0,1-4.3-16.47,43.35,43.35,0,0,1,3-16.76q3.16-8,13.16-14.15L82.3,75.51a23,23,0,0,0-9.14,7.77,19,19,0,0,0-3.31,11.34,20.85,20.85,0,0,0,2.33,10A18.61,18.61,0,0,0,77.85,111a21.76,21.76,0,0,0,7.37,3.33,29.91,29.91,0,0,0,7.23.91q9.27-.08,14.15-4a30.19,30.19,0,0,0,7.87-9.8,97.08,97.08,0,0,0,5.35-12.71A46.36,46.36,0,0,1,126.51,76a34.78,34.78,0,0,1,11.79-9.84q7.45-4,20.63-4.11a57.42,57.42,0,0,1,19,2.78,43.5,43.5,0,0,1,14.35,7.78,34.53,34.53,0,0,1,12.39,26.13,40.31,40.31,0,0,1-4.62,19.49,35,35,0,0,1-15,14.77Z"/></g><path d="M184.27,48a41.67,41.67,0,0,1,15.84,18.86A60.38,60.38,0,0,1,205,91.78a52.06,52.06,0,0,1-3.52,18.46,43,43,0,0,1-24.72,24.88,51.19,51.19,0,0,1-20.07,3.54q-13.92-.15-21.8-5.25a39.7,39.7,0,0,1-12.45-12.57,64.42,64.42,0,0,1-7.06-16.26,139.38,139.38,0,0,0-5.65-16.25,38.24,38.24,0,0,0-8.32-12.52q-5.15-5.06-14.94-5.17a26.08,26.08,0,0,0-7.63,1.17A21.27,21.27,0,0,0,71,76.06a23.08,23.08,0,0,0-6,8.12A31.53,31.53,0,0,0,62.59,97a28.09,28.09,0,0,0,3.5,14.49,26.2,26.2,0,0,0,9.66,9.93L60.09,136.26q-10.56-7.83-13.9-18.07A65.79,65.79,0,0,1,43,96.76q.16-12.33,4.53-21.05A45.36,45.36,0,0,1,58.29,61.47a40.92,40.92,0,0,1,14-8A44.82,44.82,0,0,1,86.73,51q15,.16,23.76,5.26a42.46,42.46,0,0,1,13.86,12.58,62.43,62.43,0,0,1,7.94,16.28q2.82,8.81,5.87,16.25a41.89,41.89,0,0,0,7.66,12.51q4.6,5.07,13.53,5.16a23.62,23.62,0,0,0,11.13-2.38,25.94,25.94,0,0,0,8.14-6.37,27.72,27.72,0,0,0,5-8.71,29.46,29.46,0,0,0,1.76-9.43A34.59,34.59,0,0,0,181.6,76a31.67,31.67,0,0,0-12.34-13Z"/><g style="opacity:0.3"><path d="M92.56,137.63q-7,3.27-10.2,8.29a18.2,18.2,0,0,0-3.15,10.32,15.13,15.13,0,0,0,1.46,6,17.37,17.37,0,0,0,4.15,5.57,21.44,21.44,0,0,0,6.73,4.07,24.38,24.38,0,0,0,9.21,1.53q7.38-.06,11.19-3.3a26.92,26.92,0,0,0,6.34-8q2.52-4.77,4.86-10.4a37,37,0,0,1,6.56-10.41,33.4,33.4,0,0,1,11.47-8.05q7.23-3.27,19.65-3.37a46.59,46.59,0,0,1,11.91,1.57,37,37,0,0,1,11.61,5.14,31,31,0,0,1,8.89,9.11A25,25,0,0,1,197,159.19a33.33,33.33,0,0,1-2.63,13.71q-2.76,6.56-11.49,11.56l-13-9.51a19.59,19.59,0,0,0,8-6.35,14.89,14.89,0,0,0,2.9-9.27,16.27,16.27,0,0,0-2-8.18,15.65,15.65,0,0,0-5-5.2,19.79,19.79,0,0,0-6.43-2.72,28.57,28.57,0,0,0-6.32-.75q-8.1.08-12.36,3.31a25.2,25.2,0,0,0-6.88,8,75.93,75.93,0,0,0-4.67,10.4,37.24,37.24,0,0,1-5.84,10.4,30.09,30.09,0,0,1-10.3,8q-6.51,3.26-18,3.36a53.55,53.55,0,0,1-16.6-2.27,38.81,38.81,0,0,1-12.54-6.37,28.41,28.41,0,0,1-7.91-9.54A26.77,26.77,0,0,1,63,156a31.2,31.2,0,0,1,4-15.93A29.77,29.77,0,0,1,80.15,128Z"/></g></g><g style="opacity:0.23"><path d="M127.5,255A127.5,127.5,0,1,1,255,127.5,127.65,127.65,0,0,1,127.5,255Zm0-238.25A110.75,110.75,0,1,0,238.25,127.5,110.87,110.87,0,0,0,127.5,16.75Z"/></g><path d="M298.58,85.2h25.1l35.64,58.25h.23V85.2H378V169H353.87l-36.58-59.67h-.24V169H298.58Z"/><path d="M447.28,159.08a28.32,28.32,0,0,1-10.78,8.4,32.16,32.16,0,0,1-13.49,3,36.25,36.25,0,0,1-12.49-2.13,30.06,30.06,0,0,1-10.18-6.09,28.52,28.52,0,0,1-6.81-9.54,32.27,32.27,0,0,1,0-24.86,28.58,28.58,0,0,1,6.81-9.53,30.24,30.24,0,0,1,10.18-6.1A36.25,36.25,0,0,1,423,110.06a28.47,28.47,0,0,1,11.19,2.13,23.49,23.49,0,0,1,8.52,6.1,27.91,27.91,0,0,1,5.39,9.53A38.52,38.52,0,0,1,450,140.25v5.57H408.8a14.08,14.08,0,0,0,4.62,8.11,13.08,13.08,0,0,0,8.76,3,13.27,13.27,0,0,0,7.4-2,19.94,19.94,0,0,0,5.27-5Zm-15-25.34a10.27,10.27,0,0,0-3-7.69,10.52,10.52,0,0,0-7.93-3.2,13.38,13.38,0,0,0-5.21,1,13.21,13.21,0,0,0-3.85,2.42,10.65,10.65,0,0,0-2.48,3.44,11.14,11.14,0,0,0-1,4.08Z"/><path d="M454.74,111.48h19.17l14.57,39.07h.23l13.5-39.07h17.88L497.36,169H478.53Z"/><path d="M581.06,159.08a28.32,28.32,0,0,1-10.78,8.4,32.16,32.16,0,0,1-13.49,3,36.25,36.25,0,0,1-12.49-2.13,30.06,30.06,0,0,1-10.18-6.09,28.52,28.52,0,0,1-6.81-9.54,32.27,32.27,0,0,1,0-24.86,28.58,28.58,0,0,1,6.81-9.53,30.24,30.24,0,0,1,10.18-6.1,36.25,36.25,0,0,1,12.49-2.13A28.47,28.47,0,0,1,568,112.19a23.49,23.49,0,0,1,8.52,6.1,27.91,27.91,0,0,1,5.39,9.53,38.52,38.52,0,0,1,1.89,12.43v5.57h-41.2a14.08,14.08,0,0,0,4.62,8.11,13.08,13.08,0,0,0,8.76,3,13.27,13.27,0,0,0,7.4-2,19.94,19.94,0,0,0,5.27-5Zm-15-25.34a10.27,10.27,0,0,0-3-7.69,10.52,10.52,0,0,0-7.93-3.2,13.38,13.38,0,0,0-5.21,1,13.21,13.21,0,0,0-3.85,2.42,10.65,10.65,0,0,0-2.48,3.44,11.14,11.14,0,0,0-1,4.08Z"/><path d="M594.55,111.48h17.76v9.24h.24a21.7,21.7,0,0,1,6.75-8,17,17,0,0,1,9.82-2.67c1,0,2,0,3.08.12a15,15,0,0,1,2.84.48v16.22a26.16,26.16,0,0,0-3.73-.89,23.72,23.72,0,0,0-3.84-.3,19,19,0,0,0-8.05,1.42,10.63,10.63,0,0,0-4.56,4,14.94,14.94,0,0,0-2.07,6.1,58.46,58.46,0,0,0-.48,7.81v24H594.55Z"/><path d="M680.74,85.2h57v17H699.21v15.63h36.34v17.05H699.21v17h40.61V169H680.74Z"/><path d="M752.36,111.48h17v7.82h.24A14.23,14.23,0,0,1,772,116a17.3,17.3,0,0,1,3.67-3,21.53,21.53,0,0,1,4.85-2.13,20.31,20.31,0,0,1,5.92-.83,24.45,24.45,0,0,1,10.89,2.08,15.73,15.73,0,0,1,6.45,5.74,23.14,23.14,0,0,1,3.14,8.64,66,66,0,0,1,.83,10.77V169H790V140.85c0-1.66-.06-3.38-.18-5.15a16.07,16.07,0,0,0-1.06-4.92,7.63,7.63,0,0,0-8-5.09,11.07,11.07,0,0,0-5.57,1.24,8.49,8.49,0,0,0-3.25,3.32,13.39,13.39,0,0,0-1.48,4.68,39.66,39.66,0,0,0-.36,5.44V169H752.36Z"/><path d="M880.7,169H864.36v-7.57h-.24a19.8,19.8,0,0,1-2.78,3.13,20.61,20.61,0,0,1-4,2.9,24.39,24.39,0,0,1-5.1,2.13,19.73,19.73,0,0,1-5.74.83,29.64,29.64,0,0,1-11.6-2.19,26,26,0,0,1-8.94-6.15,27.52,27.52,0,0,1-5.74-9.42,34.21,34.21,0,0,1-2-12A36.37,36.37,0,0,1,820,129.18a31.84,31.84,0,0,1,5.21-9.76,25.48,25.48,0,0,1,8.23-6.81,23.31,23.31,0,0,1,11-2.55,30.64,30.64,0,0,1,10.36,1.72,16.59,16.59,0,0,1,7.87,5.86h.24V79.52H880.7Zm-16.34-28.77q0-6.51-3.73-10.53t-10.48-4q-6.75,0-10.47,4T836,140.25q0,6.51,3.73,10.54t10.47,4q6.75,0,10.48-4T864.36,140.25Z"/><path d="M893.72,93.37a10.31,10.31,0,1,1,3,7.28A9.93,9.93,0,0,1,893.72,93.37Zm1.42,18.11H912.9V169H895.14Z"/><path d="M925.68,111.48h17.05v7.82H943a14.23,14.23,0,0,1,2.37-3.32,17.3,17.3,0,0,1,3.67-3,21.53,21.53,0,0,1,4.85-2.13,20.31,20.31,0,0,1,5.92-.83,24.45,24.45,0,0,1,10.89,2.08,15.73,15.73,0,0,1,6.45,5.74,23.14,23.14,0,0,1,3.14,8.64,66,66,0,0,1,.83,10.77V169H963.33V140.85c0-1.66-.06-3.38-.18-5.15a16.07,16.07,0,0,0-1.06-4.92,7.63,7.63,0,0,0-8-5.09,11.07,11.07,0,0,0-5.57,1.24,8.49,8.49,0,0,0-3.25,3.32,13.39,13.39,0,0,0-1.48,4.68,39.66,39.66,0,0,0-.36,5.44V169H925.68Z"/><path d="M1054,164.17q0,16.34-8.23,24.8t-25,8.47a67.71,67.71,0,0,1-15.16-1.72A34.28,34.28,0,0,1,991.86,189l9.83-14.68a37.33,37.33,0,0,0,8.7,5.45,24.51,24.51,0,0,0,10,2q8.17,0,12-4a13.91,13.91,0,0,0,3.85-10.12v-5.56H1036a16.81,16.81,0,0,1-7.63,5.86,24.54,24.54,0,0,1-8.59,1.71,29.64,29.64,0,0,1-11.6-2.19,26,26,0,0,1-8.94-6.15,27.61,27.61,0,0,1-5.74-9.42,34.25,34.25,0,0,1-2-11.95,34.71,34.71,0,0,1,1.83-11.13,30.51,30.51,0,0,1,5.21-9.59,26.18,26.18,0,0,1,8.23-6.69,23.31,23.31,0,0,1,11-2.55,27.32,27.32,0,0,1,6.93.83,27.86,27.86,0,0,1,5.62,2.13,20.77,20.77,0,0,1,4.26,2.9,18.52,18.52,0,0,1,2.84,3.14h.24v-7.58H1054Zm-44.75-24.27a13.79,13.79,0,0,0,4.08,9.88,15.44,15.44,0,0,0,4.5,3.14,13.13,13.13,0,0,0,5.62,1.19,13.33,13.33,0,0,0,5.57-1.19,15.28,15.28,0,0,0,4.55-3.14,14,14,0,0,0,0-19.77,15.44,15.44,0,0,0-4.55-3.13,13.33,13.33,0,0,0-5.57-1.19,13.13,13.13,0,0,0-5.62,1.19,15.6,15.6,0,0,0-4.5,3.13,14,14,0,0,0-3,4.5A13.82,13.82,0,0,0,1009.27,139.9Z"/><path d="M1147,105.68a13.18,13.18,0,0,0-6.1-4.2,21.76,21.76,0,0,0-7.28-1.36,19.4,19.4,0,0,0-4.14.47,16.23,16.23,0,0,0-4,1.48,8.65,8.65,0,0,0-3.07,2.67,7.36,7.36,0,0,0,1.65,9.82,26.75,26.75,0,0,0,7.17,3.44q4.32,1.41,9.29,2.84a38.29,38.29,0,0,1,9.29,4,22.14,22.14,0,0,1,7.17,7q2.83,4.38,2.84,11.72a26.86,26.86,0,0,1-2.61,12.19,24.63,24.63,0,0,1-7,8.65,30.29,30.29,0,0,1-10.3,5.09,47.4,47.4,0,0,1-27.53-.83,38.1,38.1,0,0,1-13-8l13.14-14.45a19.17,19.17,0,0,0,7.16,5.86,20.33,20.33,0,0,0,8.94,2.08,20,20,0,0,0,4.56-.54,14.63,14.63,0,0,0,4.14-1.6,8.81,8.81,0,0,0,3-2.72,6.79,6.79,0,0,0,1.13-3.91,7.09,7.09,0,0,0-2.9-6,26.66,26.66,0,0,0-7.28-3.73q-4.38-1.54-9.47-3.08a42.5,42.5,0,0,1-9.48-4.15,22.81,22.81,0,0,1-7.28-6.86q-2.89-4.26-2.9-11.25a25.15,25.15,0,0,1,2.67-11.84,25.64,25.64,0,0,1,7.1-8.52A30.75,30.75,0,0,1,1122,84.79a41.73,41.73,0,0,1,12-1.72,47.08,47.08,0,0,1,13.73,2,31.88,31.88,0,0,1,12,6.75Z"/><path d="M1210.41,125.69h-15.63v19.18a35.55,35.55,0,0,0,.24,4.32,8.67,8.67,0,0,0,1.06,3.38,5.43,5.43,0,0,0,2.55,2.19,11.3,11.3,0,0,0,4.55.77,30.28,30.28,0,0,0,3.73-.3,6.37,6.37,0,0,0,3.5-1.36v14.8a27.18,27.18,0,0,1-6.16,1.42,58.45,58.45,0,0,1-6.28.35,34.12,34.12,0,0,1-8.28-.94,19,19,0,0,1-6.63-3,14,14,0,0,1-4.44-5.39A18.34,18.34,0,0,1,1177,153V125.69h-11.37V111.48H1177v-17h17.76v17h15.63Z"/><path d="M1217.27,140.25a30.13,30.13,0,0,1,2.49-12.43,28.58,28.58,0,0,1,6.81-9.53,30.24,30.24,0,0,1,10.18-6.1,37.68,37.68,0,0,1,25,0,30.24,30.24,0,0,1,10.18,6.1,28.72,28.72,0,0,1,6.81,9.53,32.39,32.39,0,0,1,0,24.86,28.66,28.66,0,0,1-6.81,9.54,30.06,30.06,0,0,1-10.18,6.09,37.68,37.68,0,0,1-25,0,30.06,30.06,0,0,1-10.18-6.09,28.52,28.52,0,0,1-6.81-9.54A30.06,30.06,0,0,1,1217.27,140.25Zm17.76,0q0,6.51,3.73,10.54t10.48,4q6.75,0,10.48-4a16.78,16.78,0,0,0,0-21.07q-3.73-4-10.48-4t-10.48,4Q1235,133.74,1235,140.25Z"/><path d="M1291.62,111.48h17.76v9.24h.23a21.89,21.89,0,0,1,6.75-8,17,17,0,0,1,9.83-2.67c1,0,2,0,3.08.12a15.15,15.15,0,0,1,2.84.48v16.22a26.49,26.49,0,0,0-3.73-.89,23.85,23.85,0,0,0-3.85-.3,19,19,0,0,0-8,1.42,10.75,10.75,0,0,0-4.56,4,15.24,15.24,0,0,0-2.07,6.1,60.27,60.27,0,0,0-.47,7.81v24h-17.76Z"/><path d="M1373,178.38c-1.18,3.07-2.32,5.8-3.43,8.16a19.81,19.81,0,0,1-4.2,6,16.38,16.38,0,0,1-6.46,3.67,34.76,34.76,0,0,1-10.3,1.25,41.37,41.37,0,0,1-13.25-2.14l2.36-14.56a20.28,20.28,0,0,0,8.29,1.78,15.39,15.39,0,0,0,4.86-.65A8.13,8.13,0,0,0,1354,180a10.36,10.36,0,0,0,2.07-3c.56-1.18,1.15-2.56,1.78-4.14l1.3-3.31-25.21-58h19.17l14.8,38h.24l12.67-38H1399Z"/></svg>