<svg id="Layer_1" data-name="Layer 1" xmlns="http://www.w3.org/2000/svg" viewBox="0 0 229.7 229.68"><title>icon-end</title><path d="M1.24,131.29c5.23,37,25.2,64.93,57.85,83.15,28.52,15.9,59,19.67,90.09,9.85,46.56-14.67,78-56.45,80.44-105.23.5-9.92-1.19-11.75-11.16-11.75H129.91v14.88h84.65a11.89,11.89,0,0,1,.14,2.15c-5.09,36.61-23,65-56.71,80.79C91.6,236.23,17.52,189.69,15.13,118.18c0-1.12-.05-2.23-.05-3.34H0A125.74,125.74,0,0,0,1.24,131.29Z"/><path d="M122,6.15c-.38-4-2.63-5.94-7.19-6.13V14.49C119.85,13.61,122.46,10.46,122,6.15Z"/><path d="M113.48,0C82.26.93,55.6,12.77,33.81,34.85,11.39,57.56-.24,84.47,0,114.84H15.08C15,72.58,40.51,35.15,80.72,21.14c9.43-3.29,19.7-4.18,29.59-6.17,1.46-.29,3-.21,4.45-.46l.09,0V0C114.41,0,114,0,113.48,0Z"/><rect x="114.03" y="72.95" width="16.11" height="83.53" rx="5.28" transform="translate(244.17 229.43) rotate(180)"/></svg>