<svg id="Layer_1" data-name="Layer 1" xmlns="http://www.w3.org/2000/svg" viewBox="0 0 335.86 335.78"><title>icon-letter</title><path d="M239.37,287.79c-.29-1.22-.44-2.19-.74-3.11-6-18.35-12.11-36.7-18.09-55.07-.65-2-1.62-2.77-3.73-2.77q-49.12.07-98.24,0c-2.06,0-3.12.67-3.78,2.7-6,18.38-12.05,36.72-18.08,55.08-.3.92-.48,1.89-.79,3.15,1.17.1,2,.22,2.93.23,4.49,0,9,0,13.49,0,8.27,0,13.17,4.6,13.36,12.87.18,7.49.17,15,0,22.49s-5.24,12.38-12.83,12.38q-50,0-100,0c-7.8,0-12.81-5-12.86-12.85Q0,311.65,0,300.4c0-7.13,5.12-12.26,12.31-12.37,5.59-.09,11.17-.12,16.75,0,2.31.06,3.36-.74,4.11-2.93Q45.4,249.69,57.76,214.3q15.72-45.2,31.45-90.38L129.26,8.75A12.31,12.31,0,0,1,141.59,0q26.25,0,52.49,0c6.14,0,10.5,3.11,12.51,8.88Q216.82,38.27,227,67.66q21.51,61.83,43,123.66,13.21,38,26.35,76c2.1,6.06,4.31,12.08,6.33,18.17a3.19,3.19,0,0,0,3.63,2.54c5.49-.11,11-.07,16.49,0,7.57,0,12.69,4.83,12.87,12.37q.27,11.75,0,23.5c-.17,7-5.53,11.86-12.87,11.86q-42.11,0-84.23,0c-5.25,0-10.5,0-15.75,0-7.73-.06-12.68-4.88-12.79-12.65-.11-7.58-.09-15.17,0-22.75.08-7.25,5.08-12.21,12.33-12.33,4.58-.08,9.16,0,13.75,0C237.12,288,238.09,287.88,239.37,287.79ZM130.53,177.29c1.37.07,2.27.17,3.16.17h68c3.26,0,3.35-.13,2.32-3.24q-6.51-19.54-13-39.09c-4.33-12.95-8.88-25.84-12.94-38.87-3.26-10.47-6-21.13-8.85-31.72-.48-1.77-.68-3.63-1-5.45a2,2,0,0,0-.87,1.35c-2.12,8.82-3.65,17.82-6.46,26.42C151.28,116,141.31,145,131.52,174,131.21,174.92,131,175.87,130.53,177.29Z"/></svg>