<svg id="Layer_1" data-name="Layer 1" xmlns="http://www.w3.org/2000/svg" viewBox="0 0 466.46 335.78"><defs><style>.cls-1{opacity:0.65;}</style></defs><title>tool-font</title><path class="cls-1" d="M160,303.71c-.2-.82-.3-1.47-.5-2.08-4-12.27-8.09-24.53-12.09-36.81A2.24,2.24,0,0,0,144.9,263q-32.84,0-65.66,0a2.25,2.25,0,0,0-2.52,1.81c-4,12.28-8.06,24.54-12.09,36.81-.2.62-.32,1.26-.52,2.1.78.07,1.36.15,2,.16h9c5.53,0,8.8,3.08,8.93,8.6.12,5,.11,10,0,15s-3.5,8.27-8.57,8.27q-33.42,0-66.83,0c-5.21,0-8.56-3.37-8.59-8.59q0-7.51,0-15a8,8,0,0,1,8.23-8.27c3.73-.06,7.46-.09,11.19,0a2.41,2.41,0,0,0,2.75-2q8.15-23.68,16.41-47.34,10.51-30.19,21-60.4,13.38-38.49,26.77-77a8.21,8.21,0,0,1,8.24-5.83q17.53,0,35.08,0a8.31,8.31,0,0,1,8.36,5.94q6.83,19.63,13.65,39.27,14.37,41.32,28.76,82.64,8.82,25.4,17.61,50.81c1.4,4,2.88,8.07,4.23,12.14a2.14,2.14,0,0,0,2.42,1.7c3.68-.08,7.35,0,11,0,5,0,8.48,3.23,8.6,8.27q.18,7.85,0,15.7c-.11,4.7-3.69,7.93-8.59,7.93q-28.15,0-56.3,0c-3.51,0-7,0-10.52,0-5.17,0-8.47-3.25-8.55-8.45s-.06-10.14,0-15.2a8,8,0,0,1,8.24-8.24c3.06-.05,6.13,0,9.19,0C158.47,303.84,159.12,303.76,160,303.71ZM87.23,229.86c.92,0,1.52.11,2.12.11h45.42c2.18,0,2.24-.09,1.55-2.16q-4.35-13.06-8.72-26.13c-2.89-8.66-5.93-17.26-8.65-26-2.18-7-4-14.12-5.91-21.19-.32-1.19-.45-2.43-.68-3.65a1.4,1.4,0,0,0-.58.9c-1.42,5.9-2.44,11.92-4.31,17.66-6.37,19.46-13,38.83-19.58,58.24C87.69,228.27,87.52,228.91,87.23,229.86Z"/><path d="M370,287.79c-.29-1.22-.44-2.19-.74-3.11-6-18.35-12.11-36.7-18.09-55.07-.65-2-1.62-2.77-3.73-2.77q-49.12.07-98.24,0c-2.06,0-3.12.67-3.78,2.7-6,18.38-12,36.72-18.08,55.08-.3.92-.48,1.89-.79,3.15,1.17.1,2,.22,2.93.23,4.5,0,9,0,13.49,0,8.27,0,13.17,4.6,13.36,12.87.18,7.49.17,15,0,22.49s-5.24,12.38-12.83,12.38q-50,0-100,0c-7.8,0-12.81-5-12.86-12.85q-.06-11.25,0-22.5c0-7.13,5.12-12.26,12.32-12.37,5.58-.09,11.16-.12,16.74,0,2.32.06,3.36-.74,4.12-2.93Q176,249.69,188.36,214.3q15.72-45.2,31.45-90.38,20-57.58,40.06-115.17A12.29,12.29,0,0,1,272.19,0q26.25,0,52.5,0c6.13,0,10.49,3.11,12.5,8.88q10.23,29.37,20.42,58.76,21.52,61.83,43,123.66,13.22,38,26.35,76c2.1,6.06,4.31,12.08,6.33,18.17a3.19,3.19,0,0,0,3.63,2.54c5.49-.11,11-.07,16.49,0,7.57,0,12.69,4.83,12.87,12.37q.29,11.75,0,23.5c-.17,7-5.53,11.86-12.87,11.86q-42.1,0-84.23,0c-5.25,0-10.5,0-15.75,0-7.73-.06-12.67-4.88-12.79-12.65-.11-7.58-.09-15.17,0-22.75.08-7.25,5.08-12.21,12.33-12.33,4.58-.08,9.17,0,13.75,0C367.72,288,368.7,287.88,370,287.79ZM261.13,177.29c1.37.07,2.27.17,3.16.17h68c3.26,0,3.35-.13,2.32-3.24q-6.51-19.54-13.05-39.09c-4.32-12.95-8.88-25.84-12.94-38.87-3.26-10.47-6-21.13-8.85-31.72-.48-1.77-.68-3.63-1-5.45a2.08,2.08,0,0,0-.87,1.35c-2.12,8.82-3.65,17.82-6.46,26.42C281.88,116,271.91,145,262.12,174,261.81,174.92,261.55,175.87,261.13,177.29Z"/></svg>