<svg id="Layer_1" data-name="Layer 1" xmlns="http://www.w3.org/2000/svg" viewBox="0 0 335.98 293.96"><title>tool-reveal</title><path d="M168,0H322c3.85,0,7.5.66,10.34,3.53A12.15,12.15,0,0,1,336,12.31q0,14.25,0,28.5c0,7.9-5,13-12.91,13.1-11.66.09-23.33,0-35,0l-273.69,0a25,25,0,0,1-3-.09C4.31,53,0,48.17,0,41q0-13.76,0-27.5C0,5,5,.05,13.54,0,25,0,36.54,0,48,0H168Z"/><path d="M168.12,120H321.84c3.75,0,7.34.58,10.19,3.27a12.13,12.13,0,0,1,3.93,9.14q0,14.13,0,28.25c0,8.17-5,13.22-13.27,13.25-11.58.05-23.16,0-34.74,0q-136.47,0-272.94,0a25.41,25.41,0,0,1-5.45-.47c-6-1.35-9.53-5.87-9.55-12q0-14,0-28C0,125.07,5,120.06,13.4,120c11.5,0,23,0,34.5,0H168.12Z"/><path d="M168,240H322c3.76,0,7.34.62,10.17,3.34a12.3,12.3,0,0,1,3.85,9.18q0,14.13,0,28.24c0,8-5,13.1-13.14,13.14-11.58.06-23.16,0-34.74,0l-273.69,0a21.14,21.14,0,0,1-4-.26C3.75,292.39,0,287.85,0,281q0-13.87,0-27.75c0-8.18,5-13.22,13.26-13.26,11.58-.05,23.16,0,34.74,0H168Z"/></svg>