<svg id="Layer_1" data-name="Layer 1" xmlns="http://www.w3.org/2000/svg" viewBox="0 0 230.78 349.3"><title>car-white</title><rect width="230.78" height="349.3" style="fill:#00058b"/><line x1="53.45" y1="111.03" x2="185.41" y2="111.03" style="fill:none;stroke:#ff66d7;stroke-miterlimit:10;stroke-width:0.200158680133585px"/><line x1="53.45" y1="141.59" x2="185.41" y2="141.59" style="fill:none;stroke:#ff66d7;stroke-miterlimit:10;stroke-width:0.200158680133585px"/><line x1="53.45" y1="172.15" x2="185.41" y2="172.15" style="fill:none;stroke:#ff66d7;stroke-miterlimit:10;stroke-width:0.200158680133585px"/><line x1="53.45" y1="202.72" x2="185.41" y2="202.72" style="fill:none;stroke:#ff66d7;stroke-miterlimit:10;stroke-width:0.200158680133585px"/><line x1="48.95" y1="156.87" x2="53.07" y2="156.87" style="fill:none;stroke:#fff;stroke-linecap:round;stroke-miterlimit:10;stroke-width:0.320914902454794px"/><line x1="48.95" y1="141.59" x2="53.07" y2="141.59" style="fill:none;stroke:#fff;stroke-linecap:round;stroke-miterlimit:10;stroke-width:0.320914902454794px"/><line x1="48.57" y1="126.31" x2="52.7" y2="126.31" style="fill:none;stroke:#fff;stroke-linecap:round;stroke-miterlimit:10;stroke-width:0.320914902454794px"/><line x1="48.57" y1="111.03" x2="52.7" y2="111.03" style="fill:none;stroke:#fff;stroke-linecap:round;stroke-miterlimit:10;stroke-width:0.320914902454794px"/><line x1="48.95" y1="172.15" x2="53.07" y2="172.15" style="fill:none;stroke:#fff;stroke-linecap:round;stroke-miterlimit:10;stroke-width:0.320914902454794px"/><line x1="48.95" y1="187.43" x2="53.07" y2="187.43" style="fill:none;stroke:#fff;stroke-linecap:round;stroke-miterlimit:10;stroke-width:0.320914902454794px"/><line x1="48.95" y1="202.72" x2="53.07" y2="202.72" style="fill:none;stroke:#fff;stroke-linecap:round;stroke-miterlimit:10;stroke-width:0.320914902454794px"/><line x1="48.95" y1="218" x2="53.07" y2="218" style="fill:none;stroke:#fff;stroke-linecap:round;stroke-miterlimit:10;stroke-width:0.320914902454794px"/><text transform="translate(41.51 211.19)" style="font-size:7.46999979019165px;fill:#fff;font-family:OpenSans-Bold, Open Sans;font-weight:700">20</text><text transform="translate(41.51 180.11)" style="font-size:7.46999979019165px;fill:#fff;font-family:OpenSans-Bold, Open Sans;font-weight:700">40</text><text transform="translate(41.51 150.63)" style="font-size:7.46999979019165px;fill:#fff;font-family:OpenSans-Bold, Open Sans;font-weight:700">60</text><text transform="translate(41.51 117.95)" style="font-size:7.46999979019165px;fill:#fff;font-family:OpenSans-Bold, Open Sans;font-weight:700">80</text><rect x="63.23" y="198.43" width="8.63" height="34.73" style="fill:#e028a5"/><rect x="71.85" y="188.55" width="8.63" height="44.61" style="fill:#fcf0fa"/><rect x="80.48" y="179.2" width="8.63" height="53.96" style="fill:#662d91"/><rect x="89.1" y="175.57" width="8.63" height="57.6" style="fill:#ff66d7"/><rect x="97.73" y="148.83" width="8.63" height="84.33" style="fill:#aa0076"/><rect x="106.35" y="141.21" width="8.63" height="91.95" style="fill:#f15a24"/><rect x="133.66" y="182.33" width="8.63" height="50.84" style="fill:#e028a5"/><rect x="142.29" y="175.57" width="8.63" height="57.6" style="fill:#fcf0fa"/><rect x="150.91" y="165.71" width="8.63" height="67.45" style="fill:#662d91"/><rect x="159.54" y="157.24" width="8.63" height="75.93" style="fill:#ff66d7"/><rect x="168.16" y="141.21" width="8.63" height="91.95" style="fill:#aa0076"/><rect x="176.79" y="120.44" width="8.63" height="112.73" style="fill:#f15a24"/><polyline points="53.45 103.37 53.45 233.38 185.41 233.38" style="fill:none;stroke:#fff;stroke-linecap:round;stroke-miterlimit:10;stroke-width:1.08101969704636px"/><text transform="translate(220.81 345.39)" style="font-size:12px;fill:#fff;font-family:OpenSans-Bold, Open Sans;font-weight:700">6</text><text transform="translate(41.86 25.47)" style="font-size:10px;fill:#fff;font-family:OpenSans-Bold, Open Sans;font-weight:700">Median Earnings of Full-Time <tspan x="20.65" y="12">Year-Round Workers</tspan><tspan x="36.29" y="24">(in thousands)</tspan></text><text transform="translate(83.25 335.31)" style="font-size:7px;fill:#fff;font-family:OpenSans-Bold, Open Sans;font-weight:700">Age 25-34, 2013-2015</text><rect x="34.41" y="268.88" width="9.67" height="9.67" style="fill:#e028a5"/><text transform="translate(47.24 276.02)" style="font-size:6.423810005187988px;fill:#fff;font-family:OpenSans-Bold, Open Sans;font-weight:700">Less than high school</text><rect x="34.41" y="284.55" width="9.67" height="9.67" style="fill:#fcf0fa"/><text transform="translate(47.24 291.7)" style="font-size:6.423810005187988px;fill:#fff;font-family:OpenSans-Bold, Open Sans;font-weight:700">High school diploma</text><rect x="34.41" y="300.23" width="9.67" height="9.67" style="fill:#662d91"/><text transform="translate(47.24 307.23)" style="font-size:6.423810005187988px;fill:#fff;font-family:OpenSans-Bold, Open Sans;font-weight:700">Some college</text><rect x="130.83" y="268.88" width="9.67" height="9.67" style="fill:#ff66d7"/><text transform="translate(143.65 275.88)" style="font-size:6.423810005187988px;fill:#fff;font-family:OpenSans-Bold, Open Sans;font-weight:700">Associate degree</text><rect x="130.83" y="284.55" width="9.67" height="9.67" style="fill:#aa0076"/><text transform="translate(143.65 291.56)" style="font-size:6.423810005187988px;fill:#fff;font-family:OpenSans-Bold, Open Sans;font-weight:700">Bachelor’s degree</text><rect x="130.83" y="300.23" width="9.67" height="9.67" style="fill:#f15a24"/><text transform="translate(143.65 307.23)" style="font-size:6.423810005187988px;fill:#fff;font-family:OpenSans-Bold, Open Sans;font-weight:700">Advance degree</text><text transform="translate(151.56 243.8)" style="font-size:6.639999866485596px;fill:#fff;font-family:OpenSans-Bold, Open Sans;font-weight:700">MALE</text><text transform="translate(76.85 243.8)" style="font-size:6.639999866485596px;fill:#fff;font-family:OpenSans-Bold, Open Sans;font-weight:700">FEMALE</text><text transform="translate(96.18 80.78)" style="font-size:12px;fill:#fff;font-family:OpenSans-Bold, Open Sans;font-weight:700">WHITE</text><path d="M160.05,80.22l4-3.58-4-4.07v-2.3L165.4,76v1.43l-5.35,5.08Z" style="fill:#fff"/><path d="M70.73,72.6l-4,3.58,4,4.06v2.3l-5.35-5.76V75.35l5.35-5.08Z" style="fill:#fff"/></svg>