<svg id="Layer_1" data-name="Layer 1" xmlns="http://www.w3.org/2000/svg" viewBox="0 0 74.49 70.91"><title>home-resources</title><rect y="12.14" width="74.49" height="58.76" style="fill:#1a8fe8"/><text transform="translate(15.47 47.42)" style="font-size:8.57133960723877px;fill:#fff;font-family:OpenSans-Bold, Open Sans;font-weight:700">Resources</text><path d="M52.11,4.59H36.6V2A1.39,1.39,0,0,0,35.22.65H21.51A1.39,1.39,0,0,0,20.13,2V26.26a2.43,2.43,0,0,0,2.42,2.42H52.11a2.43,2.43,0,0,0,2.42-2.42V7A2.43,2.43,0,0,0,52.11,4.59Z" style="fill:#69bfff;stroke:#00058b;stroke-miterlimit:10;stroke-width:1.30831054136452px"/><path d="M20.13,10.21V26.26a2.43,2.43,0,0,0,2.42,2.42H52.11a2.43,2.43,0,0,0,2.42-2.42v-16Z" style="fill:#e028a5;stroke:#00058b;stroke-miterlimit:10;stroke-width:1.30831054136452px"/><path d="M43.32,18.08H42.7a5.67,5.67,0,0,0-.57-1.37l.44-.44a.39.39,0,0,0,0-.55l-1.46-1.46a.39.39,0,0,0-.55,0l-.44.45a5,5,0,0,0-1.37-.57v-.63a.38.38,0,0,0-.39-.38H36.3a.38.38,0,0,0-.39.38v.63a5,5,0,0,0-1.37.57l-.44-.45a.39.39,0,0,0-.27-.11.41.41,0,0,0-.28.11l-1.46,1.46a.39.39,0,0,0,0,.55l.44.44A5.27,5.27,0,0,0,32,18.08h-.63a.39.39,0,0,0-.38.39v2.06a.38.38,0,0,0,.38.39H32a5.27,5.27,0,0,0,.56,1.37l-.44.44a.39.39,0,0,0,0,.55l1.46,1.46a.41.41,0,0,0,.28.11.39.39,0,0,0,.27-.11l.44-.44a5.67,5.67,0,0,0,1.37.57v.62a.39.39,0,0,0,.39.39h2.06a.39.39,0,0,0,.39-.39v-.62a5.67,5.67,0,0,0,1.37-.57l.44.44a.39.39,0,0,0,.55,0l1.46-1.46a.39.39,0,0,0,0-.55l-.44-.44a5.67,5.67,0,0,0,.57-1.37h.62a.39.39,0,0,0,.39-.39V18.47A.4.4,0,0,0,43.32,18.08Zm-6,4a2.53,2.53,0,1,1,2.53-2.53A2.53,2.53,0,0,1,37.33,22Z" style="fill:#f26bac;stroke:#00058b;stroke-miterlimit:10;stroke-width:1.30831054136452px"/></svg>