<svg id="Layer_1" data-name="Layer 1" xmlns="http://www.w3.org/2000/svg" viewBox="0 0 74.49 70.92"><title>home-education</title><rect y="12.16" width="74.49" height="58.76" style="fill:#08bc99"/><text transform="translate(13.74 44.08)" style="font-size:8.57133960723877px;fill:#fff;font-family:OpenSans-Bold, Open Sans;font-weight:700">Interactive <tspan x="2.15" y="10.29">Education</tspan></text><path d="M31.7,32s.06-3.7.05-4.6-3.61-4.57-3.61-4.57l11.92-9.15s10.52,0,10.61.47,1.12,6.18,0,7.63S48.16,26.5,48.6,32" style="fill:#69bfff;stroke:#00058b;stroke-miterlimit:10;stroke-width:1.33694902559081px"/><path d="M60.43,8.57H57.37v8.6h3.06A1.51,1.51,0,0,0,62,15.72V10A1.51,1.51,0,0,0,60.43,8.57Z" style="fill:#e028a5;stroke:#00058b;stroke-miterlimit:10;stroke-width:1.33694902559081px"/><path d="M13.36,11.86l6.45-3.24A.47.47,0,0,1,20.5,9v7.74a.47.47,0,0,1-.65.4l-6.36-2.55A1.48,1.48,0,0,1,13.36,11.86Z" style="fill:#e028a5;stroke:#00058b;stroke-miterlimit:10;stroke-width:1.33694902559081px"/><rect x="20.73" y="8.57" width="36.63" height="8.61" style="fill:#1a8fe8;stroke:#00058b;stroke-miterlimit:10;stroke-width:1.33694902559081px"/><rect x="45.33" y="2.2" width="4.88" height="11.89" rx="2.35" style="fill:#69bfff;stroke:#00058b;stroke-miterlimit:10;stroke-width:1.33694902559081px"/><rect x="40" y="0.67" width="5.4" height="13.57" rx="2.61" style="fill:#69bfff;stroke:#00058b;stroke-miterlimit:10;stroke-width:1.33694902559081px"/><rect x="34.78" y="0.67" width="5.4" height="13.57" rx="2.61" style="fill:#69bfff;stroke:#00058b;stroke-miterlimit:10;stroke-width:1.33694902559081px"/><rect x="29.41" y="0.67" width="5.4" height="13.57" rx="2.61" style="fill:#69bfff;stroke:#00058b;stroke-miterlimit:10;stroke-width:1.33694902559081px"/><path d="M32.52,27.87c-.67-.1-3.91-3.42-5.81-7.07-1.63-3.11-2.64-8.3,1.73-10.63,3.55-1.89,8.92.54,8.71,2.55-.38,3.6-5.16,2.67-5.16,2.67a6.67,6.67,0,0,1,3,2A5.07,5.07,0,0,1,36,21.21" style="fill:#69bfff;stroke:#00058b;stroke-miterlimit:10;stroke-width:1.33694902559081px"/></svg>