<?xml version="1.0" encoding="utf-8"?>
<!-- Generator: Adobe Illustrator 23.0.6, SVG Export Plug-In . SVG Version: 6.00 Build 0)  -->
<svg version="1.1" id="Layer_1" xmlns="http://www.w3.org/2000/svg" xmlns:xlink="http://www.w3.org/1999/xlink" x="0px" y="0px"
	 viewBox="0 0 74.5 71.3" style="enable-background:new 0 0 74.5 71.3;" xml:space="preserve">
<style type="text/css">
	.st0{fill:#E028A5;}
	.st1{fill:#FFFFFF;}
	.st2{font-family:'OpenSans-Bold';}
	.st3{font-size:8.5713px;}
	.st4{fill:none;stroke:#00058B;stroke-width:1.2888;stroke-miterlimit:10;}
	.st5{fill:#69BFFF;stroke:#00058B;stroke-width:1.2888;stroke-miterlimit:10;}
	.st6{fill:#1A8FE8;stroke:#00058B;stroke-width:1.2888;stroke-miterlimit:10;}
	.st7{fill:#E028A5;stroke:#00058B;stroke-width:1.2888;stroke-miterlimit:10;}
	.st8{fill:#F26BAC;stroke:#00058B;stroke-width:1.2888;stroke-miterlimit:10;}
</style>
<title>home-stories</title>
<rect y="12.6" class="st0" width="74.5" height="58.8"/>
<text transform="matrix(1 0 0 1 11.21 44.3104)" class="st1 st2 st3">Historias de</text>
<text transform="matrix(1 0 0 1 7.4247 54.6)" class="st1 st2 st3">la Comunidad</text>
<line class="st4" x1="33" y1="26" x2="29.8" y2="34.2"/>
<line class="st4" x1="33.2" y1="26" x2="36.6" y2="34.2"/>
<path class="st5" d="M52.1,11.8L52.1,11.8c-0.1,0-0.3,0-0.4,0.1l-5.3,3l0,0c0-1.7-1.4-3.2-3.2-3.2H26.5c-1.7,0-3.2,1.4-3.2,3.2v8.4
	c0,1.7,1.4,3.2,3.2,3.1h16.8c1.7,0,3.1-1.4,3.2-3.1v-0.4l5.3,3.3c0.1,0.1,0.3,0.1,0.4,0.1c0.4,0,0.7-0.3,0.7-0.7V12.5
	C52.9,12.1,52.5,11.8,52.1,11.8z"/>
<circle class="st6" cx="29" cy="8.5" r="5.9"/>
<circle class="st7" cx="41.7" cy="7.4" r="6.8"/>
<circle class="st8" cx="41.7" cy="7.4" r="2.6"/>
<circle class="st8" cx="29" cy="8.5" r="2.6"/>
<line class="st4" x1="46.4" y1="14.9" x2="46.4" y2="22.9"/>
</svg>
