<svg id="Layer_1" data-name="Layer 1" xmlns="http://www.w3.org/2000/svg" viewBox="0 0 336.22 337.18"><title>icon-pause</title><g id="_1q8zw8.tif" data-name="1q8zw8.tif"><path d="M.07,167.65q0-65.73,0-131.44A35.88,35.88,0,0,1,35.79.11Q72-.13,108.26.1a36.36,36.36,0,0,1,35.93,36.05q.06,132.45,0,264.89c0,17.73-13.72,33.24-31.42,35-9.25.92-18.6.92-27.91,1-14.83.15-29.66.19-44.48,0-14-.19-26.33-4.18-34.38-16.67a36.34,36.34,0,0,1-6-20.27C.13,255.94.07,211.8.07,167.65Zm36.13.71q0,61.5,0,123c0,7.71,1,8.73,8.58,8.73H98.27c9.24,0,9.8-.56,9.81-10q0-75.49,0-151,0-47,0-94c0-7.2-2.26-9.06-9.43-8.81-5.65.19-11.31-.11-17-.1-11.81,0-23.63.36-35.43.14-8.25-.15-10,1.22-10,9.55Q36.19,107.13,36.2,168.36Z"/><path d="M192.07,168.11q0-66,0-132a35.86,35.86,0,0,1,35.76-36q36.24-.22,72.47,0a36.37,36.37,0,0,1,35.89,36.1q.06,132.44,0,264.88c0,17.71-13.72,33.67-31.46,34.86-18.08,1.22-36.26,1-54.4,1.08a256.88,256.88,0,0,1-26.91-1,35.15,35.15,0,0,1-31.35-35Q192,234.59,192.07,168.11Zm36.13.25q0,61.5,0,123c0,7.71,1,8.73,8.58,8.73h53.49c9.24,0,9.8-.56,9.81-10q0-75.48,0-151,0-47,0-94c0-7.2-2.26-9.06-9.43-8.81-5.65.19-11.31-.11-17-.1-11.81,0-23.62.36-35.43.14-8.25-.15-10,1.22-10,9.55Q228.19,107.13,228.2,168.36Z"/></g></svg>