<svg id="Layer_1" data-name="Layer 1" xmlns="http://www.w3.org/2000/svg" viewBox="0 0 31 34.43"><title>icon-stories</title><path d="M12.6,10.88l-.06.17h.15Z" transform="translate(0 0.02)"/><polygon points="9.89 25.81 9.96 25.81 9.9 25.78 9.89 25.81"/><polygon points="9.38 27.1 6.7 33.95 7.9 34.42 10.62 27.49 10.46 27.1 9.38 27.1"/><polygon points="10.62 27.49 13.47 34.43 14.66 33.94 11.85 27.1 10.77 27.1 10.62 27.49"/><polygon points="10.46 27.1 10.62 27.49 10.77 27.1 10.46 27.1"/><path d="M10.08,12.34a5.45,5.45,0,0,0,1-1.29H8.55a3.22,3.22,0,0,1-4.06,0H4a3.83,3.83,0,0,0-1.78.46,4.86,4.86,0,0,0,.92,1A2.53,2.53,0,0,1,4,12.34Z" transform="translate(0 0.02)"/><path d="M13.6,12.34a7.16,7.16,0,0,1-.91-1.29h-.15a6.85,6.85,0,0,1-.74,1.29Z" transform="translate(0 0.02)"/><path d="M15.47,12.34h5.31a2.44,2.44,0,0,1,1.45.47A6.09,6.09,0,0,0,23.31,12a3.82,3.82,0,0,0-2.53-1H14.22A6.13,6.13,0,0,0,15.47,12.34Z" transform="translate(0 0.02)"/><path d="M4,25.79a2.53,2.53,0,0,1-2.51-2.51V14.85a2.44,2.44,0,0,1,.57-1.57,6.31,6.31,0,0,1-.86-1,3.74,3.74,0,0,0-1,2.54v8.43A3.82,3.82,0,0,0,4,27.08h5.4l.5-1.29Z" transform="translate(0 0.02)"/><path d="M29.63,11.12h0a1.36,1.36,0,0,0-.68.18l-4.49,2.53a3.66,3.66,0,0,0-.33-.79,7.07,7.07,0,0,1-1.05.77,2.66,2.66,0,0,1,.23,1H24.6v.39l5-2.83h0a.09.09,0,0,1,.09.09h0V25.62c0,.06,0,.1-.14.08l-5-3.14v.36H23.29v.36a2.53,2.53,0,0,1-2.51,2.51H10l.73.28.64-.26.52,1.27h8.93a3.81,3.81,0,0,0,3.72-3l4.39,2.75a1.37,1.37,0,0,0,1.88-.48,1.33,1.33,0,0,0,.19-.73V12.5A1.38,1.38,0,0,0,29.63,11.12Z" transform="translate(0 0.02)"/><polygon points="10.14 26.32 10.69 26.09 9.96 25.81 9.89 25.81 9.38 27.1 10.46 27.1 10.14 26.32"/><polygon points="10.69 26.09 11.1 26.25 10.77 27.1 11.85 27.1 11.33 25.83 10.69 26.09"/><polygon points="10.46 27.1 10.77 27.1 11.1 26.25 10.69 26.09 10.14 26.32 10.46 27.1"/><path d="M2.24,11.51a5.14,5.14,0,0,1-1-3,5.24,5.24,0,0,1,10.47-.46,3.53,3.53,0,0,1,0,.46A5.2,5.2,0,0,1,11,11h1.46l.06-.17a7.46,7.46,0,0,1-.84-3.43,7.58,7.58,0,0,1,.35-2.27A6.5,6.5,0,1,0,1.22,12.31,4,4,0,0,1,2.24,11.51Z" transform="translate(0 0.02)"/><path d="M10.08,12.34H11.8a6.85,6.85,0,0,0,.74-1.29H11.08A5.45,5.45,0,0,1,10.08,12.34Z" transform="translate(0 0.02)"/><path d="M2.08,13.28a2.55,2.55,0,0,1,1.08-.78,4.86,4.86,0,0,1-.92-1,3.87,3.87,0,0,0-1,.8A6,6,0,0,0,2.08,13.28Z" transform="translate(0 0.02)"/><path d="M12.6,10.88l.09.17h1.53A6.08,6.08,0,0,1,13,7.45,6.17,6.17,0,1,1,23.31,12a4,4,0,0,1,.8,1,7.44,7.44,0,1,0-12-7.86A6.52,6.52,0,0,1,13,8.53,6.49,6.49,0,0,1,12.6,10.88Z" transform="translate(0 0.02)"/><path d="M23.31,12a5.94,5.94,0,0,1-1.08.78,2.51,2.51,0,0,1,.83,1A7.93,7.93,0,0,0,24.11,13,4,4,0,0,0,23.31,12Z" transform="translate(0 0.02)"/><path d="M15.47,12.34a6.11,6.11,0,0,1-1.25-1.29H12.69a7.16,7.16,0,0,0,.91,1.29Z" transform="translate(0 0.02)"/><path d="M12.6,10.88A6.49,6.49,0,0,0,13,8.53a6.48,6.48,0,0,0-.93-3.35,7.58,7.58,0,0,0-.35,2.27A7.32,7.32,0,0,0,12.6,10.88Z" transform="translate(0 0.02)"/><path d="M22.46,7.45a3.25,3.25,0,1,0-3.25,3.25h0A3.27,3.27,0,0,0,22.46,7.45Zm-3.25,2a2,2,0,1,1,2-2,2,2,0,0,1-2,2Z" transform="translate(0 0.02)"/><path d="M9.77,8.66a3.25,3.25,0,1,0-5.28,2.39H8.55A3.23,3.23,0,0,0,9.77,8.66ZM6.44,10.48a2,2,0,1,1,2-2v.13A2,2,0,0,1,6.44,10.48Z" transform="translate(0 0.02)"/><path d="M6.38,11.77a3.17,3.17,0,0,0,2.17-.72H4.49A3.21,3.21,0,0,0,6.38,11.77Z" transform="translate(0 0.02)"/><polygon points="23.29 21.77 24.58 22.59 24.58 15.26 23.29 15.99 23.29 21.77"/><polygon points="23.29 22.94 24.58 22.94 24.58 22.59 23.29 21.77 23.29 22.94"/><polygon points="24.58 15.26 24.58 14.87 23.29 14.87 23.29 14.88 23.29 15.99 24.58 15.26"/></svg>