<svg id="Layer_1" data-name="Layer 1" xmlns="http://www.w3.org/2000/svg" viewBox="0 0 172.01 152.8"><title>icon-start</title><g id="o1GsZQ.tif"><path d="M125.19,107.7,109.93,94.15c-.66,1.3-1.13,2.26-1.62,3.2-2.79,5.34-5.45,10.74-8.42,16-1.79,3.15-5,4.49-8.47,4.87a39.18,39.18,0,0,1-8.86,0c-5.72-.67-10.21-3.43-12.85-8.74-2.23-4.48-4.43-9-6.64-13.44-.26-.53-.55-1-1-1.91L46.75,107.71c-9.61-8-13.07-22.52-6.44-33.74,3.28-5.54,7.61-10.11,13.63-12.77a4.62,4.62,0,0,0,3-4.5c.78-13.78,5.3-26.33,12.59-38A96.72,96.72,0,0,1,84.12,1.07C85.49-.27,86.43-.42,87.91,1c14.33,13.85,23.61,30.37,26.66,50.21a26.76,26.76,0,0,1,.59,5.46c-.14,2.66,1.31,3.75,3.43,4.75a29.39,29.39,0,0,1,13.34,12.65C138,85,135.19,99.45,125.19,107.7ZM63.89,62.58c.79,5.85,1.62,11.69,2.36,17.55a4.53,4.53,0,0,0,2.82,3.68c11.3,5.51,22.59,5.64,33.78-.19a5.53,5.53,0,0,0,2.63-3.39,107.56,107.56,0,0,0,2.17-16c.31-11.29-2.36-22.05-6.92-32.37-1-2.16-2.06-2.52-4.28-1.71a30.13,30.13,0,0,1-20.7.08c-2.31-.81-3.45-.4-4.52,1.82A77.6,77.6,0,0,0,63.89,62.58Zm38,31.08c-5.95.87-10.95,2.17-15.94,2.17s-10-1.29-15.62-2.12c2.15,4.2,4.26,8,6.07,11.92a7.41,7.41,0,0,0,6.08,4.47,26.73,26.73,0,0,0,4.23.59c2.54,0,5.49.07,7-2.27C96.57,103.79,99,98.88,101.88,93.66Zm22.35,2.7c6.4-8.06,2.11-23.42-8.84-27a2.58,2.58,0,0,0-.43.77c-.71,4.62-1.44,9.23-2,13.86a3.37,3.37,0,0,0,.62,2.54C117,89.86,120.53,93,124.23,96.36ZM56.49,69.16c-9.88,2.56-15.36,18.76-9.06,26.56.27,0,.65,0,.84-.18,3.42-3.05,6.85-6.09,10.2-9.22a2.47,2.47,0,0,0,.72-1.91C58.36,79.32,57.41,74.25,56.49,69.16ZM95.38,22l-9-11.56c-4.26,3.33-6.78,7.39-9.63,11.72A23.23,23.23,0,0,0,95.38,22Z"/><path d="M62.76,146.21c-.35-2.31-.6-4.11-.9-5.9a9.39,9.39,0,0,0-7.5-7.9,9.14,9.14,0,0,0-10,4.89c-1.94,3.83-1.89,3.25-5.28,2.18-6.4-2-11.52.78-13.57,7.29-.74,2.33-5.46,3.83-7.16,2.11a3.62,3.62,0,0,1-.52-2.8c.64-3.34,1.67-6.6,4.32-8.93,1.79-1.58,1.56-3.07.46-4.84-3.17-5.12-10.29-5.78-14.88-1.39-.73.7-1.93,1.76-2.58,1.56a19.48,19.48,0,0,1-5.09-2.66c-.24-.16.17-1.69.62-2.36a17.12,17.12,0,0,1,22.3-5.1,15.79,15.79,0,0,1,6.81,6.84c.74,1.56,1.54,2.41,3.52,1.89s8.4-2.73,10.17-3.86c6.29-4,17.3-4.17,23.23,5a9.84,9.84,0,0,0,7.23,5c5.39,1,10.1,6.75,10.71,12.13.31,2.74,0,3.08-2.6,3.19-3.92.17-3.92.17-5.43-3.47-1.57-3.79-5.62-5.42-10-4Z"/><path d="M92,150.5c2.13-5.05,5.33-8.73,10.12-10.44a18.57,18.57,0,0,0,9.26-7.07c7.3-9.91,22-10.17,30.31-1,.61.67,1.18,1.38,2,2.32,1-.59,1.88-1.16,2.81-1.71,9.85-5.81,23.12,0,25.29,11.11.51,2.62.19,3-2.48,3.25-4,.32-4,.32-5.54-3.27a9.75,9.75,0,0,0-14.49-3.92c-1.54,1.16-2.64,2.52-2.26,4.67a8.47,8.47,0,0,1-.14,2.74c-.64,4.34-.81,4.33-5,3.07-2.27-.68-3-1.74-2.81-4.15.88-9.17-6-13.61-11.79-13.82a12,12,0,0,0-12.08,8.9c-1.23,4.36-1.23,4.4-5.57,4.58a11.7,11.7,0,0,0-8.65,4.59c-2.5,3-2.47,3-6,1.52C94.14,151.5,93.33,151.09,92,150.5Z"/><path d="M90.05,130.69c0,2.45,0,4.89,0,7.34,0,1.73-.6,2.57-2.46,2.69-5.2.35-5.54.11-5.54-5.14,0-3.87.08-7.75,0-11.62-.06-2.26.88-3.19,3.1-3A9.33,9.33,0,0,0,87,121c2.23-.22,3.18.76,3.1,3S90.05,128.45,90.05,130.69Z"/><path d="M73,124.07c0,1.94,0,3.88,0,5.82a2,2,0,0,1-2.25,2.24l-.92,0c-4.72.14-4.8.07-4.81-4.63,0-3.07.06-6.13,0-9.19,0-2,.78-2.85,2.73-2.73.72,0,1.43,0,2.15,0,2.84.08,3,.3,3.12,3.25v5.21Z"/><path d="M106.74,124.18c0,1.63,0,3.25,0,4.88-.07,2.86-.32,3.06-3.56,3.09-3.57,0-4-.21-4-2.94-.06-3.55,0-7.11,0-10.67,0-2.05.71-3.06,2.82-2.94.92.05,1.83,0,2.75.05a1.86,1.86,0,0,1,2,2.13c0,2.13,0,4.27,0,6.4Z"/></g></svg>