<svg id="Layer_1" data-name="Layer 1" xmlns="http://www.w3.org/2000/svg" viewBox="0 0 334 334"><title>icon-arrow-light</title><path d="M167,0A167,167,0,1,0,334,167h0A167,167,0,0,0,167,0Zm98.35,145.48c-5.88,5.64-11.57,11.49-17.34,17.25l-24.88,24.89-24.7,24.7-24,24c-4.6,4.58-8.47,5-13.31.61-6-5.48-11.68-11.39-17.47-17.15l-24-24c-6.62-6.67-13.15-13.44-19.77-20.12q-12.3-12.4-24.7-24.73c-2.11-2.12-4.4-4.09-6.28-6.39-1.24-1.53-1.9-3.54-3-5.64,1.19-2.26,1.87-4.62,3.37-6.21,5.49-5.81,11.2-11.41,16.93-17,3.78-3.69,8.67-3.48,12.62.47Q121.74,139,144.6,161.9l20.16,20.18c2.73,2.73,2.74,2.73,5.41.07L235.38,117c5.25-5.24,9.46-5.21,14.77.1,5,4.94,9.8,10,14.89,14.79C268.87,135.4,269.68,141.32,265.35,145.48Z" transform="translate(0)"/></svg>