<svg id="Layer_1" data-name="Layer 1" xmlns="http://www.w3.org/2000/svg" viewBox="0 0 35.71 29.33"><title>icon-resources</title><path d="M32.64,29.33H3.08A3.07,3.07,0,0,1,0,26.26V2A2,2,0,0,1,2,0h13.7a2,2,0,0,1,2,2v1.9H32.64A3.08,3.08,0,0,1,35.71,7V26.26A3.07,3.07,0,0,1,32.64,29.33ZM2,1.31A.73.73,0,0,0,1.31,2V26.26A1.77,1.77,0,0,0,3.08,28H32.64a1.77,1.77,0,0,0,1.76-1.77V7a1.76,1.76,0,0,0-1.76-1.76H16.48V2a.74.74,0,0,0-.74-.73Z"/><path d="M32.64,29.33H3.08A3.07,3.07,0,0,1,0,26.26V9.56H35.71v16.7A3.07,3.07,0,0,1,32.64,29.33ZM1.31,10.87V26.26A1.77,1.77,0,0,0,3.08,28H32.64a1.77,1.77,0,0,0,1.76-1.77V10.87Z"/><path d="M18.89,26.53H16.82a1,1,0,0,1-1-1v-.14a6.14,6.14,0,0,1-.59-.25l-.1.1a1.08,1.08,0,0,1-1.48,0l-1.45-1.46a1,1,0,0,1,0-1.47l.1-.1a4.35,4.35,0,0,1-.25-.59h-.14a1,1,0,0,1-1-1V18.47a1,1,0,0,1,1-1H12a5.09,5.09,0,0,1,.25-.6l-.1-.1a1,1,0,0,1-.31-.73,1,1,0,0,1,.31-.74l1.46-1.46a1.07,1.07,0,0,1,1.47,0l.1.1.59-.25v-.14a1,1,0,0,1,1-1h2.07a1,1,0,0,1,1,1v.14l.59.25.1-.1a1.06,1.06,0,0,1,1.48,0l1.46,1.46a1.07,1.07,0,0,1,.3.74,1,1,0,0,1-.3.73l-.1.1q.13.3.24.6h.14a1,1,0,0,1,1.05,1v2.06a1,1,0,0,1-1.05,1H23.7a6.07,6.07,0,0,1-.24.59l.1.1a1.05,1.05,0,0,1,0,1.47L22.1,25.2a1,1,0,0,1-1.48,0l-.1-.1a6.14,6.14,0,0,1-.59.25v.14A1,1,0,0,1,18.89,26.53Zm-1.8-1.31h1.53v-.86l.49-.12a5.36,5.36,0,0,0,1.21-.51l.43-.25.61.61L22.44,23l-.61-.61.26-.44a4.91,4.91,0,0,0,.5-1.21l.13-.48h.86V18.74h-.86l-.13-.49a4.91,4.91,0,0,0-.5-1.21l-.26-.43.61-.61-1.08-1.08-.61.6-.43-.25a5.07,5.07,0,0,0-1.21-.5l-.49-.13v-.86H17.09v.86l-.49.13a4.84,4.84,0,0,0-1.2.5l-.44.25-.61-.6L13.27,16l.61.61-.26.43a4.91,4.91,0,0,0-.5,1.21l-.13.49h-.86v1.53H13l.13.48a4.91,4.91,0,0,0,.5,1.21l.26.44-.61.61,1.08,1.08.61-.61.44.25a5.28,5.28,0,0,0,1.2.51l.49.12Zm-2.55-.94Zm-1.46-8.47Zm4.78,6.88A3.19,3.19,0,1,1,21,19.5,3.19,3.19,0,0,1,17.86,22.69Zm0-5.07a1.88,1.88,0,1,0,1.87,1.88A1.88,1.88,0,0,0,17.86,17.62Z"/></svg>