<svg id="Layer_1" data-name="Layer 1" xmlns="http://www.w3.org/2000/svg" viewBox="0 0 179.59 374.69"><title>icon-about</title><path d="M0,226.54H55c1,15.85,1.67,30.7,2.95,45.51a92.45,92.45,0,0,0,3.62,18.22C66.54,307,76.5,313,95,310.81c13.07-1.53,22.53-12.09,23-27.4,1-34.84,1.79-69.71,2-104.57.32-55.78.08-111.55.08-167.33V0h59c.18,3.28.46,6,.46,8.73-.06,87.88.35,175.75-.5,263.62-.29,29.6-6.53,57.93-29.78,79.75-33.08,31-102.11,32.68-129.35-11.37-12-19.36-15.64-41-18-63C1.38,273.14.63,268.56,0,264Z"/></svg>