<svg id="Layer_1" data-name="Layer 1" xmlns="http://www.w3.org/2000/svg" viewBox="0 0 202.37 126.95"><title>icon-arrow-light</title><path d="M184.25,4.05c-5.31-5.31-9.52-5.34-14.77-.1L104.27,69.1c-2.67,2.66-2.68,2.66-5.41-.07L78.7,48.85Q55.84,25.94,32.92,3.11C29-.84,24.08-1,20.3,2.64c-5.73,5.59-11.44,11.19-16.93,17C1.87,21.23,1.19,23.59,0,25.85,1.1,28,1.76,30,3,31.49c1.88,2.3,4.17,4.27,6.28,6.39Q21.69,50.21,34,62.61c6.62,6.68,13.15,13.45,19.77,20.12l24,24c5.79,5.76,11.47,11.67,17.47,17.15,4.84,4.39,8.71,4,13.31-.61l24-24,24.7-24.7,24.88-24.89c5.77-5.76,11.46-11.61,17.34-17.25,4.33-4.16,3.52-10.08-.31-13.59C194.05,14.05,189.25,9,184.25,4.05Z"/></svg>