<svg id="Layer_1" data-name="Layer 1" xmlns="http://www.w3.org/2000/svg" viewBox="0 0 50.83 32.05"><title>icon-education</title><path d="M24.62,15.3a4.55,4.55,0,0,1-1.89.76c.17.14.33.28.49.44h.22l2.08-1.59a3,3,0,0,1-.43-.05A3.27,3.27,0,0,1,24.62,15.3Z"/><path d="M22.27,9.23h-.09l.09,0Z"/><path d="M38.31,21.37c-.83,1.08-2.72,4.29-2.21,10.68l1.33-.11c-.48-6.09,1.36-9,1.94-9.76s.73-2.64.62-4.34H38.65C38.75,19.36,38.71,20.85,38.31,21.37Z"/><path d="M33.53,13.65a3.31,3.31,0,0,1-.8.74l1.77,0A3,3,0,0,1,33.53,13.65Z"/><path d="M19.2,32l1.34,0s0-2,0-3.47a3.47,3.47,0,0,1-1.33-.87C19.25,28.86,19.2,32,19.2,32Z"/><path d="M48.6,7.9H46.2V9.23h2.4a.86.86,0,0,1,.89.79v5.7a.86.86,0,0,1-.89.78H46.2v1.34h2.4a2.18,2.18,0,0,0,2.23-2.12V10A2.18,2.18,0,0,0,48.6,7.9Z"/><path d="M7.68,8,1.22,11.27a2.15,2.15,0,0,0-1.22,2,2.18,2.18,0,0,0,1.41,1.92l6.36,2.55a1.26,1.26,0,0,0,.43.08h0V7.9A1.06,1.06,0,0,0,7.68,8ZM8,16.41,1.9,14a.83.83,0,0,1-.56-.74.82.82,0,0,1,.48-.77L8,9.36Z"/><rect x="39.05" y="7.9" width="5.82" height="1.34"/><path d="M9.57,16.5V9.23h7.34V7.9H8.23a1.22,1.22,0,0,1,.58.17A1.08,1.08,0,0,1,9.33,9v7.74a1.08,1.08,0,0,1-.48.9,1.17,1.17,0,0,1-.62.2h4.84a10.36,10.36,0,0,1-.21-1.34Z"/><path d="M23.31,16.6l.13-.1h-.22Z"/><path d="M25.64,16.5l-1.53,1.18c0,.05.07.1.1.16H38.65c0-.45-.07-.9-.12-1.34Z"/><path d="M39.88,16.5c0,.43.08.88.11,1.34h4.88V16.5Z"/><path d="M38.53,16.5c0,.44.09.89.12,1.34H40c0-.46-.07-.91-.11-1.34Z"/><path d="M23.31,16.6c.11.12.22.23.32.36a5.63,5.63,0,0,1,.48.72l1.53-1.18h-2.2Z"/><polygon points="46.2 9.23 46.2 7.9 44.87 7.9 44.87 9.23 44.87 16.5 44.87 17.84 46.2 17.84 46.2 16.5 46.2 9.23"/><path d="M9.33,16.74V9a1.08,1.08,0,0,0-.52-.93,1.22,1.22,0,0,0-.58-.17v9.94a1.17,1.17,0,0,0,.62-.2A1.08,1.08,0,0,0,9.33,16.74Z"/><path d="M32.86,12a2.71,2.71,0,0,0,0-.4V9.23h-.07v2.51C32.83,11.84,32.85,11.94,32.86,12Z"/><path d="M35.85,14.76H36a3,3,0,0,0,1.12-.22c-.7,0-1.61-.08-2.64-.11A2.93,2.93,0,0,0,35.85,14.76Z"/><path d="M34.24,4.09a1.68,1.68,0,0,1,1.61-1.22H36a1.69,1.69,0,0,1,1.69,1.69V7.9h1.34V4.56a3,3,0,0,0-3-3h-.17A3,3,0,0,0,34,2.16a3.17,3.17,0,0,1,.21,1.11Z"/><path d="M36.88,13.18a14.26,14.26,0,0,1,1.68.19,3,3,0,0,0,.49-1.63V9.23H37.71v2.51A1.69,1.69,0,0,1,36.88,13.18Z"/><path d="M34.85,13.09a1.69,1.69,0,0,1-.65-1,3.38,3.38,0,0,1-.3,1Z"/><path d="M32.83,7.9h.07v-4a2.81,2.81,0,0,0-.07.65Z"/><path d="M36,13.42h-.17a1.64,1.64,0,0,1-1-.33l-1,0a3.25,3.25,0,0,1-.37.59,3,3,0,0,0,1,.78c1,0,1.94.07,2.64.11a3,3,0,0,0,1.42-1.17,14.26,14.26,0,0,0-1.68-.19A1.66,1.66,0,0,1,36,13.42Z"/><rect x="37.71" y="7.9" width="1.34" height="1.34"/><rect x="32.83" y="7.9" width="0.07" height="1.34"/><path d="M27.5,7.9h.18V3.27a2,2,0,0,0-.12-.64,3.39,3.39,0,0,0-.06.64Z"/><path d="M32.3,13h.83a3,3,0,0,1-.27-1A1.92,1.92,0,0,1,32.3,13Z"/><path d="M28.71,13h.69a2,2,0,0,1-.45-.72A3.58,3.58,0,0,1,28.71,13Z"/><path d="M27.56,12.28a2,2,0,0,0,.12-.64V9.23H27.5v2.41A3.39,3.39,0,0,0,27.56,12.28Z"/><path d="M34.2,12.05c0-.13,0-.27,0-.41V9.23h-.08v2.51A1.55,1.55,0,0,0,34.2,12.05Z"/><path d="M34.24,4.09a1.5,1.5,0,0,0-.08.47V7.9h.08Z"/><path d="M30.77,14.91H31a3.34,3.34,0,0,0,1.77-.52c-1.22,0-2.52,0-3.8-.05A3.23,3.23,0,0,0,30.77,14.91Z"/><path d="M30.77,1.34H31A1.94,1.94,0,0,1,32.9,3.27v.64A3.06,3.06,0,0,1,34,2.16,3.26,3.26,0,0,0,31,0h-.19a3.24,3.24,0,0,0-2.51,1.2A3.35,3.35,0,0,1,29,2.63,1.94,1.94,0,0,1,30.77,1.34Z"/><path d="M33.53,13.65a3.06,3.06,0,0,1-.4-.61H32.3a1.91,1.91,0,0,1-1.34.54h-.19A1.9,1.9,0,0,1,29.4,13h-.69a3.71,3.71,0,0,1-.45.71,2.87,2.87,0,0,0,.67.63c1.28,0,2.58,0,3.8.05A3.31,3.31,0,0,0,33.53,13.65Z"/><rect x="34.16" y="7.9" width="0.07" height="1.34"/><rect x="27.5" y="7.9" width="0.18" height="1.34"/><path d="M32.86,12a3,3,0,0,0,.27,1l.77,0a3.38,3.38,0,0,0,.3-1,1.55,1.55,0,0,1,0-.31V9.23H32.9v2.41A2.71,2.71,0,0,1,32.86,12Z"/><path d="M32.9,3.91v4h1.26V4.56a1.5,1.5,0,0,1,.08-.47V3.27A3.17,3.17,0,0,0,34,2.16,3.06,3.06,0,0,0,32.9,3.91Z"/><path d="M33.53,13.65a3.25,3.25,0,0,0,.37-.59l-.77,0A3.06,3.06,0,0,0,33.53,13.65Z"/><rect x="32.9" y="7.9" width="1.26" height="1.34"/><path d="M29,12.28a3.39,3.39,0,0,0,.07-.64V9.23h-.19v2.41A2,2,0,0,0,29,12.28Z"/><path d="M22.31,9.27v0h0v0Z"/><path d="M25.55,1.34h.19a1.93,1.93,0,0,1,1.82,1.29,3.25,3.25,0,0,1,.7-1.43A3.25,3.25,0,0,0,25.74,0h-.19A3.26,3.26,0,0,0,23,1.29a3.28,3.28,0,0,1,.67,1.81A1.93,1.93,0,0,1,25.55,1.34Z"/><path d="M22.27,7.9h0V3.27a1,1,0,0,0,0-.17c0,.06,0,.11,0,.17Z"/><path d="M29,3.27A3.39,3.39,0,0,0,29,2.63a2,2,0,0,0-.12.64V7.9H29Z"/><path d="M27.56,12.28a2,2,0,0,1-1.73,1.29,3.19,3.19,0,0,1-.74,1.29,3,3,0,0,0,.43.05l2.34-1.8A3.43,3.43,0,0,1,27.56,12.28Z"/><path d="M25.52,14.91h.22a3.25,3.25,0,0,0,2.52-1.2,3.3,3.3,0,0,1-.4-.6Z"/><rect x="22.27" y="7.9" width="0.04" height="1.34"/><rect x="28.83" y="7.9" width="0.18" height="1.34"/><path d="M27.68,3.27V7.9h1.15V3.27A2,2,0,0,1,29,2.63a3.35,3.35,0,0,0-.69-1.43,3.25,3.25,0,0,0-.7,1.43A2,2,0,0,1,27.68,3.27Z"/><path d="M27.56,12.28a3.43,3.43,0,0,0,.3.83L28,13h.71a3.58,3.58,0,0,0,.24-.72,2,2,0,0,1-.12-.64V9.23H27.68v2.41A2,2,0,0,1,27.56,12.28Z"/><path d="M28.23,13H28l-.14.11a3.3,3.3,0,0,0,.4.6,3.71,3.71,0,0,0,.45-.71Z"/><rect x="27.68" y="7.9" width="1.15" height="1.34"/><path d="M17.11,9.23h-.2v.09Z"/><path d="M23.65,9.81V9.23h0v.56Z"/><path d="M18.24,3.27a1.94,1.94,0,0,1,1.94-1.93h.19A1.93,1.93,0,0,1,22.29,3.1,3.28,3.28,0,0,1,23,1.29,3.26,3.26,0,0,0,20.37,0h-.19a3.27,3.27,0,0,0-3.27,3.27V7.9h1.33Z"/><path d="M23.65,3.27c0-.06,0-.11,0-.17a1,1,0,0,0,0,.17V7.9h0Z"/><rect x="23.61" y="7.9" width="0.04" height="1.34"/><path d="M17.11,9.23a6.47,6.47,0,0,1,1.13-.29v-1H16.91V9.23Z"/><path d="M22.31,3.27V7.9h1.3V3.27a1,1,0,0,1,0-.17A3.28,3.28,0,0,0,23,1.29a3.28,3.28,0,0,0-.67,1.81A1,1,0,0,1,22.31,3.27Z"/><path d="M23.61,9.79V9.23h-1.3v0A9.52,9.52,0,0,1,23.61,9.79Z"/><rect x="22.31" y="7.9" width="1.3" height="1.34"/><path d="M16.91,10.77V9.32a4.78,4.78,0,0,0-.62.26c-2.79,1.48-3.69,4.14-3.43,6.92h1.35A5.26,5.26,0,0,1,16.91,10.77Z"/><path d="M23.05,18.49a4.58,4.58,0,0,1,.48,2.65l1.33.14a5.89,5.89,0,0,0-.65-3.44h-.32Z"/><path d="M24.37,10.23a7.15,7.15,0,0,0-.72-.42v1.54c.64.44,1,1,1,1.3a2.35,2.35,0,0,1-.14.62,2,2,0,0,0,1,.3h.28a4.89,4.89,0,0,0,.15-.78A2.91,2.91,0,0,0,24.37,10.23Z"/><path d="M22.27,10.66V9.26l-.09,0H18.24v1.08A7.55,7.55,0,0,1,22.27,10.66Z"/><path d="M19.25,27.4a22.17,22.17,0,0,0-3.42-4.11l-.52-.54,1-.78c-.3-.48-.59-1-.85-1.48a13.37,13.37,0,0,1-1-2.65H13.07a13.58,13.58,0,0,0,1.21,3.27,26.37,26.37,0,0,0,5,6.55Z"/><path d="M22.73,16.06a4.55,4.55,0,0,0,1.89-.76,3.27,3.27,0,0,0,.47-.44,3.2,3.2,0,0,1-1.42-.55,4.57,4.57,0,0,1-2.57.51,3,3,0,0,1-.73.09h-.13L20,16a5.68,5.68,0,0,1,1,.46h2.21C23.06,16.34,22.9,16.2,22.73,16.06Z"/><path d="M20.58,28.53h0l.26-1.3A2,2,0,0,1,20.5,27a1.18,1.18,0,0,1,.08.38Z"/><path d="M16.32,22l-1,.78.52.54a22.17,22.17,0,0,1,3.42,4.11v.26a3.47,3.47,0,0,0,1.33.87V27.38A1.18,1.18,0,0,0,20.5,27,23.29,23.29,0,0,1,16.32,22Z"/><path d="M22.62,17.84a4.57,4.57,0,0,1,.43.65l.84-.65Z"/><path d="M22.18,9.23a8.85,8.85,0,0,0-3.94-.29v.29Z"/><path d="M14.21,16.5H12.86a10.36,10.36,0,0,0,.21,1.34h1.39A12.77,12.77,0,0,1,14.21,16.5Z"/><path d="M21,16.5a6,6,0,0,1,1.23.92l1.07-.82-.09-.1Z"/><path d="M23.89,17.84h.32c0-.06-.07-.11-.1-.16Z"/><path d="M23.31,16.6l-1.07.82q.18.18.36.39l0,0h1.27l.22-.16a5.63,5.63,0,0,0-.48-.72C23.53,16.83,23.42,16.72,23.31,16.6Z"/><path d="M25.55,13.57a2,2,0,0,1-1-.3,2,2,0,0,1-.69,1,.75.75,0,0,1-.15.09,3.2,3.2,0,0,0,1.42.55,3.19,3.19,0,0,0,.74-1.29h-.28Z"/><path d="M22.31,9.27h0v1.4l0,0Z"/><path d="M23.63,11.34h0V9.81l0,0v1.54Z"/><path d="M16.91,10.77h0a4.68,4.68,0,0,1,1.32-.45V9.23H17.11l-.2.09Z"/><path d="M21.1,14.82a7.19,7.19,0,0,1-.82-.08l0,.17h.13A3,3,0,0,0,21.1,14.82Z"/><path d="M18.24,8.94a6.47,6.47,0,0,0-1.13.29h1.13Z"/><path d="M23.61,11.33V9.79a9.52,9.52,0,0,0-1.3-.52v1.41A6.57,6.57,0,0,1,23.61,11.33Z"/></svg>