<svg id="Layer_1" data-name="Layer 1" xmlns="http://www.w3.org/2000/svg" viewBox="0 0 230.23 230.28"><title>icon-begin</title><g id="HDJJ5l.tif"><path d="M15.13,107.77H127.36a32,32,0,0,0-2.35-3.09c-5.86-5.92-11.82-11.74-17.64-17.7-3.81-3.89-3.92-8.12-.56-11.44,3.13-3.09,7.12-2.91,11,.94q16.55,16.33,32.86,32.88c4.19,4.26,4.17,8.43-.08,12.73q-16,16.16-32.31,32c-4,3.86-7.66,4-11,.75-3.16-3.05-3-7.15.8-11,6.54-6.65,13.22-13.15,20.94-20.81-3.14-.16-5-.34-6.8-.34q-55.5,0-111,0c-10,0-11.69-1.84-11.19-11.78C2.52,62,34,20.11,80.68,5.4,111.9-4.44,142.41-.66,171,15.28c32.74,18.27,52.76,46.27,58,83.37,5.28,37.26-6.19,69.89-32.65,96.69-21.85,22.13-48.58,34-79.88,34.93-5.51.16-8.16-1.81-8.58-6.16s2.22-7.52,7.3-8.38c1.47-.25,3-.17,4.46-.46,9.92-2,20.21-2.89,29.67-6.19,41.37-14.41,67.22-53.56,65.76-97.29-2.4-71.7-76.67-118.36-143.23-87.18-33.78,15.83-51.76,44.3-56.86,81A11.45,11.45,0,0,0,15.13,107.77Z"/></g></svg>