<svg id="Layer_1" data-name="Layer 1" xmlns="http://www.w3.org/2000/svg" viewBox="0 0 313.88 314"><title>icon-rewind</title><g id="cFCCay.tif"><path d="M36.34,59.65C24.78,48.37,13.08,37,0,24.2L121,0c-8.13,40.64-16,79.94-24.23,121.2l-36-37.11a71.08,71.08,0,0,0-4.78,5.48C9.48,157.5,43.68,252.78,122.8,276c71.52,20.94,145.15-24.34,156.61-98,8-51.35-11.17-92.49-53.68-122.41-4.61-3.24-6.63-6.39-6.37-12,.41-9.09.11-18.21.11-27.55,37.76,12.42,84,57.41,92.7,118.4,10.86,75.73-31.33,138.7-89,165.36C162.39,328,90.15,313.44,43,263.43.78,218.62-19.26,131.79,36.34,59.65Z"/></g></svg>