<svg id="Layer_1" data-name="Layer 1" xmlns="http://www.w3.org/2000/svg" viewBox="0 0 392 512"><title>icon-pdf</title><g id="Bf5bkB.tif"><path d="M392,144V480a45.29,45.29,0,0,0-2,4.22c-4.85,13.36-14,22.14-27.63,26.28-1.47.45-2.9,1-4.35,1.5H32a10.79,10.79,0,0,0-2.32-1.45q-21.57-6.66-28.26-28.2A11.68,11.68,0,0,0,0,480V32a10.61,10.61,0,0,0,1.45-2.33Q8.11,8.08,29.69,1.47A10.45,10.45,0,0,0,32,0H248c0,34.79-.14,69.57.12,104.36.19,26.86,13.34,39.62,40,39.62ZM220.8,293.41l-3.8-2.3c-18.69-11.28-39.94-3.18-46.09,17.79a64.46,64.46,0,0,0,.27,37.42c4.14,13.63,14.34,20.7,28,20.22a34.75,34.75,0,0,0,19.08-6.49c1.12-.79,2.3-1.47,3.82-2.43.16,2.5.27,4.3.4,6.3h16.85V256.77H220.8ZM103,359.17l2.46,1.61c19.21,12.54,40.72,4.87,47.2-17a64.9,64.9,0,0,0,0-37c-4.5-15.57-17.08-23.34-33-19.92-6.28,1.35-12.13,4.7-18.22,7.16-.12-1.38-.31-3.41-.5-5.43H84.27V392.51H103Zm201.52-103c-10.78-2.67-21-3.37-30.69,1.48-12.81,6.43-11,19.15-11.83,30.8h-9v14.46l9.28.45V364h18.79V303.07h15.29V288.24H280c1.25-5.68.76-12.82,3.77-14.89,4.22-2.9,11-2,17.49-2.88C302.06,266.81,303.19,261.82,304.47,256.19Z" style="fill:#cb0000"/><path d="M392,144l-103.86,0c-26.68,0-39.83-12.76-40-39.62C247.86,69.57,248,34.79,248,0h17c1.24,1.34,2.44,2.72,3.73,4Q328.36,63.65,388,123.27c1.29,1.29,2.66,2.49,4,3.73Z" style="fill:#fb8b8b"/><path d="M220.8,293.41V256.77h18.51V363.92H222.46c-.13-2-.24-3.8-.4-6.3-1.52,1-2.7,1.64-3.82,2.43a34.75,34.75,0,0,1-19.08,6.49c-13.64.48-23.84-6.59-28-20.22a64.46,64.46,0,0,1-.27-37.42c6.15-21,27.4-29.07,46.09-17.79Zm.08,32.77c0-4.65.08-9.31,0-13.95a6,6,0,0,0-1.07-3.57,17.6,17.6,0,0,0-30.13,6,39.52,39.52,0,0,0-.08,24.5c2.75,9,9.37,12.57,18.55,10.09a55,55,0,0,0,7.79-3.15c3.67-1.63,5.57-4.15,5.07-8.52C220.54,333.85,220.89,330,220.88,326.18Z" style="fill:#fdfbfb"/><path d="M103,359.17v33.34H84.27V288.59h16.59c.19,2,.38,4.05.5,5.43,6.09-2.46,11.94-5.81,18.22-7.16,15.93-3.42,28.51,4.35,33,19.92a64.9,64.9,0,0,1,0,37c-6.48,21.92-28,29.59-47.2,17Zm-.13-32.85c0,4.66-.06,9.32,0,14a6.37,6.37,0,0,0,.91,3.65c7.87,9.63,24.19,7.62,29.2-3.68,3.81-8.57,3.69-17.51,1.09-26.36-2.81-9.55-9.71-13.22-19.3-10.43a63.79,63.79,0,0,0-7.3,3.12c-3.65,1.57-5.15,4.14-4.72,8.24A112.64,112.64,0,0,1,102.82,326.32Z" style="fill:#fdfbfb"/><path d="M304.47,256.19c-1.28,5.63-2.41,10.62-3.24,14.28-6.46.84-13.27,0-17.49,2.88-3,2.07-2.52,9.21-3.77,14.89h16.37v14.83H281.05V364H262.26V303.38l-9.28-.45V288.47h9c.82-11.65-1-24.37,11.83-30.8C283.46,252.82,293.69,253.52,304.47,256.19Z" style="fill:#fdfbfb"/><path d="M220.88,326.18c0,3.82-.34,7.67.09,11.44.5,4.37-1.4,6.89-5.07,8.52a55,55,0,0,1-7.79,3.15c-9.18,2.48-15.8-1.05-18.55-10.09a39.52,39.52,0,0,1,.08-24.5,17.6,17.6,0,0,1,30.13-6,6,6,0,0,1,1.07,3.57C221,316.87,220.88,321.53,220.88,326.18Z" style="fill:#cb0000"/><path d="M102.82,326.32a112.64,112.64,0,0,0-.08-11.48c-.43-4.1,1.07-6.67,4.72-8.24a63.79,63.79,0,0,1,7.3-3.12c9.59-2.79,16.49.88,19.3,10.43,2.6,8.85,2.72,17.79-1.09,26.36-5,11.3-21.33,13.31-29.2,3.68a6.37,6.37,0,0,1-.91-3.65C102.76,335.64,102.82,331,102.82,326.32Z" style="fill:#cb0000"/></g></svg>