<svg id="Layer_1" data-name="Layer 1" xmlns="http://www.w3.org/2000/svg" viewBox="0 0 334 334"><defs><style>.cls-1{fill:#fff;}</style></defs><title>icon-arrow</title><path class="cls-1" d="M167.42-.08a167,167,0,1,0,167,167A167,167,0,0,0,167.42-.08ZM265.77,145.4c-5.88,5.64-11.57,11.49-17.34,17.25l-24.88,24.89-24.7,24.7q-12,12-24,24c-4.6,4.58-8.47,5-13.31.61-6-5.48-11.68-11.39-17.47-17.15q-12-12-24-24c-6.62-6.67-13.15-13.44-19.77-20.12Q88,163.17,75.6,150.85c-2.11-2.12-4.4-4.09-6.28-6.39-1.24-1.53-1.9-3.54-3-5.64,1.19-2.26,1.87-4.62,3.37-6.21,5.49-5.81,11.2-11.41,16.93-17,3.78-3.69,8.67-3.48,12.62.47q22.92,22.85,45.78,45.74L165.18,182c2.73,2.73,2.74,2.73,5.41.07l65.21-65.2c5.25-5.24,9.46-5.21,14.77.1,5,4.94,9.8,10,14.89,14.79C269.29,135.32,270.1,141.24,265.77,145.4Z" transform="translate(-0.42 0.08)"/></svg>