<svg version="1.1" id="Layer_1" xmlns="http://www.w3.org/2000/svg" xmlns:xlink="http://www.w3.org/1999/xlink" x="0px" y="0px"
	 viewBox="0 0 1793.4 568.8" style="enable-background:new 0 0 1793.4 568.8;" xml:space="preserve">
<style type="text/css">
	.st0{fill:#FFFFFF;}
</style>
<g>
	<path class="st0" d="M351.5,59.1c-6.9,14.8-13.3,29.4-20.6,43.5c-1.1,2.2-6.5,2.1-11.1,3.5c1.1-3.5,1.7-5.3,2.5-7.8
		c-8.4,0-16.5-0.2-24.5,0.1c-3.4,0.1-5.4,5.8-3.1,8.4c5.8,6.4,11.7,12.7,17.9,19.3c8.4-8.1,17.9-13.7,28.9-16.5
		c26.8-6.7,50.6,2.7,66.4,25.9c11.3,16.6,16.7,35.4,20.3,54.8c8.7,48.1,6.7,95.4-9.7,141.8c-15.8,44.7-41.3,83.3-73.6,117.7
		c-36.5,38.8-79.3,69.5-125.2,96c-1.5,0.8-4.2,1-5.7,0.2c-42.4-24.4-82.3-52.4-116.9-87.3c-42-42.2-73.7-90.6-89-148.7
		c-9.3-35.3-10-71-5.1-107c2.5-18,6.4-35.7,13.9-52.4c4.9-10.9,11.6-20.5,20.2-28.8c33.1-32.1,66.4-64.1,99.1-96.7
		c17.1-17,37.5-24.4,61.1-25.1c22.4-0.6,42.2,6.3,60.1,19.3c1.9,1.4,3.8,2.7,5.7,4c7.9,5.8,16.5,9.5,26.5,8.1
		c16.2-2.4,29.8,2.3,41.9,13.2C337.6,50.1,344.7,54.3,351.5,59.1z M85,254.6c-0.7-0.2-1.3-0.4-1.9-0.6c-19-8.9-38-17.8-57-26.5
		c-2.9-1.3-3-3.2-2.6-5.6c1.8-12,3.7-24,5.5-36c0.2-1.6,0.9-3.5,0.3-4.9c-2.3-5.5-5-10.9-7.6-16.4c-0.5,1.5-1.2,3-1.6,4.6
		c-12.5,44.1-14.5,88.6-3.9,133.3c14.4,60.3,47.4,109.8,91,152.8c30.2,29.7,64.4,54.2,100.5,76.2c6.5,4,10.9,4.1,17.5,0.1
		c49.6-30.2,95.1-65.1,131.7-110.6c28.4-35.2,49.3-74.2,59.9-118.4c8.1-33.8,8.4-68,3.1-102.2c-2.8-18-7.1-35.5-15.6-51.8
		c-18.5-35.5-57-42.1-86.1-14.7c-1.4,1.3-4.1,1.9-6.2,1.9c-37.8,0.1-75.7,0.1-113.5,0.1c-25.2,0-50.3,0-75.5,0
		c-2.5,0-4.7-0.3-5.7,3.2c-3.4,11.8-7.3,23.5-11,35.2c-0.3,1.1-0.3,2.3-0.2,3.4c1,17,1.9,33.9,3,50.9c0.6,9.6,0.7,9.6-8.2,12.5
		c-0.3,0.1-0.6-0.1-1.2-0.2c-7.6-12.7-15.3-25.5-23.1-38.3c-0.9-1.4-2.8-2.9-4.4-3c-5.4-0.4-10.9-0.1-16.9-0.1
		c12.1,15.9,24.2,31.7,36.2,47.3C89.2,249.7,87.2,252.1,85,254.6z M256.8,106.6c0.3-0.5,0.7-1,1-1.5c2.3,1.1,5,1.7,7,3.2
		c5.9,4.7,11.8,9.3,17.1,14.6c5.1,5,10.7,3,17.5,3.3c-3.9-4.2-6.8-7.4-9.8-10.6c-8.2-8.7-8.3-8.8-3.3-19.4c1.3-2.7,1.1-4.3-1.1-6.5
		c-5-5.1-7.4-11.3-6.6-18.5c4.1-0.5,4.1-0.5,5.1,2.6c2.9,10,9,14.5,19.4,14.6c6.7,0,13.3-0.2,20,0.1c3.1,0.1,4.8-0.8,6-3.7
		c2.6-6.1,5.4-12.2,8.5-18.1c1.7-3.3,1.5-5.2-1.8-7.3c-6.4-4.2-12.7-8.5-18.7-13.3c-4.7-3.7-9.5-5.7-15.6-5
		c-19.5,2.4-36.5-3-52-15.4c-11.4-9.2-25-14.5-39.9-15.8c-25.7-2.1-48.7,3.2-67.5,22.7C127,48.5,110.9,63.3,95.3,78.5
		c-2.8,2.7-5.5,5.5-9.2,9.2c12.1,0,22.7,0,33.8,0c0,13.1,0,25.6,0,38.3c34.9,0,69.2,0,103.6,0c0.4-0.5,0.9-1.1,1.3-1.6
		c-1.8-1.2-4-2-5.3-3.6c-3.5-4.6-7.9-5.9-13.5-5.5c-5.7,0.4-11.4,0.1-18.5,0.1c12.8-13.8,17.8-28.6,11.5-45.5
		c-6.4-17-19.8-25.1-37.2-26.9c-1.1-4.1,0.8-4.6,3.9-4.4c23.8,1.6,42.8,20.5,43.8,44.5c0.3,7.3-1.3,14.7-2.1,22.6
		c9.1-3.1,14.9,3,19.9,9.5c6.9,8.9,15.3,12.8,26.7,11.1c6.1-0.9,12.4-0.2,19.6-0.2C267.4,119.1,262.1,112.9,256.8,106.6z
		 M110.3,97.3c-11.4,0-21.9-0.1-32.3,0.1c-1.3,0-2.8,1-3.8,1.9c-10.9,10.5-21.9,21-32.6,31.7c-10.6,10.7-13.2,25.9-7,39.2
		c6.2,13.2,19.7,21.2,33.9,20.2c14.5-1,26.7-10.8,31-25.1c2.4-7.9,4.3-16.1,7.3-23.8C112.3,127.2,109.2,112.5,110.3,97.3z"/>
	<path class="st0" d="M891.2,294.2c-15.4-2.9-24.7-10.1-24.5-25.5c0.2-15.5,10.9-21.7,24.5-25.5c-1.1-0.9-1.8-1.5-2.5-1.9
		c-14.2-6.4-21.8-17.2-21.7-32.8c0.1-16,7-28.3,21.3-35.8c15.4-8.1,32-8.3,48.7-5.5c8.5,1.4,16.7,3.9,25.5,6c0-1.4,0.1-2.8,0-4.3
		c-0.4-5.9,1.5-10.5,7-13.2c5.8-2.9,11.7-2.7,17,1.2c4.9,3.6,6.3,9,5.4,14.7c-1.6,10.6-10,15.7-21.6,13.3c-4.1-0.8-8-2.4-11.9-3.6
		c-1.4-0.4-2.9-0.7-4.3-1c-0.2,0.4-0.3,0.8-0.5,1.2c0.7,0.8,1.3,1.8,2.2,2.2c18.3,9.2,18.9,39.3,0.1,52.3c-8.4,5.9-17.7,9.4-27.8,10
		c-7.6,0.5-15.2-0.3-22.8-0.8c-5-0.3-8.9,1.5-11.5,5.5c-4.4,6.8-0.2,13.7,8.5,13.8c15,0.1,30-0.1,45,0.1c9.8,0.1,19.5,1.7,27.2,8.2
		c3.9,3.3,7.8,7.6,9.7,12.3c7.8,19.2,4.1,42.7-19,54.5c-11.8,6-24.5,8.4-37.5,9.2c-14.7,1-29.3,0.3-43.6-3.7
		c-4.7-1.4-9.5-3.4-13.6-6.1c-15-9.8-13.7-30.8,2.4-38.7C878.1,298,884,296.6,891.2,294.2z M923,297.3c0-0.1,0-0.2,0-0.4
		c-4.8,0-9.6-0.1-14.5,0.1c-2.9,0.1-6.3,0-8.6,1.3c-6.9,3.9-10.1,10.3-9.9,18.3c0.2,8.2,3.7,14.9,11.5,17.7c16,5.7,32.1,5,47.3-2.8
		c7.9-4,11.2-13.4,9.1-22.3c-1.8-7.4-7.1-11.2-16.9-11.8C935,297,929,297.3,923,297.3z M901.2,204.4c0.7,6,1,12.5,2.3,18.8
		c1.7,8.4,6.6,11.8,15.4,11.9c8.1,0.1,13.2-3.7,15.1-11.8c2.7-11.5,2.6-23.1-0.2-34.6c-1.8-7.2-7.5-11.2-15.2-11.2
		c-7.5,0-12.6,3.4-14.5,10.6C902.6,193.2,902.1,198.6,901.2,204.4z"/>
	<path class="st0" d="M564.7,290.9c-21.6-0.1-40.1-4.8-55.2-18.9c-13.8-12.9-20-29.6-22.5-47.9c-2.4-17.9-1.2-35.5,4.6-52.8
		c8.9-26.6,32.3-44.5,60.3-46.8c12.4-1,24.7-0.7,36.6,2.7c20.7,5.7,36,18.2,44,38.2c11.5,28.8,11.7,58-1.1,86.4
		c-10.9,24.3-31.3,35.7-57.2,38.6C570.5,290.7,566.9,290.7,564.7,290.9z M526.5,212.1c0.7,7,1,18.5,3.1,29.7c1.4,7.9,4,15.9,8,22.8
		c10.8,18.6,40.7,18.2,51.6-0.3c2.8-4.8,5-10.2,6.3-15.6c4.7-19.3,4.8-38.9,3.6-58.5c-0.7-12-2.2-23.9-7.2-35
		c-3.1-6.9-7.5-12.7-14.6-15.7c-15.4-6.4-36.9-3.7-44.9,20.8C527.4,175.7,527.2,191.7,526.5,212.1z"/>
	<path class="st0" d="M1350.7,490.3c3.6,6.3,3.6,6.3-2.1,11c-13.3,11-28.7,13-44.7,8.7c-12.1-3.2-16.4-13.4-17.4-24.9
		c-0.6-7.6-0.4-15.3-0.4-23c0-18,0-36,0-54c0-1.8,0-3.6,0-5.8c-5.4,0-10.1,0-15.1,0c-1-4.6-1-8.1,2.4-11.7
		c9.6-10.2,18.8-20.8,28.3-30.9c1.9-2,4.8-3,8.6-5.1c0,12.5,0,23.1,0,34.4c10.2,0,20,0,29.7,0c16.3,0,32.6,0,49,0.2
		c5.6,0.1,3.1,5.1,4.9,8.1c-6.1,1.6-11.6,3.1-17.4,4.6c9.4,28.7,23.4,55.7,28.6,86.9c9.2-29.1,18.1-57,27.1-85.5
		c-5.8-2-11.6-4-17.8-6.2c0.4-2.4,0.9-4.8,1.4-7.6c14.6,0,29.2,0,44.4,0c0.5,2.3,1,4.9,1.5,7.5c-0.9,0.5-1.4,0.9-2,1
		c-9.1,1.7-12.2,8.3-15.1,16.2c-12.7,35.4-25.5,70.7-39.2,105.7c-4.7,11.9-11.4,23.4-18.9,33.8c-9.2,12.9-22.8,17.4-38.5,13.7
		c-10.7-2.5-16.2-12.6-13.1-23.2c2-7.1,9-11.4,16.7-10.4c7.8,1,12.4,6.2,12.2,14.3c-0.1,2.8-0.8,5.5-1.4,9.9
		c3.9-2.6,7.5-4.3,10.2-6.8c10.4-9.9,16.2-22.6,20.8-35.9c0.5-1.5,0.1-3.6-0.6-5.2c-13.5-34.3-27.1-68.7-40.9-102.9
		c-0.8-1.9-3.2-4.6-4.9-4.6c-12-0.4-23.9-0.2-36.3-0.2c-0.1,1.9-0.2,3.5-0.2,5.2c0,22.3,0,44.7,0,67c0,15.9,8.2,23,23.9,20.3
		C1339.8,493.9,1345,491.9,1350.7,490.3z"/>
	<path class="st0" d="M1170.7,280.4c-0.5,6.6-3.8,8.1-9.4,8c-17.3-0.4-34.6-0.1-52-0.1c-1.6-4.9-1.1-8.5,4.3-9.7
		c5.3-1.2,6.2-4.4,6.2-9.4c-0.3-20.5-0.3-41,0-61.5c0.1-5.2-1-9.7-4.1-13.9c-2.4-3.2-4.4-6.7-6.5-10.1c-1.4-2.4-1.4-4.3,1.8-5.3
		c12.7-4,25.3-8.2,38-12.2c1.6-0.5,3.6-0.1,5.7-0.1c0,7.7,0,15.3,0,24.2c1.7-2.1,2.8-3.3,3.8-4.6c8.1-10.7,18.5-17.3,32-19.3
		c22.2-3.4,39.7,9.7,41.7,32.3c0.9,10.4,0.6,21,0.6,31.5c0.1,13.7,0.1,27.3,0,41c0,3.2,1,4.8,4.1,5.7c3.8,1,7.6,2.4,11.3,3.6
		c-1.1,7.5-1.7,8-8.6,8c-16.2,0-32.3,0-48.5,0c-1.6,0-3.3-0.1-4.8-0.2c-1.8-5.1-0.4-8.5,4.7-9.7c5.2-1.3,6.4-4.5,6.3-9.5
		c-0.4-19.2,0.2-38.3-0.7-57.5c-0.7-16.7-13.5-24.3-29.2-18.3c-1.4,0.5-2.7,1.3-4.1,1.9c-6,2.6-8.4,6.6-8.2,13.6
		c0.5,20.7,0.3,41.3,0.1,62c0,3.6,0.9,5.5,4.6,6.3C1163.6,277.6,1167.1,279.2,1170.7,280.4z"/>
	<path class="st0" d="M1284.9,290.5c-1.5-16.2-2.9-31.8-4.2-47.3c-0.1-1.3,0.1-2.6,0.2-3.7c5.3-3,8.4-1.4,11.5,3.4
		c5.2,8.1,10.8,16.1,17,23.4c8.1,9.5,19,13.1,31.4,11.9c8.8-0.9,15.8-5,18.5-13.8c3-9.7,2.3-19.5-5.5-26.9
		c-4.1-3.9-9.4-6.8-14.6-9.3c-9.3-4.4-19-8.1-28.5-12.1c-36-15.2-33.7-63.3-13.8-79.5c12.1-9.9,26-13.5,41-12.6
		c9.7,0.6,19.3,3.3,28.9,4.9c2,0.3,4.2,0.1,6.2-0.6c3.1-1,6.1-2.5,9.9-4.2c0.8,15.3,1.7,29.8,2.5,44.4c-4.4,2.5-7.6,2.3-10.6-2.2
		c-3.9-6-8.5-11.5-13-17.1c-7.7-9.6-17.8-14.3-30.2-13.2c-8.9,0.7-15.7,4.8-18.5,13.6c-3,9.4-1.7,18.4,5.9,25.2
		c4.1,3.7,9.3,6.4,14.4,8.7c11.5,5.3,23.6,9.3,34.7,15.3c18.8,10.2,26.7,28.7,23.1,52.5c-3,19.7-15.1,31.9-34,36.9
		c-17,4.6-34.1,4-50.4-3c-5.6-2.4-9.9-2.5-14.5,1.2C1290.2,287.9,1287.8,288.9,1284.9,290.5z"/>
	<path class="st0" d="M1042.7,291.5c-7.2-1.2-14.6-1.7-21.5-3.7c-20.1-5.6-32.3-19.3-37.1-39.3c-3.3-13.7-3.3-27.7,0.4-41.5
		c6-22.8,22.3-37.1,45.6-40.4c11.2-1.6,22.3-1.4,33.2,1.5c21.3,5.5,34.4,19.2,39.3,40.7c3,13.2,3,26.4-0.1,39.6
		c-5.7,24.3-24.2,40-49.1,41.9c-3.5,0.3-7,0.4-10.5,0.6C1042.8,291.1,1042.7,291.3,1042.7,291.5z M1067.9,229.6
		c-1.5-12.2-2.4-23.1-4.4-33.8c-2.2-11.3-9.4-17.2-19.3-17.7c-10.3-0.4-17.4,4.5-20.6,15.9c-2.1,7.5-3.1,15.3-3.7,23.1
		c-1.1,15.1-0.9,30.3,3.4,45.1c2.1,7.2,5.7,13.1,13.4,15.6c11.7,3.8,22.6-1.5,25.9-14.3C1065.5,252.1,1066.3,240.2,1067.9,229.6z"/>
	<path class="st0" d="M1607.7,276.5c2.1,3.4,0.9,5.5-1.8,7.3c-11.5,7.6-23.9,8.9-36.8,5.1c-5.6-1.7-9.6-5.8-11.4-11.7
		c-0.4-1.2-1-2.3-1.8-4.3c-5.3,9.6-13,15.3-23,16.7c-6.3,0.9-13.1,1.3-19.3,0.2c-18.5-3.4-25.9-18-24.3-34.6
		c1.7-18.1,12.6-28.8,32-31.4c9.8-1.3,19.8-0.3,29.8-0.4c1.3,0,2.6,0,3.9,0c4.1-26.2-9.7-36.1-32.3-33.7c-8.8,1-17.3,4.1-26.5,6.3
		c-3.6-4.3-3.8-5.8,0.4-10.4c15.3-16.4,34.8-21.4,56.3-19.6c5.4,0.4,10.9,1.8,15.9,3.9c17.3,7.4,22.2,22.3,22.3,39.5
		c0.1,17,0,34,0,51c0,1.7,0.1,3.3,0.3,5c0.8,7.4,3.3,9.9,10.7,10.5C1603.9,276.4,1605.9,276.4,1607.7,276.5z M1555.6,250.2
		C1555.5,250.2,1555.5,250.2,1555.6,250.2c0-4,0.3-8-0.2-12c-0.1-1.4-2.1-3.7-3.1-3.7c-5.9,0.2-11.9,0.6-17.7,1.9
		c-5.1,1.1-8.9,4.5-10.3,9.8c-1.9,7.4-2,14.8,4.1,20.3c6.5,5.9,14.1,4.9,21.5,1.9c3.8-1.6,6.2-4.1,5.7-8.8
		C1555.3,256.6,1555.6,253.4,1555.6,250.2z"/>
	<path class="st0" d="M545.1,347.2c0.8,3,1.5,5.7,2.3,8.9c-5.7,1.8-11.1,3.7-16.7,5.1c-3.1,0.8-4.2,2.2-4.2,5.5
		c0.1,27.7,0,55.3,0.2,83c0,6,0.7,12,1.8,17.8c3.6,18,15.4,28,33.8,28.8c5.4,0.2,11.1-0.1,16.4-1.3c16.3-3.5,26.7-15.2,29.6-32.5
		c0.7-4.3,1.1-8.6,1.1-12.9c0.1-27.5,0-55,0.1-82.5c0-3.4-0.7-5.1-4.2-5.9c-5.3-1.3-10.5-3.2-15.6-4.8c-0.3-8.6,0.3-9.2,8.5-9.2
		c12.7,0,25.3,0,38,0c8.5,0,8.5-0.1,10,9.1c-5,1.5-10,3.3-15.1,4.5c-4.1,1-5.4,3-5.4,7.2c0.2,28,0.3,56,0.1,84
		c-0.1,18.4-5.4,34.8-20.2,47c-8.9,7.3-19.4,11.1-30.6,12.4c-13.3,1.5-26.7,0.9-39.6-3.2c-21.2-6.7-33.5-23.5-33.9-47.8
		c-0.5-30.7-0.3-61.3-0.1-92c0-4.8-1.4-6.8-5.9-7.8c-4.8-1.1-9.5-2.9-14.1-4.3c0.3-9.1,0.3-9.1,8.5-9.1c16.5,0,33,0,49.5,0
		C541.3,347.2,543.1,347.2,545.1,347.2z"/>
	<path class="st0" d="M769.6,501c-2,8.3-2,8.3-9.5,8.3c-15.3,0-30.6,0-45.8,0c-1.8-7.5-2-7.9,4.9-9.8c5.8-1.6,7.6-4.4,7.4-10.4
		c-0.4-19.8-0.1-39.6-0.2-59.5c0-16.7-9.7-24.6-26.3-21.4c-2.1,0.4-4.2,0.9-6.3,1.5c-13.7,4.5-15.7,7.2-15.7,21.4
		c0,20,0.1,40-0.1,60c0,3.6,1,5.4,4.7,6.1c4.7,0.9,9.3,2.4,13.9,3.7c-1.2,7.7-2,8.4-9.3,8.4c-15.3,0-30.6,0-45.8,0
		c-2.1-6.9-1.7-7.6,4.3-9.7c9.1-3.2,7.6-0.9,7.6-10.4c0.1-22.3,0-44.6,0.1-67c0-3.8-0.9-6.7-3.6-9.3c-3-2.9-5.6-6.2-8.3-9.3
		c-2.1-2.4-2.3-4.3,1.2-5.6c9.6-3.6,19.2-7.4,28.9-11c1.6-0.6,3.5-0.4,5.6-0.6c0,7.7,0,15,0,23.6c1.7-2.3,2.7-3.8,3.9-5.2
		c10.7-13.6,24.8-19.8,42-18.1c15.4,1.5,26.5,13.8,27,30.9c0.7,22.5,0.4,45,0.4,67.4c0,10.8,0,10.8,10.3,13.6
		C763.9,499.3,766.6,500.1,769.6,501z"/>
	<path class="st0" d="M1785.9,257.7c5.9,5.2,6,5.6,2.3,11.6c-5.5,8.8-13.1,15.1-23,18.2c-14,4.3-28.2,4.8-42.3,0.3
		c-13.8-4.3-24.2-13-29.8-26.3c-9.7-23-9.6-46.2,3-68.2c13.9-24.3,48.6-34.8,74-23.1c15.5,7.1,21.9,20.2,23,36.4
		c0.4,5.9,0.1,11.9,0.1,18.4c-3.2,0.2-5.1,0.4-7,0.4c-19.8,0-39.7,0.1-59.5-0.1c-4.5,0-6,1.3-5.3,5.7c1.4,8.8,3.1,17.4,8.5,24.7
		c5.3,7.2,12.5,10.8,21.1,11.9C1764.1,269.4,1775.9,266.3,1785.9,257.7z M1722.2,213.1c12.7,0,24.8,0.1,36.9-0.1
		c0.9,0,2.5-2.1,2.5-3.3c0.2-5,0.5-10-0.1-14.9c-0.9-6.8-3.1-13.1-10.4-15.7c-6-2.1-12-1.3-16.8,3
		C1725.1,190.1,1723.2,201.1,1722.2,213.1z"/>
	<path class="st0" d="M849.6,258c5.7,4.7,5.8,5.4,2.3,11.1c-6.8,11.2-16.9,17.7-29.6,20.2c-10.9,2.2-21.9,2.3-32.7-0.5
		c-16.6-4.3-28.6-14.4-34.4-30.6c-7.7-21.4-7.5-42.9,3.5-63.3c13.8-25.4,48.9-36.7,75.1-24.7c15.7,7.2,24.6,24,22.9,43.5
		c-1,11.7-1,11.7-12.7,11.7c-18,0-36,0.1-54-0.1c-4,0-5.8,1.4-4.8,5.2c1.9,7.5,3.3,15.4,6.6,22.2c4.4,9.3,12.9,14,23.3,15
		c11.7,1.2,22.5-1,32-8.4C847.9,258.9,848.8,258.4,849.6,258z M785.8,213.1c12.7,0,24.8,0.1,36.9-0.2c1,0,2.7-2.4,2.7-3.8
		c0.1-5.5,0-11-0.8-16.3c-1-7-4.3-12.7-11.8-14.4c-7.8-1.7-15.1,1.6-19.6,8.7C788.4,194.8,786.4,203.3,785.8,213.1z"/>
	<path class="st0" d="M1685.8,264.9c3.3,3.6,2.6,6.7-0.5,10.1c-13.8,15.2-31.1,18.7-50.1,13.9c-13.1-3.3-19.5-13.2-21.4-26.1
		c-0.7-4.9-0.9-10-0.9-14.9c-0.1-19.7,0-39.3,0-59c0-1.9,0-3.9,0-6.4c-5.5,0-10.5,0-15.5,0c-1.2-5.3-1-9.1,3.4-12.7
		c12.3-10,24.1-20.5,36.1-30.8c1.3-1.1,3-2.3,4.7-2.7c5.4-1.3,6.8,0,6.8,5.5c0,8.6,0,17.3,0,26.7c12.1,0,23.8,0,36,0
		c-0.5,4.3-0.6,8-1.5,11.5c-0.3,1.1-2.6,2.3-4.1,2.3c-8.7,0.2-17.3,0.2-26,0c-3.1-0.1-4.5,0.9-4.4,4.2c0.1,21.2,0,42.3,0.2,63.5
		c0,2.8,0.5,5.7,1.3,8.4c2.8,9.4,10.9,13.4,22.5,10.9C1676.8,268.3,1681.1,266.5,1685.8,264.9z"/>
	<path class="st0" d="M1395.3,182.4c-1.1-5.1-0.9-8.9,3.3-12.4c12.1-9.9,23.8-20.3,35.7-30.5c0.9-0.8,1.7-1.9,2.7-2.1
		c2.5-0.6,5.3-1.2,7.7-0.7c0.9,0.2,1.5,3.6,1.5,5.5c0.2,7.2,0.3,14.3,0,21.5c-0.2,4.1,1.4,5.2,5.2,5c8.3-0.2,16.7-0.1,25-0.1
		c1.8,0,3.6,0,6,0c-0.5,4.4-0.7,8.2-1.5,11.9c-0.2,0.9-2.6,1.7-4,1.7c-8.5,0.2-17,0.3-25.5,0c-4-0.1-5.1,1.2-5.1,5.2
		c0.2,20,0,40,0.1,60c0,3.3,0.4,6.7,1.1,9.9c2.3,10.2,10.9,14.7,23.2,11.9c4.5-1,8.8-2.8,13.2-4.3c3.2,3.5,2.6,6.5-0.5,10
		c-12.7,14.3-33.9,20-52,13.5c-12.9-4.6-19-14.6-19.7-27.4c-0.9-15.8-0.5-31.6-0.6-47.4c-0.1-8.2,0-16.3,0-24.5c0-6.7,0-6.7-6.5-6.7
		C1401.6,182.3,1398.5,182.4,1395.3,182.4z"/>
	<path class="st0" d="M694.9,193.3c1.3-2.4,2.5-4.8,3.9-7.2c7-12.5,16.9-20.6,31.9-20.3c14.9,0.3,24,11.4,21.6,26
		c-1.5,9.2-8.8,15.4-18,15.5c-10.4,0.1-16.7-4.9-18.7-14.9c-0.2-1.1-0.5-2.2-0.8-3.3c-10.2,2.6-20.1,14.9-20.1,24.9
		c0,18.3,0.1,36.7-0.1,55c0,4.1,0.8,6.3,5.4,7c5.9,0.8,11.6,2.6,17.4,4c-1.5,8.1-1.8,8.4-9.5,8.4c-18.2,0-36.3,0-54.5,0
		c-1.6,0-3.3,0-4.9,0c-1.5-4.9-1-8.3,4.2-9.5c5.4-1.3,6.9-4.7,6.8-10.2c-0.4-18.8-0.5-37.7,0-56.5c0.2-8-1.7-14.8-6.2-21.4
		c-9.1-13.1-6.8-10.4,5.2-14.8c8.7-3.2,17.6-6,26.5-8.8c2.8-0.9,5.7-1.2,9.1-1.8c0,9.8,0,18.7,0,27.7
		C694.3,193.1,694.6,193.2,694.9,193.3z"/>
	<path class="st0" d="M957.5,443.9c1.1,17.6,2.7,34.5,18.2,44.2c18.2,11.5,36.1,5.4,53-5c3.6,3.5,4.2,6.6,0.6,10.8
		c-6.9,7.9-14.9,13.8-25.2,16.1c-20.3,4.4-39.2,2.4-54.4-13.6c-9.6-10.1-13.5-22.8-14.8-36.3c-1.9-20.3,1.1-39.6,14.9-55.8
		c13.7-16,38.5-22.4,58.4-15.3c15.8,5.7,24.9,19,25.7,37.9c0.7,16.9,0.7,16.9-15.9,16.9c-18.2,0-36.3,0-54.5,0
		C961.8,443.9,960,443.9,957.5,443.9z M1008.6,431.7c0.9-7.7,0.7-15.4-2.5-22.7c-2.6-6-7.4-9.4-13.7-10.4
		c-8.8-1.4-16.5,1.1-22.6,7.7c-6.6,7-9.5,15.7-11.3,25.4C975.3,431.7,991.7,431.7,1008.6,431.7z"/>
	<path class="st0" d="M1133.8,512c-0.8-12.9-1.6-25-2.3-37.1c-0.3-5,4.2-2.9,5.4-4.3c5.5,7.6,10.1,15.4,16.1,21.9
		c8.6,9.4,20,10.5,31.9,7.4c5.6-1.5,9.3-5.3,10.3-11.1c1.2-6.9,0.7-13.6-5.3-18.2c-3.9-3-8.5-5.2-13.1-7.1c-7.4-3-15.2-5.1-22.4-8.4
		c-17.1-7.8-24.2-22.5-20.9-41.9c2.6-15,14.6-25.4,32.5-26.6c7.8-0.5,15.9,0.8,23.6,2.4c4.4,1,8.2,1.5,12.4-0.5c1.9-0.9,4-1.3,6.4-2
		c0.7,10.9,1.3,21.3,2.1,31.7c0.2,2.6-0.5,4.5-3.2,4.3c-1.5-0.1-3.4-1.1-4.4-2.3c-4.2-4.9-7.6-10.5-12.2-15.1
		c-6.5-6.5-14.6-9-23.8-7.3c-6.6,1.2-11.5,4.5-13.3,11.2c-1.9,7.1-0.7,13.9,5.2,18.6c3.9,3.1,8.8,5.3,13.5,7.2
		c6.8,2.8,13.9,4.6,20.7,7.4c19.2,8,27.4,24.3,22.3,44.6c-3.4,13.6-13.3,20.3-26.1,23.2c-12.6,2.8-25.2,2.5-37.3-2.5
		c-4.3-1.8-7.8-1.8-11.6,0.7C1138.5,509.8,1136.3,510.7,1133.8,512z"/>
	<path class="st0" d="M873.2,397.4c-3.1,0.8-5.8,1.5-8.5,2.2s-5.4,1.4-8.2,2.2c10,26.9,19.9,53.6,29.3,78.8
		c8.5-24.4,17.6-50.7,26.8-77.4c-6-2-11.7-4-17.4-6c0.6-8.1,0.6-8.1,7.9-8.1c12.5,0,25,0,37.3,0c3.3,7.6,3.4,8-3.8,10.5
		c-5.1,1.8-7.4,5-9.3,9.8c-12.2,31.8-24.8,63.5-37.1,95.3c-1.3,3.5-3,5.3-6.8,4.6c-0.8-0.2-1.7-0.2-2.5,0c-4.9,0.9-7.2-1.2-9.1-5.9
		c-12.2-30-24.9-59.9-37-89.9c-2.7-6.6-5.7-12.2-12.6-15c-2.7-1.1-3.4-2.9-2.6-5.9c0.8-3.2,2.7-3.5,5.5-3.5c13,0.1,26,0,39,0
		C871.8,389.1,871.8,389.1,873.2,397.4z"/>
	<path class="st0" d="M1097.9,404.6c-9.6,4.4-16.2,12.4-22,21.2c-0.6,0.9-0.4,2.3-0.4,3.4c0,20.8,0,41.6-0.1,62.4
		c0,3.3,0.8,4.6,4.3,5.1c6.7,1,13.4,2.6,20,4c-1.8,8.5-1.9,8.5-9.9,8.5c-15.3,0-30.6,0-46,0c-1.6,0-3.3,0-4.8,0
		c-1.6-7.6-1.7-8.1,5.2-9.8c5.5-1.4,7-4,6.9-9.7c-0.4-22.5-0.2-45-0.1-67.4c0-3.7-0.8-6.7-3.5-9.3c-3.1-3-5.9-6.4-8.7-9.7
		c-1.6-1.9-2.3-3.8,0.8-5c10.1-3.9,20.1-7.8,30.3-11.6c1.3-0.5,2.9-0.2,4.8-0.3c0,9.3,0,18.3,0,28.3c1.1-1.9,1.6-3.2,2.5-4.2
		c5.1-6.3,9.6-13.2,15.7-18.5c7.6-6.7,17.2-7.6,26.9-4.5c7,2.2,10.9,8.3,11,16.2c0.1,7.6-3.4,13.3-9.8,15.9
		c-6.3,2.5-13.9,1.3-17.8-3.8C1101,412.8,1099.9,408.9,1097.9,404.6z"/>
	<path class="st0" d="M829.2,501c-2.5,8.3-2.5,8.3-10.4,8.3c-15,0-29.9,0-44.8,0c-1.9-7.3-1.7-7.5,4.6-9.8c9.2-3.4,7.5-0.8,7.5-10.6
		c0.1-22.2,0-44.3,0.1-66.5c0-3.7-0.8-6.7-3.6-9.3c-3-2.8-5.6-6.1-8.4-9.3c-2.3-2.6-2.3-4.7,1.3-6c9.5-3.6,18.9-7.3,28.5-10.8
		c1.8-0.7,3.9-0.5,6.4-0.8c0,2.6,0,4.7,0,6.9c0,32.5,0.1,65-0.1,97.5c0,4.4,1.5,6.1,5.5,6.9C820.4,498.4,824.8,499.8,829.2,501z"/>
	<path class="st0" d="M1259.5,386.1c0,37,0,73.3,0,109.7c6.4,1.8,12.4,3.5,18.4,5.2c-1,7.4-2,8.4-8.7,8.3c-13.5,0-27,0-40.4,0
		c-2,0-3.9,0-5.8,0c-1.9-7.2-1.6-7.8,4.5-9.8c7.5-2.5,7.6-2.5,7.6-10.5c0-22.3-0.1-44.6,0.1-66.9c0-3.6-0.8-6.3-3.4-8.8
		c-3.1-3-5.8-6.4-8.7-9.7c-2.1-2.4-2.1-4.4,1.3-5.6c9.5-3.6,18.9-7.3,28.4-10.8C1254.7,386.5,1256.7,386.5,1259.5,386.1z"/>
	<path class="st0" d="M1264.3,350c0.1,9.7-7.6,17.5-17.3,17.5c-9.5,0-17.1-7.6-17.2-17.2c-0.1-9.5,7.4-17.1,17.1-17.2
		C1256.4,333,1264.2,340.5,1264.3,350z"/>
	<path class="st0" d="M814.9,350.5c-0.1,9.7-7.4,17-17.1,17c-9.5,0-17-7.6-17.1-17.2c-0.1-9.8,7.6-17.3,17.5-17.1
		C808,333.4,815,340.6,814.9,350.5z"/>
	<path class="st0" d="M399,320.2c-4,9.7-7.7,19.6-12.2,29.2c-21.3,45.9-53.2,83.5-91.2,116.2c-23.3,20-48.4,37.5-74.7,53.4
		c-3.1,1.9-5.3,2-8.5,0.1C164.1,489.9,120,455.5,84.6,411c-21-26.4-37.6-55.3-48.8-87.2c-0.4-1.2-0.7-2.5-1.5-5.1
		c4.9,1.7,9.3,2.6,13.1,4.6c15,7.8,29.7,7.7,44.9,0.2c15.1-7.4,30.8-7.2,45.8,0.3c16.1,8.1,31.4,6.6,46.7-1.8c0.9-0.5,2-1.5,2.2-2.4
		c1.3-5.6,2.5-11.3,3.8-17.8c-3.5,1.5-6.1,2.5-8.6,3.7c-15.3,7.1-30.6,7.2-45.8-0.2c-14.5-7.1-28.7-7.2-43.2-0.1
		c-15.3,7.5-30.7,7.4-46.2,0.3c-4.9-2.2-10.5-3.2-15.5-5.3c-2-0.9-3.3-3.4-4.5-5.8c7.9-1.5,14.6,0.7,20.9,4
		c10.7,5.6,21.9,6.8,33.4,4c3.8-0.9,7.5-2.8,11.1-4.4c14.8-6.7,29.7-6.8,44.4,0.1c8.3,3.9,17,7.2,26,5.3c9.8-2.1,19.4-5.6,28.7-9.4
		c1.8-0.7,2-5.2,3.3-8.8c-3.2,0.4-5.6,0.7-8.5,1.1c0.3-2.7,0.7-5.2,0.9-7.3c-7,1.9-13.7,4.4-20.6,5.7c-10.2,1.9-20.3,0.4-29.6-4.4
		c-14.7-7.5-29.1-7.7-44-0.3c-15,7.4-30.4,6.9-45.9,0.3c-7.1-3-14.6-4.9-23.3-7.8c-0.5-7.9-1.2-17.5-1.9-28.1
		c20,6.6,39.1,13,58.5,19.4c-0.4,3.5-0.7,6.7-1.1,11c12.1-3.9,22.6-10.2,35.1-10.2c12.6,0,23.3,5.7,35.5,10.4
		c-0.3-4.1-0.6-7.1-0.9-10.7c9.1-2.9,18.4-5.9,27.7-8.9c0.5-0.2,1-0.2,1.5-0.4c16.9-5.2,16.9-5.2,19.9-24.1
		c-17.9,8.1-35.4,15.9-53.1,23.9c-2.3-2.7-4.5-5.3-7-8.2c2.6-3.5,5.2-6.9,7.8-10.3c21.5-28,43-56,64.4-84.1c2.2-2.8,4.4-3.8,7.9-3.8
		c33.5,0.1,67,0,100.5,0.1c3.1,0,5.1-0.8,7-3.4c12.4-17.5,44.5-23,61.1-0.2c9.9,13.5,14.7,29,18,45c5.8,28.3,7.3,56.8,3.6,85.5
		c-0.1,0.5-0.2,0.9-0.3,1.2c-13.9-13.7-27.8-27.5-41.9-41.3c-6.4,4.6-12.4,9-18.4,13.4c-9.7-9.8-19.3-19.4-28.7-28.9
		c-10.3,10.2-19.9,19.7-29.9,29.5c-6.6-4.8-12.7-9.2-20-14.5c-8.8,9.2-17.6,18.2-26.1,27.5c-0.9,1-0.8,3.4-0.5,5
		c1.2,6.1,2.7,12.2,4.2,18.9c-3.1-0.4-5.4-0.7-8.4-1c2.5,11.7,4.9,22.9,7.4,34c0.2,1,1.2,2,2.1,2.5c15,8.3,30.3,10.3,46.2,2.2
		c15.9-8,32-7.6,48.1-0.1c4.3,2,9,3.6,13.6,4.5c9.3,1.9,18.1,0.1,26.7-3.9c4.9-2.3,10-3.9,15-5.9C398.2,319.3,398.6,319.7,399,320.2
		z M240.3,338.8c-4.6-22.3-9.1-43.8-13.7-65.7c3,0.4,5.2,0.7,7.9,1.1c-5.8-30.9-11.5-61.2-17.2-91.5c-0.5,0-1.1,0.1-1.6,0.1
		c-5.7,30.4-11.3,60.7-17.1,91.4c3.1-0.3,5.3-0.6,7.8-0.8c-4.6,22.1-9.1,43.5-13.6,65.4c3.8-0.5,6.8-0.9,10.3-1.3
		c-4.8,23.1-9.5,45.6-14.3,69.1c8.5-3.4,15.9-6.1,23-9.3c3.4-1.5,6.1-1.4,9.4,0c7.3,3.1,14.7,5.9,23,9.3
		c-4.9-23.6-9.6-46.1-14.4-69.2C233.6,337.7,236.5,338.2,240.3,338.8z M313.5,435.1c0-2.3,0-4.1,0-5.8c0-26.5-0.3-53,0.2-79.4
		c0.2-7.6-1.9-12.4-8.3-16.2c-2.8-1.6-4.6-2.3-7.6-0.7c-7.9,4.3-16.5,6.5-25.5,5.6c-7.6-0.8-15.2-2.5-22.9-3.8
		c0.9,4.9,2,10.5,3.1,16.3c-3.8-0.6-6.9-1.1-10.6-1.7c5.3,24.7,10.4,48.8,15.7,73.6c-10.1-5-19.4-9.5-29.5-14.5
		c0.5,6.8,1,12.3,1.3,16.8c7.7,2.3,15,3.3,21.2,6.4c15.7,7.7,30.9,7.6,46.4-0.4c3.2-1.7,4.2-3.3,4.2-6.7
		c-0.1-26.1-0.1-52.3-0.1-78.4c0-2.3,0-4.5,0-7.2c4.9,1.8,6.7,4.3,6.6,9.1c-0.2,25.8,0,51.6-0.2,77.4
		C307.5,429.9,308.7,432.8,313.5,435.1z M175.5,422.9c5.3-24.8,10.4-48.9,15.6-73.5c-4,0.6-7.2,1.1-10.7,1.6
		c1.2-6.2,2.4-11.6,3.5-17.1c-0.6-0.1-0.8-0.2-0.9-0.2c-0.6,0.2-1.2,0.4-1.8,0.7c-15.1,6.3-30.1,6-45-1c-6.3-3-16.5,3.5-16.5,10.5
		c0,28.8,0,57.7,0,86.5c0,1.4,0.1,2.8,0.2,4.5c4.3-1.9,5.6-4.5,5.6-8.8c-0.2-26.2,0-52.3-0.2-78.5c0-5.2,2.6-7.2,7-8.9
		c0,2.5,0,4.5,0,6.5c0,26.5,0,53,0.1,79.5c0,1.8,0.4,4.6,1.5,5.2c12.5,7.1,25.7,10.1,39.8,5.4c9.8-3.3,19.5-7,30.1-10.8
		c0.3-4.1,0.6-9.6,1.1-15.9C194.6,413.5,185.4,418,175.5,422.9z M210.3,481.1c4,0,8.9,0,13.4,0c0-5.2,0.1-10,0-14.8
		c-0.6-19.3-1.4-38.5-1.9-57.8c-0.1-4.1-2.6-5.4-5.6-5.4c-2.8,0.1-4.9,1.6-5,5.4c-0.1,10-0.8,19.9-1,29.9
		C210.2,452.6,210.3,466.6,210.3,481.1z M230.5,438.7c13.2,3.7,25.8,8.3,38.7,10.5c13.5,2.3,26.1-2.4,37.8-9.2
		c-2.1-3.6-4.7-4.2-8.4-2.3c-17,9-34,8.4-51.2,0c-5.2-2.5-11.2-3.4-17.5-5.3C230.3,435.5,230.4,436.9,230.5,438.7z M203,432.2
		c-6.8,2.1-12.8,3-18,5.6c-17.1,8.5-33.8,8.5-50.8-0.1c-4.5-2.3-5-2-8,2.3c14.4,8.8,30.1,12,46.5,8.1c10.1-2.4,19.6-6.8,29.9-10.5
		C202.6,436.9,202.7,435.4,203,432.2z M308.4,201c0.4,0.2,0.8,0.5,1.2,0.7c2.8-2,5.6-3.9,8.6-5.9c3.1,2,6,4,8.9,5.9
		c0.6,0,1.1-0.1,1.7-0.1c-5.2-8.1-3.1-13.8,5.2-17.7c-4.3-0.9-8.6-0.1-11.1-1.9c-2.4-1.7-2.9-6.1-4.7-10.4
		c-1.7,4.4-2.1,8.7-4.5,10.4c-2.4,1.8-6.8,1-11.6,1.4c3.9,3.1,6.6,5.3,9.3,7.5C310.4,194.5,309.4,197.8,308.4,201z M375.5,219.6
		c0.4-0.2,0.7-0.5,1.1-0.7c-1-3.4-1.9-6.9-2.9-10.2c2.9-2.3,5.5-4.5,8.2-6.7c0.1-0.6,0.2-1.2,0.2-1.8c-9.6,3.1-13.5-1.8-15.1-10.1
		c-2.1,3.8-2.6,8.2-5,10c-2.3,1.7-6.7,0.8-10.1,1c-0.4,0.4-0.8,0.8-1.2,1.2c9.7,3.1,9.8,9.5,5.9,17.2c0.5,0,1,0,1.5,0
		c3-2,5.9-4,8.9-6C369.8,215.6,372.6,217.6,375.5,219.6z M253.8,201.3c9.6,4,9.5,10.5,5.7,18.2c0.5,0,1,0,1.5-0.1c3-2,5.9-4,8.8-5.9
		c3.2,2.1,6,4.1,8.9,6c0.4-2.7,0-4.6-0.8-6.4c-1.7-3.5-0.9-5.8,2.5-7.7c1.7-0.9,3-2.5,5.3-4.5c-4.8-0.3-9.1,0.6-11.4-1.1
		c-2.4-1.8-2.8-6.2-4-9.4c-0.5-0.3-1-0.6-1.5-0.8C268.3,199.3,263.3,202.6,253.8,201.3z"/>
	<path class="st0" d="M185.1,149.1c-18.6,31.1-36.9,61.5-55.3,92.2c-2.2-0.6-4.2-1.4-6.3-1.8c-2.7-0.5-3.4-1.8-3.2-4.5
		c1.3-20.9,2.5-41.8,3.7-62.8c0.4-7.6,0.9-15.2,1.4-23.2C145.1,149.1,164.5,149.1,185.1,149.1z"/>
	<path class="st0" d="M376.5,285.2c0.2,2.9,1.6,6.5,0.4,8.5c-1.3,2.2-5,3.9-7.7,3.9s-5.5-2.2-8-3.8c-0.7-0.4-1.1-2.7-0.7-3.2
		c4.2-4.4-1.1-10,2.1-14.4c2.2-3,8-3.6,11.4-1.4c3.3,2.2,3.6,5.4,0.9,10C375.5,285,376,285.1,376.5,285.2z M372.1,290
		c-1.5-0.8-2.5-1.9-3.2-1.7c-0.7,0.2-1.5,1.5-1.6,2.4c-0.1,0.5,1.3,1.6,1.9,1.5C370.1,292.1,370.8,291.1,372.1,290z M369,282.9
		c0.9-1.2,1.7-1.8,1.8-2.6c0.1-0.5-1-1.8-1.2-1.7c-0.8,0.2-1.9,0.8-2.1,1.5C367.4,280.8,368.3,281.6,369,282.9z"/>
	<path class="st0" d="M296,284.9c-2.3-3.2-3-6.6,0.2-9.4s7.1-2.9,10.7-0.6c3.3,2.1,3.6,5.2,1.9,8.7c-0.4,0.7-0.3,2.1,0.2,2.8
		c2.6,3.5,2.6,6.8-0.9,9.6c-3.3,2.7-10.3,2.5-13-0.6c-2.9-3.3-2.5-6.6,0.5-9.7C295.8,285.5,295.9,285.2,296,284.9z M301.7,287.2
		c-0.9,1.6-1.9,2.6-1.8,3.3c0.2,0.8,1.4,1.6,2.3,1.8c0.4,0.1,1.7-1.3,1.6-2C303.7,289.4,302.8,288.6,301.7,287.2z M301.7,277.9
		c-0.8,1.1-1.7,1.9-1.6,2.6s1.2,1.2,1.8,1.8c0.6-0.7,1.5-1.3,1.6-2C303.5,279.6,302.5,278.9,301.7,277.9z"/>
	<path class="st0" d="M337.4,280.7c6.8,1.8,9.7,6,8,11.4c-1.5,4.7-7.8,7.1-13.5,5.2c-4.9-1.6-6.7-6.9-4.4-12.4
		c3.2-7.8,7.1-10.8,14.3-10.2C340.2,276.9,338.8,278.7,337.4,280.7z M340.2,289.7c-2-1.5-3.2-3-4.3-3c-1,0-3,1.8-2.9,2.5
		c0.3,1.3,1.6,3,2.8,3.3C336.7,292.6,338.1,291,340.2,289.7z"/>
	<path class="st0" d="M274.6,274.7c0,7.5,0,14.8,0,22.3c-2,0-3.7,0-6.1,0c0-2.8,0.2-5.6-0.1-8.3c-0.3-3.4,1.8-7.6-2.8-10
		c-0.5-0.3-0.1-2.4-0.1-4C268.5,274.7,271.3,274.7,274.6,274.7z"/>
	<path class="st0" d="M254.2,51.9c-3.4-2.3-6.8-4.4-10.1-6.8c-10.6-7.7-20.8-16.2-34.1-19c-4.9-1-9.9-1.2-14.7-2.1
		c-1.4-0.3-2.7-1.8-3.6-3.3c14.5-2.5,27.8-0.2,40.3,6.5c7.2,3.8,14.4,7.8,20.7,12.8c2.5,2,2.4,7.1,3.6,10.8
		C255.6,51.1,254.9,51.5,254.2,51.9z"/>
	<path class="st0" d="M278.6,62.2c0-3.7,0-7.5,0-11.7c3.9,0,7.8,0,11.6,0C290.9,54.7,283.1,62.6,278.6,62.2z"/>
	<path class="st0" d="M319.4,59.7c-3.3,2.6-5,4.9-7.1,5.3c-3.2,0.7-5.7-2-5.2-5c0.3-1.9,3-4.6,4.9-4.9
		C313.8,55,315.9,57.4,319.4,59.7z"/>
	<path class="st0" d="M100.3,108.4c-1.3,3.4-2,7.1-3.9,9.8c-11.6,16.2-23.5,32.2-35.5,48.6c-1.3-0.9-2.5-1.7-3.9-2.7
		c8.5-13.5,16.9-26.7,25.2-39.9c2.6-4.1,5.3-8.1,7.6-12.3C91.8,108.4,94.3,106.4,100.3,108.4z"/>
	<path class="st0" d="M253.9,353.1c13.5,5.9,27,5.9,40.3-0.7c1.9,5.5,0.1,8-5,9.4c-9.9,2.7-19.7,2.8-29.6,0.5
		C253.1,360.8,253.1,360.7,253.9,353.1z"/>
	<path class="st0" d="M258.9,381.9c12,3.4,23.8,2.8,35.3-2.8c1.7,5,0.7,8.5-4.4,9.1c-8.5,0.9-17.1,1.4-25.6,1.7
		C258.9,390.1,257.1,387.2,258.9,381.9z"/>
	<path class="st0" d="M294.7,407.3c1.3,3.7-0.2,6.5-5.4,7.9c-8.1,2.1-16.2,3.1-24.7,1.5c0-2.1,0-3.9,0-5
		C274.7,410.2,284.6,408.7,294.7,407.3z"/>
	<path class="st0" d="M179,353.2c2.1,6.2-0.8,8.3-5.8,9.3c-9.9,2-19.7,2-29.6-0.8c-4.8-1.4-6.6-3.9-4.8-9.3
		C152,358.7,165.4,359.2,179,353.2z"/>
	<path class="st0" d="M174.3,381.8c1.6,5.3,0.2,8.3-5,8.1c-8.5-0.3-17.1-0.8-25.6-1.6c-4.8-0.5-6.8-3.5-4.9-9.1
		C150.2,384.6,162.1,385.5,174.3,381.8z"/>
	<path class="st0" d="M168.3,411.7c0,0.9,0,2.7,0,4.9c-9.8,2-19.4,1.1-28.3-3.2c-1.5-0.7-1.6-4.6-2.1-6.2
		C148.2,408.7,157.9,410.1,168.3,411.7z"/>
</g>
</svg>
