<svg id="Layer_1" data-name="Layer 1" xmlns="http://www.w3.org/2000/svg" viewBox="0 0 1793.31 568.69"><defs><style>.cls-1{fill:#303030;}</style></defs><title>logo-light</title><path class="cls-1" d="M351.5,59.1c-6.9,14.8-13.3,29.4-20.6,43.5-1.1,2.2-6.5,2.1-11.1,3.5,1.1-3.5,1.7-5.3,2.5-7.8-8.4,0-16.5-.2-24.5.1-3.4.1-5.4,5.8-3.1,8.4,5.8,6.4,11.7,12.7,17.9,19.3a63.76,63.76,0,0,1,28.9-16.5c26.8-6.7,50.6,2.7,66.4,25.9,11.3,16.6,16.7,35.4,20.3,54.8,8.7,48.1,6.7,95.4-9.7,141.8-15.8,44.7-41.3,83.3-73.6,117.7-36.5,38.8-79.3,69.5-125.2,96a7.08,7.08,0,0,1-5.7.2c-42.4-24.4-82.3-52.4-116.9-87.3-42-42.2-73.7-90.6-89-148.7-9.3-35.3-10-71-5.1-107,2.5-18,6.4-35.7,13.9-52.4a92.06,92.06,0,0,1,20.2-28.8c33.1-32.1,66.4-64.1,99.1-96.7C153.3,8.1,173.7.7,197.3,0c22.4-.6,42.2,6.3,60.1,19.3,1.9,1.4,3.8,2.7,5.7,4,7.9,5.8,16.5,9.5,26.5,8.1,16.2-2.4,29.8,2.3,41.9,13.2C337.6,50.1,344.7,54.3,351.5,59.1ZM85,254.6c-.7-.2-1.3-.4-1.9-.6-19-8.9-38-17.8-57-26.5-2.9-1.3-3-3.2-2.6-5.6,1.8-12,3.7-24,5.5-36,.2-1.6.9-3.5.3-4.9-2.3-5.5-5-10.9-7.6-16.4-.5,1.5-1.2,3-1.6,4.6C7.6,213.3,5.6,257.8,16.2,302.5c14.4,60.3,47.4,109.8,91,152.8,30.2,29.7,64.4,54.2,100.5,76.2,6.5,4,10.9,4.1,17.5.1,49.6-30.2,95.1-65.1,131.7-110.6,28.4-35.2,49.3-74.2,59.9-118.4,8.1-33.8,8.4-68,3.1-102.2-2.8-18-7.1-35.5-15.6-51.8-18.5-35.5-57-42.1-86.1-14.7-1.4,1.3-4.1,1.9-6.2,1.9-37.8.1-75.7.1-113.5.1H123c-2.5,0-4.7-.3-5.7,3.2-3.4,11.8-7.3,23.5-11,35.2a9.76,9.76,0,0,0-.2,3.4c1,17,1.9,33.9,3,50.9.6,9.6.7,9.6-8.2,12.5-.3.1-.6-.1-1.2-.2q-11.4-19.05-23.1-38.3c-.9-1.4-2.8-2.9-4.4-3-5.4-.4-10.9-.1-16.9-.1q18.15,23.85,36.2,47.3C89.2,249.7,87.2,252.1,85,254.6Zm171.8-148c.3-.5.7-1,1-1.5,2.3,1.1,5,1.7,7,3.2a199.38,199.38,0,0,1,17.1,14.6c5.1,5,10.7,3,17.5,3.3-3.9-4.2-6.8-7.4-9.8-10.6-8.2-8.7-8.3-8.8-3.3-19.4,1.3-2.7,1.1-4.3-1.1-6.5a22,22,0,0,1-6.6-18.5c4.1-.5,4.1-.5,5.1,2.6,2.9,10,9,14.5,19.4,14.6,6.7,0,13.3-.2,20,.1,3.1.1,4.8-.8,6-3.7,2.6-6.1,5.4-12.2,8.5-18.1,1.7-3.3,1.5-5.2-1.8-7.3-6.4-4.2-12.7-8.5-18.7-13.3-4.7-3.7-9.5-5.7-15.6-5-19.5,2.4-36.5-3-52-15.4A72.72,72.72,0,0,0,209.6,9.9c-25.7-2.1-48.7,3.2-67.5,22.7C127,48.5,110.9,63.3,95.3,78.5c-2.8,2.7-5.5,5.5-9.2,9.2h33.8V126H223.5l1.3-1.6c-1.8-1.2-4-2-5.3-3.6-3.5-4.6-7.9-5.9-13.5-5.5s-11.4.1-18.5.1c12.8-13.8,17.8-28.6,11.5-45.5S179.2,44.8,161.8,43c-1.1-4.1.8-4.6,3.9-4.4a46.65,46.65,0,0,1,43.8,44.5c.3,7.3-1.3,14.7-2.1,22.6,9.1-3.1,14.9,3,19.9,9.5,6.9,8.9,15.3,12.8,26.7,11.1,6.1-.9,12.4-.2,19.6-.2C267.4,119.1,262.1,112.9,256.8,106.6ZM110.3,97.3c-11.4,0-21.9-.1-32.3.1a6.58,6.58,0,0,0-3.8,1.9c-10.9,10.5-21.9,21-32.6,31.7a34.28,34.28,0,0,0-7,39.2,34.68,34.68,0,0,0,64.9-4.9c2.4-7.9,4.3-16.1,7.3-23.8C112.3,127.2,109.2,112.5,110.3,97.3Z" transform="translate(0 0.04)"/><path class="cls-1" d="M891.2,294.2c-15.4-2.9-24.7-10.1-24.5-25.5s10.9-21.7,24.5-25.5a20.63,20.63,0,0,0-2.5-1.9c-14.2-6.4-21.8-17.2-21.7-32.8.1-16,7-28.3,21.3-35.8,15.4-8.1,32-8.3,48.7-5.5,8.5,1.4,16.7,3.9,25.5,6,0-1.4.1-2.8,0-4.3-.4-5.9,1.5-10.5,7-13.2,5.8-2.9,11.7-2.7,17,1.2,4.9,3.6,6.3,9,5.4,14.7-1.6,10.6-10,15.7-21.6,13.3-4.1-.8-8-2.4-11.9-3.6-1.4-.4-2.9-.7-4.3-1-.2.4-.3.8-.5,1.2.7.8,1.3,1.8,2.2,2.2,18.3,9.2,18.9,39.3.1,52.3a53.35,53.35,0,0,1-27.8,10c-7.6.5-15.2-.3-22.8-.8-5-.3-8.9,1.5-11.5,5.5-4.4,6.8-.2,13.7,8.5,13.8,15,.1,30-.1,45,.1,9.8.1,19.5,1.7,27.2,8.2,3.9,3.3,7.8,7.6,9.7,12.3,7.8,19.2,4.1,42.7-19,54.5-11.8,6-24.5,8.4-37.5,9.2-14.7,1-29.3.3-43.6-3.7a52,52,0,0,1-13.6-6.1c-15-9.8-13.7-30.8,2.4-38.7C878.1,298,884,296.6,891.2,294.2Zm31.8,3.1v-.4c-4.8,0-9.6-.1-14.5.1-2.9.1-6.3,0-8.6,1.3-6.9,3.9-10.1,10.3-9.9,18.3.2,8.2,3.7,14.9,11.5,17.7,16,5.7,32.1,5,47.3-2.8,7.9-4,11.2-13.4,9.1-22.3-1.8-7.4-7.1-11.2-16.9-11.8C935,297,929,297.3,923,297.3Zm-21.8-92.9c.7,6,1,12.5,2.3,18.8,1.7,8.4,6.6,11.8,15.4,11.9,8.1.1,13.2-3.7,15.1-11.8a73.59,73.59,0,0,0-.2-34.6c-1.8-7.2-7.5-11.2-15.2-11.2-7.5,0-12.6,3.4-14.5,10.6C902.6,193.2,902.1,198.6,901.2,204.4Z" transform="translate(0 0.04)"/><path class="cls-1" d="M564.7,290.9c-21.6-.1-40.1-4.8-55.2-18.9-13.8-12.9-20-29.6-22.5-47.9-2.4-17.9-1.2-35.5,4.6-52.8,8.9-26.6,32.3-44.5,60.3-46.8,12.4-1,24.7-.7,36.6,2.7,20.7,5.7,36,18.2,44,38.2,11.5,28.8,11.7,58-1.1,86.4-10.9,24.3-31.3,35.7-57.2,38.6C570.5,290.7,566.9,290.7,564.7,290.9Zm-38.2-78.8c.7,7,1,18.5,3.1,29.7a70.41,70.41,0,0,0,8,22.8c10.8,18.6,40.7,18.2,51.6-.3a58.7,58.7,0,0,0,6.3-15.6c4.7-19.3,4.8-38.9,3.6-58.5-.7-12-2.2-23.9-7.2-35-3.1-6.9-7.5-12.7-14.6-15.7-15.4-6.4-36.9-3.7-44.9,20.8C527.4,175.7,527.2,191.7,526.5,212.1Z" transform="translate(0 0.04)"/><path class="cls-1" d="M1350.7,490.3c3.6,6.3,3.6,6.3-2.1,11-13.3,11-28.7,13-44.7,8.7-12.1-3.2-16.4-13.4-17.4-24.9-.6-7.6-.4-15.3-.4-23V402.3H1271c-1-4.6-1-8.1,2.4-11.7,9.6-10.2,18.8-20.8,28.3-30.9,1.9-2,4.8-3,8.6-5.1V389H1340c16.3,0,32.6,0,49,.2,5.6.1,3.1,5.1,4.9,8.1-6.1,1.6-11.6,3.1-17.4,4.6,9.4,28.7,23.4,55.7,28.6,86.9,9.2-29.1,18.1-57,27.1-85.5-5.8-2-11.6-4-17.8-6.2.4-2.4.9-4.8,1.4-7.6h44.4c.5,2.3,1,4.9,1.5,7.5a7.33,7.33,0,0,1-2,1c-9.1,1.7-12.2,8.3-15.1,16.2-12.7,35.4-25.5,70.7-39.2,105.7a158,158,0,0,1-18.9,33.8c-9.2,12.9-22.8,17.4-38.5,13.7-10.7-2.5-16.2-12.6-13.1-23.2,2-7.1,9-11.4,16.7-10.4s12.4,6.2,12.2,14.3c-.1,2.8-.8,5.5-1.4,9.9,3.9-2.6,7.5-4.3,10.2-6.8,10.4-9.9,16.2-22.6,20.8-35.9a8,8,0,0,0-.6-5.2c-13.5-34.3-27.1-68.7-40.9-102.9-.8-1.9-3.2-4.6-4.9-4.6-12-.4-23.9-.2-36.3-.2-.1,1.9-.2,3.5-.2,5.2v67c0,15.9,8.2,23,23.9,20.3C1339.8,493.9,1345,491.9,1350.7,490.3Z" transform="translate(0 0.04)"/><path class="cls-1" d="M1170.7,280.4c-.5,6.6-3.8,8.1-9.4,8-17.3-.4-34.6-.1-52-.1-1.6-4.9-1.1-8.5,4.3-9.7s6.2-4.4,6.2-9.4q-.45-30.75,0-61.5a21.51,21.51,0,0,0-4.1-13.9c-2.4-3.2-4.4-6.7-6.5-10.1-1.4-2.4-1.4-4.3,1.8-5.3,12.7-4,25.3-8.2,38-12.2,1.6-.5,3.6-.1,5.7-.1v24.2c1.7-2.1,2.8-3.3,3.8-4.6,8.1-10.7,18.5-17.3,32-19.3,22.2-3.4,39.7,9.7,41.7,32.3.9,10.4.6,21,.6,31.5.1,13.7.1,27.3,0,41,0,3.2,1,4.8,4.1,5.7,3.8,1,7.6,2.4,11.3,3.6-1.1,7.5-1.7,8-8.6,8h-48.5c-1.6,0-3.3-.1-4.8-.2-1.8-5.1-.4-8.5,4.7-9.7s6.4-4.5,6.3-9.5c-.4-19.2.2-38.3-.7-57.5-.7-16.7-13.5-24.3-29.2-18.3-1.4.5-2.7,1.3-4.1,1.9-6,2.6-8.4,6.6-8.2,13.6.5,20.7.3,41.3.1,62,0,3.6.9,5.5,4.6,6.3C1163.6,277.6,1167.1,279.2,1170.7,280.4Z" transform="translate(0 0.04)"/><path class="cls-1" d="M1284.9,290.5c-1.5-16.2-2.9-31.8-4.2-47.3a21.75,21.75,0,0,1,.2-3.7c5.3-3,8.4-1.4,11.5,3.4a218.22,218.22,0,0,0,17,23.4c8.1,9.5,19,13.1,31.4,11.9,8.8-.9,15.8-5,18.5-13.8,3-9.7,2.3-19.5-5.5-26.9-4.1-3.9-9.4-6.8-14.6-9.3-9.3-4.4-19-8.1-28.5-12.1-36-15.2-33.7-63.3-13.8-79.5,12.1-9.9,26-13.5,41-12.6,9.7.6,19.3,3.3,28.9,4.9a13.18,13.18,0,0,0,6.2-.6,103.55,103.55,0,0,0,9.9-4.2c.8,15.3,1.7,29.8,2.5,44.4-4.4,2.5-7.6,2.3-10.6-2.2a213.83,213.83,0,0,0-13-17.1c-7.7-9.6-17.8-14.3-30.2-13.2-8.9.7-15.7,4.8-18.5,13.6-3,9.4-1.7,18.4,5.9,25.2,4.1,3.7,9.3,6.4,14.4,8.7,11.5,5.3,23.6,9.3,34.7,15.3,18.8,10.2,26.7,28.7,23.1,52.5-3,19.7-15.1,31.9-34,36.9-17,4.6-34.1,4-50.4-3-5.6-2.4-9.9-2.5-14.5,1.2A79.17,79.17,0,0,1,1284.9,290.5Z" transform="translate(0 0.04)"/><path class="cls-1" d="M1042.7,291.5c-7.2-1.2-14.6-1.7-21.5-3.7-20.1-5.6-32.3-19.3-37.1-39.3a83.35,83.35,0,0,1,.4-41.5c6-22.8,22.3-37.1,45.6-40.4a82.5,82.5,0,0,1,33.2,1.5c21.3,5.5,34.4,19.2,39.3,40.7a86.84,86.84,0,0,1-.1,39.6c-5.7,24.3-24.2,40-49.1,41.9-3.5.3-7,.4-10.5.6A1.42,1.42,0,0,0,1042.7,291.5Zm25.2-61.9c-1.5-12.2-2.4-23.1-4.4-33.8-2.2-11.3-9.4-17.2-19.3-17.7-10.3-.4-17.4,4.5-20.6,15.9a119.64,119.64,0,0,0-3.7,23.1c-1.1,15.1-.9,30.3,3.4,45.1,2.1,7.2,5.7,13.1,13.4,15.6,11.7,3.8,22.6-1.5,25.9-14.3C1065.5,252.1,1066.3,240.2,1067.9,229.6Z" transform="translate(0 0.04)"/><path class="cls-1" d="M1607.7,276.5c2.1,3.4.9,5.5-1.8,7.3-11.5,7.6-23.9,8.9-36.8,5.1a16.79,16.79,0,0,1-11.4-11.7c-.4-1.2-1-2.3-1.8-4.3-5.3,9.6-13,15.3-23,16.7-6.3.9-13.1,1.3-19.3.2-18.5-3.4-25.9-18-24.3-34.6,1.7-18.1,12.6-28.8,32-31.4,9.8-1.3,19.8-.3,29.8-.4h3.9c4.1-26.2-9.7-36.1-32.3-33.7-8.8,1-17.3,4.1-26.5,6.3-3.6-4.3-3.8-5.8.4-10.4,15.3-16.4,34.8-21.4,56.3-19.6a51.49,51.49,0,0,1,15.9,3.9c17.3,7.4,22.2,22.3,22.3,39.5.1,17,0,34,0,51a41.93,41.93,0,0,0,.3,5c.8,7.4,3.3,9.9,10.7,10.5A26.66,26.66,0,0,0,1607.7,276.5Zm-52.1-26.3h0c0-4,.3-8-.2-12-.1-1.4-2.1-3.7-3.1-3.7a95.86,95.86,0,0,0-17.7,1.9,13.09,13.09,0,0,0-10.3,9.8c-1.9,7.4-2,14.8,4.1,20.3,6.5,5.9,14.1,4.9,21.5,1.9,3.8-1.6,6.2-4.1,5.7-8.8C1555.3,256.6,1555.6,253.4,1555.6,250.2Z" transform="translate(0 0.04)"/><path class="cls-1" d="M545.1,347.2c.8,3,1.5,5.7,2.3,8.9-5.7,1.8-11.1,3.7-16.7,5.1-3.1.8-4.2,2.2-4.2,5.5.1,27.7,0,55.3.2,83a95.94,95.94,0,0,0,1.8,17.8c3.6,18,15.4,28,33.8,28.8a64.54,64.54,0,0,0,16.4-1.3c16.3-3.5,26.7-15.2,29.6-32.5a80.24,80.24,0,0,0,1.1-12.9c.1-27.5,0-55,.1-82.5,0-3.4-.7-5.1-4.2-5.9-5.3-1.3-10.5-3.2-15.6-4.8-.3-8.6.3-9.2,8.5-9.2h38c8.5,0,8.5-.1,10,9.1-5,1.5-10,3.3-15.1,4.5-4.1,1-5.4,3-5.4,7.2.2,28,.3,56,.1,84-.1,18.4-5.4,34.8-20.2,47-8.9,7.3-19.4,11.1-30.6,12.4-13.3,1.5-26.7.9-39.6-3.2-21.2-6.7-33.5-23.5-33.9-47.8-.5-30.7-.3-61.3-.1-92,0-4.8-1.4-6.8-5.9-7.8-4.8-1.1-9.5-2.9-14.1-4.3.3-9.1.3-9.1,8.5-9.1h55.2Z" transform="translate(0 0.04)"/><path class="cls-1" d="M769.6,501c-2,8.3-2,8.3-9.5,8.3H714.3c-1.8-7.5-2-7.9,4.9-9.8,5.8-1.6,7.6-4.4,7.4-10.4-.4-19.8-.1-39.6-.2-59.5,0-16.7-9.7-24.6-26.3-21.4q-3.15.6-6.3,1.5c-13.7,4.5-15.7,7.2-15.7,21.4,0,20,.1,40-.1,60,0,3.6,1,5.4,4.7,6.1,4.7.9,9.3,2.4,13.9,3.7-1.2,7.7-2,8.4-9.3,8.4H641.5c-2.1-6.9-1.7-7.6,4.3-9.7,9.1-3.2,7.6-.9,7.6-10.4.1-22.3,0-44.6.1-67,0-3.8-.9-6.7-3.6-9.3-3-2.9-5.6-6.2-8.3-9.3-2.1-2.4-2.3-4.3,1.2-5.6,9.6-3.6,19.2-7.4,28.9-11,1.6-.6,3.5-.4,5.6-.6V410c1.7-2.3,2.7-3.8,3.9-5.2,10.7-13.6,24.8-19.8,42-18.1,15.4,1.5,26.5,13.8,27,30.9.7,22.5.4,45,.4,67.4,0,10.8,0,10.8,10.3,13.6C763.9,499.3,766.6,500.1,769.6,501Z" transform="translate(0 0.04)"/><path class="cls-1" d="M1785.9,257.7c5.9,5.2,6,5.6,2.3,11.6-5.5,8.8-13.1,15.1-23,18.2-14,4.3-28.2,4.8-42.3.3-13.8-4.3-24.2-13-29.8-26.3-9.7-23-9.6-46.2,3-68.2,13.9-24.3,48.6-34.8,74-23.1,15.5,7.1,21.9,20.2,23,36.4.4,5.9.1,11.9.1,18.4-3.2.2-5.1.4-7,.4-19.8,0-39.7.1-59.5-.1-4.5,0-6,1.3-5.3,5.7,1.4,8.8,3.1,17.4,8.5,24.7s12.5,10.8,21.1,11.9C1764.1,269.4,1775.9,266.3,1785.9,257.7Zm-63.7-44.6c12.7,0,24.8.1,36.9-.1.9,0,2.5-2.1,2.5-3.3a92.58,92.58,0,0,0-.1-14.9c-.9-6.8-3.1-13.1-10.4-15.7-6-2.1-12-1.3-16.8,3C1725.1,190.1,1723.2,201.1,1722.2,213.1Z" transform="translate(0 0.04)"/><path class="cls-1" d="M849.6,258c5.7,4.7,5.8,5.4,2.3,11.1-6.8,11.2-16.9,17.7-29.6,20.2a72.23,72.23,0,0,1-32.7-.5c-16.6-4.3-28.6-14.4-34.4-30.6-7.7-21.4-7.5-42.9,3.5-63.3,13.8-25.4,48.9-36.7,75.1-24.7,15.7,7.2,24.6,24,22.9,43.5-1,11.7-1,11.7-12.7,11.7-18,0-36,.1-54-.1-4,0-5.8,1.4-4.8,5.2,1.9,7.5,3.3,15.4,6.6,22.2,4.4,9.3,12.9,14,23.3,15,11.7,1.2,22.5-1,32-8.4C847.9,258.9,848.8,258.4,849.6,258Zm-63.8-44.9c12.7,0,24.8.1,36.9-.2,1,0,2.7-2.4,2.7-3.8a97.86,97.86,0,0,0-.8-16.3c-1-7-4.3-12.7-11.8-14.4-7.8-1.7-15.1,1.6-19.6,8.7C788.4,194.8,786.4,203.3,785.8,213.1Z" transform="translate(0 0.04)"/><path class="cls-1" d="M1685.8,264.9c3.3,3.6,2.6,6.7-.5,10.1-13.8,15.2-31.1,18.7-50.1,13.9-13.1-3.3-19.5-13.2-21.4-26.1a106.43,106.43,0,0,1-.9-14.9c-.1-19.7,0-39.3,0-59v-6.4h-15.5c-1.2-5.3-1-9.1,3.4-12.7,12.3-10,24.1-20.5,36.1-30.8a12.3,12.3,0,0,1,4.7-2.7c5.4-1.3,6.8,0,6.8,5.5v26.7h36c-.5,4.3-.6,8-1.5,11.5-.3,1.1-2.6,2.3-4.1,2.3-8.7.2-17.3.2-26,0-3.1-.1-4.5.9-4.4,4.2.1,21.2,0,42.3.2,63.5a30,30,0,0,0,1.3,8.4c2.8,9.4,10.9,13.4,22.5,10.9C1676.8,268.3,1681.1,266.5,1685.8,264.9Z" transform="translate(0 0.04)"/><path class="cls-1" d="M1395.3,182.4c-1.1-5.1-.9-8.9,3.3-12.4,12.1-9.9,23.8-20.3,35.7-30.5.9-.8,1.7-1.9,2.7-2.1,2.5-.6,5.3-1.2,7.7-.7.9.2,1.5,3.6,1.5,5.5.2,7.2.3,14.3,0,21.5-.2,4.1,1.4,5.2,5.2,5,8.3-.2,16.7-.1,25-.1h6c-.5,4.4-.7,8.2-1.5,11.9-.2.9-2.6,1.7-4,1.7-8.5.2-17,.3-25.5,0-4-.1-5.1,1.2-5.1,5.2.2,20,0,40,.1,60a46.93,46.93,0,0,0,1.1,9.9c2.3,10.2,10.9,14.7,23.2,11.9,4.5-1,8.8-2.8,13.2-4.3,3.2,3.5,2.6,6.5-.5,10-12.7,14.3-33.9,20-52,13.5-12.9-4.6-19-14.6-19.7-27.4-.9-15.8-.5-31.6-.6-47.4-.1-8.2,0-16.3,0-24.5,0-6.7,0-6.7-6.5-6.7C1401.6,182.3,1398.5,182.4,1395.3,182.4Z" transform="translate(0 0.04)"/><path class="cls-1" d="M694.9,193.3c1.3-2.4,2.5-4.8,3.9-7.2,7-12.5,16.9-20.6,31.9-20.3s24,11.4,21.6,26a18,18,0,0,1-18,15.5c-10.4.1-16.7-4.9-18.7-14.9-.2-1.1-.5-2.2-.8-3.3-10.2,2.6-20.1,14.9-20.1,24.9,0,18.3.1,36.7-.1,55,0,4.1.8,6.3,5.4,7,5.9.8,11.6,2.6,17.4,4-1.5,8.1-1.8,8.4-9.5,8.4H648.5c-1.5-4.9-1-8.3,4.2-9.5,5.4-1.3,6.9-4.7,6.8-10.2-.4-18.8-.5-37.7,0-56.5a34.66,34.66,0,0,0-6.2-21.4c-9.1-13.1-6.8-10.4,5.2-14.8,8.7-3.2,17.6-6,26.5-8.8a69.78,69.78,0,0,1,9.1-1.8v27.7A3.09,3.09,0,0,1,694.9,193.3Z" transform="translate(0 0.04)"/><path class="cls-1" d="M957.5,443.9c1.1,17.6,2.7,34.5,18.2,44.2,18.2,11.5,36.1,5.4,53-5,3.6,3.5,4.2,6.6.6,10.8-6.9,7.9-14.9,13.8-25.2,16.1-20.3,4.4-39.2,2.4-54.4-13.6-9.6-10.1-13.5-22.8-14.8-36.3-1.9-20.3,1.1-39.6,14.9-55.8,13.7-16,38.5-22.4,58.4-15.3,15.8,5.7,24.9,19,25.7,37.9.7,16.9.7,16.9-15.9,16.9H963.5C961.8,443.9,960,443.9,957.5,443.9Zm51.1-12.2c.9-7.7.7-15.4-2.5-22.7-2.6-6-7.4-9.4-13.7-10.4-8.8-1.4-16.5,1.1-22.6,7.7-6.6,7-9.5,15.7-11.3,25.4Z" transform="translate(0 0.04)"/><path class="cls-1" d="M1133.8,512c-.8-12.9-1.6-25-2.3-37.1-.3-5,4.2-2.9,5.4-4.3,5.5,7.6,10.1,15.4,16.1,21.9,8.6,9.4,20,10.5,31.9,7.4,5.6-1.5,9.3-5.3,10.3-11.1,1.2-6.9.7-13.6-5.3-18.2a57.14,57.14,0,0,0-13.1-7.1c-7.4-3-15.2-5.1-22.4-8.4-17.1-7.8-24.2-22.5-20.9-41.9,2.6-15,14.6-25.4,32.5-26.6,7.8-.5,15.9.8,23.6,2.4,4.4,1,8.2,1.5,12.4-.5a44,44,0,0,1,6.4-2c.7,10.9,1.3,21.3,2.1,31.7.2,2.6-.5,4.5-3.2,4.3a7,7,0,0,1-4.4-2.3c-4.2-4.9-7.6-10.5-12.2-15.1-6.5-6.5-14.6-9-23.8-7.3-6.6,1.2-11.5,4.5-13.3,11.2-1.9,7.1-.7,13.9,5.2,18.6,3.9,3.1,8.8,5.3,13.5,7.2,6.8,2.8,13.9,4.6,20.7,7.4,19.2,8,27.4,24.3,22.3,44.6-3.4,13.6-13.3,20.3-26.1,23.2-12.6,2.8-25.2,2.5-37.3-2.5-4.3-1.8-7.8-1.8-11.6.7C1138.5,509.8,1136.3,510.7,1133.8,512Z" transform="translate(0 0.04)"/><path class="cls-1" d="M873.2,397.4l-8.5,2.2c-2.7.7-5.4,1.4-8.2,2.2,10,26.9,19.9,53.6,29.3,78.8,8.5-24.4,17.6-50.7,26.8-77.4-6-2-11.7-4-17.4-6,.6-8.1.6-8.1,7.9-8.1h37.3c3.3,7.6,3.4,8-3.8,10.5-5.1,1.8-7.4,5-9.3,9.8-12.2,31.8-24.8,63.5-37.1,95.3-1.3,3.5-3,5.3-6.8,4.6a5.28,5.28,0,0,0-2.5,0c-4.9.9-7.2-1.2-9.1-5.9-12.2-30-24.9-59.9-37-89.9-2.7-6.6-5.7-12.2-12.6-15-2.7-1.1-3.4-2.9-2.6-5.9.8-3.2,2.7-3.5,5.5-3.5,13,.1,26,0,39,0C871.8,389.1,871.8,389.1,873.2,397.4Z" transform="translate(0 0.04)"/><path class="cls-1" d="M1097.9,404.6c-9.6,4.4-16.2,12.4-22,21.2-.6.9-.4,2.3-.4,3.4q0,31.2-.1,62.4c0,3.3.8,4.6,4.3,5.1,6.7,1,13.4,2.6,20,4-1.8,8.5-1.9,8.5-9.9,8.5H1039c-1.6-7.6-1.7-8.1,5.2-9.8,5.5-1.4,7-4,6.9-9.7-.4-22.5-.2-45-.1-67.4,0-3.7-.8-6.7-3.5-9.3-3.1-3-5.9-6.4-8.7-9.7-1.6-1.9-2.3-3.8.8-5,10.1-3.9,20.1-7.8,30.3-11.6,1.3-.5,2.9-.2,4.8-.3v28.3a27.16,27.16,0,0,1,2.5-4.2c5.1-6.3,9.6-13.2,15.7-18.5,7.6-6.7,17.2-7.6,26.9-4.5,7,2.2,10.9,8.3,11,16.2.1,7.6-3.4,13.3-9.8,15.9s-13.9,1.3-17.8-3.8C1101,412.8,1099.9,408.9,1097.9,404.6Z" transform="translate(0 0.04)"/><path class="cls-1" d="M829.2,501c-2.5,8.3-2.5,8.3-10.4,8.3H774c-1.9-7.3-1.7-7.5,4.6-9.8,9.2-3.4,7.5-.8,7.5-10.6.1-22.2,0-44.3.1-66.5,0-3.7-.8-6.7-3.6-9.3-3-2.8-5.6-6.1-8.4-9.3-2.3-2.6-2.3-4.7,1.3-6,9.5-3.6,18.9-7.3,28.5-10.8,1.8-.7,3.9-.5,6.4-.8v6.9c0,32.5.1,65-.1,97.5,0,4.4,1.5,6.1,5.5,6.9C820.4,498.4,824.8,499.8,829.2,501Z" transform="translate(0 0.04)"/><path class="cls-1" d="M1259.5,386.1V495.8l18.4,5.2c-1,7.4-2,8.4-8.7,8.3H1223c-1.9-7.2-1.6-7.8,4.5-9.8,7.5-2.5,7.6-2.5,7.6-10.5,0-22.3-.1-44.6.1-66.9,0-3.6-.8-6.3-3.4-8.8-3.1-3-5.8-6.4-8.7-9.7-2.1-2.4-2.1-4.4,1.3-5.6,9.5-3.6,18.9-7.3,28.4-10.8C1254.7,386.5,1256.7,386.5,1259.5,386.1Z" transform="translate(0 0.04)"/><path class="cls-1" d="M1264.3,350a17.25,17.25,0,1,1-34.5.3,17.25,17.25,0,0,1,34.5-.3Z" transform="translate(0 0.04)"/><path class="cls-1" d="M814.9,350.5a16.76,16.76,0,0,1-17.1,17,17.11,17.11,0,0,1-17.1-17.2,16.76,16.76,0,0,1,17.5-17.1C808,333.4,815,340.6,814.9,350.5Z" transform="translate(0 0.04)"/><path class="cls-1" d="M399,320.2c-4,9.7-7.7,19.6-12.2,29.2-21.3,45.9-53.2,83.5-91.2,116.2-23.3,20-48.4,37.5-74.7,53.4-3.1,1.9-5.3,2-8.5.1C164.1,489.9,120,455.5,84.6,411c-21-26.4-37.6-55.3-48.8-87.2-.4-1.2-.7-2.5-1.5-5.1,4.9,1.7,9.3,2.6,13.1,4.6,15,7.8,29.7,7.7,44.9.2s30.8-7.2,45.8.3c16.1,8.1,31.4,6.6,46.7-1.8a4.63,4.63,0,0,0,2.2-2.4c1.3-5.6,2.5-11.3,3.8-17.8-3.5,1.5-6.1,2.5-8.6,3.7-15.3,7.1-30.6,7.2-45.8-.2-14.5-7.1-28.7-7.2-43.2-.1-15.3,7.5-30.7,7.4-46.2.3-4.9-2.2-10.5-3.2-15.5-5.3-2-.9-3.3-3.4-4.5-5.8,7.9-1.5,14.6.7,20.9,4a46.29,46.29,0,0,0,33.4,4c3.8-.9,7.5-2.8,11.1-4.4,14.8-6.7,29.7-6.8,44.4.1,8.3,3.9,17,7.2,26,5.3,9.8-2.1,19.4-5.6,28.7-9.4,1.8-.7,2-5.2,3.3-8.8-3.2.4-5.6.7-8.5,1.1.3-2.7.7-5.2.9-7.3-7,1.9-13.7,4.4-20.6,5.7a45.43,45.43,0,0,1-29.6-4.4c-14.7-7.5-29.1-7.7-44-.3s-30.4,6.9-45.9.3c-7.1-3-14.6-4.9-23.3-7.8-.5-7.9-1.2-17.5-1.9-28.1,20,6.6,39.1,13,58.5,19.4-.4,3.5-.7,6.7-1.1,11,12.1-3.9,22.6-10.2,35.1-10.2s23.3,5.7,35.5,10.4c-.3-4.1-.6-7.1-.9-10.7,9.1-2.9,18.4-5.9,27.7-8.9.5-.2,1-.2,1.5-.4,16.9-5.2,16.9-5.2,19.9-24.1-17.9,8.1-35.4,15.9-53.1,23.9-2.3-2.7-4.5-5.3-7-8.2,2.6-3.5,5.2-6.9,7.8-10.3q32.25-42,64.4-84.1a8.88,8.88,0,0,1,7.9-3.8c33.5.1,67,0,100.5.1,3.1,0,5.1-.8,7-3.4,12.4-17.5,44.5-23,61.1-.2,9.9,13.5,14.7,29,18,45a258.51,258.51,0,0,1,3.6,85.5,10.38,10.38,0,0,1-.3,1.2c-13.9-13.7-27.8-27.5-41.9-41.3-6.4,4.6-12.4,9-18.4,13.4-9.7-9.8-19.3-19.4-28.7-28.9-10.3,10.2-19.9,19.7-29.9,29.5-6.6-4.8-12.7-9.2-20-14.5-8.8,9.2-17.6,18.2-26.1,27.5-.9,1-.8,3.4-.5,5,1.2,6.1,2.7,12.2,4.2,18.9-3.1-.4-5.4-.7-8.4-1,2.5,11.7,4.9,22.9,7.4,34a4.3,4.3,0,0,0,2.1,2.5c15,8.3,30.3,10.3,46.2,2.2s32-7.6,48.1-.1a60.29,60.29,0,0,0,13.6,4.5c9.3,1.9,18.1.1,26.7-3.9,4.9-2.3,10-3.9,15-5.9A20.69,20.69,0,0,1,399,320.2ZM240.3,338.8c-4.6-22.3-9.1-43.8-13.7-65.7,3,.4,5.2.7,7.9,1.1-5.8-30.9-11.5-61.2-17.2-91.5-.5,0-1.1.1-1.6.1-5.7,30.4-11.3,60.7-17.1,91.4,3.1-.3,5.3-.6,7.8-.8-4.6,22.1-9.1,43.5-13.6,65.4,3.8-.5,6.8-.9,10.3-1.3-4.8,23.1-9.5,45.6-14.3,69.1,8.5-3.4,15.9-6.1,23-9.3a10.7,10.7,0,0,1,9.4,0c7.3,3.1,14.7,5.9,23,9.3-4.9-23.6-9.6-46.1-14.4-69.2C233.6,337.7,236.5,338.2,240.3,338.8Zm73.2,96.3v-5.8c0-26.5-.3-53,.2-79.4.2-7.6-1.9-12.4-8.3-16.2-2.8-1.6-4.6-2.3-7.6-.7-7.9,4.3-16.5,6.5-25.5,5.6-7.6-.8-15.2-2.5-22.9-3.8.9,4.9,2,10.5,3.1,16.3l-10.6-1.7c5.3,24.7,10.4,48.8,15.7,73.6-10.1-5-19.4-9.5-29.5-14.5.5,6.8,1,12.3,1.3,16.8,7.7,2.3,15,3.3,21.2,6.4,15.7,7.7,30.9,7.6,46.4-.4,3.2-1.7,4.2-3.3,4.2-6.7-.1-26.1-.1-52.3-.1-78.4V339c4.9,1.8,6.7,4.3,6.6,9.1-.2,25.8,0,51.6-.2,77.4C307.5,429.9,308.7,432.8,313.5,435.1Zm-138-12.2c5.3-24.8,10.4-48.9,15.6-73.5-4,.6-7.2,1.1-10.7,1.6,1.2-6.2,2.4-11.6,3.5-17.1-.6-.1-.8-.2-.9-.2a13.36,13.36,0,0,0-1.8.7q-22.65,9.45-45-1c-6.3-3-16.5,3.5-16.5,10.5v86.5c0,1.4.1,2.8.2,4.5,4.3-1.9,5.6-4.5,5.6-8.8-.2-26.2,0-52.3-.2-78.5,0-5.2,2.6-7.2,7-8.9v6.5q0,39.75.1,79.5c0,1.8.4,4.6,1.5,5.2,12.5,7.1,25.7,10.1,39.8,5.4,9.8-3.3,19.5-7,30.1-10.8.3-4.1.6-9.6,1.1-15.9C194.6,413.5,185.4,418,175.5,422.9Zm34.8,58.2h13.4c0-5.2.1-10,0-14.8-.6-19.3-1.4-38.5-1.9-57.8-.1-4.1-2.6-5.4-5.6-5.4-2.8.1-4.9,1.6-5,5.4-.1,10-.8,19.9-1,29.9C210.2,452.6,210.3,466.6,210.3,481.1Zm20.2-42.4c13.2,3.7,25.8,8.3,38.7,10.5,13.5,2.3,26.1-2.4,37.8-9.2-2.1-3.6-4.7-4.2-8.4-2.3-17,9-34,8.4-51.2,0-5.2-2.5-11.2-3.4-17.5-5.3C230.3,435.5,230.4,436.9,230.5,438.7ZM203,432.2c-6.8,2.1-12.8,3-18,5.6-17.1,8.5-33.8,8.5-50.8-.1-4.5-2.3-5-2-8,2.3,14.4,8.8,30.1,12,46.5,8.1,10.1-2.4,19.6-6.8,29.9-10.5C202.6,436.9,202.7,435.4,203,432.2ZM308.4,201c.4.2.8.5,1.2.7,2.8-2,5.6-3.9,8.6-5.9,3.1,2,6,4,8.9,5.9.6,0,1.1-.1,1.7-.1-5.2-8.1-3.1-13.8,5.2-17.7-4.3-.9-8.6-.1-11.1-1.9s-2.9-6.1-4.7-10.4c-1.7,4.4-2.1,8.7-4.5,10.4s-6.8,1-11.6,1.4c3.9,3.1,6.6,5.3,9.3,7.5C310.4,194.5,309.4,197.8,308.4,201Zm67.1,18.6c.4-.2.7-.5,1.1-.7-1-3.4-1.9-6.9-2.9-10.2,2.9-2.3,5.5-4.5,8.2-6.7a11,11,0,0,0,.2-1.8c-9.6,3.1-13.5-1.8-15.1-10.1-2.1,3.8-2.6,8.2-5,10s-6.7.8-10.1,1l-1.2,1.2c9.7,3.1,9.8,9.5,5.9,17.2h1.5c3-2,5.9-4,8.9-6C369.8,215.6,372.6,217.6,375.5,219.6ZM253.8,201.3c9.6,4,9.5,10.5,5.7,18.2a7.57,7.57,0,0,0,1.5-.1c3-2,5.9-4,8.8-5.9,3.2,2.1,6,4.1,8.9,6a10.82,10.82,0,0,0-.8-6.4c-1.7-3.5-.9-5.8,2.5-7.7,1.7-.9,3-2.5,5.3-4.5-4.8-.3-9.1.6-11.4-1.1s-2.8-6.2-4-9.4a10.93,10.93,0,0,0-1.5-.8C268.3,199.3,263.3,202.6,253.8,201.3Z" transform="translate(0 0.04)"/><path class="cls-1" d="M185.1,149.1c-18.6,31.1-36.9,61.5-55.3,92.2-2.2-.6-4.2-1.4-6.3-1.8-2.7-.5-3.4-1.8-3.2-4.5q2-31.35,3.7-62.8c.4-7.6.9-15.2,1.4-23.2C145.1,149.1,164.5,149.1,185.1,149.1Z" transform="translate(0 0.04)"/><path class="cls-1" d="M376.5,285.2c.2,2.9,1.6,6.5.4,8.5-1.3,2.2-5,3.9-7.7,3.9s-5.5-2.2-8-3.8c-.7-.4-1.1-2.7-.7-3.2,4.2-4.4-1.1-10,2.1-14.4,2.2-3,8-3.6,11.4-1.4s3.6,5.4.9,10A12.44,12.44,0,0,0,376.5,285.2Zm-4.4,4.8c-1.5-.8-2.5-1.9-3.2-1.7a3.28,3.28,0,0,0-1.6,2.4c-.1.5,1.3,1.6,1.9,1.5C370.1,292.1,370.8,291.1,372.1,290Zm-3.1-7.1c.9-1.2,1.7-1.8,1.8-2.6.1-.5-1-1.8-1.2-1.7-.8.2-1.9.8-2.1,1.5S368.3,281.6,369,282.9Z" transform="translate(0 0.04)"/><path class="cls-1" d="M296,284.9c-2.3-3.2-3-6.6.2-9.4s7.1-2.9,10.7-.6c3.3,2.1,3.6,5.2,1.9,8.7a3.09,3.09,0,0,0,.2,2.8c2.6,3.5,2.6,6.8-.9,9.6-3.3,2.7-10.3,2.5-13-.6-2.9-3.3-2.5-6.6.5-9.7A2,2,0,0,0,296,284.9Zm5.7,2.3c-.9,1.6-1.9,2.6-1.8,3.3a3.31,3.31,0,0,0,2.3,1.8c.4.1,1.7-1.3,1.6-2C303.7,289.4,302.8,288.6,301.7,287.2Zm0-9.3c-.8,1.1-1.7,1.9-1.6,2.6s1.2,1.2,1.8,1.8c.6-.7,1.5-1.3,1.6-2S302.5,278.9,301.7,277.9Z" transform="translate(0 0.04)"/><path class="cls-1" d="M337.4,280.7c6.8,1.8,9.7,6,8,11.4-1.5,4.7-7.8,7.1-13.5,5.2-4.9-1.6-6.7-6.9-4.4-12.4,3.2-7.8,7.1-10.8,14.3-10.2C340.2,276.9,338.8,278.7,337.4,280.7Zm2.8,9c-2-1.5-3.2-3-4.3-3s-3,1.8-2.9,2.5a4.93,4.93,0,0,0,2.8,3.3C336.7,292.6,338.1,291,340.2,289.7Z" transform="translate(0 0.04)"/><path class="cls-1" d="M274.6,274.7V297h-6.1a76.31,76.31,0,0,0-.1-8.3c-.3-3.4,1.8-7.6-2.8-10-.5-.3-.1-2.4-.1-4Z" transform="translate(0 0.04)"/><path class="cls-1" d="M254.2,51.9c-3.4-2.3-6.8-4.4-10.1-6.8-10.6-7.7-20.8-16.2-34.1-19-4.9-1-9.9-1.2-14.7-2.1-1.4-.3-2.7-1.8-3.6-3.3A60.84,60.84,0,0,1,232,27.2C239.2,31,246.4,35,252.7,40c2.5,2,2.4,7.1,3.6,10.8A21.16,21.16,0,0,0,254.2,51.9Z" transform="translate(0 0.04)"/><path class="cls-1" d="M278.6,62.2V50.5h11.6C290.9,54.7,283.1,62.6,278.6,62.2Z" transform="translate(0 0.04)"/><path class="cls-1" d="M319.4,59.7c-3.3,2.6-5,4.9-7.1,5.3a4.3,4.3,0,0,1-5.2-5c.3-1.9,3-4.6,4.9-4.9C313.8,55,315.9,57.4,319.4,59.7Z" transform="translate(0 0.04)"/><path class="cls-1" d="M100.3,108.4c-1.3,3.4-2,7.1-3.9,9.8-11.6,16.2-23.5,32.2-35.5,48.6-1.3-.9-2.5-1.7-3.9-2.7,8.5-13.5,16.9-26.7,25.2-39.9,2.6-4.1,5.3-8.1,7.6-12.3C91.8,108.4,94.3,106.4,100.3,108.4Z" transform="translate(0 0.04)"/><path class="cls-1" d="M253.9,353.1c13.5,5.9,27,5.9,40.3-.7,1.9,5.5.1,8-5,9.4a59.37,59.37,0,0,1-29.6.5C253.1,360.8,253.1,360.7,253.9,353.1Z" transform="translate(0 0.04)"/><path class="cls-1" d="M258.9,381.9c12,3.4,23.8,2.8,35.3-2.8,1.7,5,.7,8.5-4.4,9.1-8.5.9-17.1,1.4-25.6,1.7C258.9,390.1,257.1,387.2,258.9,381.9Z" transform="translate(0 0.04)"/><path class="cls-1" d="M294.7,407.3c1.3,3.7-.2,6.5-5.4,7.9-8.1,2.1-16.2,3.1-24.7,1.5v-5C274.7,410.2,284.6,408.7,294.7,407.3Z" transform="translate(0 0.04)"/><path class="cls-1" d="M179,353.2c2.1,6.2-.8,8.3-5.8,9.3a61.81,61.81,0,0,1-29.6-.8c-4.8-1.4-6.6-3.9-4.8-9.3C152,358.7,165.4,359.2,179,353.2Z" transform="translate(0 0.04)"/><path class="cls-1" d="M174.3,381.8c1.6,5.3.2,8.3-5,8.1-8.5-.3-17.1-.8-25.6-1.6-4.8-.5-6.8-3.5-4.9-9.1A48,48,0,0,0,174.3,381.8Z" transform="translate(0 0.04)"/><path class="cls-1" d="M168.3,411.7v4.9a43.7,43.7,0,0,1-28.3-3.2c-1.5-.7-1.6-4.6-2.1-6.2C148.2,408.7,157.9,410.1,168.3,411.7Z" transform="translate(0 0.04)"/></svg>