<svg id="Layer_1" data-name="Layer 1" xmlns="http://www.w3.org/2000/svg" xmlns:xlink="http://www.w3.org/1999/xlink" viewBox="0 0 230.88 138.39"><defs><linearGradient id="New_Gradient_Swatch_3" x1="47.32" y1="31.86" x2="183.72" y2="31.86" gradientUnits="userSpaceOnUse"><stop offset="0" stop-color="#662d91"/><stop offset="0.38" stop-color="#4558b7"/><stop offset="0.79" stop-color="#2680da"/><stop offset="1" stop-color="#1a8fe8"/></linearGradient><linearGradient id="New_Gradient_Swatch_3-2" x1="47.32" y1="36.55" x2="183.72" y2="36.55" xlink:href="#New_Gradient_Swatch_3"/><linearGradient id="New_Gradient_Swatch_3-3" x1="47.32" y1="98.72" x2="183.72" y2="98.72" xlink:href="#New_Gradient_Swatch_3"/><linearGradient id="New_Gradient_Swatch_3-4" x1="47.32" y1="38.3" x2="183.72" y2="38.3" xlink:href="#New_Gradient_Swatch_3"/><linearGradient id="New_Gradient_Swatch_3-5" x1="47.32" y1="38.89" x2="183.72" y2="38.89" xlink:href="#New_Gradient_Swatch_3"/><linearGradient id="New_Gradient_Swatch_3-6" x1="47.32" y1="70.61" x2="183.72" y2="70.61" xlink:href="#New_Gradient_Swatch_3"/><linearGradient id="New_Gradient_Swatch_3-7" x1="47.32" y1="37.08" x2="183.72" y2="37.08" xlink:href="#New_Gradient_Swatch_3"/><linearGradient id="New_Gradient_Swatch_3-8" x1="47.32" y1="61.17" x2="183.72" y2="61.17" xlink:href="#New_Gradient_Swatch_3"/><linearGradient id="New_Gradient_Swatch_3-9" x1="47.32" y1="36.59" x2="183.72" y2="36.59" xlink:href="#New_Gradient_Swatch_3"/><linearGradient id="New_Gradient_Swatch_3-10" x1="47.32" y1="36.61" x2="183.72" y2="36.61" xlink:href="#New_Gradient_Swatch_3"/><linearGradient id="New_Gradient_Swatch_3-11" x1="47.32" y1="36.76" x2="183.72" y2="36.76" xlink:href="#New_Gradient_Swatch_3"/><linearGradient id="New_Gradient_Swatch_3-12" x1="47.32" y1="15.8" x2="183.72" y2="15.8" xlink:href="#New_Gradient_Swatch_3"/><linearGradient id="New_Gradient_Swatch_3-13" x1="47.32" y1="97.17" x2="183.72" y2="97.17" xlink:href="#New_Gradient_Swatch_3"/><linearGradient id="New_Gradient_Swatch_3-14" x1="47.32" y1="33.84" x2="183.72" y2="33.84" xlink:href="#New_Gradient_Swatch_3"/><linearGradient id="New_Gradient_Swatch_3-15" x1="47.32" y1="99.36" x2="183.72" y2="99.36" xlink:href="#New_Gradient_Swatch_3"/><linearGradient id="New_Gradient_Swatch_3-16" x1="47.32" y1="99.76" x2="183.72" y2="99.76" xlink:href="#New_Gradient_Swatch_3"/><linearGradient id="New_Gradient_Swatch_3-17" x1="47.32" y1="99.2" x2="183.72" y2="99.2" xlink:href="#New_Gradient_Swatch_3"/><linearGradient id="New_Gradient_Swatch_3-18" x1="47.32" y1="34.91" x2="183.72" y2="34.91" xlink:href="#New_Gradient_Swatch_3"/><linearGradient id="New_Gradient_Swatch_3-19" x1="47.32" y1="35.64" x2="183.72" y2="35.64" xlink:href="#New_Gradient_Swatch_3"/><linearGradient id="New_Gradient_Swatch_3-20" x1="47.32" y1="85.24" x2="183.72" y2="85.24" xlink:href="#New_Gradient_Swatch_3"/><linearGradient id="New_Gradient_Swatch_3-21" x1="47.32" y1="109.67" x2="183.72" y2="109.67" xlink:href="#New_Gradient_Swatch_3"/><linearGradient id="New_Gradient_Swatch_3-22" x1="47.32" y1="74.13" x2="183.72" y2="74.13" xlink:href="#New_Gradient_Swatch_3"/><linearGradient id="New_Gradient_Swatch_3-23" x1="47.32" y1="84.87" x2="183.72" y2="84.87" xlink:href="#New_Gradient_Swatch_3"/><linearGradient id="New_Gradient_Swatch_3-24" x1="47.32" y1="36.02" x2="183.72" y2="36.02" xlink:href="#New_Gradient_Swatch_3"/><linearGradient id="New_Gradient_Swatch_3-25" x1="47.32" y1="74.93" x2="183.72" y2="74.93" xlink:href="#New_Gradient_Swatch_3"/><linearGradient id="New_Gradient_Swatch_3-26" x1="47.32" y1="82.34" x2="183.72" y2="82.34" xlink:href="#New_Gradient_Swatch_3"/><linearGradient id="New_Gradient_Swatch_3-27" x1="47.32" y1="77.35" x2="183.72" y2="77.35" xlink:href="#New_Gradient_Swatch_3"/><linearGradient id="New_Gradient_Swatch_3-28" x1="47.32" y1="95.62" x2="183.72" y2="95.62" xlink:href="#New_Gradient_Swatch_3"/><linearGradient id="New_Gradient_Swatch_3-29" x1="47.32" y1="92.09" x2="183.72" y2="92.09" xlink:href="#New_Gradient_Swatch_3"/><linearGradient id="New_Gradient_Swatch_3-30" x1="47.32" y1="96.15" x2="183.72" y2="96.15" xlink:href="#New_Gradient_Swatch_3"/><linearGradient id="New_Gradient_Swatch_3-31" x1="47.32" y1="101.2" x2="183.72" y2="101.2" xlink:href="#New_Gradient_Swatch_3"/><linearGradient id="New_Gradient_Swatch_3-32" x1="47.32" y1="101.21" x2="183.72" y2="101.21" xlink:href="#New_Gradient_Swatch_3"/><linearGradient id="New_Gradient_Swatch_3-33" x1="47.32" y1="101.37" x2="183.72" y2="101.37" xlink:href="#New_Gradient_Swatch_3"/><linearGradient id="New_Gradient_Swatch_3-34" x1="47.32" y1="33.46" x2="183.72" y2="33.46" xlink:href="#New_Gradient_Swatch_3"/><linearGradient id="New_Gradient_Swatch_3-35" x1="47.32" y1="98.58" x2="183.72" y2="98.58" xlink:href="#New_Gradient_Swatch_3"/><linearGradient id="New_Gradient_Swatch_3-36" x1="47.32" y1="96.03" x2="183.72" y2="96.03" xlink:href="#New_Gradient_Swatch_3"/><linearGradient id="New_Gradient_Swatch_3-37" x1="47.32" y1="39.96" x2="183.72" y2="39.96" xlink:href="#New_Gradient_Swatch_3"/><linearGradient id="New_Gradient_Swatch_3-38" x1="47.32" y1="89.77" x2="183.72" y2="89.77" xlink:href="#New_Gradient_Swatch_3"/><linearGradient id="New_Gradient_Swatch_3-39" x1="47.32" y1="63.08" x2="183.72" y2="63.08" xlink:href="#New_Gradient_Swatch_3"/><linearGradient id="New_Gradient_Swatch_3-40" x1="47.32" y1="40.23" x2="183.72" y2="40.23" xlink:href="#New_Gradient_Swatch_3"/><linearGradient id="New_Gradient_Swatch_3-41" x1="47.32" y1="47.25" x2="183.72" y2="47.25" xlink:href="#New_Gradient_Swatch_3"/><linearGradient id="New_Gradient_Swatch_3-42" x1="47.32" y1="42.01" x2="183.72" y2="42.01" xlink:href="#New_Gradient_Swatch_3"/><linearGradient id="New_Gradient_Swatch_3-43" x1="47.32" y1="70.44" x2="183.72" y2="70.44" xlink:href="#New_Gradient_Swatch_3"/><linearGradient id="New_Gradient_Swatch_3-44" x1="47.32" y1="40.9" x2="183.72" y2="40.9" xlink:href="#New_Gradient_Swatch_3"/><linearGradient id="New_Gradient_Swatch_3-45" x1="47.32" y1="117.45" x2="183.72" y2="117.45" xlink:href="#New_Gradient_Swatch_3"/><linearGradient id="New_Gradient_Swatch_3-46" x1="47.32" y1="84.7" x2="183.72" y2="84.7" xlink:href="#New_Gradient_Swatch_3"/><linearGradient id="New_Gradient_Swatch_3-47" x1="47.32" y1="36.27" x2="183.72" y2="36.27" xlink:href="#New_Gradient_Swatch_3"/><linearGradient id="New_Gradient_Swatch_3-48" x1="47.32" y1="69.49" x2="183.72" y2="69.49" xlink:href="#New_Gradient_Swatch_3"/><linearGradient id="New_Gradient_Swatch_3-49" x1="47.32" y1="67.9" x2="183.72" y2="67.9" xlink:href="#New_Gradient_Swatch_3"/><linearGradient id="New_Gradient_Swatch_3-50" x1="47.32" y1="58.17" x2="183.72" y2="58.17" xlink:href="#New_Gradient_Swatch_3"/><linearGradient id="New_Gradient_Swatch_3-51" x1="47.32" y1="51.55" x2="183.72" y2="51.55" xlink:href="#New_Gradient_Swatch_3"/><linearGradient id="New_Gradient_Swatch_3-52" x1="47.32" y1="52.51" x2="183.72" y2="52.51" xlink:href="#New_Gradient_Swatch_3"/><linearGradient id="New_Gradient_Swatch_3-53" x1="47.32" y1="58.03" x2="183.72" y2="58.03" xlink:href="#New_Gradient_Swatch_3"/><linearGradient id="New_Gradient_Swatch_3-54" x1="47.32" y1="55.56" x2="183.72" y2="55.56" xlink:href="#New_Gradient_Swatch_3"/><linearGradient id="New_Gradient_Swatch_3-55" x1="47.32" y1="61.64" x2="183.72" y2="61.64" xlink:href="#New_Gradient_Swatch_3"/><linearGradient id="New_Gradient_Swatch_3-56" x1="47.32" y1="44.39" x2="183.72" y2="44.39" xlink:href="#New_Gradient_Swatch_3"/><linearGradient id="New_Gradient_Swatch_3-57" x1="47.32" y1="94.34" x2="183.72" y2="94.34" xlink:href="#New_Gradient_Swatch_3"/><linearGradient id="New_Gradient_Swatch_3-58" x1="47.32" y1="92.15" x2="183.72" y2="92.15" xlink:href="#New_Gradient_Swatch_3"/><linearGradient id="New_Gradient_Swatch_3-59" x1="47.32" y1="91.54" x2="183.72" y2="91.54" xlink:href="#New_Gradient_Swatch_3"/><linearGradient id="New_Gradient_Swatch_3-60" x1="47.32" y1="82.56" x2="183.72" y2="82.56" xlink:href="#New_Gradient_Swatch_3"/><linearGradient id="New_Gradient_Swatch_3-61" x1="47.32" y1="95.05" x2="183.72" y2="95.05" xlink:href="#New_Gradient_Swatch_3"/><linearGradient id="New_Gradient_Swatch_3-62" x1="47.32" y1="80.98" x2="183.72" y2="80.98" xlink:href="#New_Gradient_Swatch_3"/><linearGradient id="New_Gradient_Swatch_3-63" x1="47.32" y1="105.02" x2="183.72" y2="105.02" xlink:href="#New_Gradient_Swatch_3"/><linearGradient id="New_Gradient_Swatch_3-64" x1="47.32" y1="104.74" x2="183.72" y2="104.74" xlink:href="#New_Gradient_Swatch_3"/><linearGradient id="New_Gradient_Swatch_3-65" x1="47.32" y1="106.61" x2="183.72" y2="106.61" xlink:href="#New_Gradient_Swatch_3"/><linearGradient id="New_Gradient_Swatch_3-66" x1="47.32" y1="104.3" x2="183.72" y2="104.3" xlink:href="#New_Gradient_Swatch_3"/><linearGradient id="New_Gradient_Swatch_3-67" x1="47.32" y1="60.41" x2="183.72" y2="60.41" xlink:href="#New_Gradient_Swatch_3"/><linearGradient id="New_Gradient_Swatch_3-68" x1="47.32" y1="59.19" x2="183.72" y2="59.19" xlink:href="#New_Gradient_Swatch_3"/><linearGradient id="New_Gradient_Swatch_3-69" x1="47.32" y1="57.39" x2="183.72" y2="57.39" xlink:href="#New_Gradient_Swatch_3"/><linearGradient id="New_Gradient_Swatch_3-70" x1="47.32" y1="45.93" x2="183.72" y2="45.93" xlink:href="#New_Gradient_Swatch_3"/><linearGradient id="New_Gradient_Swatch_3-71" x1="47.32" y1="107.9" x2="183.72" y2="107.9" xlink:href="#New_Gradient_Swatch_3"/><linearGradient id="New_Gradient_Swatch_3-72" x1="47.32" y1="47.2" x2="183.72" y2="47.2" xlink:href="#New_Gradient_Swatch_3"/><linearGradient id="New_Gradient_Swatch_3-73" x1="47.32" y1="61.38" x2="183.72" y2="61.38" xlink:href="#New_Gradient_Swatch_3"/><linearGradient id="New_Gradient_Swatch_3-74" x1="47.32" y1="61.51" x2="183.72" y2="61.51" xlink:href="#New_Gradient_Swatch_3"/><linearGradient id="New_Gradient_Swatch_3-75" x1="47.32" y1="63.73" x2="183.72" y2="63.73" xlink:href="#New_Gradient_Swatch_3"/><linearGradient id="New_Gradient_Swatch_3-76" x1="47.32" y1="61.21" x2="183.72" y2="61.21" xlink:href="#New_Gradient_Swatch_3"/><linearGradient id="New_Gradient_Swatch_3-77" x1="47.32" y1="67.68" x2="183.72" y2="67.68" xlink:href="#New_Gradient_Swatch_3"/><linearGradient id="New_Gradient_Swatch_3-78" x1="47.32" y1="91.58" x2="183.72" y2="91.58" xlink:href="#New_Gradient_Swatch_3"/><linearGradient id="New_Gradient_Swatch_3-79" x1="47.32" y1="103.1" x2="183.72" y2="103.1" xlink:href="#New_Gradient_Swatch_3"/><linearGradient id="New_Gradient_Swatch_3-80" x1="47.32" y1="106.45" x2="183.72" y2="106.45" xlink:href="#New_Gradient_Swatch_3"/><linearGradient id="New_Gradient_Swatch_3-81" x1="47.32" y1="100.31" x2="183.72" y2="100.31" xlink:href="#New_Gradient_Swatch_3"/><linearGradient id="New_Gradient_Swatch_3-82" x1="47.32" y1="104.47" x2="183.72" y2="104.47" xlink:href="#New_Gradient_Swatch_3"/><linearGradient id="New_Gradient_Swatch_3-83" x1="47.32" y1="108.68" x2="183.72" y2="108.68" xlink:href="#New_Gradient_Swatch_3"/><linearGradient id="New_Gradient_Swatch_3-84" x1="47.32" y1="110.36" x2="183.72" y2="110.36" xlink:href="#New_Gradient_Swatch_3"/><linearGradient id="New_Gradient_Swatch_3-85" x1="47.32" y1="106.5" x2="183.72" y2="106.5" xlink:href="#New_Gradient_Swatch_3"/><linearGradient id="New_Gradient_Swatch_3-86" x1="47.32" y1="115.25" x2="183.72" y2="115.25" xlink:href="#New_Gradient_Swatch_3"/><linearGradient id="New_Gradient_Swatch_3-87" x1="47.32" y1="106.78" x2="183.72" y2="106.78" xlink:href="#New_Gradient_Swatch_3"/><linearGradient id="New_Gradient_Swatch_3-88" x1="47.32" y1="108.43" x2="183.72" y2="108.43" xlink:href="#New_Gradient_Swatch_3"/><linearGradient id="New_Gradient_Swatch_3-89" x1="47.32" y1="102.08" x2="183.72" y2="102.08" xlink:href="#New_Gradient_Swatch_3"/><linearGradient id="New_Gradient_Swatch_3-90" x1="47.32" y1="117.52" x2="183.72" y2="117.52" xlink:href="#New_Gradient_Swatch_3"/><linearGradient id="New_Gradient_Swatch_3-91" x1="47.32" y1="109.03" x2="183.72" y2="109.03" xlink:href="#New_Gradient_Swatch_3"/><linearGradient id="New_Gradient_Swatch_3-92" x1="47.32" y1="107.17" x2="183.72" y2="107.17" xlink:href="#New_Gradient_Swatch_3"/><linearGradient id="New_Gradient_Swatch_3-93" x1="47.32" y1="107.82" x2="183.72" y2="107.82" xlink:href="#New_Gradient_Swatch_3"/><linearGradient id="New_Gradient_Swatch_3-94" x1="47.32" y1="25.7" x2="183.72" y2="25.7" xlink:href="#New_Gradient_Swatch_3"/><linearGradient id="New_Gradient_Swatch_3-95" x1="47.32" y1="113.74" x2="183.72" y2="113.74" xlink:href="#New_Gradient_Swatch_3"/><linearGradient id="New_Gradient_Swatch_3-96" x1="47.32" y1="113.17" x2="183.72" y2="113.17" xlink:href="#New_Gradient_Swatch_3"/><linearGradient id="New_Gradient_Swatch_3-97" x1="47.32" y1="115.95" x2="183.72" y2="115.95" xlink:href="#New_Gradient_Swatch_3"/><linearGradient id="New_Gradient_Swatch_3-98" x1="47.32" y1="113.13" x2="183.72" y2="113.13" xlink:href="#New_Gradient_Swatch_3"/><linearGradient id="New_Gradient_Swatch_3-99" x1="47.32" y1="112.11" x2="183.72" y2="112.11" xlink:href="#New_Gradient_Swatch_3"/><linearGradient id="New_Gradient_Swatch_3-100" x1="47.32" y1="114.47" x2="183.72" y2="114.47" xlink:href="#New_Gradient_Swatch_3"/><linearGradient id="New_Gradient_Swatch_3-101" x1="47.32" y1="12.05" x2="183.72" y2="12.05" xlink:href="#New_Gradient_Swatch_3"/><linearGradient id="New_Gradient_Swatch_3-102" x1="47.32" y1="104.88" x2="183.72" y2="104.88" xlink:href="#New_Gradient_Swatch_3"/><linearGradient id="New_Gradient_Swatch_3-103" x1="47.32" y1="11.9" x2="183.72" y2="11.9" xlink:href="#New_Gradient_Swatch_3"/><linearGradient id="New_Gradient_Swatch_3-104" x1="47.32" y1="11.38" x2="183.72" y2="11.38" xlink:href="#New_Gradient_Swatch_3"/><linearGradient id="New_Gradient_Swatch_3-105" x1="47.32" y1="15.46" x2="183.72" y2="15.46" xlink:href="#New_Gradient_Swatch_3"/><linearGradient id="New_Gradient_Swatch_3-106" x1="47.32" y1="27.46" x2="183.72" y2="27.46" xlink:href="#New_Gradient_Swatch_3"/><linearGradient id="New_Gradient_Swatch_3-107" x1="47.32" y1="17.17" x2="183.72" y2="17.17" xlink:href="#New_Gradient_Swatch_3"/><linearGradient id="New_Gradient_Swatch_3-108" x1="47.32" y1="29.73" x2="183.72" y2="29.73" xlink:href="#New_Gradient_Swatch_3"/><linearGradient id="New_Gradient_Swatch_3-109" x1="47.32" y1="33.27" x2="183.72" y2="33.27" xlink:href="#New_Gradient_Swatch_3"/><linearGradient id="New_Gradient_Swatch_3-110" x1="47.32" y1="22.01" x2="183.72" y2="22.01" xlink:href="#New_Gradient_Swatch_3"/><linearGradient id="New_Gradient_Swatch_3-111" x1="47.32" y1="19.7" x2="183.72" y2="19.7" xlink:href="#New_Gradient_Swatch_3"/><linearGradient id="New_Gradient_Swatch_3-112" x1="47.32" y1="26.97" x2="183.72" y2="26.97" xlink:href="#New_Gradient_Swatch_3"/><linearGradient id="New_Gradient_Swatch_3-113" x1="47.32" y1="15.39" x2="183.72" y2="15.39" xlink:href="#New_Gradient_Swatch_3"/><linearGradient id="New_Gradient_Swatch_3-114" x1="47.32" y1="50.27" x2="183.72" y2="50.27" xlink:href="#New_Gradient_Swatch_3"/><linearGradient id="New_Gradient_Swatch_3-115" x1="47.32" y1="106.98" x2="183.72" y2="106.98" xlink:href="#New_Gradient_Swatch_3"/><linearGradient id="New_Gradient_Swatch_3-116" x1="47.32" y1="94.97" x2="183.72" y2="94.97" xlink:href="#New_Gradient_Swatch_3"/><linearGradient id="New_Gradient_Swatch_3-117" x1="47.32" y1="64.51" x2="183.72" y2="64.51" xlink:href="#New_Gradient_Swatch_3"/><linearGradient id="New_Gradient_Swatch_3-118" x1="47.32" y1="48.11" x2="183.72" y2="48.11" xlink:href="#New_Gradient_Swatch_3"/><linearGradient id="New_Gradient_Swatch_3-119" x1="47.32" y1="56.31" x2="183.72" y2="56.31" xlink:href="#New_Gradient_Swatch_3"/><linearGradient id="New_Gradient_Swatch_3-120" x1="47.32" y1="23" x2="183.72" y2="23" xlink:href="#New_Gradient_Swatch_3"/><linearGradient id="New_Gradient_Swatch_3-121" x1="47.32" y1="37.04" x2="183.72" y2="37.04" xlink:href="#New_Gradient_Swatch_3"/><linearGradient id="New_Gradient_Swatch_3-122" x1="47.32" y1="106.93" x2="183.72" y2="106.93" xlink:href="#New_Gradient_Swatch_3"/><linearGradient id="New_Gradient_Swatch_3-123" x1="47.32" y1="112.48" x2="183.72" y2="112.48" xlink:href="#New_Gradient_Swatch_3"/><linearGradient id="New_Gradient_Swatch_3-124" x1="47.32" y1="114.89" x2="183.72" y2="114.89" xlink:href="#New_Gradient_Swatch_3"/><linearGradient id="New_Gradient_Swatch_3-125" x1="47.32" y1="110.47" x2="183.72" y2="110.47" xlink:href="#New_Gradient_Swatch_3"/></defs><title>photo-immigration-centralmap</title><rect width="230.88" height="138.37" style="fill:#c1e8f7"/><polygon points="56.94 22.63 57.81 23.35 57.98 23.69 57.81 23.35 56.94 22.63" style="fill:#c1e8f7"/><polygon points="60.05 21.9 56.44 22.2 56.44 22.2 57.22 22.14 60.05 21.9" style="fill:#c1e8f7"/><polygon points="76.78 17.25 76.81 17.01 76.78 17.25 66.7 17.09 76.77 17.25 76.78 17.25" style="fill:#c1e8f7"/><polygon points="65.41 30.49 64.62 30.44 65.41 30.49 66.41 31.06 66.43 31.66 66.41 31.06 65.41 30.49" style="fill:#c1e8f7"/><polygon points="61.26 27.11 61.26 27.11 60.84 26.84 59.78 26.14 58.89 25.02 59.78 26.14 61.26 27.11 62.29 27.11 62.52 27.52 62.29 27.11 61.26 27.11" style="fill:#c1e8f7"/><polygon points="65.68 33.15 66.44 32.27 66.44 32.27 65.51 33.34 58.92 33.38 65.51 33.34 65.68 33.15" style="fill:#c1e8f7"/><polygon points="77.92 15.22 77.92 15.22 78.36 15.25 79.25 15.3 79.25 15.3 77.92 15.22 77.52 15.5 77.92 15.22 77.92 15.22" style="fill:#c1e8f7"/><polygon points="83.95 11.11 83.95 11.11 83.95 11.11 83.95 11.11" style="fill:#c1e8f7"/><polygon points="80.11 15.81 80.11 15.81 80.21 15.79 80.81 15.64 80.9 15.31 80.81 15.64 80.11 15.81 79.94 16.04 80.11 15.81 80.11 15.81" style="fill:#c1e8f7"/><polygon points="79.33 16.01 79.33 16.01 79.29 15.58 79.3 15.67 79.33 16.01" style="fill:#c1e8f7"/><polygon points="48.82 46.87 48.14 47.41 48.82 46.87 48.82 46.87" style="fill:#c1e8f7"/><polygon points="143.84 109.3 143.84 109.3 144.28 111.69 145.03 113.21 144.28 111.69 143.84 109.3" style="fill:#1a8fe8"/><polygon points="141.26 99.72 141.26 99.72 141.56 99.47 141.26 99.72" style="fill:#1a8fe8"/><polygon points="139.53 107.86 138.73 107 138.73 107 139.53 107.86 139.42 108.54 140.17 108.75 139.42 108.54 139.53 107.86" style="fill:#1a8fe8"/><polygon points="136.15 107.93 134.57 107.67 133.27 107.8 133.27 107.8 134.57 107.67 136.15 107.93 137.85 107.63 138.25 107.34 137.85 107.63 136.15 107.93" style="fill:#1a8fe8"/><polygon points="145.77 114.26 146.92 114.94 147.56 114.91 146.92 114.94 145.77 114.26" style="fill:#1a8fe8"/><polygon points="148.89 114.04 149.03 113.76 149 113.73 149.03 113.76 148.89 114.04" style="fill:#1a8fe8"/><polygon points="150.64 113.56 150.48 114.07 150.82 115.47 150.48 114.07 150.64 113.56" style="fill:#1a8fe8"/><polygon points="150.82 116.43 150.61 117.3 151.21 118.32 150.61 117.3 150.82 116.43" style="fill:#1a8fe8"/><polygon points="148.73 112.53 149 112.09 149 112.09 148.73 112.53" style="fill:#1a8fe8"/><polygon points="149.28 112.13 150.23 112.28 150.59 112.77 150.23 112.28 149.28 112.13" style="fill:#1a8fe8"/><polygon points="139.35 98.91 139.35 98.91 138.63 98.98 138.63 98.98 139.35 98.91" style="fill:#1a8fe8"/><polygon points="141.81 99.26 141.81 99.26 143 99.82 141.81 99.26" style="fill:#1a8fe8"/><polygon points="138.87 100.05 139.34 100.8 140.01 101.14 139.34 100.8 138.87 100.05 139.23 99.69 139.86 99.49 139.86 99.49 139.23 99.69 138.87 100.05" style="fill:#1a8fe8"/><polygon points="137.08 98.18 136.48 97.55 136.35 97.18 136.48 97.55 137.08 98.18" style="fill:#1a8fe8"/><polygon points="142.34 101.33 142.34 100.38 141.39 99.8 142.34 100.38 142.34 101.33 140.87 101.58 140.87 101.59 142.34 101.33" style="fill:#1a8fe8"/><polygon points="175.07 97.59 173.83 97.29 175.07 97.59 175.07 97.59" style="fill:#1a8fe8"/><polygon points="153.43 100.8 159.1 97.92 161.91 97.25 164.51 95.37 164.51 95.37 161.91 97.25 159.1 97.92 153.43 100.8 151.76 102.39 150.15 102.59 151.76 102.39 153.43 100.8" style="fill:#1a8fe8"/><polygon points="178.95 99.86 178.95 99.86 179 99.92 178.95 99.86" style="fill:#1a8fe8"/><polygon points="182.22 103.52 182.49 103.77 182.22 103.52 180.95 102.8 180.84 102.48 180.95 102.8 182.22 103.52" style="fill:#1a8fe8"/><polygon points="162.25 103.92 161.98 103.71 162.08 102.82 161.98 103.71 162.25 103.92" style="fill:#1a8fe8"/><polygon points="174.51 113.12 173.74 110.72 174.51 113.12 176.59 116.01 177.86 117.16 176.59 116.01 174.51 113.12" style="fill:#1a8fe8"/><polygon points="170.05 102.53 168.38 100.89 167.21 100.25 167.21 100.25 168.38 100.89 170.05 102.53 171.29 102.76 171.29 102.76 170.05 102.53" style="fill:#1a8fe8"/><polygon points="162.62 105.01 162.62 105.01 162.57 105.05 162.62 105.01" style="fill:#1a8fe8"/><polygon points="177.27 105.49 177.44 105.96 177.27 105.49 177.27 105.49" style="fill:#1a8fe8"/><polygon points="174.98 109.23 174.47 110 174.47 110 174.98 109.23" style="fill:#1a8fe8"/><polygon points="177.45 107.03 176.95 107.56 176.4 107.63 176.95 107.56 177.45 107.03" style="fill:#1a8fe8"/><polygon points="153.82 118.72 153.82 118.72 151.21 118.32 153.82 118.72" style="fill:#1a8fe8"/><polygon points="163.3 101.34 164.97 100.45 165.93 100.36 164.97 100.45 163.3 101.34" style="fill:#1a8fe8"/><polygon points="155.26 109.87 155.95 111.38 157.51 112.49 158.94 113.76 158.81 115.64 157.87 115.94 156.19 115.67 155.56 116.33 156.19 115.67 157.87 115.94 158.81 115.64 158.94 113.76 157.51 112.49 155.95 111.38 155.26 109.87 155.57 108.84 156.19 108.51 155.57 108.84 155.26 109.87" style="fill:#1a8fe8"/><polygon points="171.79 103.44 172.9 104.92 173.24 105.84 172.9 104.91 171.79 103.44" style="fill:#1a8fe8"/><polygon points="179.71 114.94 179.71 114.94 179.77 114.94 179.77 114.94 179.71 114.94" style="fill:#1a8fe8"/><polygon points="178.5 117.74 179.44 115.56 178.5 117.74 178.5 117.74" style="fill:#1a8fe8"/><polygon points="104.86 89.9 104.93 90.23 104.86 89.9 104.86 89.9" style="fill:#662d91"/><polygon points="127.31 104 127.76 104.33 127.31 104 127.31 104" style="fill:#662d91"/><polygon points="130.48 108.71 130.02 108.45 130.48 108.71 130.97 109.01 131.51 109.61 130.97 109.01 130.48 108.71" style="fill:#662d91"/><polygon points="105.92 81.41 105.92 81.41 106.04 81.49 105.92 81.41 105.92 81.41" style="fill:#662d91"/><polygon points="117.94 96.42 119.75 97.45 121.36 98.92 119.75 97.45 117.94 96.42" style="fill:#662d91"/><polygon points="122.56 99.66 121.36 98.92 122.56 99.66 124.57 101.99 124.79 102.57 124.57 101.99 122.56 99.66" style="fill:#662d91"/><polygon points="128.24 105.59 128 105.47 128.24 105.59 128.24 105.59" style="fill:#662d91"/><polygon points="131.63 109.74 131.63 109.74 132.8 109.81 132.9 109.5 132.8 109.81 131.63 109.74" style="fill:#662d91"/><polygon points="115.12 92.02 115.21 93.11 116.02 93.67 115.21 93.11 115.12 92.02" style="fill:#662d91"/><polygon points="124.49 106.93 123.92 106.03 124.49 106.93 126.71 107.75 128.17 108.68 126.71 107.75 124.49 106.93" style="fill:#662d91"/><polygon points="128.17 108.68 128.91 108.27 128.99 107.62 128.91 108.27 128.17 108.68" style="fill:#662d91"/><polygon points="129.11 105.7 129.91 106.67 129.88 107.34 129.91 106.67 129.11 105.7" style="fill:#662d91"/><polygon points="105.59 83.63 104.99 84.16 105.53 84.63 105.53 84.63 104.99 84.16 105.59 83.63" style="fill:#662d91"/><polygon points="107.33 86.82 106.93 84.95 106.14 84.77 106.93 84.95 107.33 86.82 105.72 87.76 104.96 89.65 105.72 87.76 107.33 86.82" style="fill:#662d91"/><polygon points="113.41 96.38 114.48 94.51 114.48 94.51 113.41 96.38 113.41 96.38" style="fill:#662d91"/><polygon points="107.73 93.83 107.73 93.83 106.61 92.86 107.73 93.83" style="fill:#662d91"/><polygon points="111.74 89.43 111.3 89.8 111.74 89.43 113.34 90.7 114.21 91.14 113.34 90.7 111.74 89.43" style="fill:#662d91"/><polygon points="128.28 86.2 128.54 88.22 129.69 90.03 130.62 90.96 129.69 90.03 128.54 88.22 128.28 86.2 127.65 84.56 127.14 84.68 127.65 84.56 128.28 86.2" style="fill:#662d91"/><polygon points="133.13 94.66 133.83 94.87 133.13 94.66 132.13 93.42 132.06 93.22 132.13 93.42 133.13 94.66" style="fill:#662d91"/><polygon points="133.01 107.86 133.01 107.83 133.01 107.83 133.01 107.86" style="fill:#662d91"/><polygon points="126.68 85.05 126.51 85.62 126.51 85.62 126.68 85.05" style="fill:#662d91"/><polygon points="133.27 107.8 133.23 107.81 133.27 107.8 133.27 107.8 133.27 107.8" style="fill:#662d91"/><polygon points="94.84 70.53 94.84 69.39 93.61 68.57 94.84 69.39 94.84 70.53 97.51 72.93 99.84 76.13 97.51 72.93 94.84 70.53" style="fill:#00058b"/><polygon points="90.18 63.73 89.89 64.25 91.97 66.79 89.89 64.25 90.18 63.73" style="fill:#00058b"/><polygon points="99.84 76.13 104.12 80.81 104.41 80.85 104.12 80.81 99.84 76.13" style="fill:#00058b"/><polygon points="125.23 76 125.3 75.78 125.23 76 124.31 76.53 124.31 76.53 125.23 76" style="fill:#00058b"/><polygon points="92.63 64.11 92.7 63.1 92.7 63.1 92.63 64.11 91.9 64.25 90.63 63.8 91.9 64.25 92.63 64.11" style="fill:#00058b"/><polygon points="132.04 52.54 132.1 52.18 131.65 51.86 132.1 52.18 132.04 52.54" style="fill:#00058b"/><polygon points="128.25 57.95 128.44 57.98 128.25 57.95 128.25 57.95" style="fill:#00058b"/><polygon points="132.37 44.21 132.61 43.95 132.61 43.95 132.37 44.21" style="fill:#00058b"/><polygon points="131.16 51.23 131.1 50.75 131.31 50.28 131.1 50.75 131.16 51.23" style="fill:#00058b"/><polygon points="127.58 59.56 128.18 59.83 128.89 60.89 128.54 61.8 128.59 66.09 128.14 69.68 127.78 70.3 128.14 69.68 128.59 66.09 128.54 61.8 128.89 60.89 128.18 59.83 127.58 59.56 127.62 58.63 127.83 58.4 127.62 58.63 127.58 59.56" style="fill:#00058b"/><polygon points="125.04 84.86 125.1 84.77 125.97 84.22 125.97 84.22 125.1 84.77 125.04 84.86" style="fill:#00058b"/><polygon points="124.42 80.45 124.23 79.68 124.74 78.7 124.23 79.68 124.42 80.45" style="fill:#00058b"/><path d="M127.31,66.73l-.8-.2h0l.8.2-.34.73s0,.28,0,.6c0-.32,0-.6,0-.6Z" style="fill:#00058b"/><polygon points="105.49 81.12 105.92 81.41 105.92 81.41 105.49 81.12" style="fill:#00058b"/><polygon points="125.63 71.73 125.6 71.61 125.63 71.73 125.63 71.73" style="fill:#00058b"/><polygon points="127.41 70.92 127.41 70.92 127.34 70.91 127.41 70.92" style="fill:#00058b"/><polygon points="129.15 58.59 129.15 58.59 128.87 58.09 129.15 58.59" style="fill:#00058b"/><polygon points="126.03 74.07 126.03 74.07 125.97 76 126.03 74.07" style="fill:#00058b"/><polygon points="132.61 43.95 132.61 43.95 133.18 43.34 132.61 43.95 132.61 43.95" style="fill:#1a8fe8"/><polygon points="122.17 39.33 122.17 39.33 121.43 39.53 122.17 39.33" style="fill:#1a8fe8"/><polygon points="128.37 40.13 128.37 40.13 128.39 40.09 128.37 40.13" style="fill:#1a8fe8"/><polygon points="122.09 40.39 122.09 40.39 123.39 40.55 122.09 40.39" style="fill:#1a8fe8"/><polygon points="126.77 39.33 124.31 38.59 122.83 38.26 122.83 38.26 124.31 38.59 126.77 39.33 127.1 39.06 125.43 37.73 127.1 39.06 126.77 39.33" style="fill:#1a8fe8"/><polygon points="94.7 35.99 89.22 36.12 94.7 35.99 94.7 35.99" style="fill:#1a8fe8"/><polygon points="109.4 35.86 113.34 36.06 117.42 36.46 117.92 36.82 117.42 36.46 113.34 36.06 109.4 35.86 107.26 34.05 106.78 33.82 107.26 34.05 109.4 35.86" style="fill:#1a8fe8"/><polygon points="122.93 36.44 121.56 36.32 120.98 36.44 121.56 36.32 122.93 36.44" style="fill:#1a8fe8"/><polygon points="100.78 35.76 98.64 36.32 95.42 36.05 98.64 36.32 100.78 35.76" style="fill:#1a8fe8"/><polygon points="104.19 35.39 104.89 35.1 104.19 35.39 103.25 36.06 101.72 35.52 101.72 35.52 103.25 36.06 104.19 35.39" style="fill:#1a8fe8"/><polygon points="105.32 33.11 105.32 33.11 104.92 34.25 105.57 34.73 104.92 34.25 105.32 33.11" style="fill:#1a8fe8"/><polygon points="120.02 36.66 119.02 36.19 120.02 36.66 120.02 36.66" style="fill:#1a8fe8"/><polygon points="122.03 38.46 122.56 38.33 122.03 38.46 122.03 38.46" style="fill:#1a8fe8"/><polygon points="88.89 59.98 88.83 60.04 88.83 60.04 88.89 59.98 89.89 60.51 90.36 61.18 90.36 61.18 89.89 60.51 88.89 59.98" style="fill:#1a8fe8"/><polygon points="90.5 61.17 91.15 61.11 91.48 60.63 91.15 61.11 90.5 61.17" style="fill:#1a8fe8"/><polygon points="92.7 63.1 92.7 63.04 92.48 62.5 92.7 63.04 92.7 63.1 92.7 63.1 92.7 63.1" style="fill:#1a8fe8"/><polygon points="68.81 57.4 70.25 58.77 72.39 59.24 70.25 58.77 68.81 57.4" style="fill:#69bfff"/><polygon points="87.56 63.11 88.2 62.23 87.56 63.11 87.56 63.11" style="fill:#69bfff"/><polygon points="88.83 60.04 88.28 60.58 88.55 61.06 88.28 60.58 88.83 60.04 88.83 60.04 88.83 60.04" style="fill:#69bfff"/><polygon points="66.14 57.07 66.97 57.37 66.97 57.37 66.14 57.07 66.14 57.07" style="fill:#69bfff"/><polygon points="82.74 62.52 83.35 63.04 83.55 63.04 83.35 63.04 82.74 62.52" style="fill:#69bfff"/><polygon points="72.39 59.24 72.68 59.22 72.75 59.22 72.68 59.22 72.39 59.24" style="fill:#69bfff"/><polygon points="76.6 60.58 79.53 62.18 79.53 62.17 76.6 60.58 76.6 60.58" style="fill:#69bfff"/><polygon points="73.46 59.17 75.85 60.24 73.46 59.17 73.46 59.17" style="fill:#69bfff"/><polygon points="83.95 11.11 83.95 11.11 83.65 11.22 83.95 11.11" style="fill:#00058b"/><polygon points="77.92 15.22 77.92 15.22 78.36 15.25 77.92 15.22" style="fill:#00058b"/><polygon points="80.21 15.79 80.81 15.64 80.91 15.25 81.28 14.75 80.91 15.25 80.9 15.31 80.81 15.64 80.21 15.79" style="fill:#00058b"/><polygon points="79.3 15.67 79.33 16.01 79.33 16.01 79.33 16.01 79.33 16.01 79.3 15.67" style="fill:#00058b"/><polygon points="80.11 15.81 80.11 15.81 79.94 16.04 79.9 16.1 80.11 15.81" style="fill:#00058b"/><polygon points="82.88 32.32 82.84 32.28 82.88 32.32 85.48 28.7 86.02 27.27 85.48 28.7 82.88 32.32" style="fill:#00058b"/><polygon points="76.78 17.25 76.84 16.72 76.81 17.01 76.78 17.25 76.78 17.25" style="fill:#00058b"/><polygon points="82.45 12.26 82.28 12.9 82.45 12.26 82.45 12.26" style="fill:#00058b"/><polygon points="86.49 23.09 86.47 24.14 86.49 23.09 85.48 22.09 85.65 20.98 85.48 22.09 86.49 23.09" style="fill:#00058b"/><polygon points="87.22 11.14 87.23 11.2 87.22 11.14 86.02 11.14 85.3 11.8 86.02 11.14 87.22 11.14" style="fill:#00058b"/><polygon points="81.52 31.82 81.87 31.44 81.87 31.44 81.52 31.82" style="fill:#00058b"/><polygon points="86.89 17.68 86.45 18.42 86.89 17.68 87.16 13.14 87.22 12.89 87.16 13.14 86.89 17.68" style="fill:#00058b"/><polygon points="85.08 12 84.9 11.65 85.08 12 85.08 12" style="fill:#00058b"/><polygon points="82.84 11.51 82.56 12.05 82.84 11.51 82.84 11.51" style="fill:#00058b"/><polygon points="48.1 42.19 51.85 36.26 48.1 42.19 48.19 42.96 48.1 42.19" style="fill:#662d91"/><polygon points="47.54 48.61 47.63 48.53 47.88 47.83 47.63 48.53 47.54 48.61" style="fill:#662d91"/><polygon points="51.35 52.62 50.48 52.54 51.35 52.62 52.61 54.16 57.49 56.03 52.61 54.16 51.35 52.62" style="fill:#662d91"/><polygon points="66.14 57.07 62.58 55.83 60.37 56.1 57.49 56.03 60.37 56.1 62.57 55.83 66.14 57.07 66.14 57.07 66.14 57.07" style="fill:#662d91"/><polygon points="66.41 31.06 65.41 30.49 64.53 30.44 64.62 30.44 65.41 30.49 66.41 31.06" style="fill:#662d91"/><polygon points="49.94 52.49 49.94 52.49 48.8 50.62 49.94 52.49" style="fill:#662d91"/><polygon points="65.68 33.15 66.44 32.27 66.41 31.06 66.43 31.66 66.44 32.27 66.44 32.27 66.44 32.27 65.68 33.15" style="fill:#662d91"/><polygon points="60.84 26.84 59.78 26.14 58.31 24.3 57.81 23.35 56.44 22.2 57.22 22.14 56.44 22.2 56.94 22.63 57.81 23.35 57.98 23.69 58.31 24.3 58.89 25.02 59.78 26.14 60.84 26.84" style="fill:#662d91"/><polygon points="81.35 35.86 81.35 35.86 80.01 35.86 80.01 35.86 81.35 35.86" style="fill:#662d91"/><polygon points="82.82 36.86 82.56 36.69 82.82 36.86 82.82 36.86" style="fill:#662d91"/><polygon points="83.28 35.72 83.02 36.35 83.28 35.72 83.28 35.72" style="fill:#662d91"/><polygon points="47.32 48.79 48.8 50.62 47.32 48.79 47.32 48.79" style="fill:#662d91"/><polygon points="60.53 19.01 60.68 17 60.68 17 60.53 19.01" style="fill:#662d91"/><polygon points="81.87 31.44 82.84 32.28 81.87 31.44 81.87 31.44" style="fill:#c1e8f7"/><polygon points="81.87 31.44 82.84 32.28 81.87 31.44 81.87 31.44" style="opacity:0.75;fill:url(#New_Gradient_Swatch_3)"/><polygon points="120.98 36.44 120.02 36.66 120.02 36.66 120.98 36.44" style="fill:#c1e8f7"/><polygon points="120.98 36.44 120.02 36.66 120.02 36.66 120.98 36.44" style="opacity:0.75;fill:url(#New_Gradient_Swatch_3-2)"/><polygon points="178.95 99.86 175.07 97.59 175.07 97.59 178.95 99.86 178.95 99.86" style="fill:#c1e8f7"/><polygon points="178.95 99.86 175.07 97.59 175.07 97.59 178.95 99.86 178.95 99.86" style="opacity:0.75;fill:url(#New_Gradient_Swatch_3-3)"/><polygon points="122.56 38.33 122.83 38.26 122.83 38.26 122.56 38.33" style="fill:#c1e8f7"/><polygon points="122.56 38.33 122.83 38.26 122.83 38.26 122.56 38.33" style="opacity:0.75;fill:url(#New_Gradient_Swatch_3-4)"/><polygon points="122.17 39.33 122.17 39.33 122.03 38.46 122.03 38.46 122.17 39.33" style="fill:#c1e8f7"/><polygon points="122.17 39.33 122.17 39.33 122.03 38.46 122.03 38.46 122.17 39.33" style="opacity:0.75;fill:url(#New_Gradient_Swatch_3-5)"/><polygon points="127.41 70.92 127.78 70.3 127.41 70.92 127.41 70.92" style="fill:#c1e8f7"/><polygon points="127.41 70.92 127.78 70.3 127.41 70.92 127.41 70.92" style="opacity:0.75;fill:url(#New_Gradient_Swatch_3-6)"/><polygon points="125.43 37.73 123.17 36.46 122.93 36.44 123.17 36.46 125.43 37.73" style="fill:#c1e8f7"/><polygon points="125.43 37.73 123.17 36.46 122.93 36.44 123.17 36.46 125.43 37.73" style="opacity:0.75;fill:url(#New_Gradient_Swatch_3-7)"/><polygon points="90.36 61.18 90.5 61.17 90.36 61.18 90.36 61.18" style="fill:#c1e8f7"/><polygon points="90.36 61.18 90.5 61.17 90.36 61.18 90.36 61.18" style="opacity:0.75;fill:url(#New_Gradient_Swatch_3-8)"/><polygon points="85.69 36.52 86.82 37.45 85.69 36.52 84.95 35.92 83.28 35.72 83.28 35.72 84.95 35.92 85.69 36.52" style="fill:#c1e8f7"/><polygon points="85.69 36.52 86.82 37.45 85.69 36.52 84.95 35.92 83.28 35.72 83.28 35.72 84.95 35.92 85.69 36.52" style="opacity:0.75;fill:url(#New_Gradient_Swatch_3-9)"/><polygon points="83.02 36.35 82.82 36.86 82.82 36.86 83.02 36.35" style="fill:#c1e8f7"/><polygon points="83.02 36.35 82.82 36.86 82.82 36.86 83.02 36.35" style="opacity:0.75;fill:url(#New_Gradient_Swatch_3-10)"/><polygon points="119.02 36.19 118.62 37.33 117.92 36.82 118.62 37.33 119.02 36.19" style="fill:#c1e8f7"/><polygon points="119.02 36.19 118.62 37.33 117.92 36.82 118.62 37.33 119.02 36.19" style="opacity:0.75;fill:url(#New_Gradient_Swatch_3-11)"/><polygon points="80.11 15.81 80.11 15.81 80.21 15.79 80.11 15.81" style="fill:#c1e8f7"/><polygon points="80.11 15.81 80.11 15.81 80.21 15.79 80.11 15.81" style="opacity:0.75;fill:url(#New_Gradient_Swatch_3-12)"/><polygon points="172.79 97.05 172.79 97.05 173.83 97.29 172.79 97.05" style="fill:#c1e8f7"/><polygon points="172.79 97.05 172.79 97.05 173.83 97.29 172.79 97.05" style="opacity:0.75;fill:url(#New_Gradient_Swatch_3-13)"/><polygon points="79.41 34.79 79.42 34.81 80.01 35.86 80.01 35.86 79.42 34.81 79.41 34.79 80.14 33.25 81.52 31.82 80.14 33.25 79.41 34.79" style="fill:#c1e8f7"/><polygon points="79.41 34.79 79.42 34.81 80.01 35.86 80.01 35.86 79.42 34.81 79.41 34.79 80.14 33.25 81.52 31.82 80.14 33.25 79.41 34.79" style="opacity:0.75;fill:url(#New_Gradient_Swatch_3-14)"/><polygon points="141.81 99.26 141.56 99.47 141.81 99.26 141.81 99.26" style="fill:#c1e8f7"/><polygon points="141.81 99.26 141.56 99.47 141.81 99.26 141.81 99.26" style="opacity:0.75;fill:url(#New_Gradient_Swatch_3-15)"/><polygon points="141.26 99.72 141.39 99.8 141.26 99.72 141.26 99.72" style="fill:#c1e8f7"/><polygon points="141.26 99.72 141.39 99.8 141.26 99.72 141.26 99.72" style="opacity:0.75;fill:url(#New_Gradient_Swatch_3-16)"/><polygon points="139.86 99.49 139.35 98.91 139.35 98.91 139.86 99.49 139.86 99.49" style="fill:#c1e8f7"/><polygon points="139.86 99.49 139.35 98.91 139.35 98.91 139.86 99.49 139.86 99.49" style="opacity:0.75;fill:url(#New_Gradient_Swatch_3-17)"/><polygon points="105.57 34.73 105.65 34.79 104.89 35.1 105.66 34.79 105.57 34.73" style="fill:#c1e8f7"/><polygon points="105.57 34.73 105.65 34.79 104.89 35.1 105.66 34.79 105.57 34.73" style="opacity:0.75;fill:url(#New_Gradient_Swatch_3-18)"/><polygon points="101.72 35.52 100.78 35.76 101.72 35.52 101.72 35.52" style="fill:#c1e8f7"/><polygon points="101.72 35.52 100.78 35.76 101.72 35.52 101.72 35.52" style="opacity:0.75;fill:url(#New_Gradient_Swatch_3-19)"/><polygon points="124.57 85.62 124.57 85.62 124.98 84.95 125.04 84.86 124.98 84.95 124.57 85.62" style="fill:#c1e8f7"/><polygon points="124.57 85.62 124.57 85.62 124.98 84.95 125.04 84.86 124.98 84.95 124.57 85.62" style="opacity:0.75;fill:url(#New_Gradient_Swatch_3-20)"/><polygon points="131.63 109.74 131.63 109.74 131.51 109.61 131.63 109.74" style="fill:#c1e8f7"/><polygon points="131.63 109.74 131.63 109.74 131.51 109.61 131.63 109.74" style="opacity:0.75;fill:url(#New_Gradient_Swatch_3-21)"/><polygon points="124.31 75.2 124.31 76.53 124.31 76.53 124.31 75.2 124.77 73.73 125.63 71.73 125.63 71.73 124.77 73.73 124.31 75.2" style="fill:#c1e8f7"/><polygon points="124.31 75.2 124.31 76.53 124.31 76.53 124.31 75.2 124.77 73.73 125.63 71.73 125.63 71.73 124.77 73.73 124.31 75.2" style="opacity:0.75;fill:url(#New_Gradient_Swatch_3-22)"/><polygon points="127.14 84.68 126.77 84.77 126.68 85.05 126.77 84.77 127.14 84.68" style="fill:#c1e8f7"/><polygon points="127.14 84.68 126.77 84.77 126.68 85.05 126.77 84.77 127.14 84.68" style="opacity:0.75;fill:url(#New_Gradient_Swatch_3-23)"/><polygon points="94.7 35.99 94.7 35.99 95.42 36.05 94.7 35.99" style="fill:#c1e8f7"/><polygon points="94.7 35.99 94.7 35.99 95.42 36.05 94.7 35.99" style="opacity:0.75;fill:url(#New_Gradient_Swatch_3-24)"/><polygon points="126.03 74.07 126.03 74.07 125.5 75.14 125.3 75.78 125.5 75.14 126.03 74.07" style="fill:#c1e8f7"/><polygon points="126.03 74.07 126.03 74.07 125.5 75.14 125.3 75.78 125.5 75.14 126.03 74.07" style="opacity:0.75;fill:url(#New_Gradient_Swatch_3-25)"/><polygon points="125.7 82.83 125.97 84.22 125.97 84.22 125.7 82.83 124.69 81.61 124.42 80.45 124.69 81.61 125.7 82.83" style="fill:#c1e8f7"/><polygon points="125.7 82.83 125.97 84.22 125.97 84.22 125.7 82.83 124.69 81.61 124.42 80.45 124.69 81.61 125.7 82.83" style="opacity:0.75;fill:url(#New_Gradient_Swatch_3-26)"/><polygon points="124.74 78.7 125.37 77.48 125.97 76 125.37 77.48 124.74 78.7" style="fill:#c1e8f7"/><polygon points="124.74 78.7 125.37 77.48 125.97 76 125.37 77.48 124.74 78.7" style="opacity:0.75;fill:url(#New_Gradient_Swatch_3-27)"/><polygon points="112.54 96.38 112.54 96.38 111.66 94.85 112.54 96.38" style="fill:#c1e8f7"/><polygon points="112.54 96.38 112.54 96.38 111.66 94.85 112.54 96.38" style="opacity:0.75;fill:url(#New_Gradient_Swatch_3-28)"/><polygon points="132.06 93.22 131.56 91.91 130.62 90.96 131.56 91.91 132.06 93.22" style="fill:#c1e8f7"/><polygon points="132.06 93.22 131.56 91.91 130.62 90.96 131.56 91.91 132.06 93.22" style="opacity:0.75;fill:url(#New_Gradient_Swatch_3-29)"/><polygon points="166.85 95.86 167.39 96.73 168.72 97.05 168.72 97.05 167.39 96.73 166.85 95.86 165.45 95.25 164.51 95.37 164.51 95.37 165.45 95.25 166.85 95.86" style="fill:#c1e8f7"/><polygon points="166.85 95.86 167.39 96.73 168.72 97.05 168.72 97.05 167.39 96.73 166.85 95.86 165.45 95.25 164.51 95.37 164.51 95.37 165.45 95.25 166.85 95.86" style="opacity:0.75;fill:url(#New_Gradient_Swatch_3-30)"/><polygon points="180.84 102.48 180.62 101.8 179 99.92 180.62 101.8 180.84 102.48" style="fill:#c1e8f7"/><polygon points="180.84 102.48 180.62 101.8 179 99.92 180.62 101.8 180.84 102.48" style="opacity:0.75;fill:url(#New_Gradient_Swatch_3-31)"/><polygon points="147.14 102.45 150.15 102.59 147.14 102.45 143.94 100.25 143 99.82 143.93 100.25 147.14 102.45" style="fill:#c1e8f7"/><polygon points="147.14 102.45 150.15 102.59 147.14 102.45 143.94 100.25 143 99.82 143.93 100.25 147.14 102.45" style="opacity:0.75;fill:url(#New_Gradient_Swatch_3-32)"/><polygon points="140.87 101.58 140.01 101.14 140.87 101.59 140.87 101.58" style="fill:#c1e8f7"/><polygon points="140.87 101.58 140.01 101.14 140.87 101.59 140.87 101.58" style="opacity:0.75;fill:url(#New_Gradient_Swatch_3-33)"/><polygon points="105.32 33.11 105.32 33.11 106.78 33.82 105.32 33.11" style="fill:#c1e8f7"/><polygon points="105.32 33.11 105.32 33.11 106.78 33.82 105.32 33.11" style="opacity:0.75;fill:url(#New_Gradient_Swatch_3-34)"/><polygon points="138.63 98.98 138.63 98.98 137.49 98.61 137.08 98.18 137.49 98.61 138.63 98.98" style="fill:#c1e8f7"/><polygon points="138.63 98.98 138.63 98.98 137.49 98.61 137.08 98.18 137.49 98.61 138.63 98.98" style="opacity:0.75;fill:url(#New_Gradient_Swatch_3-35)"/><polygon points="135.95 96.06 136.11 96.51 136.35 97.18 136.11 96.51 135.95 96.06 134.61 95.09 133.83 94.87 134.61 95.09 135.95 96.06" style="fill:#c1e8f7"/><polygon points="135.95 96.06 136.11 96.51 136.35 97.18 136.11 96.51 135.95 96.06 134.61 95.09 133.83 94.87 134.61 95.09 135.95 96.06" style="opacity:0.75;fill:url(#New_Gradient_Swatch_3-36)"/><polygon points="120.56 40.39 120.56 40.39 120.96 39.67 121.43 39.53 120.96 39.67 120.56 40.39" style="fill:#c1e8f7"/><polygon points="120.56 40.39 120.56 40.39 120.96 39.67 121.43 39.53 120.96 39.67 120.56 40.39" style="opacity:0.75;fill:url(#New_Gradient_Swatch_3-37)"/><polygon points="104.86 89.9 104.86 89.9 104.96 89.65 104.86 89.9" style="fill:#c1e8f7"/><polygon points="104.86 89.9 104.86 89.9 104.96 89.65 104.86 89.9" style="opacity:0.75;fill:url(#New_Gradient_Swatch_3-38)"/><polygon points="87.56 63.11 87.56 63.11 83.55 63.04 87.56 63.11" style="fill:#c1e8f7"/><polygon points="87.56 63.11 87.56 63.11 83.55 63.04 87.56 63.11" style="opacity:0.75;fill:url(#New_Gradient_Swatch_3-39)"/><polygon points="130.51 40.67 128.5 39.79 128.39 40.09 128.5 39.79 130.51 40.67" style="fill:#c1e8f7"/><polygon points="130.51 40.67 128.5 39.79 128.39 40.09 128.5 39.79 130.51 40.67" style="opacity:0.75;fill:url(#New_Gradient_Swatch_3-40)"/><polygon points="131.52 45.54 131.37 48.01 131.65 49.55 131.31 50.28 131.65 49.55 131.37 48.01 131.52 45.54 132.05 44.55 132.37 44.21 132.05 44.55 131.52 45.54" style="fill:#c1e8f7"/><polygon points="131.52 45.54 131.37 48.01 131.65 49.55 131.31 50.28 131.65 49.55 131.37 48.01 131.52 45.54 132.05 44.55 132.37 44.21 132.05 44.55 131.52 45.54" style="opacity:0.75;fill:url(#New_Gradient_Swatch_3-41)"/><polygon points="133.18 43.34 132.65 42.41 130.51 40.67 132.65 42.41 133.18 43.34" style="fill:#c1e8f7"/><polygon points="133.18 43.34 132.65 42.41 130.51 40.67 132.65 42.41 133.18 43.34" style="opacity:0.75;fill:url(#New_Gradient_Swatch_3-42)"/><polygon points="125.6 71.61 125.37 70.53 125.43 69.27 125.37 70.53 125.6 71.61" style="fill:#c1e8f7"/><polygon points="125.6 71.61 125.37 70.53 125.43 69.27 125.37 70.53 125.6 71.61" style="opacity:0.75;fill:url(#New_Gradient_Swatch_3-43)"/><polygon points="124.77 41.33 127.17 41.59 129.17 41.66 128.37 40.13 128.37 40.13 129.17 41.66 127.17 41.59 124.77 41.33 123.83 40.6 123.39 40.55 123.83 40.6 124.77 41.33" style="fill:#c1e8f7"/><polygon points="124.77 41.33 127.17 41.59 129.17 41.66 128.37 40.13 128.37 40.13 129.17 41.66 127.17 41.59 124.77 41.33 123.83 40.6 123.39 40.55 123.83 40.6 124.77 41.33" style="opacity:0.75;fill:url(#New_Gradient_Swatch_3-44)"/><polygon points="178.5 117.74 178.5 117.74 177.86 117.16 178.5 117.74" style="fill:#c1e8f7"/><polygon points="178.5 117.74 178.5 117.74 177.86 117.16 178.5 117.74" style="opacity:0.75;fill:url(#New_Gradient_Swatch_3-45)"/><polygon points="105.53 84.63 106.14 84.77 105.53 84.63 105.53 84.63" style="fill:#c1e8f7"/><polygon points="105.53 84.63 106.14 84.77 105.53 84.63 105.53 84.63" style="opacity:0.75;fill:url(#New_Gradient_Swatch_3-46)"/><polygon points="81.35 35.86 81.35 35.86 82.56 36.69 81.35 35.86" style="fill:#c1e8f7"/><polygon points="81.35 35.86 81.35 35.86 82.56 36.69 81.35 35.86" style="opacity:0.75;fill:url(#New_Gradient_Swatch_3-47)"/><path d="M126.91,68.93c0-.17,0-.54,0-.87,0,.33,0,.7,0,.87v1.94l.43,0-.43,0Z" style="fill:#c1e8f7"/><path d="M126.91,68.93c0-.17,0-.54,0-.87,0,.33,0,.7,0,.87v1.94l.43,0-.43,0Z" style="opacity:0.75;fill:url(#New_Gradient_Swatch_3-48)"/><polygon points="125.43 69.27 126.51 66.53 126.51 66.53 125.43 69.27" style="fill:#c1e8f7"/><polygon points="125.43 69.27 126.51 66.53 126.51 66.53 125.43 69.27" style="opacity:0.75;fill:url(#New_Gradient_Swatch_3-49)"/><polygon points="127.83 58.4 128.25 57.95 128.25 57.95 127.83 58.4" style="fill:#c1e8f7"/><polygon points="127.83 58.4 128.25 57.95 128.25 57.95 127.83 58.4" style="opacity:0.75;fill:url(#New_Gradient_Swatch_3-50)"/><polygon points="131.65 51.86 131.19 51.54 131.16 51.23 131.19 51.54 131.65 51.86" style="fill:#c1e8f7"/><polygon points="131.65 51.86 131.19 51.54 131.16 51.23 131.19 51.54 131.65 51.86" style="opacity:0.75;fill:url(#New_Gradient_Swatch_3-51)"/><polygon points="49.94 52.49 50.48 52.54 49.94 52.49 49.94 52.49" style="fill:#c1e8f7"/><polygon points="49.94 52.49 50.48 52.54 49.94 52.49 49.94 52.49" style="opacity:0.75;fill:url(#New_Gradient_Swatch_3-52)"/><polygon points="128.44 57.98 128.83 58.02 128.87 58.09 128.83 58.02 128.44 57.98" style="fill:#c1e8f7"/><polygon points="128.44 57.98 128.83 58.02 128.87 58.09 128.83 58.02 128.44 57.98" style="opacity:0.75;fill:url(#New_Gradient_Swatch_3-53)"/><polygon points="131.22 54.36 129.72 56.27 129.15 58.59 129.15 58.59 129.72 56.27 131.22 54.36 131.93 53.12 132.04 52.54 131.93 53.12 131.22 54.36" style="fill:#c1e8f7"/><polygon points="131.22 54.36 129.72 56.27 129.15 58.59 129.15 58.59 129.72 56.27 131.22 54.36 131.93 53.12 132.04 52.54 131.93 53.12 131.22 54.36" style="opacity:0.75;fill:url(#New_Gradient_Swatch_3-54)"/><polygon points="88.2 62.23 88.76 61.45 88.55 61.06 88.76 61.45 88.2 62.23" style="fill:#c1e8f7"/><polygon points="88.2 62.23 88.76 61.45 88.55 61.06 88.76 61.45 88.2 62.23" style="opacity:0.75;fill:url(#New_Gradient_Swatch_3-55)"/><polygon points="48.44 44.16 48.44 44.16 48.36 44.63 48.44 44.16" style="fill:#c1e8f7"/><polygon points="48.44 44.16 48.44 44.16 48.36 44.63 48.44 44.16" style="opacity:0.75;fill:url(#New_Gradient_Swatch_3-56)"/><polygon points="107.73 93.83 107.73 93.83 110.2 93.91 111.66 94.85 110.2 93.91 107.73 93.83" style="fill:#c1e8f7"/><polygon points="107.73 93.83 107.73 93.83 110.2 93.91 111.66 94.85 110.2 93.91 107.73 93.83" style="opacity:0.75;fill:url(#New_Gradient_Swatch_3-57)"/><polygon points="111.54 91.1 114.01 92.91 114.48 94.51 114.48 94.51 114.01 92.91 111.54 91.1 110.94 90.1 111.3 89.8 110.94 90.1 111.54 91.1" style="fill:#c1e8f7"/><polygon points="111.54 91.1 114.01 92.91 114.48 94.51 114.48 94.51 114.01 92.91 111.54 91.1 110.94 90.1 111.3 89.8 110.94 90.1 111.54 91.1" style="opacity:0.75;fill:url(#New_Gradient_Swatch_3-58)"/><polygon points="104.93 90.23 105.26 91.7 106.61 92.86 105.26 91.7 104.93 90.23" style="fill:#c1e8f7"/><polygon points="104.93 90.23 105.26 91.7 106.61 92.86 105.26 91.7 104.93 90.23" style="opacity:0.75;fill:url(#New_Gradient_Swatch_3-59)"/><polygon points="106.04 81.49 106.13 81.55 105.59 83.63 106.13 81.55 106.04 81.49" style="fill:#c1e8f7"/><polygon points="106.04 81.49 106.13 81.55 105.59 83.63 106.13 81.55 106.04 81.49" style="opacity:0.75;fill:url(#New_Gradient_Swatch_3-60)"/><polygon points="117.01 94.37 116.02 93.67 117.01 94.37 117.62 96.24 117.94 96.42 117.62 96.24 117.01 94.37" style="fill:#c1e8f7"/><polygon points="117.01 94.37 116.02 93.67 117.01 94.37 117.62 96.24 117.94 96.42 117.62 96.24 117.01 94.37" style="opacity:0.75;fill:url(#New_Gradient_Swatch_3-61)"/><polygon points="104.41 80.85 105.26 80.95 105.49 81.12 105.26 80.95 104.41 80.85" style="fill:#c1e8f7"/><polygon points="104.41 80.85 105.26 80.95 105.49 81.12 105.26 80.95 104.41 80.85" style="opacity:0.75;fill:url(#New_Gradient_Swatch_3-62)"/><polygon points="127.76 104.33 128.3 104.73 129.11 105.7 128.3 104.73 127.76 104.33" style="fill:#c1e8f7"/><polygon points="127.76 104.33 128.3 104.73 129.11 105.7 128.3 104.73 127.76 104.33" style="opacity:0.75;fill:url(#New_Gradient_Swatch_3-63)"/><polygon points="126.63 104.47 126.63 104.8 128 105.47 126.63 104.8 126.63 104.47 127.31 104 127.31 104 126.63 104.47" style="fill:#c1e8f7"/><polygon points="126.63 104.47 126.63 104.8 128 105.47 126.63 104.8 126.63 104.47 127.31 104 127.31 104 126.63 104.47" style="opacity:0.75;fill:url(#New_Gradient_Swatch_3-64)"/><polygon points="128.99 107.62 129.11 106.73 128.24 105.59 128.24 105.59 129.11 106.73 128.99 107.62" style="fill:#c1e8f7"/><polygon points="128.99 107.62 129.11 106.73 128.24 105.59 128.24 105.59 129.11 106.73 128.99 107.62" style="opacity:0.75;fill:url(#New_Gradient_Swatch_3-65)"/><polygon points="123.69 104.4 124.9 102.86 124.79 102.57 124.9 102.86 123.69 104.4 123.69 105.66 123.92 106.03 123.69 105.66 123.69 104.4" style="fill:#c1e8f7"/><polygon points="123.69 104.4 124.9 102.86 124.79 102.57 124.9 102.86 123.69 104.4 123.69 105.66 123.92 106.03 123.69 105.66 123.69 104.4" style="opacity:0.75;fill:url(#New_Gradient_Swatch_3-66)"/><polygon points="75.85 60.24 76.6 60.58 76.6 60.58 75.85 60.24" style="fill:#c1e8f7"/><polygon points="75.85 60.24 76.6 60.58 76.6 60.58 75.85 60.24" style="opacity:0.75;fill:url(#New_Gradient_Swatch_3-67)"/><polygon points="72.75 59.22 73.46 59.17 73.46 59.17 72.75 59.22" style="fill:#c1e8f7"/><polygon points="72.75 59.22 73.46 59.17 73.46 59.17 72.75 59.22" style="opacity:0.75;fill:url(#New_Gradient_Swatch_3-68)"/><polygon points="66.97 57.37 66.97 57.37 68.78 57.37 68.81 57.4 68.78 57.37 66.97 57.37" style="fill:#c1e8f7"/><polygon points="66.97 57.37 66.97 57.37 68.78 57.37 68.81 57.4 68.78 57.37 66.97 57.37" style="opacity:0.75;fill:url(#New_Gradient_Swatch_3-69)"/><polygon points="48.92 46.07 48.92 46.07 48.67 45.83 48.65 45.79 48.67 45.83 48.92 46.07" style="fill:#c1e8f7"/><polygon points="48.92 46.07 48.92 46.07 48.67 45.83 48.65 45.79 48.67 45.83 48.92 46.07" style="opacity:0.75;fill:url(#New_Gradient_Swatch_3-70)"/><polygon points="129.88 107.34 129.84 108.35 130.02 108.45 129.84 108.35 129.88 107.34" style="fill:#c1e8f7"/><polygon points="129.88 107.34 129.84 108.35 130.02 108.45 129.84 108.35 129.88 107.34" style="opacity:0.75;fill:url(#New_Gradient_Swatch_3-71)"/><polygon points="47.99 47.52 48.82 46.87 48.82 46.87 48.82 46.87 48.82 46.87 48.14 47.41 47.99 47.52 47.99 47.52" style="fill:#c1e8f7"/><polygon points="47.99 47.52 48.82 46.87 48.82 46.87 48.82 46.87 48.82 46.87 48.14 47.41 47.99 47.52 47.99 47.52" style="opacity:0.75;fill:url(#New_Gradient_Swatch_3-72)"/><polygon points="80.94 60.3 79.27 60.24 80.94 60.3 82.34 62.18 82.74 62.52 82.34 62.18 80.94 60.3" style="fill:#c1e8f7"/><polygon points="80.94 60.3 79.27 60.24 80.94 60.3 82.34 62.18 82.74 62.52 82.34 62.18 80.94 60.3" style="opacity:0.75;fill:url(#New_Gradient_Swatch_3-73)"/><polygon points="92.3 60.9 91.56 60.51 91.48 60.63 91.56 60.51 92.3 60.9 92.3 62.04 92.48 62.5 92.3 62.04 92.3 60.9" style="fill:#c1e8f7"/><polygon points="92.3 60.9 91.56 60.51 91.48 60.63 91.56 60.51 92.3 60.9 92.3 62.04 92.48 62.5 92.3 62.04 92.3 60.9" style="opacity:0.75;fill:url(#New_Gradient_Swatch_3-74)"/><polygon points="90.63 63.8 90.22 63.65 90.18 63.73 90.22 63.65 90.63 63.8" style="fill:#c1e8f7"/><polygon points="90.63 63.8 90.22 63.65 90.18 63.73 90.22 63.65 90.63 63.8" style="opacity:0.75;fill:url(#New_Gradient_Swatch_3-75)"/><polygon points="79.94 61.38 79.53 62.17 79.53 62.18 79.94 61.38 78.61 60.64 79.27 60.24 78.61 60.64 79.94 61.38" style="fill:#c1e8f7"/><polygon points="79.94 61.38 79.53 62.17 79.53 62.18 79.94 61.38 78.61 60.64 79.27 60.24 78.61 60.64 79.94 61.38" style="opacity:0.75;fill:url(#New_Gradient_Swatch_3-76)"/><polygon points="91.97 66.79 93.23 68.33 93.61 68.57 93.23 68.33 91.97 66.79" style="fill:#c1e8f7"/><polygon points="91.97 66.79 93.23 68.33 93.61 68.57 93.23 68.33 91.97 66.79" style="opacity:0.75;fill:url(#New_Gradient_Swatch_3-77)"/><polygon points="114.21 91.14 115.08 91.57 115.12 92.02 115.08 91.57 114.21 91.14" style="fill:#c1e8f7"/><polygon points="114.21 91.14 115.08 91.57 115.12 92.02 115.08 91.57 114.21 91.14" style="opacity:0.75;fill:url(#New_Gradient_Swatch_3-78)"/><polygon points="171.29 102.76 171.79 103.44 171.29 102.76 171.29 102.76" style="fill:#c1e8f7"/><polygon points="171.29 102.76 171.79 103.44 171.29 102.76 171.29 102.76" style="opacity:0.75;fill:url(#New_Gradient_Swatch_3-79)"/><polygon points="176.28 105.52 175.07 106.93 174.51 107.4 173.53 106.63 173.24 105.84 173.53 106.63 174.51 107.4 175.07 106.93 176.28 105.52 177.27 105.49 177.27 105.49 176.28 105.52" style="fill:#c1e8f7"/><polygon points="176.28 105.52 175.07 106.93 174.51 107.4 173.53 106.63 173.24 105.84 173.53 106.63 174.51 107.4 175.07 106.93 176.28 105.52 177.27 105.49 177.27 105.49 176.28 105.52" style="opacity:0.75;fill:url(#New_Gradient_Swatch_3-80)"/><polygon points="165.93 100.36 167.21 100.25 167.21 100.25 165.93 100.36" style="fill:#c1e8f7"/><polygon points="165.93 100.36 167.21 100.25 167.21 100.25 165.93 100.36" style="opacity:0.75;fill:url(#New_Gradient_Swatch_3-81)"/><polygon points="162.62 105.01 162.62 105.01 162.53 104.14 162.25 103.92 162.53 104.14 162.62 105.01" style="fill:#c1e8f7"/><polygon points="162.62 105.01 162.62 105.01 162.53 104.14 162.25 103.92 162.53 104.14 162.62 105.01" style="opacity:0.75;fill:url(#New_Gradient_Swatch_3-82)"/><polygon points="132.9 109.5 133.1 108.9 133.01 107.86 133.1 108.9 132.9 109.5" style="fill:#c1e8f7"/><polygon points="132.9 109.5 133.1 108.9 133.01 107.86 133.1 108.9 132.9 109.5" style="opacity:0.75;fill:url(#New_Gradient_Swatch_3-83)"/><polygon points="174.47 110 173.74 110.72 174.47 110 174.47 110" style="fill:#c1e8f7"/><polygon points="174.47 110 173.74 110.72 174.47 110 174.47 110" style="opacity:0.75;fill:url(#New_Gradient_Swatch_3-84)"/><polygon points="177.44 105.96 177.72 106.76 177.45 107.03 177.72 106.76 177.44 105.96" style="fill:#c1e8f7"/><polygon points="177.44 105.96 177.72 106.76 177.45 107.03 177.72 106.76 177.44 105.96" style="opacity:0.75;fill:url(#New_Gradient_Swatch_3-85)"/><polygon points="179.44 115.56 179.71 114.94 179.71 114.94 179.44 115.56" style="fill:#c1e8f7"/><polygon points="179.44 115.56 179.71 114.94 179.71 114.94 179.44 115.56" style="opacity:0.75;fill:url(#New_Gradient_Swatch_3-86)"/><polygon points="157.1 108.03 156.19 108.51 157.1 108.03 160.01 107.4 162.57 105.05 160.01 107.4 157.1 108.03" style="fill:#c1e8f7"/><polygon points="157.1 108.03 156.19 108.51 157.1 108.03 160.01 107.4 162.57 105.05 160.01 107.4 157.1 108.03" style="opacity:0.75;fill:url(#New_Gradient_Swatch_3-87)"/><polygon points="176.4 107.63 176.01 107.69 174.98 109.23 176.01 107.69 176.4 107.63" style="fill:#c1e8f7"/><polygon points="176.4 107.63 176.01 107.69 174.98 109.23 176.01 107.69 176.4 107.63" style="opacity:0.75;fill:url(#New_Gradient_Swatch_3-88)"/><polygon points="162.08 102.82 162.19 101.93 163.3 101.34 162.19 101.93 162.08 102.82" style="fill:#c1e8f7"/><polygon points="162.08 102.82 162.19 101.93 163.3 101.34 162.19 101.93 162.08 102.82" style="opacity:0.75;fill:url(#New_Gradient_Swatch_3-89)"/><polygon points="153.82 118.72 153.82 118.72 154.93 116.99 155.56 116.33 154.93 116.99 153.82 118.72" style="fill:#c1e8f7"/><polygon points="153.82 118.72 153.82 118.72 154.93 116.99 155.56 116.33 154.93 116.99 153.82 118.72" style="opacity:0.75;fill:url(#New_Gradient_Swatch_3-90)"/><polygon points="140.46 108.84 140.17 108.75 140.46 108.84 143.84 109.3 143.84 109.3 140.46 108.84" style="fill:#c1e8f7"/><polygon points="140.46 108.84 140.17 108.75 140.46 108.84 143.84 109.3 143.84 109.3 140.46 108.84" style="opacity:0.75;fill:url(#New_Gradient_Swatch_3-91)"/><polygon points="138.25 107.34 138.73 107 138.73 107 138.25 107.34" style="fill:#c1e8f7"/><polygon points="138.25 107.34 138.73 107 138.73 107 138.25 107.34" style="opacity:0.75;fill:url(#New_Gradient_Swatch_3-92)"/><polygon points="133.01 107.83 133.23 107.81 133.01 107.83 133.01 107.83" style="fill:#c1e8f7"/><polygon points="133.01 107.83 133.23 107.81 133.01 107.83 133.01 107.83" style="opacity:0.75;fill:url(#New_Gradient_Swatch_3-93)"/><polygon points="86.02 27.27 86.42 26.18 86.47 24.14 86.42 26.18 86.02 27.27" style="fill:#c1e8f7"/><polygon points="86.02 27.27 86.42 26.18 86.47 24.14 86.42 26.18 86.02 27.27" style="opacity:0.75;fill:url(#New_Gradient_Swatch_3-94)"/><polygon points="145.03 113.21 145.44 114.07 145.77 114.26 145.45 114.07 145.03 113.21" style="fill:#c1e8f7"/><polygon points="145.03 113.21 145.44 114.07 145.77 114.26 145.45 114.07 145.03 113.21" style="opacity:0.75;fill:url(#New_Gradient_Swatch_3-95)"/><polygon points="150.59 112.77 150.8 113.06 150.64 113.56 150.8 113.06 150.59 112.77" style="fill:#c1e8f7"/><polygon points="150.59 112.77 150.8 113.06 150.64 113.56 150.8 113.06 150.59 112.77" style="opacity:0.75;fill:url(#New_Gradient_Swatch_3-96)"/><polygon points="150.82 115.47 150.94 115.94 150.82 116.43 150.94 115.94 150.82 115.47" style="fill:#c1e8f7"/><polygon points="150.82 115.47 150.94 115.94 150.82 116.43 150.94 115.94 150.82 115.47" style="opacity:0.75;fill:url(#New_Gradient_Swatch_3-97)"/><polygon points="149 113.73 148.39 113.06 148.73 112.53 148.39 113.06 149 113.73" style="fill:#c1e8f7"/><polygon points="149 113.73 148.39 113.06 148.73 112.53 148.39 113.06 149 113.73" style="opacity:0.75;fill:url(#New_Gradient_Swatch_3-98)"/><polygon points="149 112.09 149.28 112.13 149 112.09 149 112.09" style="fill:#c1e8f7"/><polygon points="149 112.09 149.28 112.13 149 112.09 149 112.09" style="opacity:0.75;fill:url(#New_Gradient_Swatch_3-99)"/><polygon points="147.56 114.91 148.46 114.87 148.89 114.04 148.46 114.87 147.56 114.91" style="fill:#c1e8f7"/><polygon points="147.56 114.91 148.46 114.87 148.89 114.04 148.46 114.87 147.56 114.91" style="opacity:0.75;fill:url(#New_Gradient_Swatch_3-100)"/><polygon points="87.22 12.89 87.42 12.14 87.23 11.2 87.42 12.14 87.22 12.89" style="fill:#c1e8f7"/><polygon points="87.22 12.89 87.42 12.14 87.23 11.2 87.42 12.14 87.22 12.89" style="opacity:0.75;fill:url(#New_Gradient_Swatch_3-101)"/><polygon points="182.98 104.21 182.49 103.77 182.98 104.21 182.59 105.82 182.63 106 182.63 106 182.59 105.82 182.98 104.21" style="fill:#c1e8f7"/><polygon points="182.98 104.21 182.49 103.77 182.98 104.21 182.59 105.82 182.63 106 182.63 106 182.59 105.82 182.98 104.21" style="opacity:0.75;fill:url(#New_Gradient_Swatch_3-102)"/><polygon points="85.3 11.8 85.08 12 85.08 12 85.3 11.8" style="fill:#c1e8f7"/><polygon points="85.3 11.8 85.08 12 85.08 12 85.3 11.8" style="opacity:0.75;fill:url(#New_Gradient_Swatch_3-103)"/><polygon points="84.64 11.16 84.9 11.65 84.64 11.16 83.98 11.12 83.95 11.11 83.95 11.11 84.64 11.16" style="fill:#c1e8f7"/><polygon points="84.64 11.16 84.9 11.65 84.64 11.16 83.98 11.12 83.95 11.11 83.95 11.11 84.64 11.16" style="opacity:0.75;fill:url(#New_Gradient_Swatch_3-104)"/><polygon points="79.25 15.3 79.3 15.67 79.29 15.58 79.25 15.3 78.36 15.25 79.25 15.3" style="fill:#c1e8f7"/><polygon points="79.25 15.3 79.3 15.67 79.29 15.58 79.25 15.3 78.36 15.25 79.25 15.3" style="opacity:0.75;fill:url(#New_Gradient_Swatch_3-105)"/><polygon points="62.29 27.11 62.29 27.11 62.52 27.52 62.69 27.82 62.29 27.11" style="fill:#c1e8f7"/><polygon points="62.29 27.11 62.29 27.11 62.52 27.52 62.69 27.82 62.29 27.11" style="opacity:0.75;fill:url(#New_Gradient_Swatch_3-106)"/><polygon points="76.77 17.25 66.7 17.09 66.67 17.09 76.77 17.25" style="fill:#c1e8f7"/><polygon points="76.77 17.25 66.7 17.09 66.67 17.09 76.77 17.25" style="opacity:0.75;fill:url(#New_Gradient_Swatch_3-107)"/><polygon points="63.28 29.78 63.2 29.68 63.2 29.68 63.28 29.78" style="fill:#c1e8f7"/><polygon points="63.28 29.78 63.2 29.68 63.2 29.68 63.28 29.78" style="opacity:0.75;fill:url(#New_Gradient_Swatch_3-108)"/><polygon points="65.51 33.34 65.68 33.15 65.51 33.34 58.92 33.38 58.4 33.38 65.51 33.34" style="fill:#c1e8f7"/><polygon points="65.51 33.34 65.68 33.15 65.51 33.34 58.92 33.38 58.4 33.38 65.51 33.34" style="opacity:0.75;fill:url(#New_Gradient_Swatch_3-109)"/><polygon points="60.31 21.88 60.31 21.88 60.05 21.9 57.22 22.14 60.31 21.88" style="fill:#c1e8f7"/><polygon points="60.31 21.88 60.31 21.88 60.05 21.9 57.22 22.14 60.31 21.88" style="opacity:0.75;fill:url(#New_Gradient_Swatch_3-110)"/><polygon points="85.65 20.98 85.89 19.36 86.45 18.42 85.89 19.36 85.65 20.98" style="fill:#c1e8f7"/><polygon points="85.65 20.98 85.89 19.36 86.45 18.42 85.89 19.36 85.65 20.98" style="opacity:0.75;fill:url(#New_Gradient_Swatch_3-111)"/><polygon points="61.26 27.11 60.84 26.84 61.26 27.11 61.26 27.11" style="fill:#c1e8f7"/><polygon points="61.26 27.11 60.84 26.84 61.26 27.11 61.26 27.11" style="opacity:0.75;fill:url(#New_Gradient_Swatch_3-112)"/><polygon points="77.92 15.22 77.92 15.22 77.52 15.5 77.44 15.56 77.92 15.22" style="fill:#c1e8f7"/><polygon points="77.92 15.22 77.92 15.22 77.52 15.5 77.44 15.56 77.92 15.22" style="opacity:0.75;fill:url(#New_Gradient_Swatch_3-113)"/><polygon points="74.09 50.02 75.02 49.33 72.49 51.2 74.09 50.02" style="fill:#c1e8f7"/><polygon points="74.09 50.02 75.02 49.33 72.49 51.2 74.09 50.02" style="opacity:0.75;fill:url(#New_Gradient_Swatch_3-114)"/><polygon points="179.77 114.94 180.02 114.36 180.81 114.3 181.8 113.51 182.36 111.55 183.52 109.47 182.8 107.45 182.54 106.4 182.63 106 182.59 105.82 182.98 104.21 182.49 103.77 182.22 103.52 180.95 102.8 180.84 102.48 180.62 101.8 179 99.92 178.95 99.86 175.07 97.59 173.83 97.29 172.79 97.05 168.72 97.05 168.72 97.05 167.39 96.73 166.85 95.86 165.45 95.25 164.51 95.37 161.91 97.25 159.1 97.92 153.43 100.8 151.76 102.39 150.15 102.59 147.14 102.45 143.93 100.25 143 99.82 141.81 99.26 141.56 99.47 141.26 99.72 141.39 99.8 142.34 100.38 142.34 101.33 140.87 101.59 140.87 101.58 140.87 101.59 140.01 101.14 139.34 100.8 138.87 100.05 139.23 99.69 139.86 99.49 139.35 98.91 138.63 98.98 138.63 98.98 138.63 98.98 137.49 98.61 137.08 98.18 136.48 97.55 136.35 97.18 136.11 96.51 134.48 96.44 133.62 97.04 133.69 98.64 132.54 99.91 132.28 101.39 133.35 101.72 134.48 103.32 133.01 104.45 132.61 105.92 132.67 106.9 133.27 107.8 134.57 107.67 136.15 107.93 137.85 107.63 138.25 107.34 138.73 107 138.73 107 138.73 107 139.53 107.86 139.42 108.54 140.17 108.75 140.46 108.84 143.84 109.3 143.84 109.3 143.84 109.3 144.28 111.69 145.03 113.21 145.45 114.07 145.77 114.26 146.92 114.94 147.56 114.91 148.46 114.87 148.89 114.04 149.03 113.76 149 113.73 148.39 113.06 148.73 112.53 149 112.09 149 112.09 149 112.09 149.28 112.13 150.23 112.28 150.59 112.77 150.8 113.06 150.64 113.56 150.48 114.07 150.82 115.47 150.94 115.94 150.82 116.43 150.61 117.3 151.21 118.32 153.82 118.72 154.93 116.99 155.56 116.33 156.19 115.67 157.87 115.94 158.81 115.64 158.94 113.76 157.51 112.49 155.95 111.38 155.26 109.87 155.57 108.84 156.19 108.51 157.1 108.03 160.01 107.4 162.57 105.05 162.62 105.01 162.53 104.14 162.25 103.92 161.98 103.71 162.08 102.82 162.19 101.93 163.3 101.34 164.97 100.45 165.93 100.36 167.21 100.25 167.21 100.25 167.21 100.25 168.38 100.89 170.05 102.53 171.29 102.76 171.29 102.76 171.29 102.76 171.79 103.44 172.9 104.91 173.24 105.84 173.53 106.63 174.51 107.4 175.07 106.93 176.28 105.52 177.27 105.49 177.27 105.49 177.27 105.49 177.44 105.96 177.72 106.76 177.45 107.03 176.95 107.56 176.4 107.63 176.01 107.69 174.98 109.23 174.47 110 174.47 110 174.47 110 173.74 110.72 174.51 113.12 176.59 116.01 177.86 117.16 178.5 117.74 179.44 115.56 179.71 114.94 179.71 114.94 179.71 114.94 179.77 114.94" style="fill:#1a8fe8"/><polygon points="179.77 114.94 180.02 114.36 180.81 114.3 181.8 113.51 182.36 111.55 183.52 109.47 182.8 107.45 182.54 106.4 182.63 106 182.59 105.82 182.98 104.21 182.49 103.77 182.22 103.52 180.95 102.8 180.84 102.48 180.62 101.8 179 99.92 178.95 99.86 175.07 97.59 173.83 97.29 172.79 97.05 168.72 97.05 168.72 97.05 167.39 96.73 166.85 95.86 165.45 95.25 164.51 95.37 161.91 97.25 159.1 97.92 153.43 100.8 151.76 102.39 150.15 102.59 147.14 102.45 143.93 100.25 143 99.82 141.81 99.26 141.56 99.47 141.26 99.72 141.39 99.8 142.34 100.38 142.34 101.33 140.87 101.59 140.87 101.58 140.87 101.59 140.01 101.14 139.34 100.8 138.87 100.05 139.23 99.69 139.86 99.49 139.35 98.91 138.63 98.98 138.63 98.98 138.63 98.98 137.49 98.61 137.08 98.18 136.48 97.55 136.35 97.18 136.11 96.51 134.48 96.44 133.62 97.04 133.69 98.64 132.54 99.91 132.28 101.39 133.35 101.72 134.48 103.32 133.01 104.45 132.61 105.92 132.67 106.9 133.27 107.8 134.57 107.67 136.15 107.93 137.85 107.63 138.25 107.34 138.73 107 138.73 107 138.73 107 139.53 107.86 139.42 108.54 140.17 108.75 140.46 108.84 143.84 109.3 143.84 109.3 143.84 109.3 144.28 111.69 145.03 113.21 145.45 114.07 145.77 114.26 146.92 114.94 147.56 114.91 148.46 114.87 148.89 114.04 149.03 113.76 149 113.73 148.39 113.06 148.73 112.53 149 112.09 149 112.09 149 112.09 149.28 112.13 150.23 112.28 150.59 112.77 150.8 113.06 150.64 113.56 150.48 114.07 150.82 115.47 150.94 115.94 150.82 116.43 150.61 117.3 151.21 118.32 153.82 118.72 154.93 116.99 155.56 116.33 156.19 115.67 157.87 115.94 158.81 115.64 158.94 113.76 157.51 112.49 155.95 111.38 155.26 109.87 155.57 108.84 156.19 108.51 157.1 108.03 160.01 107.4 162.57 105.05 162.62 105.01 162.53 104.14 162.25 103.92 161.98 103.71 162.08 102.82 162.19 101.93 163.3 101.34 164.97 100.45 165.93 100.36 167.21 100.25 167.21 100.25 167.21 100.25 168.38 100.89 170.05 102.53 171.29 102.76 171.29 102.76 171.29 102.76 171.79 103.44 172.9 104.91 173.24 105.84 173.53 106.63 174.51 107.4 175.07 106.93 176.28 105.52 177.27 105.49 177.27 105.49 177.27 105.49 177.44 105.96 177.72 106.76 177.45 107.03 176.95 107.56 176.4 107.63 176.01 107.69 174.98 109.23 174.47 110 174.47 110 174.47 110 173.74 110.72 174.51 113.12 176.59 116.01 177.86 117.16 178.5 117.74 179.44 115.56 179.71 114.94 179.71 114.94 179.71 114.94 179.77 114.94" style="opacity:0.75;fill:url(#New_Gradient_Swatch_3-115)"/><polygon points="133.27 107.8 132.67 106.9 132.61 105.92 133.01 104.45 134.48 103.32 133.35 101.72 132.28 101.39 132.54 99.91 133.69 98.64 133.62 97.04 134.48 96.44 136.11 96.51 135.95 96.06 134.61 95.09 133.83 94.87 133.13 94.66 132.13 93.42 132.06 93.22 131.56 91.91 130.62 90.96 129.69 90.03 128.54 88.22 128.28 86.2 127.65 84.56 127.14 84.68 126.77 84.77 126.68 85.05 126.51 85.62 126.51 85.62 124.57 85.62 124.57 85.62 124.98 84.95 123.99 84.95 123.06 85.48 121.12 83.74 121.12 83 119.92 82.61 118.92 81.2 116.38 81.34 114.71 81.6 109.7 80.14 106.56 80.61 106.56 81.14 105.92 81.41 105.92 81.41 106.04 81.49 106.13 81.55 105.59 83.63 104.99 84.16 105.53 84.63 106.14 84.77 106.93 84.95 107.33 86.82 105.72 87.76 104.96 89.65 104.86 89.9 104.93 90.23 105.26 91.7 106.61 92.86 107.73 93.83 110.2 93.91 111.66 94.85 112.54 96.38 113.41 96.38 114.48 94.51 114.01 92.91 111.54 91.1 110.94 90.1 111.3 89.8 111.74 89.43 113.34 90.7 114.21 91.14 115.08 91.57 115.12 92.02 115.21 93.11 116.02 93.67 117.01 94.37 117.62 96.24 117.94 96.42 119.75 97.45 121.36 98.92 122.56 99.66 124.57 101.99 124.79 102.57 124.9 102.86 123.69 104.4 123.69 105.66 123.92 106.03 124.49 106.93 126.71 107.75 128.17 108.68 128.91 108.27 128.99 107.62 129.11 106.73 128.24 105.59 128 105.47 126.63 104.8 126.63 104.47 127.31 104 127.31 104 127.31 104 127.76 104.33 128.3 104.73 129.11 105.7 129.91 106.67 129.88 107.34 129.84 108.35 130.02 108.45 130.48 108.71 130.97 109.01 131.51 109.61 131.63 109.74 132.8 109.81 132.9 109.5 133.1 108.9 133.01 107.86 133.01 107.83 133.01 107.83 133.01 107.83 133.23 107.81 133.27 107.8 133.27 107.8" style="fill:#662d91"/><polygon points="133.27 107.8 132.67 106.9 132.61 105.92 133.01 104.45 134.48 103.32 133.35 101.72 132.28 101.39 132.54 99.91 133.69 98.64 133.62 97.04 134.48 96.44 136.11 96.51 135.95 96.06 134.61 95.09 133.83 94.87 133.13 94.66 132.13 93.42 132.06 93.22 131.56 91.91 130.62 90.96 129.69 90.03 128.54 88.22 128.28 86.2 127.65 84.56 127.14 84.68 126.77 84.77 126.68 85.05 126.51 85.62 126.51 85.62 124.57 85.62 124.57 85.62 124.98 84.95 123.99 84.95 123.06 85.48 121.12 83.74 121.12 83 119.92 82.61 118.92 81.2 116.38 81.34 114.71 81.6 109.7 80.14 106.56 80.61 106.56 81.14 105.92 81.41 105.92 81.41 106.04 81.49 106.13 81.55 105.59 83.63 104.99 84.16 105.53 84.63 106.14 84.77 106.93 84.95 107.33 86.82 105.72 87.76 104.96 89.65 104.86 89.9 104.93 90.23 105.26 91.7 106.61 92.86 107.73 93.83 110.2 93.91 111.66 94.85 112.54 96.38 113.41 96.38 114.48 94.51 114.01 92.91 111.54 91.1 110.94 90.1 111.3 89.8 111.74 89.43 113.34 90.7 114.21 91.14 115.08 91.57 115.12 92.02 115.21 93.11 116.02 93.67 117.01 94.37 117.62 96.24 117.94 96.42 119.75 97.45 121.36 98.92 122.56 99.66 124.57 101.99 124.79 102.57 124.9 102.86 123.69 104.4 123.69 105.66 123.92 106.03 124.49 106.93 126.71 107.75 128.17 108.68 128.91 108.27 128.99 107.62 129.11 106.73 128.24 105.59 128 105.47 126.63 104.8 126.63 104.47 127.31 104 127.31 104 127.31 104 127.76 104.33 128.3 104.73 129.11 105.7 129.91 106.67 129.88 107.34 129.84 108.35 130.02 108.45 130.48 108.71 130.97 109.01 131.51 109.61 131.63 109.74 132.8 109.81 132.9 109.5 133.1 108.9 133.01 107.86 133.01 107.83 133.01 107.83 133.01 107.83 133.23 107.81 133.27 107.8 133.27 107.8" style="opacity:0.75;fill:url(#New_Gradient_Swatch_3-116)"/><path d="M106.56,81.14v-.53l3.14-.47,5,1.46,1.67-.26,2.54-.14,1,1.41,1.2.39v.74l1.94,1.74L124,85h1l.06-.09.06-.09.87-.55-.27-1.39-1-1.22-.27-1.16-.19-.77.51-1,.63-1.22L126,76l.06-1.93-.53,1.07-.2.65-.07.21-.92.54h0V75.21l.46-1.48.86-2,0-.12-.23-1.08.06-1.26,1.08-2.74h0l.8.2-.34.73s0,.28,0,.6,0,.7,0,.87v1.94l.43,0h.07l.37-.62.36-.62.44-3.59,0-4.29.35-.91-.71-1.06-.6-.27,0-.93.21-.23.42-.45h0l.19,0,.39,0,0,.07.28.5.57-2.32,1.51-1.91.7-1.24.11-.58.06-.36-.45-.32-.46-.32,0-.31-.06-.48.21-.46.34-.74L131.37,48l.15-2.47.53-1,.32-.34.24-.26-1.07.19-1.3.14-.37-.74h-1L128,44l-.37,1.24-1.24.57-1.63,1.15-1.53.14-.4,1.13-1.21-.33-1.66.26-.34-.79-1.27-1-.73,0-.41,1.69-1.73.05L114,50.41l-.14,1-.86.47-1.87,1.8-1.94.74-.53,1L107.43,55l-1,.25-1.06-1-2.21-.39-3.06,1.66-2.88.34.2,1.74v1.33L97.2,61.3l-.66,1.32-2.28.21-1.56.27-.07,1-.73.14-1.27-.45-.41-.15,0,.07-.29.53L92,66.79l1.26,1.54.37.24,1.24.82v1.14l2.67,2.4,2.33,3.2,4.28,4.68.29,0,.85.1.23.17.43.29Z" style="fill:#00058b"/><path d="M106.56,81.14v-.53l3.14-.47,5,1.46,1.67-.26,2.54-.14,1,1.41,1.2.39v.74l1.94,1.74L124,85h1l.06-.09.06-.09.87-.55-.27-1.39-1-1.22-.27-1.16-.19-.77.51-1,.63-1.22L126,76l.06-1.93-.53,1.07-.2.65-.07.21-.92.54h0V75.21l.46-1.48.86-2,0-.12-.23-1.08.06-1.26,1.08-2.74h0l.8.2-.34.73s0,.28,0,.6,0,.7,0,.87v1.94l.43,0h.07l.37-.62.36-.62.44-3.59,0-4.29.35-.91-.71-1.06-.6-.27,0-.93.21-.23.42-.45h0l.19,0,.39,0,0,.07.28.5.57-2.32,1.51-1.91.7-1.24.11-.58.06-.36-.45-.32-.46-.32,0-.31-.06-.48.21-.46.34-.74L131.37,48l.15-2.47.53-1,.32-.34.24-.26-1.07.19-1.3.14-.37-.74h-1L128,44l-.37,1.24-1.24.57-1.63,1.15-1.53.14-.4,1.13-1.21-.33-1.66.26-.34-.79-1.27-1-.73,0-.41,1.69-1.73.05L114,50.41l-.14,1-.86.47-1.87,1.8-1.94.74-.53,1L107.43,55l-1,.25-1.06-1-2.21-.39-3.06,1.66-2.88.34.2,1.74v1.33L97.2,61.3l-.66,1.32-2.28.21-1.56.27-.07,1-.73.14-1.27-.45-.41-.15,0,.07-.29.53L92,66.79l1.26,1.54.37.24,1.24.82v1.14l2.67,2.4,2.33,3.2,4.28,4.68.29,0,.85.1.23.17.43.29Z" style="opacity:0.75;fill:url(#New_Gradient_Swatch_3-117)"/><polygon points="92.7 63.1 92.7 63.1 94.26 62.83 96.53 62.62 97.2 61.3 97.47 58.89 97.47 57.56 97.27 55.82 100.15 55.48 103.21 53.82 105.42 54.21 106.48 55.21 107.43 54.96 108.7 55.42 109.23 54.42 111.17 53.68 113.03 51.88 113.9 51.41 114.04 50.41 115.51 48.13 117.24 48.08 117.65 46.39 118.38 46.34 119.65 47.34 119.99 48.13 121.65 47.87 122.86 48.2 123.26 47.07 124.79 46.93 126.42 45.78 127.66 45.21 128.03 43.97 128.83 43.54 129.87 43.54 130.24 44.28 131.54 44.14 132.61 43.95 132.61 43.95 133.18 43.34 132.65 42.41 130.51 40.67 128.5 39.79 128.39 40.09 128.37 40.13 129.17 41.66 127.17 41.59 124.77 41.33 123.83 40.6 123.39 40.55 122.09 40.39 120.56 40.39 120.56 40.39 120.96 39.67 121.43 39.53 122.17 39.33 122.03 38.46 122.03 38.46 122.03 38.46 122.56 38.33 122.83 38.26 122.83 38.26 122.83 38.26 124.31 38.59 126.77 39.33 127.1 39.06 125.43 37.73 123.17 36.46 122.93 36.44 121.56 36.32 120.98 36.44 120.02 36.66 120.02 36.66 120.02 36.66 119.02 36.19 118.62 37.33 117.92 36.82 117.42 36.46 113.34 36.06 109.4 35.86 107.26 34.05 106.78 33.82 105.32 33.11 104.92 34.25 105.57 34.73 105.66 34.79 104.89 35.1 104.19 35.39 103.25 36.06 101.72 35.52 100.78 35.76 98.64 36.32 95.42 36.05 94.7 35.99 89.22 36.12 86.82 37.45 85.69 36.52 85.38 37.31 84.17 38.19 83.57 39.79 80.97 41.32 79.56 41.25 77.16 43.72 75.68 45.27 76.16 46.86 75.02 49.33 74.09 50.02 74.81 49.51 76.35 49.83 76.65 50.31 77.69 50.67 78.56 51.69 80.33 51.41 82.21 51.82 83.35 53.28 83.65 54.36 84.78 55.13 85.15 54.29 85.55 53.25 87.12 53.09 88.03 53.4 89.28 53.83 89.28 55.34 88.87 57.07 89.08 57.78 88.6 59.19 88.83 60.04 88.89 59.98 89.89 60.51 90.36 61.18 90.5 61.17 91.15 61.11 91.48 60.63 91.56 60.51 92.3 60.9 92.3 62.04 92.48 62.5 92.7 63.04 92.7 63.1" style="fill:#1a8fe8"/><polygon points="92.7 63.1 92.7 63.1 94.26 62.83 96.53 62.62 97.2 61.3 97.47 58.89 97.47 57.56 97.27 55.82 100.15 55.48 103.21 53.82 105.42 54.21 106.48 55.21 107.43 54.96 108.7 55.42 109.23 54.42 111.17 53.68 113.03 51.88 113.9 51.41 114.04 50.41 115.51 48.13 117.24 48.08 117.65 46.39 118.38 46.34 119.65 47.34 119.99 48.13 121.65 47.87 122.86 48.2 123.26 47.07 124.79 46.93 126.42 45.78 127.66 45.21 128.03 43.97 128.83 43.54 129.87 43.54 130.24 44.28 131.54 44.14 132.61 43.95 132.61 43.95 133.18 43.34 132.65 42.41 130.51 40.67 128.5 39.79 128.39 40.09 128.37 40.13 129.17 41.66 127.17 41.59 124.77 41.33 123.83 40.6 123.39 40.55 122.09 40.39 120.56 40.39 120.56 40.39 120.96 39.67 121.43 39.53 122.17 39.33 122.03 38.46 122.03 38.46 122.03 38.46 122.56 38.33 122.83 38.26 122.83 38.26 122.83 38.26 124.31 38.59 126.77 39.33 127.1 39.06 125.43 37.73 123.17 36.46 122.93 36.44 121.56 36.32 120.98 36.44 120.02 36.66 120.02 36.66 120.02 36.66 119.02 36.19 118.62 37.33 117.92 36.82 117.42 36.46 113.34 36.06 109.4 35.86 107.26 34.05 106.78 33.82 105.32 33.11 104.92 34.25 105.57 34.73 105.66 34.79 104.89 35.1 104.19 35.39 103.25 36.06 101.72 35.52 100.78 35.76 98.64 36.32 95.42 36.05 94.7 35.99 89.22 36.12 86.82 37.45 85.69 36.52 85.38 37.31 84.17 38.19 83.57 39.79 80.97 41.32 79.56 41.25 77.16 43.72 75.68 45.27 76.16 46.86 75.02 49.33 74.09 50.02 74.81 49.51 76.35 49.83 76.65 50.31 77.69 50.67 78.56 51.69 80.33 51.41 82.21 51.82 83.35 53.28 83.65 54.36 84.78 55.13 85.15 54.29 85.55 53.25 87.12 53.09 88.03 53.4 89.28 53.83 89.28 55.34 88.87 57.07 89.08 57.78 88.6 59.19 88.83 60.04 88.89 59.98 89.89 60.51 90.36 61.18 90.5 61.17 91.15 61.11 91.48 60.63 91.56 60.51 92.3 60.9 92.3 62.04 92.48 62.5 92.7 63.04 92.7 63.1" style="opacity:0.75;fill:url(#New_Gradient_Swatch_3-118)"/><polygon points="88.83 60.04 88.83 60.04 88.6 59.19 89.08 57.78 88.87 57.07 89.28 55.34 89.28 53.83 88.03 53.4 87.12 53.09 85.55 53.25 85.15 54.29 84.78 55.13 83.65 54.36 83.35 53.28 82.21 51.82 80.33 51.41 78.56 51.69 77.69 50.67 76.65 50.31 76.35 49.83 74.81 49.51 74.09 50.02 72.49 51.2 72.49 51.51 72.49 52.21 70.88 52.69 68.6 53.22 66.87 55.08 66.81 56.02 66.14 57.07 66.97 57.37 68.78 57.37 68.81 57.4 70.25 58.77 72.39 59.24 72.68 59.22 72.75 59.22 73.46 59.17 73.46 59.17 73.46 59.17 75.85 60.24 76.6 60.58 76.6 60.58 76.6 60.58 79.53 62.17 79.94 61.38 78.61 60.64 79.27 60.24 80.94 60.3 82.34 62.18 82.74 62.52 83.35 63.04 83.55 63.04 87.56 63.11 88.2 62.23 88.76 61.45 88.55 61.06 88.28 60.58 88.83 60.04" style="fill:#69bfff"/><polygon points="88.83 60.04 88.83 60.04 88.6 59.19 89.08 57.78 88.87 57.07 89.28 55.34 89.28 53.83 88.03 53.4 87.12 53.09 85.55 53.25 85.15 54.29 84.78 55.13 83.65 54.36 83.35 53.28 82.21 51.82 80.33 51.41 78.56 51.69 77.69 50.67 76.65 50.31 76.35 49.83 74.81 49.51 74.09 50.02 72.49 51.2 72.49 51.51 72.49 52.21 70.88 52.69 68.6 53.22 66.87 55.08 66.81 56.02 66.14 57.07 66.97 57.37 68.78 57.37 68.81 57.4 70.25 58.77 72.39 59.24 72.68 59.22 72.75 59.22 73.46 59.17 73.46 59.17 73.46 59.17 75.85 60.24 76.6 60.58 76.6 60.58 76.6 60.58 79.53 62.17 79.94 61.38 78.61 60.64 79.27 60.24 80.94 60.3 82.34 62.18 82.74 62.52 83.35 63.04 83.55 63.04 87.56 63.11 88.2 62.23 88.76 61.45 88.55 61.06 88.28 60.58 88.83 60.04" style="opacity:0.75;fill:url(#New_Gradient_Swatch_3-119)"/><polygon points="83.95 11.11 83.65 11.22 82.84 11.51 82.56 12.05 82.45 12.26 82.28 12.9 82.08 13.65 81.28 14.75 80.91 15.25 80.81 15.64 80.21 15.79 80.11 15.81 79.9 16.1 79.76 16.29 79.33 16.01 79.33 16.01 79.33 16.01 79.3 15.67 79.25 15.3 78.36 15.25 77.92 15.22 77.44 15.56 76.92 15.91 76.84 16.72 76.78 17.25 76.78 17.25 76.77 17.25 76.81 17.29 76.55 34.52 77.89 34.59 78.43 34.88 79.42 34.81 79.41 34.79 80.14 33.25 81.52 31.82 81.87 31.44 81.87 31.44 81.87 31.44 82.84 32.28 82.88 32.32 85.48 28.7 86.02 27.27 86.42 26.18 86.47 24.14 86.49 23.09 85.48 22.09 85.65 20.98 85.89 19.36 86.45 18.42 86.89 17.68 87.16 13.14 87.22 12.89 87.42 12.14 87.23 11.2 87.22 11.14 86.02 11.14 85.3 11.8 85.08 12 85.08 12 85.08 12 84.9 11.65 84.64 11.16 83.95 11.11" style="fill:#00058b"/><polygon points="83.95 11.11 83.65 11.22 82.84 11.51 82.56 12.05 82.45 12.26 82.28 12.9 82.08 13.65 81.28 14.75 80.91 15.25 80.81 15.64 80.21 15.79 80.11 15.81 79.9 16.1 79.76 16.29 79.33 16.01 79.33 16.01 79.33 16.01 79.3 15.67 79.25 15.3 78.36 15.25 77.92 15.22 77.44 15.56 76.92 15.91 76.84 16.72 76.78 17.25 76.78 17.25 76.77 17.25 76.81 17.29 76.55 34.52 77.89 34.59 78.43 34.88 79.42 34.81 79.41 34.79 80.14 33.25 81.52 31.82 81.87 31.44 81.87 31.44 81.87 31.44 82.84 32.28 82.88 32.32 85.48 28.7 86.02 27.27 86.42 26.18 86.47 24.14 86.49 23.09 85.48 22.09 85.65 20.98 85.89 19.36 86.45 18.42 86.89 17.68 87.16 13.14 87.22 12.89 87.42 12.14 87.23 11.2 87.22 11.14 86.02 11.14 85.3 11.8 85.08 12 85.08 12 85.08 12 84.9 11.65 84.64 11.16 83.95 11.11" style="opacity:0.75;fill:url(#New_Gradient_Swatch_3-120)"/><polygon points="62.58 55.83 66.14 57.07 66.14 57.07 66.81 56.02 66.87 55.08 68.6 53.22 70.88 52.69 72.49 52.21 72.49 51.51 72.49 51.2 75.02 49.33 76.16 46.86 75.68 45.27 77.16 43.72 79.56 41.25 80.97 41.32 83.57 39.79 84.17 38.19 85.38 37.31 85.69 36.52 84.95 35.92 83.28 35.72 83.02 36.35 82.82 36.86 82.82 36.86 82.82 36.86 82.56 36.69 81.35 35.86 80.01 35.86 80.01 35.86 80.01 35.86 79.42 34.81 78.43 34.88 77.89 34.59 76.55 34.52 76.81 17.29 76.77 17.25 66.67 17.09 60.68 17 60.53 19.01 60.31 21.88 60.31 21.88 60.31 21.88 57.22 22.14 56.44 22.2 57.81 23.35 58.31 24.3 59.78 26.14 60.84 26.84 61.26 27.11 62.29 27.11 62.29 27.11 62.69 27.82 62.99 28.35 63.2 29.68 63.28 29.78 63.83 30.4 64.53 30.44 65.41 30.49 66.41 31.06 66.44 32.27 65.68 33.15 65.51 33.34 58.4 33.38 53.66 33.41 51.85 36.26 48.1 42.19 48.19 42.96 48.28 43.69 48.44 44.16 48.44 44.16 48.44 44.16 48.36 44.63 48.28 45.1 48.65 45.79 48.67 45.83 48.92 46.07 48.92 46.07 48.92 46.07 48.82 46.87 48.82 46.87 48.82 46.87 47.99 47.52 47.88 47.83 47.63 48.53 47.54 48.61 47.32 48.79 48.8 50.62 49.94 52.49 50.48 52.54 51.35 52.62 52.61 54.16 57.49 56.03 60.37 56.1 62.58 55.83" style="fill:#662d91"/><polygon points="62.58 55.83 66.14 57.07 66.14 57.07 66.81 56.02 66.87 55.08 68.6 53.22 70.88 52.69 72.49 52.21 72.49 51.51 72.49 51.2 75.02 49.33 76.16 46.86 75.68 45.27 77.16 43.72 79.56 41.25 80.97 41.32 83.57 39.79 84.17 38.19 85.38 37.31 85.69 36.52 84.95 35.92 83.28 35.72 83.02 36.35 82.82 36.86 82.82 36.86 82.82 36.86 82.56 36.69 81.35 35.86 80.01 35.86 80.01 35.86 80.01 35.86 79.42 34.81 78.43 34.88 77.89 34.59 76.55 34.52 76.81 17.29 76.77 17.25 66.67 17.09 60.68 17 60.53 19.01 60.31 21.88 60.31 21.88 60.31 21.88 57.22 22.14 56.44 22.2 57.81 23.35 58.31 24.3 59.78 26.14 60.84 26.84 61.26 27.11 62.29 27.11 62.29 27.11 62.69 27.82 62.99 28.35 63.2 29.68 63.28 29.78 63.83 30.4 64.53 30.44 65.41 30.49 66.41 31.06 66.44 32.27 65.68 33.15 65.51 33.34 58.4 33.38 53.66 33.41 51.85 36.26 48.1 42.19 48.19 42.96 48.28 43.69 48.44 44.16 48.44 44.16 48.44 44.16 48.36 44.63 48.28 45.1 48.65 45.79 48.67 45.83 48.92 46.07 48.92 46.07 48.92 46.07 48.82 46.87 48.82 46.87 48.82 46.87 47.99 47.52 47.88 47.83 47.63 48.53 47.54 48.61 47.32 48.79 48.8 50.62 49.94 52.49 50.48 52.54 51.35 52.62 52.61 54.16 57.49 56.03 60.37 56.1 62.58 55.83" style="opacity:0.75;fill:url(#New_Gradient_Swatch_3-121)"/><polygon points="223.38 115.59 225.22 117.12 227.5 118.11 225.22 117.11 223.38 115.59" style="fill:#c1e8f7"/><polygon points="3.99 36.34 8.59 38.01 10.46 37.88 15.22 35.87 17.22 35.74 19.76 34.06 21.63 33.73 23.97 33.54 24.91 33.66 24.91 33.14 23.09 32.87 21.56 32.87 21.63 31.99 23.69 30.79 24.36 31.13 24.36 32.13 25.5 31.53 26.7 31.53 26.7 32.33 25.77 32.41 25.37 32.81 26.04 33.14 27.36 33.06 29.04 33.66 31.85 35.47 33.11 36.61 33.11 36.07 30.98 33.92 27.97 32.59 27.84 32.06 28.51 31.99 28.84 32.33 30.64 32.67 32.25 34.06 33.86 36.07 33.86 36.87 34.65 37.94 41.06 43.29 43.08 43.89 43.34 44.95 45.94 46.95 47.39 48.74 47.39 48.74 47.39 48.74 47.39 48.74 47.39 48.74 47.44 48.7 47.7 48.48 48.01 47.63 48.07 47.47 48.22 47.36 48.9 46.82 48.96 46.3 48.99 46.02 48.74 45.78 48.36 45.05 48.51 44.11 48.36 43.64 48.29 43.12 48.18 42.14 53.73 33.36 59 33.33 65.58 33.29 66.52 32.22 66.5 31.61 66.49 31 65.48 30.43 64.7 30.39 63.91 30.35 63.39 29.77 63.27 29.63 63.24 29.43 63.07 28.3 62.95 28.08 62.6 27.47 62.36 27.06 61.33 27.06 59.86 26.09 58.97 24.97 58.38 24.25 58.06 23.64 57.88 23.3 57.02 22.57 56.51 22.15 56.51 22.15 56.51 22.15 60.13 21.85 60.39 21.82 60.4 21.65 60.76 16.95 60.76 16.95 60.76 16.95 66.78 17.04 76.86 17.2 76.88 16.96 76.93 16.52 77 15.86 77.59 15.45 77.99 15.17 79.33 15.25 79.33 15.25 79.33 15.25 79.36 15.53 79.41 15.96 79.83 16.24 80.02 15.98 80.19 15.76 80.89 15.59 80.97 15.26 80.99 15.2 82.16 13.6 82.53 12.21 82.91 11.46 84.03 11.06 84.03 11.06 84.03 11.06 84.06 11.06 84.71 11.11 84.69 11.09 86.3 9.68 88.3 7.34 89.37 7.01 89.17 8.88 88.3 9.76 88.36 10.29 90.43 11.55 91.18 13.29 91.57 12.89 93.31 9.88 94.78 4.07 95.72 2.54 94.85 2.67 93.91 3.61 93.11 3.19 93.11 2.47 95.11 0.34 64.83 0.34 64.83 1.33 63.05 3.47 61.65 3.81 57.5 6.01 57.84 6.34 59.64 5.13 59.17 6.74 59.1 9.41 57.3 11.55 56.23 11.62 55.83 12.62 54.77 11.55 52.62 10.61 53.09 9.48 54.9 8.54 52.29 7.8 51.49 8.88 49.49 8.28 47.01 8.34 45.34 9.76 43.2 9.82 39.93 10.08 39.4 10.88 35.52 13.09 34.45 13.09 33.65 12.16 30.51 12.82 28.29 13.85 27.58 11.51 25.48 8.58 22.77 7.44 22.17 6.74 19.62 6.67 18.75 6.88 17.51 5.58 13.66 1.01 13.43 0.34 0.15 0.34 0.15 34.99 1.52 34.99 3.99 36.34" style="fill:#69bfff;opacity:0.30000000000000004"/><polygon points="76.85 16.57 76.81 17.01 76.84 16.72 76.85 16.57" style="fill:#c1e8f7"/><polygon points="76.85 16.57 76.81 17.01 76.84 16.72 76.85 16.57" style="fill:#69bfff;opacity:0.30000000000000004"/><polygon points="79.94 16.04 79.76 16.29 79.9 16.1 79.94 16.04" style="fill:#c1e8f7"/><polygon points="79.94 16.04 79.76 16.29 79.9 16.1 79.94 16.04" style="fill:#69bfff;opacity:0.30000000000000004"/><polygon points="81.28 14.75 82.08 13.65 82.28 12.9 82.45 12.26 82.45 12.26 82.45 12.26 82.56 12.05 82.84 11.51 82.84 11.51 82.84 11.51 83.65 11.22 83.95 11.11 82.84 11.51 82.45 12.26 82.08 13.65 80.91 15.25 80.9 15.31 80.91 15.25 81.28 14.75" style="fill:#c1e8f7"/><polygon points="81.28 14.75 82.08 13.65 82.28 12.9 82.45 12.26 82.45 12.26 82.45 12.26 82.56 12.05 82.84 11.51 82.84 11.51 82.84 11.51 83.65 11.22 83.95 11.11 82.84 11.51 82.45 12.26 82.08 13.65 80.91 15.25 80.9 15.31 80.91 15.25 81.28 14.75" style="fill:#69bfff;opacity:0.30000000000000004"/><polygon points="79.76 16.29 79.33 16.01 79.33 16.01 79.76 16.29" style="fill:#c1e8f7"/><polygon points="79.76 16.29 79.33 16.01 79.33 16.01 79.76 16.29" style="fill:#69bfff;opacity:0.30000000000000004"/><polygon points="48.1 42.19 48.22 43.17 48.19 42.96 48.1 42.19" style="fill:#c1e8f7"/><polygon points="48.1 42.19 48.22 43.17 48.19 42.96 48.1 42.19" style="fill:#69bfff;opacity:0.30000000000000004"/><polygon points="48.92 46.07 48.88 46.35 48.92 46.07 48.92 46.07" style="fill:#c1e8f7"/><polygon points="48.92 46.07 48.88 46.35 48.92 46.07 48.92 46.07" style="fill:#69bfff;opacity:0.30000000000000004"/><polygon points="57.98 23.69 58.31 24.3 58.89 25.02 58.31 24.3 57.98 23.69" style="fill:#c1e8f7"/><polygon points="57.98 23.69 58.31 24.3 58.89 25.02 58.31 24.3 57.98 23.69" style="fill:#69bfff;opacity:0.30000000000000004"/><polygon points="60.68 17 60.68 17 60.68 17 60.68 17 60.33 21.7 60.53 19.01 60.68 17" style="fill:#c1e8f7"/><polygon points="60.68 17 60.68 17 60.68 17 60.68 17 60.33 21.7 60.53 19.01 60.68 17" style="fill:#69bfff;opacity:0.30000000000000004"/><polygon points="53.66 33.41 48.1 42.19 51.85 36.26 53.66 33.41" style="fill:#c1e8f7"/><polygon points="53.66 33.41 48.1 42.19 51.85 36.26 53.66 33.41" style="fill:#69bfff;opacity:0.30000000000000004"/><polygon points="56.44 22.2 56.94 22.63 56.44 22.2 56.44 22.2" style="fill:#c1e8f7"/><polygon points="56.44 22.2 56.94 22.63 56.44 22.2 56.44 22.2" style="fill:#69bfff;opacity:0.30000000000000004"/><polygon points="47.32 48.79 47.32 48.79 47.32 48.79 47.32 48.79 47.32 48.79" style="fill:#c1e8f7"/><polygon points="47.32 48.79 47.32 48.79 47.32 48.79 47.32 48.79 47.32 48.79" style="fill:#69bfff;opacity:0.30000000000000004"/><polygon points="66.43 31.66 66.44 32.27 66.44 32.27 66.43 31.66" style="fill:#c1e8f7"/><polygon points="66.43 31.66 66.44 32.27 66.44 32.27 66.43 31.66" style="fill:#69bfff;opacity:0.30000000000000004"/><polygon points="63.83 30.4 63.31 29.82 63.83 30.4 64.62 30.44 64.53 30.44 63.83 30.4" style="fill:#c1e8f7"/><polygon points="63.83 30.4 63.31 29.82 63.83 30.4 64.62 30.44 64.53 30.44 63.83 30.4" style="fill:#69bfff;opacity:0.30000000000000004"/><polygon points="62.87 28.13 62.99 28.35 63.16 29.48 62.99 28.35 62.87 28.13" style="fill:#c1e8f7"/><polygon points="62.87 28.13 62.99 28.35 63.16 29.48 62.99 28.35 62.87 28.13" style="fill:#69bfff;opacity:0.30000000000000004"/><polygon points="47.63 48.53 47.88 47.83 47.94 47.68 47.63 48.53 47.37 48.75 47.54 48.61 47.63 48.53" style="fill:#c1e8f7"/><polygon points="47.63 48.53 47.88 47.83 47.94 47.68 47.63 48.53 47.37 48.75 47.54 48.61 47.63 48.53" style="fill:#69bfff;opacity:0.30000000000000004"/><polygon points="77.44 15.56 77.52 15.5 76.92 15.91 76.85 16.57 76.92 15.91 77.44 15.56" style="fill:#c1e8f7"/><polygon points="77.44 15.56 77.52 15.5 76.92 15.91 76.85 16.57 76.92 15.91 77.44 15.56" style="fill:#69bfff;opacity:0.30000000000000004"/><polygon points="58.92 33.38 53.66 33.41 58.4 33.38 58.92 33.38" style="fill:#c1e8f7"/><polygon points="58.92 33.38 53.66 33.41 58.4 33.38 58.92 33.38" style="fill:#69bfff;opacity:0.30000000000000004"/><polygon points="83.95 11.11 83.95 11.11 83.98 11.12 83.95 11.11" style="fill:#c1e8f7"/><polygon points="83.95 11.11 83.95 11.11 83.98 11.12 83.95 11.11" style="fill:#69bfff;opacity:0.30000000000000004"/><polygon points="79.25 15.3 79.25 15.3 79.29 15.58 79.25 15.3" style="fill:#c1e8f7"/><polygon points="79.25 15.3 79.25 15.3 79.29 15.58 79.25 15.3" style="fill:#69bfff;opacity:0.30000000000000004"/><polygon points="47.32 48.79 47.32 48.79 47.37 48.75 47.32 48.79" style="fill:#c1e8f7"/><polygon points="47.32 48.79 47.32 48.79 47.37 48.75 47.32 48.79" style="fill:#69bfff;opacity:0.30000000000000004"/><polygon points="63.2 29.68 63.2 29.68 63.2 29.68 63.16 29.48 63.2 29.68 63.31 29.82 63.28 29.78 63.2 29.68" style="fill:#c1e8f7"/><polygon points="63.2 29.68 63.2 29.68 63.2 29.68 63.16 29.48 63.2 29.68 63.31 29.82 63.28 29.78 63.2 29.68" style="fill:#69bfff;opacity:0.30000000000000004"/><polygon points="48.88 46.35 48.82 46.87 48.82 46.87 48.88 46.35" style="fill:#c1e8f7"/><polygon points="48.88 46.35 48.82 46.87 48.82 46.87 48.88 46.35" style="fill:#69bfff;opacity:0.30000000000000004"/><polygon points="66.7 17.09 60.68 17 60.68 17 66.67 17.09 66.7 17.09" style="fill:#c1e8f7"/><polygon points="66.7 17.09 60.68 17 60.68 17 66.67 17.09 66.7 17.09" style="fill:#69bfff;opacity:0.30000000000000004"/><polygon points="47.99 47.52 47.99 47.52 48.14 47.41 47.99 47.52 47.94 47.68 47.99 47.52 47.99 47.52" style="fill:#c1e8f7"/><polygon points="47.99 47.52 47.99 47.52 48.14 47.41 47.99 47.52 47.94 47.68 47.99 47.52 47.99 47.52" style="fill:#69bfff;opacity:0.30000000000000004"/><polygon points="62.52 27.52 62.87 28.13 62.69 27.82 62.52 27.52" style="fill:#c1e8f7"/><polygon points="62.52 27.52 62.87 28.13 62.69 27.82 62.52 27.52" style="fill:#69bfff;opacity:0.30000000000000004"/><polygon points="60.33 21.7 60.31 21.88 60.05 21.9 60.31 21.88 60.33 21.7" style="fill:#c1e8f7"/><polygon points="60.33 21.7 60.31 21.88 60.05 21.9 60.31 21.88 60.33 21.7" style="fill:#69bfff;opacity:0.30000000000000004"/><polygon points="48.67 45.83 48.65 45.79 48.28 45.1 48.36 44.63 48.44 44.16 48.28 43.69 48.22 43.17 48.28 43.69 48.44 44.16 48.28 45.1 48.67 45.83 48.92 46.07 48.92 46.07 48.67 45.83" style="fill:#c1e8f7"/><polygon points="48.67 45.83 48.65 45.79 48.28 45.1 48.36 44.63 48.44 44.16 48.28 43.69 48.22 43.17 48.28 43.69 48.44 44.16 48.28 45.1 48.67 45.83 48.92 46.07 48.92 46.07 48.67 45.83" style="fill:#69bfff;opacity:0.30000000000000004"/><polygon points="79.33 16.01 79.76 16.29 79.9 16.1 79.76 16.29 79.33 16.01 79.33 16.01" style="fill:#c1e8f7"/><polygon points="79.33 16.01 79.76 16.29 79.9 16.1 79.76 16.29 79.33 16.01 79.33 16.01" style="fill:#69bfff;opacity:0.30000000000000004"/><polygon points="82.28 12.9 82.08 13.65 81.28 14.75 82.08 13.65 82.28 12.9" style="fill:#c1e8f7"/><polygon points="82.28 12.9 82.08 13.65 81.28 14.75 82.08 13.65 82.28 12.9" style="fill:#69bfff;opacity:0.30000000000000004"/><polygon points="82.84 11.51 82.84 11.51 83.65 11.22 82.84 11.51" style="fill:#c1e8f7"/><polygon points="82.84 11.51 82.84 11.51 83.65 11.22 82.84 11.51" style="fill:#69bfff;opacity:0.30000000000000004"/><polygon points="82.45 12.26 82.45 12.26 82.56 12.05 82.45 12.26" style="fill:#c1e8f7"/><polygon points="82.45 12.26 82.45 12.26 82.56 12.05 82.45 12.26" style="fill:#69bfff;opacity:0.30000000000000004"/><polygon points="76.92 15.91 77.44 15.56 76.92 15.91 76.85 16.57 76.84 16.72 76.92 15.91" style="fill:#c1e8f7"/><polygon points="76.92 15.91 77.44 15.56 76.92 15.91 76.85 16.57 76.84 16.72 76.92 15.91" style="fill:#69bfff;opacity:0.30000000000000004"/><polygon points="60.31 21.88 60.53 19.01 60.33 21.7 60.31 21.88 60.31 21.88" style="fill:#c1e8f7"/><polygon points="60.31 21.88 60.53 19.01 60.33 21.7 60.31 21.88 60.31 21.88" style="fill:#69bfff;opacity:0.30000000000000004"/><polygon points="66.67 17.09 60.68 17 60.68 17 66.67 17.09" style="fill:#c1e8f7"/><polygon points="66.67 17.09 60.68 17 60.68 17 66.67 17.09" style="fill:#69bfff;opacity:0.30000000000000004"/><polygon points="48.92 46.07 48.92 46.07 48.92 46.07 48.92 46.07" style="fill:#c1e8f7"/><polygon points="48.92 46.07 48.92 46.07 48.92 46.07 48.92 46.07" style="fill:#69bfff;opacity:0.30000000000000004"/><polygon points="48.44 44.16 48.44 44.16 48.28 43.69 48.19 42.96 48.22 43.17 48.28 43.69 48.44 44.16" style="fill:#c1e8f7"/><polygon points="48.44 44.16 48.44 44.16 48.28 43.69 48.19 42.96 48.22 43.17 48.28 43.69 48.44 44.16" style="fill:#69bfff;opacity:0.30000000000000004"/><polygon points="48.65 45.79 48.28 45.1 48.36 44.63 48.28 45.1 48.65 45.79" style="fill:#c1e8f7"/><polygon points="48.65 45.79 48.28 45.1 48.36 44.63 48.28 45.1 48.65 45.79" style="fill:#69bfff;opacity:0.30000000000000004"/><polygon points="53.66 33.41 58.4 33.38 53.66 33.41 51.85 36.26 53.66 33.41" style="fill:#c1e8f7"/><polygon points="53.66 33.41 58.4 33.38 53.66 33.41 51.85 36.26 53.66 33.41" style="fill:#69bfff;opacity:0.30000000000000004"/><polygon points="48.82 46.87 48.92 46.07 48.88 46.35 48.82 46.87 48.82 46.87" style="fill:#c1e8f7"/><polygon points="48.82 46.87 48.92 46.07 48.88 46.35 48.82 46.87 48.82 46.87" style="fill:#69bfff;opacity:0.30000000000000004"/><polygon points="63.2 29.68 62.99 28.35 62.69 27.82 62.87 28.13 62.99 28.35 63.16 29.48 63.2 29.68 63.2 29.68" style="fill:#c1e8f7"/><polygon points="63.2 29.68 62.99 28.35 62.69 27.82 62.87 28.13 62.99 28.35 63.16 29.48 63.2 29.68 63.2 29.68" style="fill:#69bfff;opacity:0.30000000000000004"/><polygon points="47.99 47.52 47.99 47.52 47.94 47.68 47.88 47.83 47.99 47.52" style="fill:#c1e8f7"/><polygon points="47.99 47.52 47.99 47.52 47.94 47.68 47.88 47.83 47.99 47.52" style="fill:#69bfff;opacity:0.30000000000000004"/><polygon points="64.53 30.44 63.83 30.4 63.28 29.78 63.31 29.82 63.83 30.4 64.53 30.44" style="fill:#c1e8f7"/><polygon points="64.53 30.44 63.83 30.4 63.28 29.78 63.31 29.82 63.83 30.4 64.53 30.44" style="fill:#69bfff;opacity:0.30000000000000004"/><polygon points="47.54 48.61 47.37 48.75 47.32 48.79 47.32 48.79 47.54 48.61" style="fill:#c1e8f7"/><polygon points="47.54 48.61 47.37 48.75 47.32 48.79 47.32 48.79 47.54 48.61" style="fill:#69bfff;opacity:0.30000000000000004"/><path d="M230.72,101.17l-1.41.83-1.41-.23V99.43l-1.63-1.87-.47-1.63,1.51-1.29.12-.93,3-3V88.1l-1-1.69.13-.75-.07-1-1.28-.94-.65-1.34.42-1.1,1.86-.82.8-.2V73.33l-.68,0-.4.7-.13.75-1.22.18-.65.52-1.33-.18-1.17.48-.65.75.7.82-.52.75-2.1,1.05-2.8,1.7-1.87,1.34-2.16.46-2.38.18-2.63-.29-1.63.87.12,1,.52,1.29L209.56,87l-1.22,1.1-.81-.35.29-1.29-.18-.4,1.17-.41-1.7-.18-2-.87-1.05,0-2.69,1.64-.64,1.11-1.8,2.1-2.16,4.08-.3,1.17.65-.29.57.64.24,1.34-.46,1.46-1.17.59-1.52.11-1.17.65-2.09,2-.88.47L189,104l-.93.11-1.34.06.47,1.53,1.4,1.57v2l-.82,1.75-.87-.06-1.46-1.22.17-.59.53-.92-1.23-.52-.52-1.54-1.78-1.56-.25,1,.26,1,.29.83.54,1.48-.59,1-.75,1.33-.64,2.25-.76.6-.37.3h0l-.41,0-.43,0-.81,1.87.34.3.35,1.87.15,1.85,1.61,2,.61-.06.79-.4.43.73.21,1.78-1,1.11,0,.7,1,1.06v2.25l-1.06.79-.63,1.17.63.26.65,1.49-.2,2.74.09,2.35h48.08ZM225,116.75l-1.84-1.53,1.84,1.52,2.28,1Z" style="fill:#69bfff;opacity:0.4"/><polygon points="183.14 110.38 183.72 109.34 183.19 107.86 183.72 109.34 183.14 110.38" style="fill:#1a8fe8"/><polygon points="183.14 110.38 183.72 109.34 183.19 107.86 183.72 109.34 183.14 110.38" style="fill:#69bfff;opacity:0.4"/><polygon points="179.77 114.94 180.2 114.9 179.77 114.94 179.77 114.94" style="fill:#1a8fe8"/><polygon points="179.77 114.94 180.2 114.9 179.77 114.94 179.77 114.94" style="fill:#69bfff;opacity:0.4"/><polygon points="180.61 114.87 180.99 114.57 180.61 114.87 180.61 114.87" style="fill:#1a8fe8"/><polygon points="180.61 114.87 180.99 114.57 180.61 114.87 180.61 114.87" style="fill:#69bfff;opacity:0.4"/><polygon points="182.89 107.03 183.19 107.86 182.89 107.03 182.63 106 182.63 106 182.89 107.03" style="fill:#c1e8f7"/><polygon points="182.89 107.03 183.19 107.86 182.89 107.03 182.63 106 182.63 106 182.89 107.03" style="opacity:0.75;fill:url(#New_Gradient_Swatch_3-122)"/><polygon points="182.89 107.03 183.19 107.86 182.89 107.03 182.63 106 182.63 106 182.89 107.03" style="fill:#69bfff;opacity:0.4"/><polygon points="181.75 113.97 180.99 114.57 181.75 113.97 182.39 111.72 183.14 110.38 182.39 111.72 181.75 113.97" style="fill:#c1e8f7"/><polygon points="181.75 113.97 180.99 114.57 181.75 113.97 182.39 111.72 183.14 110.38 182.39 111.72 181.75 113.97" style="opacity:0.75;fill:url(#New_Gradient_Swatch_3-123)"/><polygon points="181.75 113.97 180.99 114.57 181.75 113.97 182.39 111.72 183.14 110.38 182.39 111.72 181.75 113.97" style="fill:#69bfff;opacity:0.4"/><polygon points="180.61 114.87 180.61 114.87 180.2 114.9 180.61 114.87" style="fill:#c1e8f7"/><polygon points="180.61 114.87 180.61 114.87 180.2 114.9 180.61 114.87" style="opacity:0.75;fill:url(#New_Gradient_Swatch_3-124)"/><polygon points="180.61 114.87 180.61 114.87 180.2 114.9 180.61 114.87" style="fill:#69bfff;opacity:0.4"/><polygon points="182.63 106 182.54 106.4 182.8 107.45 183.52 109.47 182.36 111.55 181.8 113.51 180.81 114.3 180.02 114.36 179.77 114.94 180.2 114.9 180.61 114.87 180.99 114.57 181.75 113.97 182.39 111.72 183.14 110.38 183.72 109.34 183.19 107.86 182.89 107.03 182.63 106" style="fill:#1a8fe8"/><polygon points="182.63 106 182.54 106.4 182.8 107.45 183.52 109.47 182.36 111.55 181.8 113.51 180.81 114.3 180.02 114.36 179.77 114.94 180.2 114.9 180.61 114.87 180.99 114.57 181.75 113.97 182.39 111.72 183.14 110.38 183.72 109.34 183.19 107.86 182.89 107.03 182.63 106" style="opacity:0.75;fill:url(#New_Gradient_Swatch_3-125)"/><polygon points="182.63 106 182.54 106.4 182.8 107.45 183.52 109.47 182.36 111.55 181.8 113.51 180.81 114.3 180.02 114.36 179.77 114.94 180.2 114.9 180.61 114.87 180.99 114.57 181.75 113.97 182.39 111.72 183.14 110.38 183.72 109.34 183.19 107.86 182.89 107.03 182.63 106" style="fill:#69bfff;opacity:0.4"/><text transform="translate(14.34 26.6)" style="font-size:7px;fill:#00058b;font-family:OpenSans-Bold, Open Sans;font-weight:700">MEXICO</text><text transform="translate(179.44 126.92)" style="font-size:7px;fill:#00058b;font-family:OpenSans-Bold, Open Sans;font-weight:700">VENEZUELA</text><text transform="translate(9.35 69.37)" style="font-size:8px;fill:#00058b;font-family:OpenSans-Bold, Open Sans;font-weight:700">GUATEMALA</text><text transform="translate(97.73 18.74)" style="font-size:8px;fill:#00058b;font-family:OpenSans-Bold, Open Sans;font-weight:700">BELIZE</text><text transform="translate(138.93 61.16)" style="font-size:8px;fill:#00058b;font-family:OpenSans-Bold, Open Sans;font-weight:700">NICARAGUA</text><text transform="translate(32.94 86.2)" style="font-size:8px;fill:#00058b;font-family:OpenSans-Bold, Open Sans;font-weight:700">EL SALVADOR</text><text transform="translate(121.95 32.68)" style="font-size:8px;fill:#00058b;font-family:OpenSans-Bold, Open Sans;font-weight:700">HONDURAS</text><text transform="translate(65.48 108.6)" style="font-size:8px;fill:#00058b;font-family:OpenSans-Bold, Open Sans;font-weight:700">COSTA RICA</text><text transform="translate(152.1 88.06)" style="font-size:8px;fill:#00058b;font-family:OpenSans-Bold, Open Sans;font-weight:700">PANAMA</text><polygon points="83.8 16.45 84.44 17.75 85.87 17.95 84.83 18.96 85.08 20.38 83.8 19.71 82.53 20.38 82.77 18.96 81.74 17.95 83.16 17.75 83.8 16.45" style="fill:#fff"/><polygon points="60.05 45.58 60.69 46.87 62.12 47.08 61.09 48.09 61.33 49.51 60.05 48.84 58.78 49.51 59.02 48.09 57.99 47.08 59.41 46.87 60.05 45.58" style="fill:#fff"/><polygon points="164.16 96.11 164.83 97.47 166.34 97.69 165.25 98.75 165.51 100.25 164.16 99.55 162.81 100.25 163.07 98.75 161.98 97.69 163.49 97.47 164.16 96.11" style="fill:#fff"/><polygon points="124.18 90.13 124.82 91.42 126.24 91.63 125.21 92.64 125.45 94.06 124.18 93.39 122.9 94.06 123.15 92.64 122.12 91.63 123.54 91.42 124.18 90.13" style="fill:#fff"/><polygon points="106.04 73.82 106.68 75.11 108.1 75.32 107.07 76.33 107.31 77.75 106.04 77.08 104.76 77.75 105.01 76.33 103.97 75.32 105.4 75.11 106.04 73.82" style="fill:#fff"/><polygon points="93.61 51.64 94.24 52.93 95.67 53.14 94.64 54.14 94.88 55.56 93.61 54.89 92.33 55.56 92.57 54.14 91.54 53.14 92.97 52.93 93.61 51.64" style="fill:#fff"/><polygon points="75.02 52.81 75.66 54.1 77.09 54.31 76.05 55.32 76.3 56.74 75.02 56.07 73.75 56.74 73.99 55.32 72.96 54.31 74.38 54.1 75.02 52.81" style="fill:#fff"/><line x1="42.48" y1="61.64" x2="50.48" y2="55.08" style="fill:none;stroke:#00058b;stroke-linecap:round;stroke-miterlimit:10;stroke-width:0.25px"/><line x1="68.81" y1="78.7" x2="75.02" y2="62.09" style="fill:none;stroke:#00058b;stroke-linecap:round;stroke-miterlimit:10;stroke-width:0.25px"/><line x1="101.72" y1="101.59" x2="108.86" y2="94.85" style="fill:none;stroke:#00058b;stroke-linecap:round;stroke-miterlimit:10;stroke-width:0.25px"/><line x1="155.56" y1="88.99" x2="158.94" y2="97.05" style="fill:none;stroke:#00058b;stroke-linecap:round;stroke-miterlimit:10;stroke-width:0.25px"/><line x1="129.51" y1="68.57" x2="141.41" y2="63.29" style="fill:none;stroke:#00058b;stroke-linecap:round;stroke-miterlimit:10;stroke-width:0.25px"/><line x1="110.36" y1="34.73" x2="120.56" y2="30.44" style="fill:none;stroke:#00058b;stroke-linecap:round;stroke-miterlimit:10;stroke-width:0.25px"/><line x1="87.88" y1="23" x2="96.72" y2="16.46" style="fill:none;stroke:#00058b;stroke-linecap:round;stroke-miterlimit:10;stroke-width:0.25px"/></svg>