<svg id="Layer_1" data-name="Layer 1" xmlns="http://www.w3.org/2000/svg" xmlns:xlink="http://www.w3.org/1999/xlink" viewBox="0 0 230.76 154.15"><defs><linearGradient id="New_Gradient_Swatch_3" x1="106.39" y1="75.2" x2="140.75" y2="75.2" gradientUnits="userSpaceOnUse"><stop offset="0" stop-color="#662d91"/><stop offset="0.38" stop-color="#4558b7"/><stop offset="0.79" stop-color="#2680da"/><stop offset="1" stop-color="#1a8fe8"/></linearGradient></defs><title>photo-immigration-puertomap</title><rect width="230.76" height="154.15" style="fill:#c1e8f7"/><polygon points="153.14 84.27 159.34 83.42 157.23 81.31 153.14 84.27" style="fill:#c1e8f7"/><polygon points="153.14 84.27 159.34 83.42 157.23 81.31 153.14 84.27" style="fill:#69bfff;opacity:0.4"/><polygon points="212.88 84.85 211.33 81.61 208.51 85.26 211.88 88.36 212.88 84.85" style="fill:#c1e8f7"/><polygon points="212.88 84.85 211.33 81.61 208.51 85.26 211.88 88.36 212.88 84.85" style="fill:#69bfff;opacity:0.4"/><polygon points="189.48 90.05 191.61 93.01 195.7 93.56 192.3 88.09 189.48 90.05" style="fill:#c1e8f7"/><polygon points="189.48 90.05 191.61 93.01 195.7 93.56 192.3 88.09 189.48 90.05" style="fill:#69bfff;opacity:0.4"/><polygon points="208.51 93.01 208.21 96.24 210.06 98.35 214.42 96.81 208.51 93.01" style="fill:#c1e8f7"/><polygon points="208.51 93.01 208.21 96.24 210.06 98.35 214.42 96.81 208.51 93.01" style="fill:#69bfff;opacity:0.4"/><polygon points="186.25 72.99 183.01 75.39 183.57 77.24 188.21 80.46 188.37 76.24 191.31 72.85 186.25 72.99" style="fill:#c1e8f7"/><polygon points="186.25 72.99 183.01 75.39 183.57 77.24 188.21 80.46 188.37 76.24 191.31 72.85 186.25 72.99" style="fill:#69bfff;opacity:0.4"/><polygon points="139.95 79.65 147.16 79.22 148.64 77.95 143.19 76.49 139.95 79.65" style="fill:#c1e8f7"/><polygon points="139.95 79.65 147.16 79.22 148.64 77.95 143.19 76.49 139.95 79.65" style="fill:#69bfff;opacity:0.4"/><polygon points="137.09 72.03 136.11 69.64 133.72 68.5 125.68 69.64 111.45 68.37 109.88 71.16 106.51 72.85 106.95 75.53 106.39 77.5 108.08 80.76 117.38 81.18 119.9 82.03 126.66 80.34 129.21 81.61 135.69 78.63 140.75 73.13 137.09 72.03" style="fill:#c1e8f7"/><polygon points="137.09 72.03 136.11 69.64 133.72 68.5 125.68 69.64 111.45 68.37 109.88 71.16 106.51 72.85 106.95 75.53 106.39 77.5 108.08 80.76 117.38 81.18 119.9 82.03 126.66 80.34 129.21 81.61 135.69 78.63 140.75 73.13 137.09 72.03" style="fill:url(#New_Gradient_Swatch_3)"/><polygon points="80.93 73.64 79.67 74.28 81.14 77.04 83.86 78.15 86.31 76.41 83.13 75.98 80.93 73.64" style="fill:#c1e8f7"/><polygon points="80.93 73.64 79.67 74.28 81.14 77.04 83.86 78.15 86.31 76.41 83.13 75.98 80.93 73.64" style="fill:#69bfff;opacity:0.4"/><polygon points="201.76 106.26 204.55 105.7 203.15 102.42 201.76 106.26" style="fill:#c1e8f7"/><polygon points="201.76 106.26 204.55 105.7 203.15 102.42 201.76 106.26" style="fill:#69bfff;opacity:0.4"/><polygon points="213.99 110.61 211.46 110.74 210.19 114.7 215.12 122.16 217.64 114.83 213.99 110.61" style="fill:#c1e8f7"/><polygon points="213.99 110.61 211.46 110.74 210.19 114.7 215.12 122.16 217.64 114.83 213.99 110.61" style="fill:#69bfff;opacity:0.4"/><polygon points="222.87 123.15 223.28 119.64 220.06 121.88 222.87 123.15" style="fill:#c1e8f7"/><polygon points="222.87 123.15 223.28 119.64 220.06 121.88 222.87 123.15" style="fill:#69bfff;opacity:0.4"/><polygon points="217.52 110.35 219.77 114.44 224.28 114.83 221.48 106.65 217.52 110.35" style="fill:#c1e8f7"/><polygon points="217.52 110.35 219.77 114.44 224.28 114.83 221.48 106.65 217.52 110.35" style="fill:#69bfff;opacity:0.4"/><path d="M218.79,127.37c-.17.32-2.12,3.39-2.12,3.39l1.55,6.05,3.67-.86-.16-5.46Z" style="fill:#c1e8f7"/><path d="M218.79,127.37c-.17.32-2.12,3.39-2.12,3.39l1.55,6.05,3.67-.86-.16-5.46Z" style="fill:#69bfff;opacity:0.4"/><polygon points="87.36 63.59 79.46 59.07 76.53 59.07 71.74 57.5 68.48 57.64 63.28 55.12 57.78 51.88 53.98 51.88 56.66 50.89 62.15 52.44 70.59 53.29 73.99 52.02 71.44 50.06 69.2 50.48 62.86 49.2 59.76 43.15 56.23 43.15 54.54 43.84 52 42.01 35.68 38.49 33.83 39.62 30.17 38.64 23.68 39.76 22.61 41.7 22.21 41.61 18.41 42.42 14.61 38.59 5.29 37.47 2.58 39.06 0 38.2 0 44.84 0 60.98 0 64.1 0 69.8 0 78.59 8.42 78.81 10.64 77.38 14.29 79.13 17.49 79.4 18.21 80.9 16.93 84.13 20.46 85.55 21.46 87.51 23.98 88.78 26.38 83 31.18 76.66 30.59 74.71 32.28 71.86 34.54 73.98 37.22 74.28 39.61 69.48 42.42 71.16 42.71 74.98 44.96 76.41 50.17 74.98 55.4 70.19 61.02 69.19 67.09 70.05 70.89 68.62 73.7 70.89 78.21 71.16 83.7 72.58 84.82 69.48 87.23 69.48 89.05 66.38 87.36 63.59" style="fill:#69bfff;opacity:0.4"/><polygon points="0.52 32.72 3.83 35.09 12.07 34.95 4.48 30.5 0.52 32.72" style="fill:#69bfff;opacity:0.4"/><text transform="translate(42.56 59.78)" style="font-size:7px;fill:#00058b;font-family:OpenSans-Bold, Open Sans;font-weight:700">DOMINICAN <tspan x="0" y="8.4">REPUBLIC</tspan></text><polygon points="130.34 68.15 131.25 70 133.29 70.29 131.82 71.73 132.17 73.76 130.34 72.8 128.52 73.76 128.87 71.73 127.4 70.29 129.43 70 130.34 68.15" style="fill:#fff"/><text transform="translate(8.45 53.34)" style="font-size:7px;fill:#00058b;font-family:OpenSans-Bold, Open Sans;font-weight:700">HAITI</text></svg>