<svg id="Layer_1" data-name="Layer 1" xmlns="http://www.w3.org/2000/svg" xmlns:xlink="http://www.w3.org/1999/xlink" viewBox="0 0 230.88 138.37"><defs><linearGradient id="New_Gradient_Swatch_3" x1="87.98" y1="52.37" x2="122.76" y2="112.61" gradientUnits="userSpaceOnUse"><stop offset="0" stop-color="#662d91"/><stop offset="0.38" stop-color="#4558b7"/><stop offset="0.79" stop-color="#2680da"/><stop offset="1" stop-color="#1a8fe8"/></linearGradient></defs><title>photo-immigration-cubamap</title><rect width="230.88" height="138.37" style="fill:#c1e8f7"/><polygon points="208.34 112.36 207.73 112.67 208.45 114.02 209.77 114.56 210.97 113.71 209.42 113.5 208.34 112.36" style="fill:#69bfff;opacity:0.4"/><polygon points="178.78 100.42 179.55 101.93 178.92 103.98 177.42 104.74 177.14 105.49 178.03 107.48 177.96 109.06 177.82 110.23 175.56 112.63 175.72 113.68 176.77 113.77 177.8 115.9 177.18 117.47 178.89 118.17 179.38 119.12 180.61 119.74 181.78 116.92 184.12 113.83 183.83 112.89 184.65 111.5 185.75 112.53 187.06 112.67 188.22 110.34 189.59 111.16 189.73 113.02 190.83 113.71 193.37 113.02 195.91 110.68 198.65 110.19 201.6 110.61 203.46 109.92 204.82 111.03 207.02 111.16 209.7 111.85 210.24 110.34 211.41 110.34 212.3 108.83 211.48 107.47 207.63 105.27 206.2 105.27 203.87 104.5 202.28 104.57 199.75 103.34 197.07 101.76 195.22 101.76 196.52 101.28 199.2 102.04 203.31 102.45 204.97 101.83 203.72 100.88 202.63 101.08 199.54 100.46 198.03 97.52 196.32 97.52 195.49 97.85 194.26 96.96 186.31 95.24 185.41 95.79 183.62 95.32 180.47 95.86 179.47 97.67 179.75 98.63 178.78 100.42" style="fill:#69bfff;stroke:#fff;stroke-miterlimit:10;stroke-width:0.25px;opacity:0.4"/><polygon points="86.9 102.72 88.82 102.45 89.44 101.08 87.51 101.14 86.9 102.72" style="fill:#69bfff;opacity:0.4"/><polygon points="132.86 112.94 131.08 109.99 123.8 109.59 120.23 110.34 118.12 110.13 116.53 110.48 115.44 112.05 117.22 113.42 118.45 113.02 119.62 113.56 120.72 116.04 122.02 117.06 124.21 117 125.73 118.17 127.99 118.23 128.06 116.24 129.71 116.24 130.46 117.13 131.42 116.85 132.18 115.27 133.47 115.96 136.63 115.96 136.84 115.08 135.26 113.42 132.86 112.94" style="fill:#69bfff;opacity:0.4"/><polygon points="168.67 107.26 168.26 105.81 166.41 104.43 164.76 105.27 166 106.3 168.67 107.26" style="fill:#69bfff;opacity:0.4"/><path d="M169.22,96.2l-1.65-.55H164l-.54,1c.07,0,1.92,1.1,1.92,1.1l5.08,1.71-.55,1,.68,1.51-.68,2.4.89,1.65,1.78.47,2.06,1.86-.48,1.16-3.91-.12-.75.53-1.65-.47-2.27.21-2-.83-2.33,1-.13-1-.83-.34-3,.76-1.58-1.53-2,1-.76,1.17.69,1.58,2.26.29,2.33,2.66,1,.34.2-1.64,1-.82h4.19l1.78,1,5.21.14,1-.62,1.57.76,1.43.12-.16-1.05,2.26-2.4.14-1.17.07-1.58-.89-2,.28-.75,1.5-.76.63-2-.77-1.51,1-1.79-.28-1,0,0-1.71-.41-1.65.35L174.43,96l-4-.48Z" style="fill:#69bfff;stroke:#fff;stroke-miterlimit:10;stroke-width:0.25px;opacity:0.4"/><polygon points="168.33 93.46 169.76 94.49 173.33 94.42 170.04 92.5 168.33 93.46" style="fill:#69bfff;opacity:0.4"/><polygon points="104.11 65.27 103.23 64.16 96.16 63.13 93.82 64.03 90.88 63.42 89.16 61.36 84.77 60.59 80.93 60.74 79.01 62.32 73.8 62.59 69.82 63.55 68.38 64.86 64.32 66.03 62.96 67.67 61.24 68.63 60.97 70.82 62.06 72.27 61.58 73.15 60.01 72.27 56.64 74.26 55.27 73.84 55.2 75.07 56.98 75.97 58.91 73.76 59.59 74.19 59.67 75.68 62 74.32 63.64 74.19 65.55 71.23 68.04 71.72 69 70.89 70.23 71.86 72.16 71.5 74.96 68.08 76.6 67.73 77.77 66.42 80.38 66.85 82.23 66.78 86.41 67.25 87.51 68.28 86.41 69.18 84.29 68.97 82.84 69.99 84.29 71.17 89.92 72.07 91.08 71.65 92.79 71.65 94.31 72.95 96.98 73.3 98.28 73.23 98.98 72.19 100.23 73.11 100.36 74.15 103.46 76.38 105.91 76.79 106.93 76.21 108.56 77.58 110.35 77.31 111.76 77.96 114.41 77.06 115.54 77.48 117.09 83.15 120.27 86.91 121.81 86.94 122.5 86.32 124.63 87.59 128 87.63 128.49 88.58 130.04 89.14 129.79 90.99 127.39 91.57 124.21 94.42 124.15 96.15 127.46 96.73 129.69 95.56 131.35 96.24 136 95.18 138.57 95.5 141.84 96.97 146.74 95.83 147.39 94.77 148.57 94.97 149.94 93.87 153.16 94.28 155.57 93.66 156.6 91.75 155.77 90.86 154.06 90.65 152.9 88.04 148.72 86.33 143.76 86.33 142.46 85.84 143.49 84.88 144.18 82.56 143.02 82.14 141.44 82.76 139.65 82.62 136.23 80.09 135.26 80.98 133.76 79.6 131.21 77.68 129.71 79.25 128.95 78.37 129.36 77.21 128.33 76.72 127.72 77.89 126.55 76.66 122.92 75.83 120.51 73.56 118.32 72.34 115.91 70.48 110.63 70.21 108.71 69.31 108.03 67.25 105.83 64.86 104.11 65.27" style="fill:url(#New_Gradient_Swatch_3)"/><polygon points="75.03 74.15 74.34 75.52 74.85 76.63 75.75 77.22 74.85 77.93 73.89 77.76 73.07 77.17 73.35 78.18 75.44 79.03 78.13 78.25 78.41 76.48 76.75 74.52 75.03 74.15" style="fill:#69bfff;opacity:0.4"/><polygon points="158.31 69.52 157.28 69.66 157.08 70.69 158.04 70.75 162.15 68.35 162.29 66.16 161.95 65.27 160.1 65.81 160.24 67.39 158.31 69.52" style="fill:#69bfff;opacity:0.4"/><polygon points="169.22 78.02 168.18 79.12 169.22 79.75 169.22 78.02" style="fill:#69bfff;opacity:0.4"/><polygon points="148.78 57.38 150.01 59.78 148.98 60.46 150.56 63.01 151.73 64.45 152.9 64.58 151.24 61.57 150.71 59.23 149.05 56.21 148.78 57.38" style="fill:#69bfff;opacity:0.4"/><polygon points="148.15 51.57 147.36 52.45 148.18 53.53 150.41 53.36 150.52 52.23 149.04 49.53 148.52 47.51 146.63 46.14 146.33 47.3 147.77 48.96 148.15 51.57" style="fill:#69bfff;opacity:0.4"/><polygon points="141.91 56.89 143.43 56.89 142.25 55.31 141.91 56.89" style="fill:#69bfff;opacity:0.4"/><polygon points="169.76 70.75 171.55 71.57 171.69 70.82 168.81 69.18 167.16 69.93 167.98 70.89 169.76 70.75" style="fill:#69bfff;opacity:0.4"/><polygon points="157.7 52.64 157.08 51.41 155.92 53.32 156.87 54.22 157.7 52.64" style="fill:#69bfff;opacity:0.4"/><polygon points="156.32 64.86 157.5 66.23 158.93 66.5 158.73 64.92 156.46 63.7 156.32 64.86" style="fill:#69bfff;opacity:0.4"/><polygon points="161.68 85.7 166.61 85.17 168.18 83.04 168.18 80.77 167.5 81.19 166.34 82.56 164.42 81.45 162.15 82.89 161.68 85.7" style="fill:#69bfff;opacity:0.4"/><polygon points="142.46 42.23 141.81 43.66 140.68 44.25 141.5 45.21 142.56 44.9 143.32 41.95 141.64 39.51 138.99 37.99 138.79 39.38 141.05 40.23 142.46 42.23" style="fill:#69bfff;opacity:0.4"/><polygon points="127.83 49.27 126.15 49.77 126.73 50.72 127.83 49.27" style="fill:#69bfff;opacity:0.4"/><polygon points="125.7 50.47 124.84 51.19 125.88 51.67 125.7 50.47" style="fill:#69bfff;opacity:0.4"/><polygon points="125.5 41.74 124.19 41.19 123.47 43.77 121.98 46.38 123.29 47.61 124.88 46.79 125.29 48.48 127.56 46.95 125.91 43.97 125.5 41.74" style="fill:#69bfff;opacity:0.4"/><polygon points="126.56 56.39 128.14 56.07 129 54.38 128.49 53.15 128.73 51.84 127.97 51.05 125.53 52.39 125.59 54.04 126.56 56.39" style="fill:#69bfff;opacity:0.4"/><polygon points="129.35 41.57 130.58 42.19 133.17 42.25 133.96 40.82 131.76 40.3 129.35 41.57" style="fill:#69bfff;opacity:0.4"/><polygon points="132.31 24.37 134.44 27.13 133.2 28.3 133.76 30.08 133.06 33.22 134.64 31.58 134.5 29.93 136.36 28.77 136.36 26.17 134.99 25.27 134.64 23.41 131.76 21.43 129.09 21.5 131.96 22.45 132.31 24.37" style="fill:#69bfff;opacity:0.4"/><polygon points="121.95 26.43 125.52 23.9 127.37 24.31 128.89 24.52 126.82 22.6 123.88 22.6 121.2 24.24 120.03 23.41 117.63 23.41 120.03 26.1 121.95 26.43" style="fill:#69bfff;opacity:0.4"/><polygon points="84.26 2.1 82.99 6.54 81.14 10.01 81.06 11.43 82.2 13.36 82.71 12.88 83.81 11.32 83.47 10.53 84.19 9.94 85.56 10.53 85.63 12.29 83.29 15.63 83.85 16.8 83.99 18.62 85.15 19.99 85.54 20.92 86.3 20.71 86.77 22.49 87.39 21.61 87.39 20.82 88.14 21.37 89.94 20.89 88.52 22.27 88.18 23.85 87.42 24.75 87.59 25.88 89.94 27.68 90.2 29.59 90.11 32.12 90.82 32.77 92.45 32.84 93.12 34.11 92.89 35.73 95.19 37.59 94.1 38.07 96.08 38.62 96.97 39.79 98.76 40.27 100.54 39.66 102.11 39.1 102.4 36.7 103.56 34.98 104.46 32.72 106.1 29.36 105.88 27.71 106.37 26.82 106.71 23.46 106.23 22.77 107.33 21.67 106.71 18.86 104.79 17.63 103.76 11.52 103.08 10.56 103.35 7.68 104.17 5.48 103.5 3.77 102.26 2.13 101.81 0 84.43 0 84.26 2.1" style="fill:#69bfff;opacity:0.4"/><polygon points="59.66 137.13 58.01 136.99 56.43 137.34 55.4 136.86 54.99 138.03 53.76 137.13 49.57 136.72 45.52 136.52 43.32 134.66 41.33 133.69 40.92 134.87 41.67 135.42 40.17 136.03 39.21 136.72 37.63 136.17 34.47 136.99 30.43 136.65 24.8 136.79 22.34 138.16 21.18 137.2 20.41 136.59 18.7 136.38 18.22 137.55 16.71 136.52 15.34 136.52 14.74 135.44 14.72 135.42 15.47 133.84 17.25 131.98 18.29 132.88 20.96 129.17 21.92 126.57 21.99 123.41 20.96 122.38 21.38 119.57 22.4 117.86 22.68 113.19 22.95 112.16 22.75 111.14 21.51 111.14 20.55 112.02 20.09 111.16 20.06 111.14 21.72 109.69 23.77 107.29 24.88 106.95 24.67 108.87 23.77 109.77 23.84 110.31 25.97 111.61 26.73 113.4 27.14 112.98 28.92 109.9 30.43 103.93 31.39 102.35 30.5 102.49 29.54 103.45 28.71 103.03 28.71 102.29 30.84 100.02 31.18 98.65 29.61 98.65 28.37 97.61 28.99 96.94 30.84 95.77 31.05 93.22 31.86 91.85 36.05 88.09 38.18 84.52 39.69 82.11 39.55 80.02 36.77 76.52 34.97 76.66 35.4 77.76 34.29 78.18 29.9 77.06 26.19 77.21 26.33 78.18 23.99 79.26 23.17 78.44 20.82 78.71 19.45 80.65 11.35 80.5 5.17 82.03 5.17 83.39 6.68 83.53 3.11 87.51 2.84 93.42 3.11 94.11 0 97.46 0 117.22 0 124.86 0 130.98 0 133.94 0 136.03 0 138.37 20.37 138.37 61.85 138.37 59.66 137.13" style="fill:#69bfff;opacity:0.4"/><polygon points="80.9 58.44 81.81 60.29 83.85 60.58 82.37 62.02 82.72 64.05 80.9 63.09 79.08 64.05 79.42 62.02 77.95 60.58 79.99 60.29 80.9 58.44" style="fill:#fff"/><text transform="translate(71.46 23.95)" style="font-size:7px;fill:#00058b;font-family:OpenSans-Bold, Open Sans;font-weight:700">FLORIDA</text><text transform="translate(132.98 52.36)" style="font-size:7px;fill:#00058b;font-family:OpenSans-Bold, Open Sans;font-weight:700">BAHAMAS</text><text transform="translate(96.61 120.75)" style="font-size:7px;fill:#00058b;font-family:OpenSans-Bold, Open Sans;font-weight:700">JAMAICA</text><text transform="translate(177.47 116.61)" style="font-size:7px;fill:#00058b;font-family:OpenSans-Bold, Open Sans;font-weight:700">DOMINICAN <tspan x="0" y="8.4">REPUBLIC</tspan></text><text transform="translate(158.23 104.15)" style="font-size:7px;fill:#00058b;font-family:OpenSans-Bold, Open Sans;font-weight:700">HAITI</text></svg>