<svg id="Layer_1" data-name="Layer 1" xmlns="http://www.w3.org/2000/svg" viewBox="0 0 265.88 302.4"><title>photo-identity-bar</title><rect width="265.88" height="302.4" style="fill:#e028a5"/><path d="M251.52,130.61l-59.41,11.3c.09.58.18,1.17.25,1.75a59.81,59.81,0,0,1-21.21,53.5l38,47.21C243.59,216.28,259.18,174.44,251.52,130.61Z" style="fill:#fbae17"/><path d="M191.51,138.63l59.39-11.29c-9.74-48.47-45.58-84.3-94.07-94.05L145.74,92.56A59.91,59.91,0,0,1,191.51,138.63Z" style="fill:#ff66d7"/><path d="M140.34,210.47a59.87,59.87,0,1,1,2.12-118.53l11.09-59.26c-35-6.14-67.39,2.09-95.37,24.28A120.32,120.32,0,0,0,206.54,246.43l-38-47.21A59.55,59.55,0,0,1,140.34,210.47Z" style="fill:#00058b"/><text transform="translate(91.26 126.39)" style="font-size:12.854490280151367px;fill:#fff;font-family:OpenSans-Bold, Open Sans;font-weight:700">Foreign-born <tspan x="21.09" y="15.43">Latinx </tspan><tspan x="34.45" y="30.85">vs </tspan><tspan x="11.21" y="46.28">USA-born </tspan><tspan x="21.09" y="61.7">Latinx</tspan></text><text transform="translate(185.86 101.29)" style="font-size:7.66963005065918px;fill:#00058b;font-family:OpenSans-Semibold, Open Sans;font-weight:600">3rd Gen<tspan x="-2.89" y="9.86">USA-born</tspan></text><text transform="translate(178.73 91.91)" style="font-size:19.356679916381836px;fill:#00058b;font-family:OpenSans-Bold, Open Sans;font-weight:700">17<tspan x="22.1" y="0" style="font-size:17.89579963684082px">%</tspan></text><text transform="translate(202.3 188.95)" style="font-size:7.66963005065918px;fill:#00058b;font-family:OpenSans-Semibold, Open Sans;font-weight:600">2nd Gen<tspan x="-2.11" y="9.86">USA-born</tspan></text><text transform="translate(197.93 179.57)" style="font-size:19.356679916381836px;fill:#00058b;font-family:OpenSans-Bold, Open Sans;font-weight:700">19<tspan x="22.1" y="0" style="font-size:17.89579963684082px">%</tspan></text><text transform="translate(29.41 136.71)" style="font-size:7.66963005065918px;fill:#fff;font-family:OpenSans-Semibold, Open Sans;font-weight:600">1st Gen<tspan x="-9.95" y="9.86">Foreign-born</tspan></text><text transform="translate(24.29 125.14)" style="font-size:19.356679916381836px;fill:#fff;font-family:OpenSans-Bold, Open Sans;font-weight:700">63<tspan x="22.1" y="0" style="font-size:17.89579963684082px">%</tspan></text><text transform="translate(248.93 292.3)" style="font-size:12px;fill:#fff;font-family:OpenSans-Bold, Open Sans;font-weight:700">2</text></svg>