<svg id="Layer_1" data-name="Layer 1" xmlns="http://www.w3.org/2000/svg" xmlns:xlink="http://www.w3.org/1999/xlink" viewBox="0 0 230.8 126.4"><defs><linearGradient id="New_Gradient_Swatch_3" x1="29.68" y1="58.16" x2="176.61" y2="58.16" gradientUnits="userSpaceOnUse"><stop offset="0" stop-color="#662d91"/><stop offset="0.38" stop-color="#4558b7"/><stop offset="0.79" stop-color="#2680da"/><stop offset="1" stop-color="#1a8fe8"/></linearGradient></defs><title>photo-immigration-mexicomap</title><rect width="230.8" height="125.78" style="fill:#c1e8f7"/><polygon points="161.7 95.08 152.79 94.94 161.69 95.08 161.7 95.08" style="fill:#c1e8f7;opacity:0.4"/><polygon points="160.72 112.84 159.32 113.88 160.21 113.22 160.72 112.84" style="fill:#c1e8f7;opacity:0.4"/><polyline points="29.62 0.35 29.84 1.91 29.58 3.17 29.68 3.99 41.97 3.78 42.23 4.22 42.05 4.63 59.51 12.62 74.18 13.06 74.29 11.18 82.59 11.44 83.55 12.04 84.37 13.21 84.81 13.74 84.91 14.21 85.44 14.23 85.91 14.91 85.74 15.42 86.53 15.71 87.31 16.36 87.25 16.83 87 17.22 87.63 17.4 88.33 17.86 88.8 18.61 88.91 19.74 89.26 20.16 89.56 20.22 89.72 20.61 90.31 21.17 90.35 21.95 90.05 22.17 89.46 22.32 89.46 22.69 90.35 23.74 91.06 24.58 91.28 25.31 91.25 25.59 91.56 25.58 91.99 26 92.31 25.98 92.8 26.18 92.99 26.56 93.05 26.87 93.4 27.23 93.98 27.24 95.03 27.77 95.16 28.11 96.02 28.4 97.06 28.92 97.37 29.28 97.8 29.35 98.28 29.16 98.39 28.84 99.12 28.25 99.63 28.11 99.74 27.68 99.64 27.41 100.08 26.85 100.83 25.46 101.36 24.93 101.96 24.71 102.33 24.81 102.43 24.97 102.84 24.89 103.13 24.27 104.06 24.28 104.94 24.41 105.91 24.33 106.3 24.53 106.52 24.82 107.18 24.7 107.86 25.05 108.31 25.81 109.31 26.64 110.1 27.87 110.49 28.95 110.77 29.39 110.9 30.16 110.97 31.37 111.53 31.65 111.78 32.36 112.45 34.23 112.88 34.51 113.11 35.16 113.9 35.59 114.14 36.59 114.62 37.44 115.48 38.34 115.38 39.24 115.28 40.2 115.28 40.46 115.37 40.77 116.4 43.77 116.34 45.11 116.78 45.62 116.9 45.76 117.51 45.99 118.16 45.9 118.81 46.26 119.64 47.08 121.33 47.65 122.29 48.13 123.22 48.36 123.53 48.98 123.98 49.21 124.51 47.69 124.84 46.58 124.58 45.88 124.69 43.66 124.25 42.88 124.84 41.62 125.28 40.15 125.99 39.15 125.66 37.19 126.39 36.86 127.43 36.04 126.84 35.37 127.76 34.23 128.28 34.56 129.2 34.12 129.13 32.83 129.68 33.27 130.75 32.86 130.2 32.34 131.16 31.79 131.53 32.05 132.01 31.79 132.79 32.34 131.9 33.13 132.61 33.05 133.57 32.23 134.23 32.27 136.42 31.2 138.04 29.72 138.71 29.72 139.37 29.16 139.15 28.13 139.19 27.09 138.59 25.58 139.15 26.31 139.67 26.31 140.67 25.46 140.74 24.84 141.11 25.91 140.52 26.72 140.78 27.5 140.59 28.43 141.74 28.28 142.59 27.06 143.33 26.98 144.03 26.5 145.77 26.13 147.1 26.13 149.5 26.72 149.91 27.2 152.87 27.5 153.78 27.37 153.62 26.75 153.69 26.22 154.73 25.83 155.28 26.07 154.9 26.67 155.46 26.85 156.16 26.59 156.49 26.97 156.49 27.73 156.8 28.11 157.84 28 158.19 28.56 157.5 29.1 157.1 29.62 157.63 29.86 158.49 29.71 159.19 30.14 160.47 30.53 160.99 29.93 161.75 29.38 162.6 29.99 163 30.64 163.78 30.2 163.82 28.94 163.38 28.09 164.3 28.01 165.04 29.12 165.78 29.42 166.29 30.12 166.88 30.05 167.4 30.38 167.44 31.38 167.78 30.76 168.55 30.53 168.63 30.2 167.4 29.28 165.78 28.72 165.48 27.98 165.44 27.09 167.07 26.47 167.4 26.09 166.52 25.72 166.14 25.24 165.81 25.16 165.22 25.76 164.56 26.02 164.56 25.32 165.48 24.35 167.18 23.66 168.03 22.91 171.06 22.36 172.21 22.55 172.84 22.32 173.58 22.47 174.06 21.66 174.51 20.77 175.13 20.87 174.98 21.55 175.02 22.13 176.02 22.98 176.83 22.65 178.28 22.73 179.02 22.42 179.61 22.84 181.15 22.64 181.61 22.88 182.74 22.09 183.85 22.16 184.09 22.48 183.48 22.66 182.28 22.59 182.09 22.84 183.43 23.03 184.74 23.03 185.54 23.74 186.32 24.18 185.81 23.5 185.94 23.03 186.39 23.09 186.58 23.63 187.54 24.31 187.38 24.65 186.7 24.33 186.54 24.38 187.8 25.26 188.3 25.98 188.56 26.47 188.31 26.56 188.17 26.22 188.04 26.61 188.28 26.98 189.76 26.76 190.71 26.64 192.02 25.33 192.45 25.52 192.62 25.35 192.62 25.11 193.3 24.57 194.32 24.41 194.99 24.78 196.16 25.18 196.67 26.97 197.21 27.5 197.56 27.61 197.69 28.67 198.43 29.21 198.87 29.21 198.84 29.58 199.3 30.33 200.06 30.45 200.73 31.74 200.64 32.92 199.95 35.32 198.96 37.19 198.91 37.95 199.53 38.99 199.8 38.73 200.4 37.89 200.21 37.47 200.6 37.15 201.34 37.47 201.38 38.41 200.11 40.22 200.41 40.84 200.49 41.83 201.12 42.57 201.32 43.07 201.74 42.96 201.99 43.91 202.32 43.44 202.32 43.02 202.73 43.31 203.7 43.05 202.93 43.79 202.75 44.65 202.34 45.13 202.43 45.74 203.7 46.71 203.84 47.74 203.79 49.1 204.17 49.45 205.05 49.49 205.41 50.18 205.29 51.05 206.53 52.05 205.94 52.31 207.01 52.61 207.49 53.24 208.45 53.5 209.41 53.17 210.26 52.87 210.41 51.58 211.04 50.65 211.52 49.43 212.41 47.62 212.29 46.73 212.56 46.25 212.74 44.44 212.48 44.06 213.07 43.47 212.74 41.95 211.71 41.3 211.15 38 210.78 37.48 210.93 35.93 211.37 34.75 211 33.82 210.34 32.94 209.82 30.46 209.37 29.53 209.16 27.31 208.6 25.91 208.9 23.7 208.75 22.25 209 19.07 209 17.33 209.74 15.85 210.63 14.4 211.49 14.19 211.93 13.56 212.37 13.49 213.07 12.49 213.19 11.63 212.81 11.38 213.11 11.12 214.33 11.12 214.52 10.49 215.51 10.56 215.77 10.01 217.33 9.82 217.88 9.08 218.95 9.19 219.21 8.71 219.76 8.56 220.36 8.82 221.25 7.82 221.32 7.16 221.84 7.2 222.65 6.49 222.65 5.9 224.57 3.35 225.57 2.46 227.06 2.28 227.57 2.61 228.02 2.54 228.86 0.95" style="fill:#69bfff;stroke:#fff;stroke-miterlimit:10;stroke-width:0.25px;opacity:0.4"/><path d="M125.81,46.65l0,.08A.44.44,0,0,0,125.81,46.65Z" style="fill:#0e7272;opacity:0.4"/><path d="M188.26,126.35l.48-1.11-.15-.67,0-.7.59-1.51.45.11-.19.4s0,.63,0,.82v1.07l.27,0,.41-.69.24-2,0-2.38.19-.5-.39-.59-.33-.15,0-.52.35-.37.32,0,.18.31.31-1.28.84-1.06.39-.69.09-.51-.5-.36,0-.44.3-.66-.15-.85.08-1.37.29-.55.31-.33-.59.1-.72.08-.21-.41h-.57l-.44.24-.21.69-.68.31-.9.64-.86.08-.21.62-.67-.18-.92.14-.19-.43-.7-.56-.41,0-.23.93-1,0-.82,1.26-.07.56-.48.26-1,1-1.07.42-.3.55-.7-.26-.52.14-.59-.55-1.22-.22-1.7.92-1.59.19.11,1v.74l-.15,1.33-.37.74-1.25.11-.87.15,0,.56-.4.08-.93-.33-.18.33,1.85,2.25.88.59v.63l1.48,1.33" style="fill:#69bfff;stroke:#fff;stroke-miterlimit:10;stroke-width:0.25px;opacity:0.4"/><polygon points="165.79 106.67 165.46 107.56 164.01 108.4 163.24 108.36 161.91 109.73 161.09 110.59 161.35 111.47 160.72 112.84 160.21 113.22 160.61 112.94 161.46 113.12 161.62 113.38 162.2 113.58 162.68 114.14 163.66 113.99 164.7 114.22 165.33 115.03 165.5 115.62 166.13 116.05 166.33 115.58 166.55 115.01 167.42 114.92 167.93 115.09 168.62 115.33 168.62 116.16 168.39 117.12 168.5 117.52 168.24 118.29 168.37 118.77 168.4 118.73 168.96 119.03 169.21 119.4 169.66 119.36 169.88 119.03 170.29 119.24 170.29 119.87 170.51 120.42 170.51 120.46 171.38 120.31 172.63 120.2 173 119.46 173.15 118.13 173.15 117.39 173.04 116.43 174.63 116.24 176.33 115.32 177.55 115.54 178.14 116.09 178.66 115.95 179.37 116.21 179.66 115.66 180.73 115.24 181.77 114.25 182.25 113.99 182.32 113.44 183.14 112.17 184.09 112.14 184.32 111.21 184.73 111.18 185.43 111.74 185.62 112.17 186.54 112.03 187.21 112.21 187.43 111.59 188.28 111.51 189.18 110.87 189.86 110.56 190.07 109.87 190.51 109.63 191.09 109.63 191.29 110.04 192.01 109.96 192.6 109.86 192.92 109.52 192.62 109.01 191.44 108.04 190.33 107.56 190.26 107.74 190.7 108.59 189.59 108.55 188.26 108.41 187.74 108.01 186.78 107.89 185.93 107.89 186.15 107.49 186.82 107.3 186.74 106.82 187.19 106.71 188.01 106.89 189.37 107.3 189.55 107.16 188.63 106.42 187.38 105.71 186.49 105.63 185.63 105.82 185.08 105.56 184.86 106.19 184.19 105.71 181.94 105.49 179.75 105.38 178.57 104.38 177.5 103.86 177.27 104.49 177.68 104.79 176.87 105.12 176.35 105.49 175.5 105.19 173.8 105.63 171.62 105.45 168.59 105.53 167.26 106.26 166.63 105.75 166.46 106.19 165.79 106.67" style="fill:#69bfff;stroke:#fff;stroke-miterlimit:10;stroke-width:0.25px;opacity:0.4"/><polygon points="168.5 117.52 168.39 117.12 168.62 116.16 168.62 115.33 167.93 115.09 167.42 114.92 166.55 115.01 166.33 115.58 166.13 116.05 165.5 115.62 165.33 115.03 164.7 114.22 163.66 113.99 162.68 114.14 162.2 113.58 161.62 113.38 161.46 113.12 160.61 112.94 160.21 113.22 159.32 113.88 159.32 114.04 159.32 114.43 158.44 114.7 157.17 114.99 156.21 116.02 156.18 116.54 155.81 117.12 156.27 117.29 157.27 117.29 158.08 118.06 159.27 118.32 159.43 118.31 159.86 118.29 161.6 119.06 163.22 119.95 163.44 119.51 162.71 119.1 163.07 118.88 164 118.91 164.78 119.95 165.33 120.42 167.66 120.47 168.33 119.55 168.07 119.06 168.37 118.77 168.24 118.29 168.5 117.52" style="fill:#69bfff;stroke:#fff;stroke-miterlimit:10;stroke-width:0.25px;opacity:0.4"/><polygon points="165.05 91.91 164.84 92.32 164.63 93.09 163.99 93.97 163.93 94.19 163.54 94.28 163.34 94.55 163.11 94.39 163.07 94 162.33 93.96 161.78 94.34 161.7 95.08 161.69 95.08 161.71 95.1 161.57 104.64 162.31 104.68 162.61 104.84 163.16 104.8 163.15 104.79 163.56 103.94 164.52 102.94 165.08 103.42 166.52 101.42 167.03 100.02 167.07 98.31 166.52 97.76 166.74 96.25 167.29 95.32 167.44 92.81 167.59 92.25 167.48 91.7 166.81 91.7 166.29 92.17 166.05 91.71 165.67 91.68 165.05 91.91" style="fill:#69bfff;stroke:#fff;stroke-miterlimit:10;stroke-width:0.25px;opacity:0.4"/><polygon points="162.31 104.68 161.57 104.64 161.71 95.1 161.69 95.08 152.79 94.94 152.58 97.64 150.44 97.82 151.2 98.46 151.47 98.98 152.29 100 153.1 100.54 153.68 100.54 154.07 101.22 154.18 101.96 154.53 102.36 155.4 102.41 155.96 102.72 155.98 103.39 155.46 103.99 148.9 104.02 145.82 108.89 145.92 109.72 146.01 109.97 145.92 110.5 146.14 110.9 146.27 111.03 146.22 111.48 145.76 111.84 145.56 112.39 145.39 112.54 146.21 113.55 146.84 114.59 147.62 114.66 148.32 115.51 151.02 116.55 152.61 116.58 153.84 116.44 155.81 117.12 156.18 116.54 156.21 116.02 157.17 114.99 158.44 114.7 159.32 114.43 159.32 114.04 159.32 113.88 160.72 112.84 161.35 111.47 161.09 110.59 161.91 109.73 163.24 108.36 164.01 108.4 165.46 107.56 165.79 106.67 166.46 106.19 166.63 105.75 166.22 105.42 165.29 105.31 165.04 105.93 164.23 105.38 163.49 105.38 163.16 104.8 162.61 104.84 162.31 104.68" style="fill:#69bfff;stroke:#fff;stroke-miterlimit:10;stroke-width:0.25px;opacity:0.4"/><polygon points="30.54 7.86 31.13 8.97 31.69 9.7 31.28 10.01 31.13 10.82 31.47 11.78 32.84 13.45 32.8 14 32.46 14.34 32.69 14.96 33.76 15.92 33.91 16.92 33.57 17.4 33.5 18.44 34.13 19 34.42 19.58 34.46 21.32 34.94 22.73 35.83 23.58 36.42 23.54 37.87 24.98 38.6 26.02 38.83 26.83 40.08 28.09 40.6 29.64 41.04 29.83 41.71 30.94 41.12 31.71 41.08 32.27 41.45 32.86 41.19 33.68 40.6 33.42 40.08 33.97 40.19 34.23 41.04 34.38 40.9 35 40.52 35.52 39.82 35.08 38.56 34.86 37.79 34.56 36.46 34.67 36.2 34.97 37.24 36.34 38.16 36.74 38.23 37.74 38.75 38.66 39.63 38.96 40.82 39.52 40.82 40.03 41.49 40 42.15 40.25 42.01 40.63 42.38 41.37 43.04 41.07 43.7 41.03 44.59 40 45 40.11 44.66 40.96 44.93 42.59 46.7 44.29 47.44 44.62 47.96 44.47 48.48 45.25 49.1 47.21 49.25 49.31 48.92 50.98 48.07 52.42 48.22 53.24 49.22 54.05 49.66 53.94 49.92 54.64 50.91 54.87 51.4 55.86 53.58 58.23 54.35 58.56 54.73 59.27 55.5 60.19 56.58 60.3 57.06 60.96 57.17 62.33 57.76 62.81 57.83 63.59 58.27 64.66 58.91 64.85 60.45 64.14 61.38 62.74 61.46 61.45 60.83 61.04 60.53 60.12 60.05 59.63 59.75 58.67 58.98 58.23 58.65 57.56 58.13 56.89 57.65 56.64 57.35 56.86 57.39 57.56 56.95 57.74 56.79 57.16 56.02 56.53 55.14 55.45 55.02 54.84 55.54 53.78 55.5 52.7 54.73 51.62 54.95 50.92 54.93 50.29 54.43 49.71 54.47 48.98 53.87 48.31 53.87 47.32 53.58 46.84 53.47 45.55 53.69 44.81 53.39 42.88 52.77 41.85 52.47 41.14 52.1 41.07 52.06 41.48 52.1 42.07 51.73 42.4 50.8 41 50.73 40.33 51.06 39.59 50.77 39.08 50.33 39.03 50.03 36.96 49.18 35.6 48.77 35.45 47.81 34.56 47.77 33.34 47.88 32.27 47.03 30.94 46.37 30.79 45.96 30.34 45.85 29.23 45.19 28.53 44.33 28.13 44.08 27.2 44.26 26.54 43.96 25.16 42.55 24.21 42.08 23.47 41.52 23.43 41.56 22.43 40.85 20.95 40.3 20.36 40.74 19.51 40.6 15.92 40.34 13.74 40.78 12.59 41.26 10.82 41.08 9.86 40.71 8.68 41.37 9.86 42.74 10.49 43.67 11.93 44.26 12.45 45.11 12.3 45.59 11.93 46.44 12.74 46.74 13.33 47.74 13.37 48.81 13.96 48.81 14.48 48.1 15.3 48.18 16.18 48.7 17.4 48.96 19.18 49.4 19.99 49.55 21.21 49.32 21.88 49.7 22.76 50.96 24.54 50.88 25.06 50.58 25.54 50.91 26.24 51.32 26.24 51.69 26.8 52.25 28.46 52.95 28.79 53.25 29.61 53.36 30.79 53.76 31.23 54.43 31.42 54.98 32.61 55.28 33.49 55.95 34.04 56.17 34.52 56.83 34.56 57.2 34.86 57.91 34.56 58.46 35 58.42 36.19 58.02 36.81 58.2 38.22 59.98 39.81 60.6 39.74 61.23 39.96 61.02 40.89 61.46 41.73 62.34 41.95 63.16 41.85 64.04 42.96 64.19 43.73 64.89 44.1 65.22 43.77 65.49 44.1 65.64 44.77 65.22 45.25 64.71 44.7 64.04 44.92 63.16 45.88 62.64 47.32 62.78 48.36 63.64 48.94 64.56 49.02 65.15 49.54 67.19 51.13 68.37 51.42 69 51.42 69.25 52.02 69.63 52.98 70.04 53.61 69.63 54.49 69 54.75 69.08 55.12 69.93 55.61 71.44 56.23 71.51 56.86 72 57.2 73.36 58.37 74.91 60.42 76.06 62.52 77.73 64.22 77.77 65.25 79.65 67.62 79.83 68.62 79.47 69.58 79.83 70.28 80.39 71.76 81.5 74.58 81.57 75.72 81.02 76.64 79.83 77.68 79.69 78.27 80.2 78.35 80.8 78.9 80.35 79.42 79.17 79.39 78.54 79.75 78.54 80.23 79.24 82.04 79.91 82.71 79.91 83.45 80.87 84.71 81.24 85.97 81.72 86.37 82.5 86.37 82.79 86.97 84.42 87.37 85.53 87.15 86.15 87.26 85.68 87.89 85.68 88.33 86.93 88.77 88.23 89.99 89.12 91.4 89.86 92.55 90.89 92.93 91.31 92.78 92.33 93.21 92.98 93.26 94.96 94.03 95.74 94.08 96 93.69 96.57 93.66 97.04 94.25 99.54 96.69 100.21 96.8 101.69 98.31 103.91 99.2 106.46 99.57 107.68 100.2 108.31 101.24 109.75 101.34 111.08 101.98 111.83 101.68 112.12 101.91 112.82 103.05 114.12 103.64 114.97 103.72 115.37 103.6 116.33 104.19 118.22 104.93 120 104.93 121.36 105.67 123.91 106.6 124.95 106.53 127.58 105.42 128.69 105.34 130.09 104.41 131.13 104.23 132.42 104.12 132.94 104.19 132.94 103.9 131.94 103.75 131.09 103.75 131.13 103.27 132.27 102.6 132.64 102.79 132.64 103.34 133.27 103.01 133.94 103.01 133.94 103.46 133.42 103.5 133.2 103.72 133.57 103.9 134.3 103.86 135.23 104.19 136.79 105.19 137.49 105.82 137.49 105.53 136.31 104.34 134.64 103.6 134.56 103.31 134.94 103.27 135.12 103.46 136.12 103.64 137.01 104.41 137.9 105.53 137.9 105.97 138.34 106.56 141.88 109.52 143 109.85 143.15 110.44 144.58 111.55 145.39 112.54 145.56 112.39 145.76 111.84 146.22 111.48 146.27 111.03 146.14 110.9 145.92 110.5 146.01 109.97 145.92 109.72 145.82 108.89 148.9 104.02 155.46 103.99 155.98 103.39 155.96 102.72 155.4 102.41 154.53 102.36 154.18 101.96 154.07 101.22 153.68 100.54 153.1 100.54 152.29 100 151.47 98.98 151.2 98.46 150.44 97.82 152.58 97.64 152.79 94.94 161.7 95.08 161.78 94.34 162.33 93.96 163.07 94 163.11 94.39 163.34 94.55 163.54 94.28 163.93 94.19 163.99 93.97 164.63 93.09 164.84 92.32 165.05 91.91 165.67 91.68 166.05 91.71 166.03 91.7 166.92 90.92 168.03 89.63 168.63 89.44 168.51 90.48 168.03 90.96 168.07 91.25 169.21 91.95 169.63 92.92 169.84 92.69 170.81 91.03 171.62 87.81 172.14 86.97 171.66 87.04 171.14 87.56 170.69 87.33 170.69 86.93 171.84 85.71 172.02 84.97 171.18 84.97 170.51 84.41 170.84 84.05 171.84 83.41 171.95 82.04 172.39 81.3 174.65 79.28 175.8 77.35 176.61 76.05 176.53 74.93 175.04 73.04 174.07 73.11 174.3 73.71 173.7 73.93 171.33 73.33 169.33 73.41 169.41 73.93 168.15 74.52 167.7 74.08 166.44 74.22 165.7 75.26 161.34 75.19 158 76.01 158 76.74 158.81 76.82 156.89 78.96 156.75 82.15 156.89 82.52 155.04 84.52 155.04 86.3 154.05 87.48 153.28 87.67 150.99 88.89 151.17 89.07 152.17 88.4 151.91 89.29 151.87 90.77 150.87 91.95 150.28 91.99 150.06 92.55 149.47 91.95 148.28 91.44 148.54 90.81 149.54 90.29 148.1 89.88 147.65 90.48 146.55 90.14 145.18 90.18 144.25 90.96 143.07 90.99 141.26 91.14 140.96 91.58 138.82 92.81 138.22 92.81 137.78 92.29 136.05 92.66 134.81 93.23 134.42 91.93 133.26 90.31 131.76 89.68 131.43 89.29 130.01 89.25 129.53 89.37 128.85 88.65 126.72 86.12 126.44 85.29 126.51 84.5 125.57 83.11 125.1 81.97 122.29 78.93 122.06 77.94 121.48 77.06 121.84 76.35 121.58 75.65 120.99 73.54 120.22 72.83 120.36 71.73 121.51 73.21 121.66 75.02 121.99 74.72 121.95 73.21 120.62 71.1 120.77 69.99 120.44 68.03 120.18 67.21 120.99 66.14 121.25 63.7 120.99 62.11 121.55 59.56 121.48 58.82 121.84 58.12 121.51 57.67 121.51 56.45 122.03 55.94 122.36 54.49 122.58 54.01 121.92 53.5 122.55 52.72 122.55 51.28 123.43 51.35 123.29 52.27 123.1 52.79 123.69 52.72 123.84 51.83 124.62 50.73 124.91 49.57 125.32 49.13 125.47 47.8 125.62 47.28 124.91 47.87 124.62 49.35 123.73 49.94 123.98 49.21 123.53 48.98 123.22 48.36 122.29 48.13 121.33 47.65 119.64 47.08 118.81 46.26 118.16 45.9 117.51 45.99 116.9 45.76 116.78 45.62 116.34 45.11 116.4 43.77 115.37 40.77 115.28 40.46 115.28 40.2 115.38 39.24 115.48 38.34 114.62 37.44 114.14 36.59 113.9 35.59 113.11 35.16 112.88 34.51 112.45 34.23 111.78 32.36 111.53 31.65 110.97 31.37 110.9 30.16 110.77 29.39 110.49 28.95 110.1 27.87 109.31 26.64 108.31 25.81 107.86 25.05 107.18 24.7 106.52 24.82 106.3 24.53 105.91 24.33 104.94 24.41 104.06 24.28 103.13 24.27 102.84 24.89 102.43 24.97 102.33 24.81 101.96 24.71 101.36 24.93 100.83 25.46 100.08 26.85 99.64 27.41 99.74 27.68 99.63 28.11 99.12 28.25 98.39 28.84 98.28 29.16 97.8 29.35 97.37 29.28 97.06 28.92 96.02 28.4 95.16 28.11 95.03 27.77 93.98 27.24 93.4 27.23 93.05 26.87 92.99 26.56 92.8 26.18 92.31 25.98 91.99 26 91.56 25.58 91.25 25.59 91.28 25.31 91.06 24.58 90.35 23.74 89.46 22.69 89.46 22.32 90.05 22.17 90.35 21.95 90.31 21.17 89.72 20.61 89.56 20.22 89.26 20.16 88.91 19.74 88.8 18.61 88.33 17.86 87.63 17.4 87 17.22 87.25 16.83 87.31 16.36 86.53 15.71 85.74 15.42 85.91 14.91 85.44 14.23 84.91 14.21 84.81 13.74 84.37 13.21 83.55 12.04 82.59 11.44 74.29 11.18 74.18 13.06 59.51 12.62 42.05 4.63 42.23 4.22 41.97 3.78 29.68 3.99 29.84 5.23 30.54 7.86" style="fill:url(#New_Gradient_Swatch_3)"/><text transform="translate(108.54 10.89)" style="font-size:7px;fill:#00058b;font-family:OpenSans-Bold, Open Sans;font-weight:700">UNITED <tspan x="0.94" y="8.4">STATES</tspan></text><text transform="translate(113.51 115.67)" style="font-size:7px;fill:#00058b;font-family:OpenSans-Bold, Open Sans;font-weight:700">GUATEMALA</text><text transform="translate(118.19 124.16)" style="font-size:7px;fill:#00058b;font-family:OpenSans-Bold, Open Sans;font-weight:700">EL SALVADOR</text><text transform="translate(161.35 100.4)" style="font-size:7px;fill:#00058b;font-family:OpenSans-Bold, Open Sans;font-weight:700">BELIZE</text><text transform="translate(172.4 110.16)" style="font-size:7px;fill:#00058b;font-family:OpenSans-Bold, Open Sans;font-weight:700">HONDURAS</text><text transform="translate(175.68 123.25)" style="font-size:7px;fill:#00058b;font-family:OpenSans-Bold, Open Sans;font-weight:700">NICARAGUA</text><polygon points="114.22 81.06 115.13 82.9 117.17 83.2 115.69 84.64 116.04 86.67 114.22 85.71 112.4 86.67 112.75 84.64 111.27 83.2 113.31 82.9 114.22 81.06" style="fill:#fff"/></svg>