<svg id="Layer_1" data-name="Layer 1" xmlns="http://www.w3.org/2000/svg" viewBox="0 0 230.61 368.5"><title>photo-language-bubbles</title><rect width="230.61" height="368.5" style="fill:#1a8fe8"/><circle cx="171.43" cy="134.02" r="51.03" style="fill:#00058b"/><circle cx="77.73" cy="78.23" r="62.76" style="fill:#aa0076"/><circle cx="84.51" cy="209.61" r="74.13" style="fill:#69bfff"/><circle cx="152.97" cy="300.03" r="52.72" style="fill:#662d91"/><text transform="translate(33.51 47.22)" style="font-size:11.350469589233398px;fill:#fff;font-family:OpenSans-SemiBold, OpenSans SemiBold;font-weight:600">Spea<tspan x="23.21" y="0" style="letter-spacing:0.01703536346931522em">k</tspan><tspan x="28.73" y="0">ing a se</tspan><tspan x="64.49" y="0" style="letter-spacing:-0.006022603246727604em">c</tspan><tspan x="69.51" y="0">ond </tspan><tspan x="-1.19" y="11.35">language imp</tspan><tspan x="64.35" y="11.35" style="letter-spacing:-0.00998031395172003em">r</tspan><tspan x="67.95" y="11.35" style="letter-spacing:-0.006969012328356228em">o</tspan><tspan x="74.1" y="11.35" style="letter-spacing:-0.010066351140958997em">v</tspan><tspan x="79.45" y="11.35">es </tspan><tspan x="4.02" y="22.7">p</tspan><tspan x="10.48" y="22.7" style="letter-spacing:-0.00998031395172003em">r</tspan><tspan x="14.08" y="22.7">oblem-solvin</tspan><tspan x="75.9" y="22.7" style="letter-spacing:-0.014970470927580044em">g</tspan><tspan x="82.08" y="22.7">, </tspan><tspan x="4.26" y="34.05">multitas</tspan><tspan x="42.79" y="34.05" style="letter-spacing:0.01703536346931522em">k</tspan><tspan x="48.31" y="34.05">ing and </tspan><tspan x="4.85" y="45.4">decision-ma</tspan><tspan x="62.78" y="45.4" style="letter-spacing:0.01703536346931522em">k</tspan><tspan x="68.3" y="45.4">ing</tspan></text><text transform="translate(117.48 284.83)" style="font-size:10.404600143432617px;fill:#fff;font-family:OpenSans-SemiBold, OpenSans SemiBold;font-weight:600">Bilingualism can <tspan x="6.36" y="11.35">imp</tspan><tspan x="23.39" y="11.35" style="letter-spacing:-0.009949024813350377em">r</tspan><tspan x="26.69" y="11.35" style="letter-spacing:-0.007039404349068663em">o</tspan><tspan x="32.33" y="11.35" style="letter-spacing:-0.009949024813350377em">v</tspan><tspan x="37.23" y="11.35">e </tspan><tspan x="44.65" y="11.35" style="letter-spacing:-0.010042883538004626em">y</tspan><tspan x="49.44" y="11.35">our </tspan><tspan x="-5.49" y="22.7" style="letter-spacing:-0.006006958377871926em">c</tspan><tspan x="-0.9" y="22.7">ompetiti</tspan><tspan x="36.38" y="22.7" style="letter-spacing:-0.009949024813350377em">v</tspan><tspan x="41.29" y="22.7">eness in </tspan><tspan x="3.49" y="34.05">the job ma</tspan><tspan x="50.18" y="34.05" style="letter-spacing:0.0040359251601327em">r</tspan><tspan x="53.63" y="34.05">ket</tspan></text><text transform="translate(36.45 173.21)" style="font-size:11.350469589233398px;fill:#00058b;font-family:OpenSans-SemiBold, OpenSans SemiBold;font-weight:600"><tspan style="letter-spacing:-0.006969012328356228em">T</tspan><tspan x="5.56" y="0">he financial </tspan><tspan x="62.26" y="0" style="letter-spacing:-0.00998031395172003em">r</tspan><tspan x="65.86" y="0">etu</tspan><tspan x="81.55" y="0" style="letter-spacing:0.003957710704992425em">r</tspan><tspan x="85.31" y="0">ns </tspan><tspan x="4.07" y="11.35">of spea</tspan><tspan x="38.13" y="11.35" style="letter-spacing:0.01703536346931522em">k</tspan><tspan x="43.65" y="11.35">ing </tspan><tspan x="61.36" y="11.35" style="letter-spacing:0.00894786768085244em">t</tspan><tspan x="65.21" y="11.35" style="letter-spacing:-0.00998031395172003em">w</tspan><tspan x="73.45" y="11.35">o or </tspan><tspan x="-1.48" y="22.7">mo</tspan><tspan x="14.22" y="22.7" style="letter-spacing:-0.00998031395172003em">r</tspan><tspan x="17.81" y="22.7">e languages </tspan><tspan x="77.36" y="22.7" style="letter-spacing:-0.0040437478942313915em">v</tspan><tspan x="82.77" y="22.7">a</tspan><tspan x="88.24" y="22.7" style="letter-spacing:0.02503682206853904em">r</tspan><tspan x="92.24" y="22.7">y </tspan><tspan x="-1.54" y="34.05" style="letter-spacing:-0.006969012328356228em">b</tspan><tspan x="4.83" y="34.05">y language and jo</tspan><tspan x="89.11" y="34.05" style="letter-spacing:-0.02400437579767145em">b</tspan><tspan x="95.3" y="34.05">, </tspan><tspan x="0.54" y="45.4">but they can add up </tspan><tspan x="-3.84" y="56.75" style="letter-spacing:-0.006022603246727604em">t</tspan><tspan x="-0.15" y="56.75">o </tspan><tspan x="8.48" y="56.75" style="letter-spacing:-0.00998031395172003em">y</tspan><tspan x="13.72" y="56.75">our sala</tspan><tspan x="50.44" y="56.75" style="letter-spacing:0.02503682206853904em">r</tspan><tspan x="54.43" y="56.75">y </tspan><tspan x="62.18" y="56.75" style="letter-spacing:-0.012991615575083831em">f</tspan><tspan x="65.35" y="56.75">or su</tspan><tspan x="88.45" y="56.75" style="letter-spacing:-0.00998031395172003em">r</tspan><tspan x="92.05" y="56.75" style="letter-spacing:-0.012045206493455208em">e</tspan><tspan x="97.6" y="56.75">.</tspan></text><text transform="translate(141.81 120.25)" style="font-size:9.458720207214355px;fill:#fff;font-family:OpenSans-SemiBold, OpenSans SemiBold;font-weight:600"><tspan style="letter-spacing:0.00402654235093571em">B</tspan><tspan x="5.17" y="0">eing bilingual </tspan><tspan x="-0.93" y="11.35">opens up social </tspan><tspan x="6.11" y="22.7">and cultu</tspan><tspan x="43.29" y="22.7" style="letter-spacing:-0.004955744431920874em">r</tspan><tspan x="46.33" y="22.7">al </tspan><tspan x="2.57" y="34.05">oppo</tspan><tspan x="23.72" y="34.05" style="letter-spacing:0.023952764754284227em">r</tspan><tspan x="27.04" y="34.05">tunities</tspan></text><text transform="translate(193.7 362.89)" style="font-size:12px;fill:#fff;font-family:OpenSans-Bold, Open Sans;font-weight:700">4, 6</text></svg>