<svg id="Layer_1" data-name="Layer 1" xmlns="http://www.w3.org/2000/svg" viewBox="0 0 543.97 371.57"><title>photo-identity-charts</title><rect x="279.23" y="37.75" width="264.73" height="333.83" style="fill:#ff66d7"/><circle cx="325.23" cy="86.97" r="8.18" style="fill:#00058b"/><circle cx="344.39" cy="86.97" r="8.18" style="fill:#00058b"/><circle cx="363.54" cy="86.97" r="8.18" style="fill:#00058b"/><circle cx="382.69" cy="86.97" r="8.18" style="fill:#00058b"/><circle cx="401.84" cy="86.97" r="8.18" style="fill:#00058b"/><circle cx="420.99" cy="86.97" r="8.18" style="fill:#00058b"/><circle cx="440.15" cy="86.97" r="8.18" style="fill:#00058b"/><circle cx="459.3" cy="86.97" r="8.18" style="fill:#fbae17"/><circle cx="478.45" cy="86.97" r="8.18" style="fill:#fbae17"/><circle cx="497.6" cy="86.97" r="8.18" style="fill:#fbae17"/><circle cx="325.23" cy="107.91" r="8.18" style="fill:#00058b"/><circle cx="344.39" cy="107.91" r="8.18" style="fill:#00058b"/><circle cx="363.54" cy="107.91" r="8.18" style="fill:#00058b"/><circle cx="382.69" cy="107.91" r="8.18" style="fill:#00058b"/><circle cx="401.84" cy="107.91" r="8.18" style="fill:#00058b"/><circle cx="420.99" cy="107.91" r="8.18" style="fill:#00058b"/><circle cx="440.15" cy="107.91" r="8.18" style="fill:#00058b"/><circle cx="459.3" cy="107.91" r="8.18" style="fill:#fbae17"/><circle cx="478.45" cy="107.91" r="8.18" style="fill:#fbae17"/><circle cx="497.6" cy="107.91" r="8.18" style="fill:#fbae17"/><circle cx="325.23" cy="128.85" r="8.18" style="fill:#00058b"/><circle cx="344.39" cy="128.85" r="8.18" style="fill:#00058b"/><circle cx="363.54" cy="128.85" r="8.18" style="fill:#00058b"/><circle cx="382.69" cy="128.85" r="8.18" style="fill:#00058b"/><circle cx="401.84" cy="128.85" r="8.18" style="fill:#00058b"/><circle cx="420.99" cy="128.85" r="8.18" style="fill:#00058b"/><circle cx="440.15" cy="128.85" r="8.18" style="fill:#00058b"/><circle cx="459.3" cy="128.85" r="8.18" style="fill:#fbae17"/><circle cx="478.45" cy="128.85" r="8.18" style="fill:#fbae17"/><circle cx="497.6" cy="128.85" r="8.18" style="fill:#fbae17"/><circle cx="325.23" cy="149.79" r="8.18" style="fill:#00058b"/><circle cx="344.39" cy="149.79" r="8.18" style="fill:#00058b"/><circle cx="363.54" cy="149.79" r="8.18" style="fill:#00058b"/><circle cx="382.69" cy="149.79" r="8.18" style="fill:#00058b"/><circle cx="401.84" cy="149.79" r="8.18" style="fill:#00058b"/><circle cx="420.99" cy="149.79" r="8.18" style="fill:#00058b"/><circle cx="440.15" cy="149.79" r="8.18" style="fill:#00058b"/><circle cx="459.3" cy="149.79" r="8.18" style="fill:#fbae17"/><circle cx="478.45" cy="149.79" r="8.18" style="fill:#fbae17"/><circle cx="497.6" cy="149.79" r="8.18" style="fill:#fbae17"/><circle cx="325.23" cy="170.72" r="8.18" style="fill:#00058b"/><circle cx="344.39" cy="170.72" r="8.18" style="fill:#00058b"/><circle cx="363.54" cy="170.72" r="8.18" style="fill:#00058b"/><circle cx="382.69" cy="170.72" r="8.18" style="fill:#00058b"/><circle cx="401.84" cy="170.72" r="8.18" style="fill:#00058b"/><circle cx="420.99" cy="170.72" r="8.18" style="fill:#00058b"/><circle cx="440.15" cy="170.72" r="8.18" style="fill:#00058b"/><circle cx="459.3" cy="170.72" r="8.18" style="fill:#fbae17"/><circle cx="478.45" cy="170.72" r="8.18" style="fill:#fbae17"/><circle cx="497.6" cy="170.72" r="8.18" style="fill:#fbae17"/><circle cx="325.23" cy="191.66" r="8.18" style="fill:#00058b"/><circle cx="344.39" cy="191.66" r="8.18" style="fill:#00058b"/><circle cx="363.54" cy="191.66" r="8.18" style="fill:#00058b"/><circle cx="382.69" cy="191.66" r="8.18" style="fill:#00058b"/><circle cx="401.84" cy="191.66" r="8.18" style="fill:#00058b"/><circle cx="420.99" cy="191.66" r="8.18" style="fill:#00058b"/><circle cx="440.15" cy="191.66" r="8.18" style="fill:#00058b"/><circle cx="459.3" cy="191.66" r="8.18" style="fill:#fbae17"/><circle cx="478.45" cy="191.66" r="8.18" style="fill:#fbae17"/><circle cx="497.6" cy="191.66" r="8.18" style="fill:#fbae17"/><circle cx="325.23" cy="212.6" r="8.18" style="fill:#00058b"/><circle cx="344.39" cy="212.6" r="8.18" style="fill:#00058b"/><circle cx="363.54" cy="212.6" r="8.18" style="fill:#00058b"/><circle cx="382.69" cy="212.6" r="8.18" style="fill:#00058b"/><circle cx="401.84" cy="212.6" r="8.18" style="fill:#00058b"/><circle cx="420.99" cy="212.6" r="8.18" style="fill:#00058b"/><circle cx="440.15" cy="212.6" r="8.18" style="fill:#00058b"/><circle cx="459.3" cy="212.6" r="8.18" style="fill:#fbae17"/><circle cx="478.45" cy="212.6" r="8.18" style="fill:#fbae17"/><circle cx="497.6" cy="212.6" r="8.18" style="fill:#fbae17"/><circle cx="325.23" cy="233.54" r="8.18" style="fill:#00058b"/><circle cx="344.39" cy="233.54" r="8.18" style="fill:#00058b"/><circle cx="363.54" cy="233.54" r="8.18" style="fill:#00058b"/><circle cx="382.69" cy="233.54" r="8.18" style="fill:#00058b"/><circle cx="401.84" cy="233.54" r="8.18" style="fill:#00058b"/><circle cx="420.99" cy="233.54" r="8.18" style="fill:#00058b"/><circle cx="440.15" cy="233.54" r="8.18" style="fill:#00058b"/><circle cx="459.3" cy="233.54" r="8.18" style="fill:#fbae17"/><circle cx="478.45" cy="233.54" r="8.18" style="fill:#fbae17"/><circle cx="497.6" cy="233.54" r="8.18" style="fill:#fbae17"/><circle cx="325.23" cy="254.48" r="8.18" style="fill:#00058b"/><circle cx="344.39" cy="254.48" r="8.18" style="fill:#00058b"/><circle cx="363.54" cy="254.48" r="8.18" style="fill:#00058b"/><circle cx="382.69" cy="254.48" r="8.18" style="fill:#00058b"/><circle cx="401.84" cy="254.48" r="8.18" style="fill:#00058b"/><circle cx="420.99" cy="254.48" r="8.18" style="fill:#00058b"/><circle cx="440.15" cy="254.48" r="8.18" style="fill:#00058b"/><circle cx="459.3" cy="254.48" r="8.18" style="fill:#fbae17"/><circle cx="478.45" cy="254.48" r="8.18" style="fill:#fbae17"/><circle cx="497.6" cy="254.48" r="8.18" style="fill:#fbae17"/><circle cx="325.23" cy="275.41" r="8.18" style="fill:#00058b"/><circle cx="344.39" cy="275.41" r="8.18" style="fill:#00058b"/><circle cx="363.54" cy="275.41" r="8.18" style="fill:#00058b"/><circle cx="382.69" cy="275.41" r="8.18" style="fill:#00058b"/><circle cx="401.84" cy="275.41" r="8.18" style="fill:#00058b"/><circle cx="420.99" cy="275.41" r="8.18" style="fill:#00058b"/><circle cx="440.15" cy="275.41" r="8.18" style="fill:#00058b"/><circle cx="459.3" cy="275.41" r="8.18" style="fill:#00058b"/><circle cx="478.45" cy="275.41" r="8.18" style="fill:#fbae17"/><circle cx="497.6" cy="275.41" r="8.18" style="fill:#fbae17"/><rect x="279.23" y="1.16" width="132.37" height="36.73" transform="translate(690.83 39.05) rotate(180)" style="fill:#e028a5"/><text transform="translate(296.38 23.28)" style="font-size:11.850950241088867px;fill:#fff;font-family:OpenSans-Bold, Open Sans;font-weight:700">Hispanic Culture</text><circle cx="365.14" cy="326.2" r="28.26" style="fill:#00058b"/><text transform="translate(346.11 324.95)" style="font-size:19.27315902709961px;fill:#fff;font-family:OpenSans-Bold, Open Sans;font-weight:700">62<tspan x="22" y="0" style="font-size:17.818580627441406px">%</tspan></text><text transform="translate(354.93 336.48)" style="font-size:7.636539936065674px;fill:#fff;font-family:OpenSans-Semibold, Open Sans;font-weight:600">Many <tspan x="-4.8" y="9.82">cultures</tspan></text><circle cx="457.64" cy="326.2" r="28.26" style="fill:#fbae17"/><text transform="translate(438.62 324.95)" style="font-size:19.27315902709961px;fill:#00058b;font-family:OpenSans-Bold, Open Sans;font-weight:700">29<tspan x="22" y="0" style="font-size:17.818580627441406px">%</tspan></text><text transform="translate(444.68 336.48)" style="font-size:7.636539936065674px;fill:#00058b;font-family:OpenSans-Semibold, Open Sans;font-weight:600">Shared <tspan x="-0.19" y="9.82">culture</tspan></text><rect x="0.48" y="35.79" width="265.88" height="335.27" style="fill:#e028a5"/><rect width="132.94" height="35.79" style="fill:#ff66d7"/><circle cx="46.86" cy="81.42" r="8.22" style="fill:#00058b"/><circle cx="66.09" cy="81.42" r="8.22" style="fill:#00058b"/><circle cx="85.33" cy="81.42" r="8.22" style="fill:#00058b"/><circle cx="104.56" cy="81.42" r="8.22" style="fill:#00058b"/><circle cx="123.8" cy="81.42" r="8.22" style="fill:#00058b"/><circle cx="143.03" cy="81.42" r="8.22" style="fill:#fbae17"/><circle cx="162.27" cy="81.42" r="8.22" style="fill:#fbae17"/><circle cx="181.5" cy="81.42" r="8.22" style="fill:#fbae17"/><circle cx="200.74" cy="81.42" r="8.22" style="fill:#ff66d7"/><circle cx="219.98" cy="81.42" r="8.22" style="fill:#ff66d7"/><circle cx="46.86" cy="102.45" r="8.22" style="fill:#00058b"/><circle cx="66.09" cy="102.45" r="8.22" style="fill:#00058b"/><circle cx="85.33" cy="102.45" r="8.22" style="fill:#00058b"/><circle cx="104.56" cy="102.45" r="8.22" style="fill:#00058b"/><circle cx="123.8" cy="102.45" r="8.22" style="fill:#00058b"/><circle cx="143.03" cy="102.45" r="8.22" style="fill:#fbae17"/><circle cx="162.27" cy="102.45" r="8.22" style="fill:#fbae17"/><circle cx="181.5" cy="102.45" r="8.22" style="fill:#fbae17"/><circle cx="200.74" cy="102.45" r="8.22" style="fill:#ff66d7"/><circle cx="219.98" cy="102.45" r="8.22" style="fill:#ff66d7"/><circle cx="46.86" cy="123.48" r="8.22" style="fill:#00058b"/><circle cx="66.09" cy="123.48" r="8.22" style="fill:#00058b"/><circle cx="85.33" cy="123.48" r="8.22" style="fill:#00058b"/><circle cx="104.56" cy="123.48" r="8.22" style="fill:#00058b"/><circle cx="123.8" cy="123.48" r="8.22" style="fill:#00058b"/><circle cx="143.03" cy="123.48" r="8.22" style="fill:#fbae17"/><circle cx="162.27" cy="123.48" r="8.22" style="fill:#fbae17"/><circle cx="181.5" cy="123.48" r="8.22" style="fill:#fbae17"/><circle cx="200.74" cy="123.48" r="8.22" style="fill:#ff66d7"/><circle cx="219.98" cy="123.48" r="8.22" style="fill:#ff66d7"/><circle cx="46.86" cy="144.51" r="8.22" style="fill:#00058b"/><circle cx="66.09" cy="144.51" r="8.22" style="fill:#00058b"/><circle cx="85.33" cy="144.51" r="8.22" style="fill:#00058b"/><circle cx="104.56" cy="144.51" r="8.22" style="fill:#00058b"/><circle cx="123.8" cy="144.51" r="8.22" style="fill:#00058b"/><circle cx="143.03" cy="144.51" r="8.22" style="fill:#fbae17"/><circle cx="162.27" cy="144.51" r="8.22" style="fill:#fbae17"/><circle cx="181.5" cy="144.51" r="8.22" style="fill:#fbae17"/><circle cx="200.74" cy="144.51" r="8.22" style="fill:#ff66d7"/><circle cx="219.98" cy="144.51" r="8.22" style="fill:#ff66d7"/><circle cx="46.86" cy="165.54" r="8.22" style="fill:#00058b"/><circle cx="66.09" cy="165.54" r="8.22" style="fill:#00058b"/><circle cx="85.33" cy="165.54" r="8.22" style="fill:#00058b"/><circle cx="104.56" cy="165.54" r="8.22" style="fill:#00058b"/><circle cx="123.8" cy="165.54" r="8.22" style="fill:#00058b"/><circle cx="143.03" cy="165.54" r="8.22" style="fill:#fbae17"/><circle cx="162.27" cy="165.54" r="8.22" style="fill:#fbae17"/><circle cx="181.5" cy="165.54" r="8.22" style="fill:#fbae17"/><circle cx="200.74" cy="165.54" r="8.22" style="fill:#fbae17"/><circle cx="219.98" cy="165.54" r="8.22" style="fill:#ff66d7"/><circle cx="46.86" cy="186.57" r="8.22" style="fill:#00058b"/><circle cx="66.09" cy="186.57" r="8.22" style="fill:#00058b"/><circle cx="85.33" cy="186.57" r="8.22" style="fill:#00058b"/><circle cx="104.56" cy="186.57" r="8.22" style="fill:#00058b"/><circle cx="123.8" cy="186.57" r="8.22" style="fill:#00058b"/><circle cx="143.03" cy="186.57" r="8.22" style="fill:#fbae17"/><circle cx="162.27" cy="186.57" r="8.22" style="fill:#fbae17"/><circle cx="181.5" cy="186.57" r="8.22" style="fill:#fbae17"/><circle cx="200.74" cy="186.57" r="8.22" style="fill:#fbae17"/><circle cx="219.98" cy="186.57" r="8.22" style="fill:#ff66d7"/><circle cx="46.86" cy="207.59" r="8.22" style="fill:#00058b"/><circle cx="66.09" cy="207.59" r="8.22" style="fill:#00058b"/><circle cx="85.33" cy="207.59" r="8.22" style="fill:#00058b"/><circle cx="104.56" cy="207.59" r="8.22" style="fill:#00058b"/><circle cx="123.8" cy="207.59" r="8.22" style="fill:#00058b"/><circle cx="143.03" cy="207.59" r="8.22" style="fill:#fbae17"/><circle cx="162.27" cy="207.59" r="8.22" style="fill:#fbae17"/><circle cx="181.5" cy="207.59" r="8.22" style="fill:#fbae17"/><circle cx="200.74" cy="207.59" r="8.22" style="fill:#fbae17"/><circle cx="219.98" cy="207.59" r="8.22" style="fill:#ff66d7"/><circle cx="46.86" cy="228.62" r="8.22" style="fill:#00058b"/><circle cx="66.09" cy="228.62" r="8.22" style="fill:#00058b"/><circle cx="85.33" cy="228.62" r="8.22" style="fill:#00058b"/><circle cx="104.56" cy="228.62" r="8.22" style="fill:#00058b"/><circle cx="123.8" cy="228.62" r="8.22" style="fill:#00058b"/><circle cx="143.03" cy="228.62" r="8.22" style="fill:#fbae17"/><circle cx="162.27" cy="228.62" r="8.22" style="fill:#fbae17"/><circle cx="181.5" cy="228.62" r="8.22" style="fill:#fbae17"/><circle cx="200.74" cy="228.62" r="8.22" style="fill:#fbae17"/><circle cx="219.98" cy="228.62" r="8.22" style="fill:#ff66d7"/><circle cx="46.86" cy="249.65" r="8.22" style="fill:#00058b"/><circle cx="66.09" cy="249.65" r="8.22" style="fill:#00058b"/><circle cx="85.33" cy="249.65" r="8.22" style="fill:#00058b"/><circle cx="104.56" cy="249.65" r="8.22" style="fill:#00058b"/><circle cx="123.8" cy="249.65" r="8.22" style="fill:#00058b"/><circle cx="143.03" cy="249.65" r="8.22" style="fill:#fbae17"/><circle cx="162.27" cy="249.65" r="8.22" style="fill:#fbae17"/><circle cx="181.5" cy="249.65" r="8.22" style="fill:#fbae17"/><circle cx="200.74" cy="249.65" r="8.22" style="fill:#fbae17"/><circle cx="219.98" cy="249.65" r="8.22" style="fill:#ff66d7"/><circle cx="46.86" cy="270.68" r="8.22" style="fill:#00058b"/><circle cx="66.09" cy="270.68" r="8.22" style="fill:#00058b"/><circle cx="85.33" cy="270.68" r="8.22" style="fill:#00058b"/><circle cx="104.56" cy="270.68" r="8.22" style="fill:#00058b"/><circle cx="123.8" cy="270.68" r="8.22" style="fill:#00058b"/><circle cx="143.03" cy="270.68" r="8.22" style="fill:#00058b"/><circle cx="162.27" cy="270.68" r="8.22" style="fill:#fbae17"/><circle cx="181.5" cy="270.68" r="8.22" style="fill:#fbae17"/><circle cx="200.74" cy="270.68" r="8.22" style="fill:#fbae17"/><circle cx="219.98" cy="270.68" r="8.22" style="fill:#ff66d7"/><circle cx="199.31" cy="321.21" r="28.38" style="fill:#ff66d7"/><text transform="translate(187.65 332.77)" style="font-size:7.66963005065918px;fill:#00058b;font-family:OpenSans-Semibold, Open Sans;font-weight:600">Latino</text><text transform="translate(180.2 323.03)" style="font-size:19.356679916381836px;fill:#00058b;font-family:OpenSans-Bold, Open Sans;font-weight:700">14<tspan x="22.1" y="0" style="font-size:17.89579963684082px">%</tspan></text><circle cx="66.76" cy="321.21" r="28.38" style="fill:#00058b"/><text transform="translate(52.77 331.53)" style="font-size:7.66963005065918px;fill:#fff;font-family:OpenSans-Semibold, Open Sans;font-weight:600">No pref</text><text transform="translate(47.65 321.06)" style="font-size:19.356679916381836px;fill:#fff;font-family:OpenSans-Bold, Open Sans;font-weight:700">51<tspan x="22.1" y="0" style="font-size:17.89579963684082px">%</tspan></text><circle cx="133.03" cy="321.21" r="28.38" style="fill:#fbae17"/><text transform="translate(117.2 333.07)" style="font-size:7.66963005065918px;fill:#00058b;font-family:OpenSans-Semibold, Open Sans;font-weight:600">Hispanic</text><text transform="translate(113.92 321.86)" style="font-size:19.356679916381836px;fill:#00058b;font-family:OpenSans-Bold, Open Sans;font-weight:700">33<tspan x="22.1" y="0" style="font-size:17.89579963684082px">%</tspan></text><text transform="translate(12.7 24.45)" style="font-size:11.902310371398926px;fill:#fff;font-family:OpenSans-Bold, Open Sans;font-weight:700">Hispanic vs Latino</text><text transform="translate(254.72 367.73)" style="font-size:12px;fill:#fff;font-family:OpenSans-Bold, Open Sans;font-weight:700">1</text><text transform="translate(532.72 367.98)" style="font-size:12px;fill:#fff;font-family:OpenSans-Bold, Open Sans;font-weight:700">1</text></svg>