<svg id="Layer_1" data-name="Layer 1" xmlns="http://www.w3.org/2000/svg" viewBox="0 0 230.78 271.33"><title>photo-education-college</title><rect width="230.78" height="271.33" style="fill:#fcee21"/><polyline points="35.34 141.28 48.58 146.35 62.91 134.1 76.83 137.6 90.82 126.76 105.51 123.75 118.94 134.37 133 118.18 203.31 131.06" style="fill:none;stroke:#69bfff;stroke-linecap:round;stroke-miterlimit:10;stroke-width:4px"/><polyline points="34.82 185.96 51.27 174.95 77.14 161.7 92.01 161.7 105.14 163.1 119.17 155.09 133 151.48 148.07 148.9 162.25 147.18 176.49 149.58 188.57 144.68 201.48 127.07" style="fill:none;stroke:#08bc99;stroke-linecap:round;stroke-miterlimit:10;stroke-width:4px"/><polyline points="34.58 160.99 48.52 160.99 64.63 161.7 77.14 156.06 92.7 159.87 105.51 163.67 119.86 163.1 133.88 174.27 148.07 153.38 162.25 147.48 175.73 138.18 189.25 147.48 201.97 144.68" style="fill:none;stroke:#00058b;stroke-linecap:round;stroke-miterlimit:10;stroke-width:4px"/><polyline points="94.63 85.94 107.73 89.74 120.84 77.12 134.71 77.12 147.06 60.37 160.17 67.98 173.28 70.35 186.39 76.29 199.5 76.29" style="fill:none;stroke:#fff;stroke-linecap:round;stroke-miterlimit:10;stroke-width:4px"/><text transform="translate(47.85 25.73)" style="font-size:9.652310371398926px;fill:#00058b;font-family:OpenSans-Bold, Open Sans;font-weight:700">Immediate Entry to College</text><rect x="29.79" y="242.65" width="9.88" height="3.42" style="fill:#08bc99"/><text transform="translate(41.64 246.38)" style="font-size:5.866569995880127px;fill:#00058b;font-family:OpenSans-Bold, Open Sans;font-weight:700">Hispanic</text><rect x="78.71" y="242.65" width="9.88" height="3.42" style="fill:#00058b"/><text transform="translate(90.67 246.38)" style="font-size:5.866569995880127px;fill:#00058b;font-family:OpenSans-Bold, Open Sans;font-weight:700">NH Black</text><rect x="128.32" y="242.65" width="9.88" height="3.42" style="fill:#69bfff"/><text transform="translate(139.81 246.38)" style="font-size:5.866569995880127px;fill:#00058b;font-family:OpenSans-Bold, Open Sans;font-weight:700">NH White</text><rect x="176.32" y="242.28" width="9.88" height="3.42" style="fill:#fff"/><text transform="translate(187.81 246)" style="font-size:5.866569995880127px;fill:#00058b;font-family:OpenSans-Bold, Open Sans;font-weight:700">Asian</text><line x1="160.03" y1="197.12" x2="160.03" y2="200.96" style="fill:none;stroke:#00058b;stroke-linecap:round;stroke-miterlimit:10;stroke-width:0.385872533444309px"/><line x1="146.09" y1="197.12" x2="146.09" y2="200.96" style="fill:none;stroke:#00058b;stroke-linecap:round;stroke-miterlimit:10;stroke-width:0.385872533444309px"/><line x1="187.91" y1="197.12" x2="187.91" y2="200.96" style="fill:none;stroke:#00058b;stroke-linecap:round;stroke-miterlimit:10;stroke-width:0.385872533444309px"/><line x1="118.21" y1="197.12" x2="118.21" y2="200.96" style="fill:none;stroke:#00058b;stroke-linecap:round;stroke-miterlimit:10;stroke-width:0.385872533444309px"/><line x1="104.27" y1="197.12" x2="104.27" y2="200.96" style="fill:none;stroke:#00058b;stroke-linecap:round;stroke-miterlimit:10;stroke-width:0.385872533444309px"/><line x1="90.33" y1="197.12" x2="90.33" y2="200.96" style="fill:none;stroke:#00058b;stroke-linecap:round;stroke-miterlimit:10;stroke-width:0.385872533444309px"/><line x1="62.45" y1="197.12" x2="62.45" y2="200.96" style="fill:none;stroke:#00058b;stroke-linecap:round;stroke-miterlimit:10;stroke-width:0.385872533444309px"/><line x1="34.58" y1="197.12" x2="34.58" y2="209.32" style="fill:none;stroke:#00058b;stroke-linecap:round;stroke-miterlimit:10;stroke-width:0.687836115085114px"/><line x1="173.97" y1="197.12" x2="173.97" y2="200.96" style="fill:none;stroke:#00058b;stroke-linecap:round;stroke-miterlimit:10;stroke-width:0.385872533444309px"/><line x1="201.85" y1="197.12" x2="201.85" y2="209.32" style="fill:none;stroke:#00058b;stroke-linecap:round;stroke-miterlimit:10;stroke-width:0.687836115085114px"/><line x1="132.15" y1="197.12" x2="132.15" y2="200.96" style="fill:none;stroke:#00058b;stroke-linecap:round;stroke-miterlimit:10;stroke-width:0.385872533444309px"/><line x1="118.21" y1="197.12" x2="118.21" y2="209.32" style="fill:none;stroke:#00058b;stroke-linecap:round;stroke-miterlimit:10;stroke-width:0.687836115085114px"/><line x1="76.39" y1="197.12" x2="76.39" y2="200.96" style="fill:none;stroke:#00058b;stroke-linecap:round;stroke-miterlimit:10;stroke-width:0.385872533444309px"/><line x1="48.52" y1="197.12" x2="48.52" y2="200.96" style="fill:none;stroke:#00058b;stroke-linecap:round;stroke-miterlimit:10;stroke-width:0.385872533444309px"/><text transform="translate(36.53 208.9)" style="font-size:6.43487024307251px;fill:#00058b;font-family:OpenSans-Bold, Open Sans;font-weight:700">2000</text><text transform="translate(119.22 208.9)" style="font-size:6.43487024307251px;fill:#00058b;font-family:OpenSans-Bold, Open Sans;font-weight:700">2006</text><text transform="translate(203.37 208.9)" style="font-size:6.43487024307251px;fill:#00058b;font-family:OpenSans-Bold, Open Sans;font-weight:700">2012</text><polyline points="34.58 41.96 34.58 196.69 203.31 196.69" style="fill:none;stroke:#00058b;stroke-linecap:round;stroke-miterlimit:10;stroke-width:1.20000004768372px"/><line x1="28.87" y1="167.38" x2="34.1" y2="167.38" style="fill:none;stroke:#00058b;stroke-linecap:round;stroke-miterlimit:10;stroke-width:0.450493270762438px"/><line x1="28.57" y1="182.52" x2="33.81" y2="182.52" style="fill:none;stroke:#00058b;stroke-linecap:round;stroke-miterlimit:10;stroke-width:0.450493270762438px"/><text transform="translate(16.44 189.64)" style="font-size:6.43487024307251px;fill:#00058b;font-family:OpenSans-Bold, Open Sans;font-weight:700">50%</text><text transform="translate(16.44 128.57)" style="font-size:6.43487024307251px;fill:#00058b;font-family:OpenSans-Bold, Open Sans;font-weight:700">70%</text><text transform="translate(16.44 159.1)" style="font-size:6.43487024307251px;fill:#00058b;font-family:OpenSans-Bold, Open Sans;font-weight:700">60%</text><text transform="translate(16.44 98.03)" style="font-size:6.43487024307251px;fill:#00058b;font-family:OpenSans-Bold, Open Sans;font-weight:700">80%</text><text transform="translate(16.44 67.5)" style="font-size:6.43487024307251px;fill:#00058b;font-family:OpenSans-Bold, Open Sans;font-weight:700">90%</text><line x1="28.87" y1="152.25" x2="34.1" y2="152.25" style="fill:none;stroke:#00058b;stroke-linecap:round;stroke-miterlimit:10;stroke-width:0.450493270762438px"/><line x1="28.87" y1="137.12" x2="34.1" y2="137.12" style="fill:none;stroke:#00058b;stroke-linecap:round;stroke-miterlimit:10;stroke-width:0.450493270762438px"/><line x1="28.87" y1="106.85" x2="34.1" y2="106.85" style="fill:none;stroke:#00058b;stroke-linecap:round;stroke-miterlimit:10;stroke-width:0.450493270762438px"/><line x1="28.87" y1="121.98" x2="34.1" y2="121.98" style="fill:none;stroke:#00058b;stroke-linecap:round;stroke-miterlimit:10;stroke-width:0.450493270762438px"/><line x1="28.87" y1="76.58" x2="34.1" y2="76.58" style="fill:none;stroke:#00058b;stroke-linecap:round;stroke-miterlimit:10;stroke-width:0.450493270762438px"/><line x1="28.62" y1="91.72" x2="34.58" y2="91.72" style="fill:none;stroke:#00058b;stroke-linecap:round;stroke-miterlimit:10;stroke-width:0.480685165090045px"/><line x1="29.34" y1="61.45" x2="34.58" y2="61.45" style="fill:none;stroke:#00058b;stroke-linecap:round;stroke-miterlimit:10;stroke-width:0.450493270762438px"/><line x1="23.16" y1="46.31" x2="34.58" y2="46.31" style="fill:none;stroke:#00058b;stroke-linecap:round;stroke-miterlimit:10;stroke-width:0.665410694550665px"/><text transform="translate(210.72 267.34)" style="font-size:12px;fill:#00058b;font-family:OpenSans-Bold, Open Sans;font-weight:700">3</text></svg>