<svg id="Layer_1" data-name="Layer 1" xmlns="http://www.w3.org/2000/svg" viewBox="0 0 230.3 226.28"><title>photo-education-dropout</title><rect width="230.3" height="225" style="fill:#fcee21"/><polygon points="195.71 114.97 182 114.35 166.81 100.92 151.62 100.32 136.43 98.45 121.24 90.45 106.05 85.61 90.86 80.78 75.67 83.28 60.48 73.24 45.29 71.65 29.27 69.81 29.27 159.25 195.71 159.42 195.71 114.97" style="fill:#08bc99"/><polygon points="195.71 135.87 180.94 133.52 166.17 128.86 151.4 127.93 136.63 132.93 122.54 121.79 107.08 125.54 92.31 114.29 77.54 120.35 62.77 117.41 48 119.94 29.27 112.03 29.27 156.34 195.71 156.34 195.71 135.87" style="fill:#00058b"/><polygon points="179.78 144.11 166.58 143.77 150.8 141.61 150.64 141.59 120.01 141.02 104.78 137.23 56.07 137.23 29.27 140.22 29.27 159.25 195.71 159.43 195.71 144.11 179.78 144.11" style="fill:#69bfff"/><text transform="translate(52.02 20.02)" style="font-size:9.652310371398926px;fill:#00058b;font-family:OpenSans-Bold, Open Sans;font-weight:700">High School Dropout rates <tspan x="39.51" y="11.58">2000-2011</tspan></text><rect x="42.85" y="201.11" width="9.88" height="3.42" style="fill:#08bc99"/><text transform="translate(54.69 204.83)" style="font-size:5.866569995880127px;fill:#00058b;font-family:OpenSans-Bold, Open Sans;font-weight:700">Hispanic</text><rect x="91.77" y="201.11" width="9.88" height="3.42" style="fill:#00058b"/><text transform="translate(103.72 204.83)" style="font-size:5.866569995880127px;fill:#00058b;font-family:OpenSans-Bold, Open Sans;font-weight:700">NH Black</text><rect x="141.37" y="201.11" width="9.88" height="3.42" style="fill:#69bfff"/><text transform="translate(152.87 204.83)" style="font-size:5.866569995880127px;fill:#00058b;font-family:OpenSans-Bold, Open Sans;font-weight:700">NH White</text><line x1="150.43" y1="160.11" x2="150.43" y2="163.95" style="fill:none;stroke:#00058b;stroke-linecap:round;stroke-miterlimit:10;stroke-width:0.385872533444309px"/><line x1="180.84" y1="160.11" x2="180.84" y2="163.95" style="fill:none;stroke:#00058b;stroke-linecap:round;stroke-miterlimit:10;stroke-width:0.385872533444309px"/><line x1="120.01" y1="160.11" x2="120.01" y2="163.95" style="fill:none;stroke:#00058b;stroke-linecap:round;stroke-miterlimit:10;stroke-width:0.385872533444309px"/><line x1="89.6" y1="160.11" x2="89.6" y2="163.95" style="fill:none;stroke:#00058b;stroke-linecap:round;stroke-miterlimit:10;stroke-width:0.385872533444309px"/><line x1="59.19" y1="160.11" x2="59.19" y2="163.95" style="fill:none;stroke:#00058b;stroke-linecap:round;stroke-miterlimit:10;stroke-width:0.385872533444309px"/><line x1="28.74" y1="160.42" x2="28.74" y2="172.62" style="fill:none;stroke:#00058b;stroke-linecap:round;stroke-miterlimit:10;stroke-width:0.687836115085114px"/><line x1="165.63" y1="160.11" x2="165.63" y2="163.95" style="fill:none;stroke:#00058b;stroke-linecap:round;stroke-miterlimit:10;stroke-width:0.385872533444309px"/><line x1="196.02" y1="160.42" x2="196.02" y2="172.62" style="fill:none;stroke:#00058b;stroke-linecap:round;stroke-miterlimit:10;stroke-width:0.687836115085114px"/><line x1="135.22" y1="160.11" x2="135.22" y2="163.95" style="fill:none;stroke:#00058b;stroke-linecap:round;stroke-miterlimit:10;stroke-width:0.385872533444309px"/><line x1="104.78" y1="160.42" x2="104.78" y2="172.62" style="fill:none;stroke:#00058b;stroke-linecap:round;stroke-miterlimit:10;stroke-width:0.687836115085114px"/><line x1="74.39" y1="160.11" x2="74.39" y2="163.95" style="fill:none;stroke:#00058b;stroke-linecap:round;stroke-miterlimit:10;stroke-width:0.385872533444309px"/><line x1="43.98" y1="160.11" x2="43.98" y2="163.95" style="fill:none;stroke:#00058b;stroke-linecap:round;stroke-miterlimit:10;stroke-width:0.385872533444309px"/><polyline points="197.49 159.63 28.76 159.63 28.76 57.13" style="fill:none;stroke:#00058b;stroke-linecap:round;stroke-miterlimit:10;stroke-width:1.20000004768372px"/><text transform="translate(31.7 172.2)" style="font-size:6.43487024307251px;fill:#00058b;font-family:OpenSans-Bold, Open Sans;font-weight:700">2000</text><text transform="translate(107.76 172.2)" style="font-size:6.43487024307251px;fill:#00058b;font-family:OpenSans-Bold, Open Sans;font-weight:700">2005</text><text transform="translate(198.54 172.2)" style="font-size:6.43487024307251px;fill:#00058b;font-family:OpenSans-Bold, Open Sans;font-weight:700">2011</text><line x1="22.26" y1="145.47" x2="28.22" y2="145.47" style="fill:none;stroke:#00058b;stroke-linecap:round;stroke-miterlimit:10;stroke-width:0.480685165090045px"/><text transform="translate(20.42 151.86)" style="font-size:6.43487024307251px;fill:#00058b;font-family:OpenSans-Bold, Open Sans;font-weight:700">5</text><line x1="22.26" y1="128.04" x2="28.22" y2="128.04" style="fill:none;stroke:#00058b;stroke-linecap:round;stroke-miterlimit:10;stroke-width:0.480685165090045px"/><text transform="translate(18.59 134.36)" style="font-size:6.43487024307251px;fill:#00058b;font-family:OpenSans-Bold, Open Sans;font-weight:700">10</text><line x1="22.26" y1="110.62" x2="28.22" y2="110.62" style="fill:none;stroke:#00058b;stroke-linecap:round;stroke-miterlimit:10;stroke-width:0.480685165090045px"/><text transform="translate(18.59 116.86)" style="font-size:6.43487024307251px;fill:#00058b;font-family:OpenSans-Bold, Open Sans;font-weight:700">15</text><line x1="22.26" y1="93.2" x2="28.22" y2="93.2" style="fill:none;stroke:#00058b;stroke-linecap:round;stroke-miterlimit:10;stroke-width:0.480685165090045px"/><text transform="translate(18.59 99.36)" style="font-size:6.43487024307251px;fill:#00058b;font-family:OpenSans-Bold, Open Sans;font-weight:700">20</text><line x1="22.26" y1="75.78" x2="28.22" y2="75.78" style="fill:none;stroke:#00058b;stroke-linecap:round;stroke-miterlimit:10;stroke-width:0.480685165090045px"/><text transform="translate(18.59 81.86)" style="font-size:6.43487024307251px;fill:#00058b;font-family:OpenSans-Bold, Open Sans;font-weight:700">25</text><line x1="22.26" y1="58.36" x2="28.22" y2="58.36" style="fill:none;stroke:#00058b;stroke-linecap:round;stroke-miterlimit:10;stroke-width:0.480685165090045px"/><text transform="translate(18.59 64.36)" style="font-size:6.43487024307251px;fill:#00058b;font-family:OpenSans-Bold, Open Sans;font-weight:700">30</text><text transform="translate(211.95 222.76)" style="font-size:12px;fill:#00058b;font-family:OpenSans-Bold, Open Sans;font-weight:700">2</text></svg>