<svg id="Layer_1" data-name="Layer 1" xmlns="http://www.w3.org/2000/svg" viewBox="0 0 230.6 458.93"><title>photo-language-proficient</title><rect width="230.6" height="458.42" style="fill:#1a8fe8"/><text transform="translate(48.63 26.62)" style="font-size:11.957429885864258px;fill:#fff;font-family:OpenSans-Bold, Open Sans;font-weight:700">About 3/4 of Hispanics <tspan x="22.52" y="14.35">Millennials are </tspan><tspan x="7.31" y="28.7">proficient in English</tspan></text><text transform="translate(22.69 308.87)" style="font-size:8px;fill:#fff;font-family:OpenSans-Bold, Open Sans;font-weight:700">Silent/<tspan x="-4.29" y="9.6">Greatest</tspan><tspan x="3.46" y="19.2">(69+)</tspan></text><text transform="translate(59.87 308.87)" style="font-size:8px;fill:#fff;font-family:OpenSans-Bold, Open Sans;font-weight:700">Boomer<tspan x="2.62" y="9.6">(50-68)</tspan></text><text transform="translate(103.93 308.87)" style="font-size:8px;fill:#fff;font-family:OpenSans-Bold, Open Sans;font-weight:700">Gen X<tspan x="-1.54" y="9.6">(34-49)</tspan></text><text transform="translate(147.99 308.87)" style="font-size:8px;fill:#fff;font-family:OpenSans-Bold, Open Sans;font-weight:700">Mill<tspan x="-5.43" y="9.6">Adults</tspan><tspan x="-5.7" y="19.2">(18-33)</tspan></text><text transform="translate(184.08 308.87)" style="font-size:8px;fill:#fff;font-family:OpenSans-Bold, Open Sans;font-weight:700">Gen Z<tspan x="0.4" y="9.6">(5-17)</tspan></text><rect x="22.23" y="361.07" width="12.96" height="12.96" style="fill:#aa0076"/><text transform="translate(39.85 367.11)" style="font-size:9px;fill:#fff;font-family:OpenSans-Bold, Open Sans;font-weight:700">Speak only <tspan x="0" y="10.8">English at home</tspan></text><text transform="translate(68.94 70.79)" style="font-size:9px;fill:#fff;font-family:OpenSans-Bold, Open Sans;font-weight:700">(% among Hispanics)</text><text transform="translate(150.51 367.11)" style="font-size:9px;fill:#fff;font-family:OpenSans-Bold, Open Sans;font-weight:700">Speak English <tspan x="0" y="10.8">very well</tspan></text><text transform="translate(39.85 407.59)" style="font-size:9px;fill:#fff;font-family:OpenSans-Bold, Open Sans;font-weight:700">Speak English <tspan x="0" y="10.8">less than very </tspan><tspan x="0" y="21.6">well</tspan></text><text transform="translate(150.51 407.59)" style="font-size:9px;fill:#fff;font-family:OpenSans-Bold, Open Sans;font-weight:700">Do not speak <tspan x="0" y="10.8">English</tspan></text><rect x="132.45" y="361.07" width="12.96" height="12.96" style="fill:#00058b"/><rect x="132.45" y="400.75" width="12.96" height="12.96" style="fill:#662d91"/><rect x="22.23" y="400.75" width="12.96" height="12.96" style="fill:#69bfff"/><rect x="20.48" y="266.15" width="30.47" height="29.38" style="fill:#aa0076"/><rect x="20.48" y="209.85" width="30.47" height="56.3" style="fill:#00058b"/><rect x="20.48" y="142.8" width="30.47" height="67.05" style="fill:#69bfff"/><rect x="20.48" y="100.4" width="30.47" height="42.4" style="fill:#662d91"/><text transform="translate(25.71 283.52) scale(1.09 1)" style="font-size:9px;fill:#fff;font-family:OpenSans-Bold, Open Sans;font-weight:700">16%</text><text transform="translate(25.71 240.68) scale(1.09 1)" style="font-size:9px;fill:#fff;font-family:OpenSans-Bold, Open Sans;font-weight:700">27%</text><text transform="translate(25.71 179.01) scale(1.09 1)" style="font-size:9px;fill:#00058b;font-family:OpenSans-Bold, Open Sans;font-weight:700">35%</text><text transform="translate(25.71 124.28) scale(1.09 1)" style="font-size:9px;fill:#fff;font-family:OpenSans-Bold, Open Sans;font-weight:700">22%</text><rect x="60.38" y="255.9" width="30.47" height="39.63" style="fill:#aa0076"/><rect x="60.38" y="193.4" width="30.47" height="62.5" style="fill:#00058b"/><rect x="60.38" y="124.6" width="30.47" height="68.8" style="fill:#69bfff"/><rect x="60.38" y="100.4" width="30.47" height="24.2" style="fill:#662d91"/><text transform="translate(65.61 278.4) scale(1.09 1)" style="font-size:9px;fill:#fff;font-family:OpenSans-Bold, Open Sans;font-weight:700">20%</text><text transform="translate(65.61 227.33) scale(1.09 1)" style="font-size:9px;fill:#fff;font-family:OpenSans-Bold, Open Sans;font-weight:700">32%</text><text transform="translate(65.61 161.68) scale(1.09 1)" style="font-size:9px;fill:#00058b;font-family:OpenSans-Bold, Open Sans;font-weight:700">37%</text><text transform="translate(65.61 115.18) scale(1.09 1)" style="font-size:9px;fill:#fff;font-family:OpenSans-Bold, Open Sans;font-weight:700">12%</text><rect x="100.29" y="255.79" width="30.47" height="40.38" style="fill:#aa0076"/><rect x="100.29" y="100.4" width="30.47" height="16.65" style="fill:#662d91"/><rect x="100.29" y="187.56" width="30.47" height="68.23" style="fill:#00058b"/><rect x="100.29" y="117.05" width="30.47" height="70.52" style="fill:#69bfff"/><text transform="translate(105.52 278.67) scale(1.09 1)" style="font-size:9px;fill:#fff;font-family:OpenSans-Bold, Open Sans;font-weight:700">20%</text><text transform="translate(105.52 224.36) scale(1.09 1)" style="font-size:9px;fill:#fff;font-family:OpenSans-Bold, Open Sans;font-weight:700">35%</text><text transform="translate(105.52 154.99) scale(1.09 1)" style="font-size:9px;fill:#00058b;font-family:OpenSans-Bold, Open Sans;font-weight:700">36%</text><text transform="translate(108.31 111.4) scale(1.09 1)" style="font-size:9px;fill:#fff;font-family:OpenSans-Bold, Open Sans;font-weight:700">9%</text><rect x="140.19" y="241.83" width="30.47" height="53.7" style="fill:#aa0076"/><rect x="140.19" y="100.4" width="30.47" height="9.33" style="fill:#662d91"/><rect x="140.19" y="146.9" width="30.47" height="94.93" style="fill:#00058b"/><rect x="140.19" y="109.72" width="30.47" height="37.17" style="fill:#69bfff"/><text transform="translate(145.42 271.36) scale(1.09 1)" style="font-size:9px;fill:#fff;font-family:OpenSans-Bold, Open Sans;font-weight:700">28%</text><text transform="translate(145.42 197.05) scale(1.09 1)" style="font-size:9px;fill:#fff;font-family:OpenSans-Bold, Open Sans;font-weight:700">48%</text><text transform="translate(145.42 130.99) scale(1.09 1)" style="font-size:9px;fill:#00058b;font-family:OpenSans-Bold, Open Sans;font-weight:700">19%</text><text transform="translate(148.21 107.74) scale(1.09 1)" style="font-size:9px;fill:#fff;font-family:OpenSans-Bold, Open Sans;font-weight:700">5%</text><rect x="180.09" y="229.62" width="30.47" height="65.91" style="fill:#aa0076"/><rect x="180.09" y="102.07" width="30.47" height="24.55" style="fill:#69bfff"/><rect x="180.09" y="126.62" width="30.47" height="103" style="fill:#00058b"/><rect x="180.09" y="100.4" width="30.47" height="1.87" style="fill:#662d91"/><text transform="translate(185.32 265.26) scale(1.09 1)" style="font-size:9px;fill:#fff;font-family:OpenSans-Bold, Open Sans;font-weight:700">37%</text><text transform="translate(185.32 180.8) scale(1.09 1)" style="font-size:9px;fill:#fff;font-family:OpenSans-Bold, Open Sans;font-weight:700">50%</text><text transform="translate(185.32 117.03) scale(1.09 1)" style="font-size:9px;fill:#00058b;font-family:OpenSans-Bold, Open Sans;font-weight:700">12%</text><text transform="translate(188.12 99.86) scale(1.09 1)" style="font-size:9px;fill:#fff;font-family:OpenSans-Bold, Open Sans;font-weight:700">1%</text><line x1="15.95" y1="296.08" x2="215.95" y2="296.08" style="fill:none;stroke:#fff;stroke-linecap:round;stroke-miterlimit:10;stroke-width:1.51639216840391px"/><text transform="translate(211.63 455.41)" style="font-size:12px;fill:#fff;font-family:OpenSans-Bold, Open Sans;font-weight:700">1</text></svg>