<svg id="Layer_1" data-name="Layer 1" xmlns="http://www.w3.org/2000/svg" viewBox="0 0 232.62 380.83"><title>photo-language-pie</title><rect width="232.62" height="380.83" style="fill:#1a8fe8"/><text transform="translate(74.99 33.31)" style="font-size:11.957429885864258px;fill:#fff;font-family:OpenSans-Bold, Open Sans;font-weight:700">Language Use <tspan x="-9.8" y="14.35">Among Hispanics</tspan></text><path d="M112.53,87.84a106.29,106.29,0,0,0-73.28,29.23l.66.69a105.72,105.72,0,1,1,2.68,156l-.67.68A106.65,106.65,0,1,0,112.53,87.84Z" style="fill:#00058b;stroke:#00058b;stroke-miterlimit:10;stroke-width:0.991152107715607px"/><line x1="116.31" y1="301.15" x2="116.31" y2="312.86" style="fill:none;stroke:#00058b;stroke-miterlimit:10;stroke-width:0.991152107715607px"/><text transform="translate(27.4 88.64)" style="font-size:8.920370101928711px;fill:#fff;font-family:OpenSans-SemiBold, OpenSans SemiBold;font-weight:600">No English</text><text transform="translate(68.99 323.68)" style="font-size:8.920370101928711px;fill:#fff;font-family:OpenSans-SemiBold, OpenSans SemiBold;font-weight:600">Speak Spanish or another <tspan x="13.44" y="11.89">language </tspan><tspan x="50.34" y="11.89" style="letter-spacing:-0.004050595668915976em">a</tspan><tspan x="54.61" y="11.89">t home</tspan></text><path d="M80.61,194.51a31.79,31.79,0,0,1,8.92-22.12L41.38,122.71C40,124.08,38.55,125.6,37.3,127a101.14,101.14,0,0,0,6.91,141.89l13.23-14.75,32.9-36.68A31.82,31.82,0,0,1,80.61,194.51Z" style="fill:#aa0076"/><path d="M209.87,167.52l-53.41,15.42-13,3.75A31.93,31.93,0,0,1,92,219L45.9,270.4c26.38,23.18,60.81,30.87,94.63,21.1A101.13,101.13,0,0,0,209.87,167.52Z" style="fill:#00058b"/><path d="M142.85,184.5l66.39-19.17c-.41-1.4-.69-2.25-1.28-4A101,101,0,0,0,80.51,98.63L103.16,164a32,32,0,0,1,39.69,20.51Z" style="fill:#662d91"/><path d="M93.6,143.36l-15.24-44A94.52,94.52,0,0,0,43,121.12L91.16,170.8a31.94,31.94,0,0,1,9.85-6.06Z" style="fill:#69bfff"/><text transform="translate(110.17 123.14)" style="font-size:13.876130104064941px;fill:#fff;font-family:OpenSans-Bold, Open Sans;font-weight:700">26%</text><text transform="translate(110.17 135.13)" style="font-size:8.920370101928711px;fill:#fff;font-family:OpenSans-SemiBold, OpenSans SemiBold;font-weight:600">English, but less <tspan x="0" y="11.89">than</tspan><tspan x="17.15" y="11.89" style="letter-spacing:-0.08298247343346783em"> </tspan><tspan x="18.3" y="11.89" style="letter-spacing:0.003941120110296625em">“</tspan><tspan x="21.5" y="11.89" style="letter-spacing:-0.009962275834360913em">v</tspan><tspan x="25.7" y="11.89">e</tspan><tspan x="30.17" y="11.89" style="letter-spacing:0.02496042736521196em">r</tspan><tspan x="33.31" y="11.89">y </tspan><tspan x="39.4" y="11.89" style="letter-spacing:-0.009962275834360913em">w</tspan><tspan x="45.88" y="11.89">el</tspan><tspan x="52.45" y="11.89" style="letter-spacing:0.006021155724064289em">l</tspan><tspan x="54.61" y="11.89" style="letter-spacing:-0.08604778907480966em">”</tspan></text><text transform="translate(93.15 260.93)" style="font-size:8.920370101928711px;fill:#fff;font-family:OpenSans-SemiBold, OpenSans SemiBold;font-weight:600">English<tspan x="27" y="0" style="letter-spacing:-0.08298247343346783em"> </tspan><tspan x="28.15" y="0" style="letter-spacing:0.003941120110296625em">“</tspan><tspan x="31.34" y="0" style="letter-spacing:-0.009962275834360913em">v</tspan><tspan x="35.55" y="0">e</tspan><tspan x="40.02" y="0" style="letter-spacing:0.02496042736521196em">r</tspan><tspan x="43.16" y="0">y </tspan><tspan x="0" y="11.89" style="letter-spacing:-0.009962275834360913em">w</tspan><tspan x="6.48" y="11.89">el</tspan><tspan x="13.05" y="11.89" style="letter-spacing:0.005911680165444938em">l</tspan><tspan x="15.21" y="11.89" style="letter-spacing:-0.0859383135161903em">”</tspan></text><text transform="translate(19.99 197.33)" style="font-size:8.920370101928711px;fill:#fff;font-family:OpenSans-SemiBold, OpenSans SemiBold;font-weight:600">Only English <tspan x="0" y="11.89" style="letter-spacing:-0.004050595668915976em">a</tspan><tspan x="4.26" y="11.89">t home</tspan></text><text transform="translate(93.15 247.41)" style="font-size:13.876130104064941px;fill:#fff;font-family:OpenSans-Bold, Open Sans;font-weight:700">41%</text><text transform="translate(20 182.87)" style="font-size:13.876130104064941px;fill:#fff;font-family:OpenSans-Bold, Open Sans;font-weight:700">26%</text><text transform="translate(27.4 79.25)" style="font-size:13.876130104064941px;fill:#fcf0fa;font-family:OpenSans-SemiBold, OpenSans SemiBold;font-weight:600">7%</text><line x1="50.5" y1="94.56" x2="50.5" y2="117.64" style="fill:none;stroke:#fff;stroke-miterlimit:10;stroke-width:0.743364080786705px"/><text transform="translate(211.89 375.28)" style="font-size:12px;fill:#fff;font-family:OpenSans-Bold, Open Sans;font-weight:700">1</text></svg>