<?xml version="1.0" encoding="utf-8"?>
<!-- Generator: Adobe Illustrator 23.0.3, SVG Export Plug-In . SVG Version: 6.00 Build 0)  -->
<svg version="1.1" id="Layer_1" xmlns="http://www.w3.org/2000/svg" xmlns:xlink="http://www.w3.org/1999/xlink" x="0px" y="0px"
	 viewBox="0 0 454.5 50" style="enable-background:new 0 0 454.5 50;" xml:space="preserve">
<style type="text/css">
	.st0{clip-path:url(#SVGID_2_);}
	.st1{fill:#08BC99;}
	.st2{fill:#1A8FE8;}
	.st3{fill:#69BFFF;}
	.st4{clip-path:url(#SVGID_4_);}
	.st5{clip-path:url(#SVGID_6_);}
	.st6{clip-path:url(#SVGID_8_);}
	.st7{clip-path:url(#SVGID_10_);}
	.st8{clip-path:url(#SVGID_12_);}
	.st9{fill:#AA0076;}
	.st10{fill:#FF66D7;}
	.st11{fill:#E028A5;}
	.st12{clip-path:url(#SVGID_14_);}
	.st13{clip-path:url(#SVGID_16_);}
	.st14{clip-path:url(#SVGID_18_);}
	.st15{clip-path:url(#SVGID_20_);}
	.st16{clip-path:url(#SVGID_22_);}
</style>
<title>Somos Latinx logo</title>
<g>
	<g id="Layer_1-2">
		<g>
			<defs>
				<polygon id="SVGID_1_" points="251.9,1.1 240.1,1.1 240.1,48.9 270.5,48.9 270.5,37.7 251.9,37.7 				"/>
			</defs>
			<clipPath id="SVGID_2_">
				<use xlink:href="#SVGID_1_"  style="overflow:visible;"/>
			</clipPath>
			<g class="st0">
				<rect x="213.5" y="-15.4" class="st1" width="73.3" height="26.3"/>
				<rect x="213.5" y="10.9" class="st2" width="73.3" height="26.3"/>
				<rect x="213.5" y="37.2" class="st3" width="73.3" height="26.3"/>
			</g>
		</g>
		<g>
			<defs>
				<path id="SVGID_3_" d="M285,1.1l-20.8,47.7h13.2l3.9-10h16.1l4.1,10H315L294.4,1.1H285z M293.2,28.1h-7.6l3.8-9.9L293.2,28.1z"
					/>
			</defs>
			<clipPath id="SVGID_4_">
				<use xlink:href="#SVGID_3_"  style="overflow:visible;"/>
			</clipPath>
			<g class="st4">
				<rect x="254.9" y="-15.4" class="st1" width="73.3" height="26.3"/>
				<rect x="254.9" y="10.9" class="st2" width="73.3" height="26.3"/>
				<rect x="254.9" y="37.2" class="st3" width="73.3" height="26.3"/>
			</g>
		</g>
		<g>
			<defs>
				<polygon id="SVGID_5_" points="306.9,12.3 320.3,12.3 320.3,48.9 332.1,48.9 332.1,12.3 345.5,12.3 345.5,1.1 306.9,1.1 				"/>
			</defs>
			<clipPath id="SVGID_6_">
				<use xlink:href="#SVGID_5_"  style="overflow:visible;"/>
			</clipPath>
			<g class="st5">
				<rect x="290" y="-15.4" class="st1" width="73.3" height="26.3"/>
				<rect x="290" y="10.9" class="st2" width="73.3" height="26.3"/>
				<rect x="290" y="37.2" class="st3" width="73.3" height="26.3"/>
			</g>
		</g>
		<g>
			<defs>
				<rect id="SVGID_7_" x="349.4" y="1.1" width="11.9" height="47.7"/>
			</defs>
			<clipPath id="SVGID_8_">
				<use xlink:href="#SVGID_7_"  style="overflow:visible;"/>
			</clipPath>
			<g class="st6">
				<rect x="315.3" y="-15.4" class="st1" width="73.3" height="26.3"/>
				<rect x="315.3" y="10.9" class="st2" width="73.3" height="26.3"/>
				<rect x="315.3" y="37.2" class="st3" width="73.3" height="26.3"/>
			</g>
		</g>
		<g>
			<defs>
				<polygon id="SVGID_9_" points="399.8,28.9 381.7,1.1 368.2,1.1 368.2,48.9 380.1,48.9 380.1,20.2 398.6,48.9 411.7,48.9 
					411.7,1.1 399.8,1.1 				"/>
			</defs>
			<clipPath id="SVGID_10_">
				<use xlink:href="#SVGID_9_"  style="overflow:visible;"/>
			</clipPath>
			<g class="st7">
				<rect x="351.5" y="-15.4" class="st1" width="73.3" height="26.3"/>
				<rect x="351.5" y="10.9" class="st2" width="73.3" height="26.3"/>
				<rect x="351.5" y="37.2" class="st3" width="73.3" height="26.3"/>
			</g>
		</g>
		<g>
			<defs>
				<polygon id="SVGID_11_" points="437.2,24 452.9,1.1 438.4,1.1 429.4,15.5 420.2,1.1 405.4,1.1 421.4,24 404.4,48.9 418.8,48.9 
					429.1,32.3 439.5,48.9 454.5,48.9 				"/>
			</defs>
			<clipPath id="SVGID_12_">
				<use xlink:href="#SVGID_11_"  style="overflow:visible;"/>
			</clipPath>
			<g class="st8">
				<rect x="392.6" y="-15.4" class="st9" width="73.3" height="26.3"/>
				<rect x="392.6" y="10.9" class="st10" width="73.3" height="26.3"/>
				<rect x="392.6" y="37.2" class="st11" width="73.3" height="26.3"/>
			</g>
		</g>
		<g>
			<defs>
				<path id="SVGID_13_" d="M75.2,6.7c-2.3-2.2-5-4-8.1-5.1C64,0.5,60.5,0,57.1,0c-3.4,0-6.8,0.6-10,1.8c-3,1.1-5.7,2.9-8,5.1
					c-2.3,2.3-4.1,5-5.2,8c-1.3,3.3-1.9,6.8-1.9,10.3c0,3.5,0.6,6.9,1.9,10.1c2.4,6,7.2,10.7,13.2,12.9c3.2,1.2,6.6,1.8,10,1.8
					c3.5,0,6.9-0.7,10.1-1.9c3-1.2,5.7-2.9,8-5.2c2.3-2.2,4.1-4.9,5.3-7.9c1.3-3.2,1.9-6.6,1.9-10.1c0.1-3.5-0.6-7-1.8-10.3
					C79.3,11.7,77.5,9,75.2,6.7z M70.1,24.7c0,2-0.3,3.9-1,5.8c-0.6,1.6-1.5,3.1-2.6,4.4c-1.1,1.2-2.5,2.2-4.1,2.9
					c-1.7,0.7-3.5,1.1-5.3,1c-1.8,0-3.6-0.3-5.3-1c-1.5-0.7-2.9-1.7-4-2.9c-1.2-1.3-2.1-2.8-2.6-4.4c-0.7-1.8-1-3.8-1-5.8
					c0-1.8,0.3-3.7,0.9-5.4c0.6-1.6,1.5-3,2.6-4.3c1.1-1.2,2.5-2.2,4-2.8c1.7-0.7,3.5-1,5.3-1c1.8,0,3.6,0.3,5.3,1
					c1.5,0.7,2.9,1.6,4,2.8c1.1,1.2,2,2.7,2.6,4.3C69.8,21.1,70.1,22.9,70.1,24.7L70.1,24.7z"/>
			</defs>
			<clipPath id="SVGID_14_">
				<use xlink:href="#SVGID_13_"  style="overflow:visible;"/>
			</clipPath>
			<g class="st12">
				<rect x="17.6" y="-15.4" class="st1" width="73.3" height="26.3"/>
				<rect x="17.6" y="10.9" class="st2" width="73.3" height="26.3"/>
				<rect x="17.6" y="37.2" class="st3" width="73.3" height="26.3"/>
			</g>
		</g>
		<g>
			<defs>
				<polygon id="SVGID_15_" points="105.6,28 95.4,1.1 80.1,1.1 80.1,48.9 91.6,48.9 91.6,21.9 101.5,48.9 109.8,48.9 119.6,21.9 
					119.6,48.9 131.1,48.9 131.1,1.1 116,1.1 				"/>
			</defs>
			<clipPath id="SVGID_16_">
				<use xlink:href="#SVGID_15_"  style="overflow:visible;"/>
			</clipPath>
			<g class="st13">
				<rect x="64.4" y="-15.4" class="st1" width="73.3" height="26.3"/>
				<rect x="64.4" y="10.9" class="st2" width="73.3" height="26.3"/>
				<rect x="64.4" y="37.2" class="st3" width="73.3" height="26.3"/>
			</g>
		</g>
		<g>
			<defs>
				<path id="SVGID_17_" d="M172.1,6.7c-2.3-2.2-5-4-8.1-5.1c-3.2-1.2-6.6-1.7-10.1-1.6c-3.4,0-6.8,0.6-10,1.8c-3,1.1-5.7,2.9-8,5.1
					c-2.3,2.3-4.1,5-5.2,8c-1.3,3.3-1.9,6.8-1.9,10.3c0,3.5,0.6,6.9,1.9,10.1c2.4,6,7.2,10.7,13.2,12.9c3.2,1.2,6.6,1.8,10,1.8
					c3.5,0,6.9-0.7,10.1-1.9c3-1.2,5.7-2.9,8-5.2c2.3-2.2,4.1-4.9,5.3-7.9c1.3-3.2,1.9-6.6,1.9-10.1c0.1-3.5-0.6-7-1.8-10.3
					C176.1,11.7,174.3,9,172.1,6.7z M167,24.7c0,2-0.3,3.9-1,5.8c-0.6,1.6-1.5,3.1-2.6,4.4c-1.1,1.2-2.5,2.2-4.1,2.9
					c-1.7,0.7-3.5,1.1-5.3,1.1c-1.8,0-3.6-0.3-5.3-1c-1.5-0.7-2.9-1.7-4-2.9c-1.2-1.3-2.1-2.8-2.6-4.4c-0.7-1.8-1-3.8-1-5.8
					c0-1.8,0.3-3.7,0.9-5.4c0.6-1.6,1.5-3,2.6-4.3c1.1-1.2,2.5-2.2,4-2.8c1.7-0.7,3.5-1,5.3-1c1.8,0,3.6,0.3,5.3,1
					c1.5,0.7,2.9,1.6,4.1,2.8c1.1,1.2,2,2.7,2.6,4.3C166.6,21.1,166.9,22.9,167,24.7L167,24.7z"/>
			</defs>
			<clipPath id="SVGID_18_">
				<use xlink:href="#SVGID_17_"  style="overflow:visible;"/>
			</clipPath>
			<g class="st14">
				<rect x="109" y="-15.4" class="st1" width="73.3" height="26.3"/>
				<rect x="109" y="10.9" class="st2" width="73.3" height="26.3"/>
				<rect x="109" y="37.2" class="st3" width="73.3" height="26.3"/>
			</g>
		</g>
		<g>
			<defs>
				<path id="SVGID_19_" d="M190.4,12.1c0.5-0.3,1-0.6,1.6-0.7c0.7-0.2,1.4-0.3,2.1-0.2c1.2,0,2.4,0.2,3.6,0.7c1,0.4,1.8,1,2.4,1.9
					l1.4,2.1l8.8-9.3l-1.5-1.4c-1.9-1.8-4.1-3.1-6.6-3.9c-4.5-1.4-9.3-1.5-13.8-0.3c-2.1,0.5-4.1,1.5-5.8,2.7
					c-1.7,1.3-3.2,2.9-4.2,4.8c-1.1,2.1-1.7,4.5-1.6,6.9c-0.1,2.6,0.5,5.2,1.9,7.4c1.1,1.7,2.7,3.2,4.4,4.3c1.7,1,3.6,1.8,5.5,2.4
					c1.7,0.5,3.4,1.1,4.8,1.6c1.2,0.4,2.3,1.1,3.2,1.8c0.6,0.5,0.9,1.3,0.8,2.1c0,0.5-0.1,1.1-0.4,1.6c-0.3,0.5-0.7,0.9-1.2,1.2
					c-0.6,0.4-1.2,0.7-1.9,0.8c-0.7,0.2-1.4,0.3-2.2,0.3c-1.4,0-2.8-0.3-4-1c-1.2-0.6-2.3-1.5-3-2.7l-1.4-2.1l-9,8.7l1.2,1.5
					c1.9,2.3,4.5,4.1,7.3,5.2c2.7,1,5.6,1.5,8.5,1.5c2.3,0,4.5-0.3,6.7-0.9c2.1-0.6,4.1-1.6,5.8-2.9c1.7-1.3,3.1-3.1,4.1-5
					c1-2.2,1.6-4.6,1.5-7c0.2-2.6-0.5-5.2-1.8-7.5c-1.1-1.8-2.7-3.3-4.4-4.4c-1.7-1.1-3.6-1.9-5.5-2.4c-1.8-0.5-3.4-1.1-4.9-1.6
					c-1.2-0.4-2.3-1-3.3-1.8c-0.5-0.4-0.8-1.1-0.7-1.8c0-0.5,0.1-1.1,0.3-1.5C189.6,12.8,190,12.4,190.4,12.1z"/>
			</defs>
			<clipPath id="SVGID_20_">
				<use xlink:href="#SVGID_19_"  style="overflow:visible;"/>
			</clipPath>
			<g class="st15">
				<rect x="149.1" y="-15.4" class="st1" width="73.3" height="26.3"/>
				<rect x="149.1" y="10.9" class="st2" width="73.3" height="26.3"/>
				<rect x="149.1" y="37.2" class="st3" width="73.3" height="26.3"/>
			</g>
		</g>
		<g>
			<defs>
				<path id="SVGID_21_" d="M15.7,12.1c0.5-0.3,1-0.6,1.6-0.7c0.7-0.2,1.4-0.3,2.1-0.2c1.2,0,2.4,0.2,3.6,0.7c1,0.4,1.8,1,2.4,1.9
					l1.4,2.1l8.8-9.3l-1.5-1.4c-1.9-1.8-4.1-3.1-6.6-3.9c-4.5-1.4-9.3-1.5-13.8-0.3C11.7,1.5,9.8,2.4,8,3.6C6.3,4.9,4.8,6.5,3.8,8.4
					c-1.1,2.1-1.7,4.5-1.7,6.9C2,17.9,2.7,20.4,4,22.6c1.2,1.7,2.7,3.2,4.5,4.3c1.7,1,3.6,1.8,5.5,2.4c1.7,0.5,3.4,1.1,4.8,1.6
					c1.2,0.4,2.3,1.1,3.2,1.8c0.6,0.5,0.9,1.3,0.8,2.1c0,0.5-0.1,1.1-0.4,1.6c-0.3,0.5-0.7,0.9-1.2,1.2c-0.6,0.4-1.2,0.7-1.9,0.8
					c-0.7,0.2-1.4,0.3-2.2,0.3c-1.4,0-2.8-0.3-4-1c-1.2-0.6-2.3-1.5-3-2.7L9,33.1l-9,8.7l1.2,1.5c1.9,2.3,4.5,4.1,7.3,5.2
					c2.7,1,5.6,1.5,8.6,1.5c2.3,0,4.5-0.3,6.7-0.9c2.1-0.6,4.1-1.6,5.8-2.9c1.7-1.3,3.1-3.1,4-5c1-2.2,1.6-4.6,1.5-7
					c0.1-2.6-0.6-5.2-1.9-7.5c-1.1-1.8-2.7-3.3-4.5-4.4c-1.7-1.1-3.6-1.9-5.5-2.4c-1.8-0.5-3.4-1.1-4.8-1.6c-1.2-0.4-2.3-1-3.3-1.8
					c-0.5-0.4-0.8-1.1-0.7-1.8c0-0.5,0.1-1.1,0.3-1.5C15,12.8,15.3,12.4,15.7,12.1z"/>
			</defs>
			<clipPath id="SVGID_22_">
				<use xlink:href="#SVGID_21_"  style="overflow:visible;"/>
			</clipPath>
			<g class="st16">
				<rect x="-28.9" y="-15.4" class="st1" width="73.3" height="26.3"/>
				<rect x="-28.9" y="10.9" class="st2" width="73.3" height="26.3"/>
				<rect x="-28.9" y="37.2" class="st3" width="73.3" height="26.3"/>
			</g>
		</g>
	</g>
</g>
</svg>
