<svg id="Layer_1" data-name="Layer 1" xmlns="http://www.w3.org/2000/svg" viewBox="0 0 431.34 359.34"><defs><style>.cls-1{opacity:0.5;}</style></defs><title>tool-reader</title><g id="K6XQiH.tif"><path d="M191.72,180q0,62,0,124c0,9.69-5.21,16.67-13.68,18.81-6.85,1.73-12.45-.35-17.27-5.17q-31.12-31.1-62.16-62.27a12.17,12.17,0,0,0-9.6-3.94c-23,.18-46,.1-69,.09-12.61,0-20-7.44-20-20.07q0-52.36,0-104.73C0,118,4.9,111,12.77,108.78a27.9,27.9,0,0,1,7.4-.92q35.37-.1,70.74,0a8.1,8.1,0,0,0,6.36-2.63q31.65-31.8,63.43-63.47c6.71-6.71,15.31-7.71,23.19-2.6,5.91,3.83,7.81,9.72,7.82,16.38q0,38.74,0,77.49Q191.73,156.55,191.72,180Z" transform="translate(0 0)"/><path class="cls-1" d="M308.37,342.23c.09-6.6,2.32-11.43,7.13-14.88,9-6.45,17.92-13,25.92-20.72a183.8,183.8,0,0,0,24.33-28.73,174.2,174.2,0,0,0,29.81-89.39,176.24,176.24,0,0,0-9.52-66.3,172.62,172.62,0,0,0-37.84-62.6,190.22,190.22,0,0,0-32-27c-6.44-4.37-8.74-10.64-7.48-18,1.22-7.21,5.76-11.91,12.78-13.91a17.66,17.66,0,0,1,15,2.56A212.8,212.8,0,0,1,373,33.81a209.36,209.36,0,0,1,52.48,96,176.49,176.49,0,0,1,5.23,34.26c.39,9.46.89,19,.38,28.41a206.23,206.23,0,0,1-12.63,60.4,211.42,211.42,0,0,1-79.41,101.44c-3.34,2.27-6.66,4.24-10.79,4.85C317.1,360.81,307.65,350.86,308.37,342.23Z" transform="translate(0 0)"/><path class="cls-1" d="M268.34,283.36c-.28-7.61,2.49-12.47,7.47-16.41,6.65-5.26,13.66-10.21,19.58-16.21a98.71,98.71,0,0,0,25.77-46.65,103,103,0,0,0-17.49-86,107.12,107.12,0,0,0-27.32-25.37A17.54,17.54,0,0,1,269,72.62a17.4,17.4,0,0,1,26.85-9.5,138.73,138.73,0,0,1,41.31,41.07,134.48,134.48,0,0,1,20.15,51.25,189.54,189.54,0,0,1,2,19.35c1.19,17.62-1.88,34.66-7.69,51.23a134.69,134.69,0,0,1-27.23,45.89A141.8,141.8,0,0,1,296.15,296c-7.44,4.83-15,4.52-21.74-1A15.43,15.43,0,0,1,268.34,283.36Z" transform="translate(0 0)"/><path class="cls-1" d="M244.4,239.1c-7.16.47-14.11-5.08-16.39-11.95a17.53,17.53,0,0,1,5.78-19.3c2.7-2.08,5.75-3.76,8.25-6,15.44-14.08,12.76-37.59-5.45-48.34A18,18,0,0,1,227.32,140c-1.48-9.6,6.31-19.14,16-19.79,5.43-.36,9.93,1.66,14.21,4.54,17,11.47,27.31,27.29,29.51,47.67,2.57,23.84-6.19,43.37-24.63,58.55a47.67,47.67,0,0,1-9,5.88c-2.75,1.36-5.91,1.92-8.89,2.84Z" transform="translate(0 0)"/></g></svg>