<svg id="Layer_1" data-name="Layer 1" xmlns="http://www.w3.org/2000/svg" viewBox="0 0 336.1 336.1"><title>tool-expand</title><g id="XVXgnl.tif"><path d="M64.06,0h46c6.55,0,10,3.48,10,10q0,13.88,0,27.74c0,6.91-3.38,10.33-10.23,10.33h-58c-3.78,0-3.79,0-3.79,3.7q0,29,0,58c0,6.91-3.38,10.31-10.24,10.32H9.37c-5.53,0-9.34-3.68-9.34-9.17Q0,63.81,0,16.71C.05,8,8.22.06,17.08,0,32.74,0,48.4,0,64.06,0Z" transform="translate(0 0)" style="fill:#505050"/><path d="M63.62,336.09q-22.87,0-45.75,0A17.64,17.64,0,0,1,0,318.15q0-46,0-92C0,219.45,3.47,216,10.19,216q14.12,0,28.25,0c6,0,9.64,3.62,9.64,9.66q0,29.37,0,58.75c0,3.56,0,3.58,3.66,3.58h58c6.91,0,10.32,3.38,10.33,10.24q0,13.62,0,27.25c0,7.27-3.28,10.59-10.47,10.59Q86.61,336.11,63.62,336.09Z" transform="translate(0 0)" style="fill:#505050"/><path d="M272.46,0q22.88,0,45.73,0a17.66,17.66,0,0,1,17.89,17.91q0,46.23,0,92.46c0,6.15-3.62,9.69-9.86,9.7H297.5c-5.81,0-9.47-3.67-9.48-9.54q0-29.23,0-58.47c0-4,0-4-4-4H225.78c-6.17,0-9.75-3.57-9.76-9.76q0-14.23,0-28.49C216,3.51,219.57,0,226,0Z" transform="translate(0 0)" style="fill:#505050"/><path d="M336.09,272.17q0,23,0,46a17.73,17.73,0,0,1-17.91,17.93q-46.38,0-92.75,0c-5.67,0-9.39-3.68-9.41-9.37q0-14.62,0-29.25c0-5.83,3.69-9.45,9.6-9.45q29.24,0,58.49,0c3.89,0,3.9,0,3.9-3.85v-58c0-6.71,3.45-10.14,10.17-10.15q14.11,0,28.25,0c6,0,9.65,3.61,9.65,9.65Q336.13,248.92,336.09,272.17Z" transform="translate(0 0)" style="fill:#505050"/></g></svg>